# Blender 5.1.2
# www.blender.org
mtllib BouncePad.mtl
o BouncePad
v -0.360000 -0.500000 0.360000
v -0.360000 -0.360000 0.500000
v -0.500000 -0.360000 0.360000
v -0.360000 -0.489343 0.413576
v -0.360000 -0.458995 0.458995
v -0.413576 -0.489343 0.360000
v -0.414918 -0.476482 0.414918
v -0.412132 -0.451876 0.451876
v -0.440829 -0.440829 0.440829
v -0.413576 -0.360000 0.489343
v -0.458995 -0.360000 0.458995
v -0.360000 -0.413576 0.489343
v -0.414918 -0.414918 0.476482
v -0.451876 -0.412132 0.451876
v -0.489343 -0.413576 0.360000
v -0.458995 -0.458995 0.360000
v -0.489343 -0.360000 0.413576
v -0.476482 -0.414918 0.414918
v -0.451876 -0.451876 0.412132
v -0.360000 0.360000 0.500000
v -0.360000 0.500000 0.360000
v -0.500000 0.360000 0.360000
v -0.360000 0.413576 0.489343
v -0.360000 0.458995 0.458995
v -0.413576 0.360000 0.489343
v -0.414918 0.414918 0.476482
v -0.412132 0.451876 0.451876
v -0.440829 0.440829 0.440829
v -0.413576 0.489343 0.360000
v -0.458995 0.458995 0.360000
v -0.360000 0.489343 0.413576
v -0.414918 0.476482 0.414918
v -0.451876 0.451876 0.412132
v -0.489343 0.360000 0.413576
v -0.458995 0.360000 0.458995
v -0.489343 0.413576 0.360000
v -0.476482 0.414918 0.414918
v -0.451876 0.412132 0.451876
v -0.360000 -0.500000 -0.360000
v -0.500000 -0.360000 -0.360000
v -0.360000 -0.360000 -0.500000
v -0.413576 -0.489343 -0.360000
v -0.458995 -0.458995 -0.360000
v -0.360000 -0.489343 -0.413576
v -0.414918 -0.476482 -0.414918
v -0.451876 -0.451876 -0.412132
v -0.440829 -0.440829 -0.440829
v -0.489343 -0.360000 -0.413576
v -0.458995 -0.360000 -0.458995
v -0.489343 -0.413576 -0.360000
v -0.476482 -0.414918 -0.414918
v -0.451876 -0.412132 -0.451876
v -0.360000 -0.413576 -0.489343
v -0.360000 -0.458995 -0.458995
v -0.413576 -0.360000 -0.489343
v -0.414918 -0.414918 -0.476482
v -0.412132 -0.451876 -0.451876
v -0.360000 0.500000 -0.360000
v -0.360000 0.360000 -0.500000
v -0.500000 0.360000 -0.360000
v -0.360000 0.489343 -0.413576
v -0.360000 0.458995 -0.458995
v -0.413576 0.489343 -0.360000
v -0.414918 0.476482 -0.414918
v -0.412132 0.451876 -0.451876
v -0.440829 0.440829 -0.440829
v -0.413576 0.360000 -0.489343
v -0.458995 0.360000 -0.458995
v -0.360000 0.413576 -0.489343
v -0.414918 0.414918 -0.476482
v -0.451876 0.412132 -0.451876
v -0.489343 0.413576 -0.360000
v -0.458995 0.458995 -0.360000
v -0.489343 0.360000 -0.413576
v -0.476482 0.414918 -0.414918
v -0.451876 0.451876 -0.412132
v 0.360000 -0.500000 0.360000
v 0.500000 -0.360000 0.360000
v 0.360000 -0.360000 0.500000
v 0.413576 -0.489343 0.360000
v 0.458995 -0.458995 0.360000
v 0.360000 -0.489343 0.413576
v 0.414918 -0.476482 0.414918
v 0.451876 -0.451876 0.412132
v 0.440829 -0.440829 0.440829
v 0.489343 -0.360000 0.413576
v 0.458995 -0.360000 0.458995
v 0.489343 -0.413576 0.360000
v 0.476482 -0.414918 0.414918
v 0.451876 -0.412132 0.451876
v 0.360000 -0.413576 0.489343
v 0.360000 -0.458995 0.458995
v 0.413576 -0.360000 0.489343
v 0.414918 -0.414918 0.476482
v 0.412132 -0.451876 0.451876
v 0.360000 0.500000 0.360000
v 0.360000 0.360000 0.500000
v 0.500000 0.360000 0.360000
v 0.360000 0.489343 0.413576
v 0.360000 0.458995 0.458995
v 0.413576 0.489343 0.360000
v 0.414918 0.476482 0.414918
v 0.412132 0.451876 0.451876
v 0.440829 0.440829 0.440829
v 0.413576 0.360000 0.489343
v 0.458995 0.360000 0.458995
v 0.360000 0.413576 0.489343
v 0.414918 0.414918 0.476482
v 0.451876 0.412132 0.451876
v 0.489343 0.413576 0.360000
v 0.458995 0.458995 0.360000
v 0.489343 0.360000 0.413576
v 0.476482 0.414918 0.414918
v 0.451876 0.451876 0.412132
v 0.360000 -0.500000 -0.360000
v 0.360000 -0.360000 -0.500000
v 0.500000 -0.360000 -0.360000
v 0.360000 -0.489343 -0.413576
v 0.360000 -0.458995 -0.458995
v 0.413576 -0.489343 -0.360000
v 0.414918 -0.476482 -0.414918
v 0.412132 -0.451876 -0.451876
v 0.440829 -0.440829 -0.440829
v 0.413576 -0.360000 -0.489343
v 0.458995 -0.360000 -0.458995
v 0.360000 -0.413576 -0.489343
v 0.414918 -0.414918 -0.476482
v 0.451876 -0.412132 -0.451876
v 0.489343 -0.413576 -0.360000
v 0.458995 -0.458995 -0.360000
v 0.489343 -0.360000 -0.413576
v 0.476482 -0.414918 -0.414918
v 0.451876 -0.451876 -0.412132
v 0.360000 0.500000 -0.360000
v 0.500000 0.360000 -0.360000
v 0.360000 0.360000 -0.500000
v 0.413576 0.489343 -0.360000
v 0.458995 0.458995 -0.360000
v 0.360000 0.489343 -0.413576
v 0.414918 0.476482 -0.414918
v 0.451876 0.451876 -0.412132
v 0.440829 0.440829 -0.440829
v 0.489343 0.360000 -0.413576
v 0.458995 0.360000 -0.458995
v 0.489343 0.413576 -0.360000
v 0.476482 0.414918 -0.414918
v 0.451876 0.412132 -0.451876
v 0.360000 0.413576 -0.489343
v 0.360000 0.458995 -0.458995
v 0.413576 0.360000 -0.489343
v 0.414918 0.414918 -0.476482
v 0.412132 0.451876 -0.451876
v -0.205000 0.175000 0.020000
v -0.205000 0.245000 0.090000
v -0.275000 0.245000 0.020000
v -0.205000 0.184352 0.054954
v -0.239954 0.184352 0.020000
v -0.238475 0.193436 0.053475
v -0.239954 0.245000 0.080648
v -0.205000 0.210046 0.080648
v -0.238475 0.211525 0.071564
v -0.265648 0.210046 0.020000
v -0.265648 0.245000 0.054954
v -0.256564 0.211525 0.053475
v -0.205000 0.355000 0.090000
v -0.205000 0.425000 0.020000
v -0.275000 0.355000 0.020000
v -0.205000 0.389954 0.080648
v -0.239954 0.355000 0.080648
v -0.238475 0.388475 0.071564
v -0.239954 0.415648 0.020000
v -0.205000 0.415648 0.054954
v -0.238475 0.406564 0.053475
v -0.265648 0.355000 0.054954
v -0.265648 0.389954 0.020000
v -0.256564 0.388475 0.053475
v -0.205000 0.175000 -0.020000
v -0.275000 0.245000 -0.020000
v -0.205000 0.245000 -0.090000
v -0.239954 0.184352 -0.020000
v -0.205000 0.184352 -0.054954
v -0.238475 0.193436 -0.053475
v -0.265648 0.245000 -0.054954
v -0.265648 0.210046 -0.020000
v -0.256564 0.211525 -0.053475
v -0.205000 0.210046 -0.080648
v -0.239954 0.245000 -0.080648
v -0.238475 0.211525 -0.071564
v -0.205000 0.425000 -0.020000
v -0.205000 0.355000 -0.090000
v -0.275000 0.355000 -0.020000
v -0.205000 0.415648 -0.054954
v -0.239954 0.415648 -0.020000
v -0.238475 0.406564 -0.053475
v -0.239954 0.355000 -0.080648
v -0.205000 0.389954 -0.080648
v -0.238475 0.388475 -0.071564
v -0.265648 0.389954 -0.020000
v -0.265648 0.355000 -0.054954
v -0.256564 0.388475 -0.053475
v 0.205000 0.175000 0.020000
v 0.275000 0.245000 0.020000
v 0.205000 0.245000 0.090000
v 0.239954 0.184352 0.020000
v 0.205000 0.184352 0.054954
v 0.238475 0.193436 0.053475
v 0.265648 0.245000 0.054954
v 0.265648 0.210046 0.020000
v 0.256564 0.211525 0.053475
v 0.205000 0.210046 0.080648
v 0.239954 0.245000 0.080648
v 0.238475 0.211525 0.071564
v 0.205000 0.425000 0.020000
v 0.205000 0.355000 0.090000
v 0.275000 0.355000 0.020000
v 0.205000 0.415648 0.054954
v 0.239954 0.415648 0.020000
v 0.238475 0.406564 0.053475
v 0.239954 0.355000 0.080648
v 0.205000 0.389954 0.080648
v 0.238475 0.388475 0.071564
v 0.265648 0.389954 0.020000
v 0.265648 0.355000 0.054954
v 0.256564 0.388475 0.053475
v 0.205000 0.175000 -0.020000
v 0.205000 0.245000 -0.090000
v 0.275000 0.245000 -0.020000
v 0.205000 0.184352 -0.054954
v 0.239954 0.184352 -0.020000
v 0.238475 0.193436 -0.053475
v 0.239954 0.245000 -0.080648
v 0.205000 0.210046 -0.080648
v 0.238475 0.211525 -0.071564
v 0.265648 0.210046 -0.020000
v 0.265648 0.245000 -0.054954
v 0.256564 0.211525 -0.053475
v 0.205000 0.425000 -0.020000
v 0.275000 0.355000 -0.020000
v 0.205000 0.355000 -0.090000
v 0.239954 0.415648 -0.020000
v 0.205000 0.415648 -0.054954
v 0.238475 0.406564 -0.053475
v 0.265648 0.355000 -0.054954
v 0.265648 0.389954 -0.020000
v 0.256564 0.388475 -0.053475
v 0.205000 0.389954 -0.080648
v 0.239954 0.355000 -0.080648
v 0.238475 0.388475 -0.071564
vn -0.0970 -0.9905 0.0970
vn -0.0970 -0.0970 0.9905
vn -0.9905 -0.0970 0.0970
vn -0.0972 -0.9206 0.3783
vn -0.0919 -0.7041 0.7041
vn -0.3783 -0.9206 0.0972
vn -0.3703 -0.8519 0.3703
vn -0.3266 -0.6683 0.6683
vn -0.5774 -0.5774 0.5774
vn -0.3783 -0.0972 0.9206
vn -0.7041 -0.0919 0.7041
vn -0.0972 -0.3783 0.9206
vn -0.3703 -0.3703 0.8519
vn -0.6683 -0.3266 0.6683
vn -0.9206 -0.3783 0.0972
vn -0.7041 -0.7041 0.0919
vn -0.9206 -0.0972 0.3783
vn -0.8519 -0.3703 0.3703
vn -0.6683 -0.6683 0.3266
vn -0.0970 0.0970 0.9905
vn -0.0970 0.9905 0.0970
vn -0.9905 0.0970 0.0970
vn -0.0972 0.3783 0.9206
vn -0.0919 0.7041 0.7041
vn -0.3783 0.0972 0.9206
vn -0.3703 0.3703 0.8519
vn -0.3266 0.6683 0.6683
vn -0.5774 0.5774 0.5774
vn -0.3783 0.9206 0.0972
vn -0.7041 0.7041 0.0919
vn -0.0972 0.9206 0.3783
vn -0.3703 0.8519 0.3703
vn -0.6683 0.6683 0.3266
vn -0.9206 0.0972 0.3783
vn -0.7041 0.0919 0.7041
vn -0.9206 0.3783 0.0972
vn -0.8519 0.3703 0.3703
vn -0.6683 0.3266 0.6683
vn -0.0970 -0.9905 -0.0970
vn -0.9905 -0.0970 -0.0970
vn -0.0970 -0.0970 -0.9905
vn -0.3783 -0.9206 -0.0972
vn -0.7041 -0.7041 -0.0919
vn -0.0972 -0.9206 -0.3783
vn -0.3703 -0.8519 -0.3703
vn -0.6683 -0.6683 -0.3266
vn -0.5774 -0.5774 -0.5774
vn -0.9206 -0.0972 -0.3783
vn -0.7041 -0.0919 -0.7041
vn -0.9206 -0.3783 -0.0972
vn -0.8519 -0.3703 -0.3703
vn -0.6683 -0.3266 -0.6683
vn -0.0972 -0.3783 -0.9206
vn -0.0919 -0.7041 -0.7041
vn -0.3783 -0.0972 -0.9206
vn -0.3703 -0.3703 -0.8519
vn -0.3266 -0.6683 -0.6683
vn -0.0970 0.9905 -0.0970
vn -0.0970 0.0970 -0.9905
vn -0.9905 0.0970 -0.0970
vn -0.0972 0.9206 -0.3783
vn -0.0919 0.7041 -0.7041
vn -0.3783 0.9206 -0.0972
vn -0.3703 0.8519 -0.3703
vn -0.3266 0.6683 -0.6683
vn -0.5774 0.5774 -0.5774
vn -0.3783 0.0972 -0.9206
vn -0.7041 0.0919 -0.7041
vn -0.0972 0.3783 -0.9206
vn -0.3703 0.3703 -0.8519
vn -0.6683 0.3266 -0.6683
vn -0.9206 0.3783 -0.0972
vn -0.7041 0.7041 -0.0919
vn -0.9206 0.0972 -0.3783
vn -0.8519 0.3703 -0.3703
vn -0.6683 0.6683 -0.3266
vn 0.0970 -0.9905 0.0970
vn 0.9905 -0.0970 0.0970
vn 0.0970 -0.0970 0.9905
vn 0.3783 -0.9206 0.0972
vn 0.7041 -0.7041 0.0919
vn 0.0972 -0.9206 0.3783
vn 0.3703 -0.8519 0.3703
vn 0.6683 -0.6683 0.3266
vn 0.5774 -0.5774 0.5774
vn 0.9206 -0.0972 0.3783
vn 0.7041 -0.0919 0.7041
vn 0.9206 -0.3783 0.0972
vn 0.8519 -0.3703 0.3703
vn 0.6683 -0.3266 0.6683
vn 0.0972 -0.3783 0.9206
vn 0.0919 -0.7041 0.7041
vn 0.3783 -0.0972 0.9206
vn 0.3703 -0.3703 0.8519
vn 0.3266 -0.6683 0.6683
vn 0.0970 0.9905 0.0970
vn 0.0970 0.0970 0.9905
vn 0.9905 0.0970 0.0970
vn 0.0972 0.9206 0.3783
vn 0.0919 0.7041 0.7041
vn 0.3783 0.9206 0.0972
vn 0.3703 0.8519 0.3703
vn 0.3266 0.6683 0.6683
vn 0.5774 0.5774 0.5774
vn 0.3783 0.0972 0.9206
vn 0.7041 0.0919 0.7041
vn 0.0972 0.3783 0.9206
vn 0.3703 0.3703 0.8519
vn 0.6683 0.3266 0.6683
vn 0.9206 0.3783 0.0972
vn 0.7041 0.7041 0.0919
vn 0.9206 0.0972 0.3783
vn 0.8519 0.3703 0.3703
vn 0.6683 0.6683 0.3266
vn 0.0970 -0.9905 -0.0970
vn 0.0970 -0.0970 -0.9905
vn 0.9905 -0.0970 -0.0970
vn 0.0972 -0.9206 -0.3783
vn 0.0919 -0.7041 -0.7041
vn 0.3783 -0.9206 -0.0972
vn 0.3703 -0.8519 -0.3703
vn 0.3266 -0.6683 -0.6683
vn 0.5774 -0.5774 -0.5774
vn 0.3783 -0.0972 -0.9206
vn 0.7041 -0.0919 -0.7041
vn 0.0972 -0.3783 -0.9206
vn 0.3703 -0.3703 -0.8519
vn 0.6683 -0.3266 -0.6683
vn 0.9206 -0.3783 -0.0972
vn 0.7041 -0.7041 -0.0919
vn 0.9206 -0.0972 -0.3783
vn 0.8519 -0.3703 -0.3703
vn 0.6683 -0.6683 -0.3266
vn 0.0970 0.9905 -0.0970
vn 0.9905 0.0970 -0.0970
vn 0.0970 0.0970 -0.9905
vn 0.3783 0.9206 -0.0972
vn 0.7041 0.7041 -0.0919
vn 0.0972 0.9206 -0.3783
vn 0.3703 0.8519 -0.3703
vn 0.6683 0.6683 -0.3266
vn 0.5774 0.5774 -0.5774
vn 0.9206 0.0972 -0.3783
vn 0.7041 0.0919 -0.7041
vn 0.9206 0.3783 -0.0972
vn 0.8519 0.3703 -0.3703
vn 0.6683 0.3266 -0.6683
vn 0.0972 0.3783 -0.9206
vn 0.0919 0.7041 -0.7041
vn 0.3783 0.0972 -0.9206
vn 0.3703 0.3703 -0.8519
vn 0.3266 0.6683 -0.6683
vn -0.1280 -0.9835 0.1280
vn -0.1280 -0.1280 0.9835
vn -0.9835 -0.1280 0.1280
vn -0.1216 -0.8623 0.4916
vn -0.4916 -0.8623 0.1216
vn -0.4488 -0.7727 0.4488
vn -0.4916 -0.1216 0.8623
vn -0.1216 -0.4916 0.8623
vn -0.4488 -0.4488 0.7727
vn -0.8623 -0.4916 0.1216
vn -0.8623 -0.1216 0.4916
vn -0.7727 -0.4488 0.4488
vn -0.1280 0.1280 0.9835
vn -0.1280 0.9835 0.1280
vn -0.9835 0.1280 0.1280
vn -0.1216 0.4916 0.8623
vn -0.4916 0.1216 0.8623
vn -0.4488 0.4488 0.7727
vn -0.4916 0.8623 0.1216
vn -0.1216 0.8623 0.4916
vn -0.4488 0.7727 0.4488
vn -0.8623 0.1216 0.4916
vn -0.8623 0.4916 0.1216
vn -0.7727 0.4488 0.4488
vn -0.1280 -0.9835 -0.1280
vn -0.9835 -0.1280 -0.1280
vn -0.1280 -0.1280 -0.9835
vn -0.4916 -0.8623 -0.1216
vn -0.1216 -0.8623 -0.4916
vn -0.4488 -0.7727 -0.4488
vn -0.8623 -0.1216 -0.4916
vn -0.8623 -0.4916 -0.1216
vn -0.7727 -0.4488 -0.4488
vn -0.1216 -0.4916 -0.8623
vn -0.4916 -0.1216 -0.8623
vn -0.4488 -0.4488 -0.7727
vn -0.1280 0.9835 -0.1280
vn -0.1280 0.1280 -0.9835
vn -0.9835 0.1280 -0.1280
vn -0.1216 0.8623 -0.4916
vn -0.4916 0.8623 -0.1216
vn -0.4488 0.7727 -0.4488
vn -0.4916 0.1216 -0.8623
vn -0.1216 0.4916 -0.8623
vn -0.4488 0.4488 -0.7727
vn -0.8623 0.4916 -0.1216
vn -0.8623 0.1216 -0.4916
vn -0.7727 0.4488 -0.4488
vn 0.1280 -0.9835 0.1280
vn 0.9835 -0.1280 0.1280
vn 0.1280 -0.1280 0.9835
vn 0.4916 -0.8623 0.1216
vn 0.1216 -0.8623 0.4916
vn 0.4488 -0.7727 0.4488
vn 0.8623 -0.1216 0.4916
vn 0.8623 -0.4916 0.1216
vn 0.7727 -0.4488 0.4488
vn 0.1216 -0.4916 0.8623
vn 0.4916 -0.1216 0.8623
vn 0.4488 -0.4488 0.7727
vn 0.1280 0.9835 0.1280
vn 0.1280 0.1280 0.9835
vn 0.9835 0.1280 0.1280
vn 0.1216 0.8623 0.4916
vn 0.4916 0.8623 0.1216
vn 0.4488 0.7727 0.4488
vn 0.4916 0.1216 0.8623
vn 0.1216 0.4916 0.8623
vn 0.4488 0.4488 0.7727
vn 0.8623 0.4916 0.1216
vn 0.8623 0.1216 0.4916
vn 0.7727 0.4488 0.4488
vn 0.1280 -0.9835 -0.1280
vn 0.1280 -0.1280 -0.9835
vn 0.9835 -0.1280 -0.1280
vn 0.1216 -0.8623 -0.4916
vn 0.4916 -0.8623 -0.1216
vn 0.4488 -0.7727 -0.4488
vn 0.4916 -0.1216 -0.8623
vn 0.1216 -0.4916 -0.8623
vn 0.4488 -0.4488 -0.7727
vn 0.8623 -0.4916 -0.1216
vn 0.8623 -0.1216 -0.4916
vn 0.7727 -0.4488 -0.4488
vn 0.1280 0.9835 -0.1280
vn 0.9835 0.1280 -0.1280
vn 0.1280 0.1280 -0.9835
vn 0.4916 0.8623 -0.1216
vn 0.1216 0.8623 -0.4916
vn 0.4488 0.7727 -0.4488
vn 0.8623 0.1216 -0.4916
vn 0.8623 0.4916 -0.1216
vn 0.7727 0.4488 -0.4489
vn 0.1216 0.4916 -0.8623
vn 0.4916 0.1216 -0.8623
vn 0.4488 0.4488 -0.7727
vt 0.160000 0.728394
vt 0.146606 0.715000
vt 0.160000 0.715000
vt 0.160000 0.750000
vt 0.146270 0.728730
vt 0.125000 0.715000
vt 0.139793 0.750000
vt 0.125000 0.728033
vt 0.410000 0.978394
vt 0.396606 0.965000
vt 0.410000 0.965000
vt 0.410000 1.000000
vt 0.396270 0.978730
vt 0.375000 0.965000
vt 0.389793 1.000000
vt 0.375000 0.978033
vt 0.396606 0.035000
vt 0.410000 0.021606
vt 0.410000 0.035000
vt 0.375000 0.035000
vt 0.396270 0.021270
vt 0.410000 0.000000
vt 0.375000 0.014793
vt 0.396967 0.000000
vt 0.603394 0.965000
vt 0.590000 0.978394
vt 0.590000 0.965000
vt 0.625000 0.965000
vt 0.603730 0.978730
vt 0.590000 1.000000
vt 0.625000 0.985207
vt 0.603033 1.000000
vt 0.853394 0.715000
vt 0.840000 0.728394
vt 0.840000 0.715000
vt 0.875000 0.715000
vt 0.853730 0.728730
vt 0.840000 0.750000
vt 0.875000 0.735207
vt 0.853033 0.750000
vt 0.590000 0.021606
vt 0.603394 0.035000
vt 0.590000 0.035000
vt 0.590000 0.000000
vt 0.603730 0.021270
vt 0.625000 0.035000
vt 0.610207 0.000000
vt 0.625000 0.021967
vt 0.146606 0.535000
vt 0.160000 0.521606
vt 0.160000 0.535000
vt 0.125000 0.535000
vt 0.146270 0.521270
vt 0.160000 0.500000
vt 0.125000 0.514793
vt 0.146967 0.500000
vt 0.410000 0.228394
vt 0.396606 0.215000
vt 0.410000 0.215000
vt 0.410000 0.250000
vt 0.396270 0.228730
vt 0.375000 0.215000
vt 0.382396 0.257396
vt 0.375000 0.228033
vt 0.396606 0.285000
vt 0.410000 0.271606
vt 0.410000 0.285000
vt 0.375000 0.285000
vt 0.396270 0.271270
vt 0.396967 0.250000
vt 0.840000 0.521606
vt 0.853394 0.535000
vt 0.840000 0.535000
vt 0.840000 0.500000
vt 0.853730 0.521270
vt 0.875000 0.535000
vt 0.860207 0.500000
vt 0.875000 0.521967
vt 0.590000 0.271606
vt 0.603394 0.285000
vt 0.590000 0.285000
vt 0.590000 0.250000
vt 0.603730 0.271270
vt 0.625000 0.285000
vt 0.617604 0.242604
vt 0.625000 0.271967
vt 0.603394 0.215000
vt 0.590000 0.228394
vt 0.590000 0.215000
vt 0.625000 0.215000
vt 0.603730 0.228730
vt 0.603033 0.250000
vt 0.353394 0.715000
vt 0.340000 0.728394
vt 0.340000 0.715000
vt 0.375000 0.715000
vt 0.353730 0.728730
vt 0.357500 0.767500
vt 0.379931 0.750000
vt 0.364017 0.760984
vt 0.410000 0.728394
vt 0.396606 0.715000
vt 0.410000 0.715000
vt 0.410000 0.750000
vt 0.396270 0.728730
vt 0.375000 0.728033
vt 0.396606 0.785000
vt 0.410000 0.771606
vt 0.410000 0.785000
vt 0.396270 0.771270
vt 0.396967 0.750000
vt 0.660000 0.728394
vt 0.646606 0.715000
vt 0.660000 0.715000
vt 0.642500 0.767500
vt 0.646270 0.728730
vt 0.625000 0.715000
vt 0.625000 0.745069
vt 0.625000 0.728033
vt 0.590000 0.771606
vt 0.603394 0.785000
vt 0.590000 0.785000
vt 0.590000 0.750000
vt 0.603730 0.771270
vt 0.635983 0.760983
vt 0.603394 0.715000
vt 0.590000 0.728394
vt 0.590000 0.715000
vt 0.603730 0.728730
vt 0.603033 0.750000
vt 0.340000 0.521606
vt 0.353394 0.535000
vt 0.340000 0.535000
vt 0.357500 0.482500
vt 0.353730 0.521270
vt 0.375000 0.535000
vt 0.375000 0.504931
vt 0.375000 0.521967
vt 0.410000 0.478394
vt 0.396606 0.465000
vt 0.410000 0.465000
vt 0.410000 0.500000
vt 0.396270 0.478730
vt 0.364017 0.489016
vt 0.396606 0.535000
vt 0.410000 0.521606
vt 0.410000 0.535000
vt 0.396270 0.521270
vt 0.396967 0.500000
vt 0.646606 0.535000
vt 0.660000 0.521606
vt 0.660000 0.535000
vt 0.625000 0.535000
vt 0.646270 0.521270
vt 0.642500 0.482500
vt 0.620069 0.500000
vt 0.635983 0.489016
vt 0.590000 0.521606
vt 0.603394 0.535000
vt 0.590000 0.535000
vt 0.590000 0.500000
vt 0.603730 0.521270
vt 0.625000 0.521967
vt 0.603394 0.465000
vt 0.590000 0.478394
vt 0.590000 0.465000
vt 0.603730 0.478730
vt 0.603033 0.500000
vt 0.156818 0.701325
vt 0.140930 0.652778
vt 0.156818 0.652778
vt 0.141602 0.750000
vt 0.141602 0.699271
vt 0.445000 1.000000
vt 0.375000 0.968182
vt 0.445000 0.968182
vt 0.445000 0.048675
vt 0.375000 0.000000
vt 0.445000 0.000000
vt 0.375000 0.097222
vt 0.445000 0.097222
vt 0.125000 0.699271
vt 0.125000 0.652778
vt 0.589954 0.968182
vt 0.555000 1.000000
vt 0.555000 0.968182
vt 0.625000 0.968182
vt 0.588475 1.000000
vt 0.875000 0.652778
vt 0.843182 0.750000
vt 0.843182 0.652778
vt 0.589954 0.097222
vt 0.625000 0.050729
vt 0.625000 0.097222
vt 0.555000 0.048675
vt 0.555000 0.097222
vt 0.555000 0.000000
vt 0.588475 0.050729
vt 0.588475 0.000000
vt 0.140930 0.597222
vt 0.156818 0.548675
vt 0.156818 0.597222
vt 0.125000 0.550729
vt 0.141602 0.550729
vt 0.445000 0.201325
vt 0.375000 0.152778
vt 0.445000 0.152778
vt 0.445000 0.265930
vt 0.375000 0.199271
vt 0.375000 0.281818
vt 0.445000 0.281818
vt 0.141602 0.500000
vt 0.156818 0.500000
vt 0.843182 0.500000
vt 0.875000 0.597222
vt 0.843182 0.597222
vt 0.625000 0.281818
vt 0.588475 0.256050
vt 0.625000 0.216180
vt 0.555000 0.265930
vt 0.589954 0.281818
vt 0.555000 0.281818
vt 0.555000 0.201325
vt 0.589954 0.152778
vt 0.555000 0.152778
vt 0.625000 0.152778
vt 0.588475 0.199271
vt 0.359070 0.652778
vt 0.343182 0.701325
vt 0.343182 0.652778
vt 0.400299 0.699271
vt 0.358398 0.699270
vt 0.445000 0.701325
vt 0.410046 0.652778
vt 0.445000 0.652778
vt 0.445000 0.765930
vt 0.359091 0.765909
vt 0.445000 0.781818
vt 0.366699 0.758301
vt 0.640909 0.765909
vt 0.640930 0.652778
vt 0.656818 0.652778
vt 0.588475 0.766602
vt 0.633301 0.758301
vt 0.555000 0.765930
vt 0.589954 0.781818
vt 0.555000 0.781818
vt 0.555000 0.701325
vt 0.589954 0.652778
vt 0.555000 0.652778
vt 0.588475 0.714048
vt 0.343182 0.548675
vt 0.359070 0.597222
vt 0.343182 0.597222
vt 0.366699 0.491699
vt 0.358398 0.550729
vt 0.445000 0.484070
vt 0.359091 0.484091
vt 0.445000 0.468182
vt 0.445000 0.548675
vt 0.410046 0.597222
vt 0.445000 0.597222
vt 0.400299 0.550729
vt 0.640930 0.597222
vt 0.640909 0.484091
vt 0.656818 0.597222
vt 0.589954 0.597222
vt 0.633301 0.491699
vt 0.555000 0.548675
vt 0.555000 0.597222
vt 0.555000 0.484070
vt 0.588475 0.535952
vt 0.589954 0.468182
vt 0.555000 0.468182
vt 0.588475 0.483398
vt 0.125000 0.597222
vt 0.156818 0.750000
vt 0.146967 0.750000
vt 0.396967 1.000000
vt 0.375000 0.021967
vt 0.625000 0.978033
vt 0.875000 0.728033
vt 0.603033 0.000000
vt 0.125000 0.521967
vt 0.375000 0.271967
vt 0.853033 0.500000
vt 0.625000 0.228033
vt 0.375000 0.983398
vt 0.375000 0.050729
vt 0.625000 1.000000
vt 0.875000 0.699271
vt 0.375000 0.266602
vt 0.875000 0.550729
s 1
usemtl Pad_Body
f 4/1/4 6/2/6 1/3/1
f 5/4/5 7/5/7 4/1/4
f 7/5/7 16/6/16 6/2/6
f 7/5/7 9/7/9 19/8/19
f 10/9/10 12/10/12 2/11/2
f 11/12/11 13/13/13 10/9/10
f 13/13/13 5/14/5 12/10/12
f 13/13/13 9/15/9 8/16/8
f 15/17/15 17/18/17 3/19/3
f 16/20/16 18/21/18 15/17/15
f 18/21/18 11/22/11 17/18/17
f 18/21/18 9/23/9 14/24/14
f 23/25/23 25/26/25 20/27/20
f 24/28/24 26/29/26 23/25/23
f 26/29/26 35/30/35 25/26/25
f 26/29/26 28/31/28 38/32/38
f 29/33/29 31/34/31 21/35/21
f 30/36/30 32/37/32 29/33/29
f 32/37/32 24/38/24 31/34/31
f 32/37/32 28/39/28 27/40/27
f 34/41/34 36/42/36 22/43/22
f 35/44/35 37/45/37 34/41/34
f 37/45/37 30/46/30 36/42/36
f 37/45/37 28/47/28 33/48/33
f 42/49/42 44/50/44 39/51/39
f 43/52/43 45/53/45 42/49/42
f 45/53/45 54/54/54 44/50/44
f 45/53/45 47/55/47 57/56/57
f 48/57/48 50/58/50 40/59/40
f 49/60/49 51/61/51 48/57/48
f 51/61/51 43/62/43 50/58/50
f 51/61/51 47/63/47 46/64/46
f 53/65/53 55/66/55 41/67/41
f 54/68/54 56/69/56 53/65/53
f 56/69/56 49/60/49 55/66/55
f 56/69/56 47/63/47 52/70/52
f 61/71/61 63/72/63 58/73/58
f 62/74/62 64/75/64 61/71/61
f 64/75/64 73/76/73 63/72/63
f 64/75/64 66/77/66 76/78/76
f 67/79/67 69/80/69 59/81/59
f 68/82/68 70/83/70 67/79/67
f 70/83/70 62/84/62 69/80/69
f 70/83/70 66/85/66 65/86/65
f 72/87/72 74/88/74 60/89/60
f 73/90/73 75/91/75 72/87/72
f 75/91/75 68/82/68 74/88/74
f 75/91/75 66/85/66 71/92/71
f 80/93/80 82/94/82 77/95/77
f 81/96/81 83/97/83 80/93/80
f 83/97/83 92/98/92 82/94/82
f 83/97/83 85/99/85 95/100/95
f 86/101/86 88/102/88 78/103/78
f 87/104/87 89/105/89 86/101/86
f 89/105/89 81/96/81 88/102/88
f 89/105/89 85/99/85 84/106/84
f 91/107/91 93/108/93 79/109/79
f 92/98/92 94/110/94 91/107/91
f 94/110/94 87/104/87 93/108/93
f 94/110/94 85/99/85 90/111/90
f 99/112/99 101/113/101 96/114/96
f 100/115/100 102/116/102 99/112/99
f 102/116/102 111/117/111 101/113/101
f 102/116/102 104/118/104 114/119/114
f 105/120/105 107/121/107 97/122/97
f 106/123/106 108/124/108 105/120/105
f 108/124/108 100/115/100 107/121/107
f 108/124/108 104/118/104 103/125/103
f 110/126/110 112/127/112 98/128/98
f 111/117/111 113/129/113 110/126/110
f 113/129/113 106/123/106 112/127/112
f 113/129/113 104/118/104 109/130/109
f 118/131/118 120/132/120 115/133/115
f 119/134/119 121/135/121 118/131/118
f 121/135/121 130/136/130 120/132/120
f 121/135/121 123/137/123 133/138/133
f 124/139/124 126/140/126 116/141/116
f 125/142/125 127/143/127 124/139/124
f 127/143/127 119/134/119 126/140/126
f 127/143/127 123/137/123 122/144/122
f 129/145/129 131/146/131 117/147/117
f 130/136/130 132/148/132 129/145/129
f 132/148/132 125/142/125 131/146/131
f 132/148/132 123/137/123 128/149/128
f 137/150/137 139/151/139 134/152/134
f 138/153/138 140/154/140 137/150/137
f 140/154/140 149/155/149 139/151/139
f 140/154/140 142/156/142 152/157/152
f 143/158/143 145/159/145 135/160/135
f 144/161/144 146/162/146 143/158/143
f 146/162/146 138/153/138 145/159/145
f 146/162/146 142/156/142 141/163/141
f 148/164/148 150/165/150 136/166/136
f 149/155/149 151/167/151 148/164/148
f 151/167/151 144/161/144 150/165/150
f 151/167/151 142/156/142 147/168/147
f 1/3/1 42/49/42 39/51/39
f 6/2/6 43/52/43 42/49/42
f 16/20/16 50/58/50 43/62/43
f 15/17/15 40/59/40 50/58/50
f 20/27/20 10/9/10 2/11/2
f 25/26/25 11/12/11 10/9/10
f 35/44/35 17/18/17 11/22/11
f 34/41/34 3/19/3 17/18/17
f 58/73/58 29/33/29 21/35/21
f 63/72/63 30/36/30 29/33/29
f 73/90/73 36/42/36 30/46/30
f 72/87/72 22/43/22 36/42/36
f 41/67/41 67/79/67 59/81/59
f 55/66/55 68/82/68 67/79/67
f 49/60/49 74/88/74 68/82/68
f 48/57/48 60/89/60 74/88/74
f 39/51/39 118/131/118 115/133/115
f 44/50/44 119/134/119 118/131/118
f 54/68/54 126/140/126 119/134/119
f 53/65/53 116/141/116 126/140/126
f 134/152/134 61/71/61 58/73/58
f 139/151/139 62/74/62 61/71/61
f 149/155/149 69/80/69 62/84/62
f 148/164/148 59/81/59 69/80/69
f 117/147/117 143/158/143 135/160/135
f 131/146/131 144/161/144 143/158/143
f 125/142/125 150/165/150 144/161/144
f 124/139/124 136/166/136 150/165/150
f 115/133/115 80/93/80 77/95/77
f 120/132/120 81/96/81 80/93/80
f 130/136/130 88/102/88 81/96/81
f 129/145/129 78/103/78 88/102/88
f 96/114/96 137/150/137 134/152/134
f 101/113/101 138/153/138 137/150/137
f 111/117/111 145/159/145 138/153/138
f 110/126/110 135/160/135 145/159/145
f 79/109/79 105/120/105 97/122/97
f 93/108/93 106/123/106 105/120/105
f 87/104/87 112/127/112 106/123/106
f 86/101/86 98/128/98 112/127/112
f 77/95/77 4/1/4 1/3/1
f 82/94/82 5/4/5 4/1/4
f 92/98/92 12/10/12 5/14/5
f 91/107/91 2/11/2 12/10/12
f 21/35/21 99/112/99 96/114/96
f 31/34/31 100/115/100 99/112/99
f 24/28/24 107/121/107 100/115/100
f 23/25/23 97/122/97 107/121/107
f 115/133/115 1/3/1 39/51/39
f 22/43/22 40/59/40 3/19/3
f 97/122/97 2/11/2 79/109/79
f 58/73/58 96/114/96 134/152/134
f 59/81/59 116/141/116 41/67/41
f 135/160/135 78/103/78 117/147/117
f 4/1/4 7/5/7 6/2/6
f 5/4/5 8/278/8 7/5/7
f 7/5/7 19/8/19 16/6/16
f 7/5/7 8/278/8 9/7/9
f 10/9/10 13/13/13 12/10/12
f 11/12/11 14/279/14 13/13/13
f 13/13/13 8/16/8 5/14/5
f 13/13/13 14/279/14 9/15/9
f 15/17/15 18/21/18 17/18/17
f 16/20/16 19/280/19 18/21/18
f 18/21/18 14/24/14 11/22/11
f 18/21/18 19/280/19 9/23/9
f 23/25/23 26/29/26 25/26/25
f 24/28/24 27/281/27 26/29/26
f 26/29/26 38/32/38 35/30/35
f 26/29/26 27/281/27 28/31/28
f 29/33/29 32/37/32 31/34/31
f 30/36/30 33/282/33 32/37/32
f 32/37/32 27/40/27 24/38/24
f 32/37/32 33/282/33 28/39/28
f 34/41/34 37/45/37 36/42/36
f 35/44/35 38/283/38 37/45/37
f 37/45/37 33/48/33 30/46/30
f 37/45/37 38/283/38 28/47/28
f 42/49/42 45/53/45 44/50/44
f 43/52/43 46/284/46 45/53/45
f 45/53/45 57/56/57 54/54/54
f 45/53/45 46/284/46 47/55/47
f 48/57/48 51/61/51 50/58/50
f 49/60/49 52/70/52 51/61/51
f 51/61/51 46/64/46 43/62/43
f 51/61/51 52/70/52 47/63/47
f 53/65/53 56/69/56 55/66/55
f 54/68/54 57/285/57 56/69/56
f 56/69/56 52/70/52 49/60/49
f 56/69/56 57/285/57 47/63/47
f 61/71/61 64/75/64 63/72/63
f 62/74/62 65/286/65 64/75/64
f 64/75/64 76/78/76 73/76/73
f 64/75/64 65/286/65 66/77/66
f 67/79/67 70/83/70 69/80/69
f 68/82/68 71/92/71 70/83/70
f 70/83/70 65/86/65 62/84/62
f 70/83/70 71/92/71 66/85/66
f 72/87/72 75/91/75 74/88/74
f 73/90/73 76/287/76 75/91/75
f 75/91/75 71/92/71 68/82/68
f 75/91/75 76/287/76 66/85/66
f 80/93/80 83/97/83 82/94/82
f 81/96/81 84/106/84 83/97/83
f 83/97/83 95/100/95 92/98/92
f 83/97/83 84/106/84 85/99/85
f 86/101/86 89/105/89 88/102/88
f 87/104/87 90/111/90 89/105/89
f 89/105/89 84/106/84 81/96/81
f 89/105/89 90/111/90 85/99/85
f 91/107/91 94/110/94 93/108/93
f 92/98/92 95/100/95 94/110/94
f 94/110/94 90/111/90 87/104/87
f 94/110/94 95/100/95 85/99/85
f 99/112/99 102/116/102 101/113/101
f 100/115/100 103/125/103 102/116/102
f 102/116/102 114/119/114 111/117/111
f 102/116/102 103/125/103 104/118/104
f 105/120/105 108/124/108 107/121/107
f 106/123/106 109/130/109 108/124/108
f 108/124/108 103/125/103 100/115/100
f 108/124/108 109/130/109 104/118/104
f 110/126/110 113/129/113 112/127/112
f 111/117/111 114/119/114 113/129/113
f 113/129/113 109/130/109 106/123/106
f 113/129/113 114/119/114 104/118/104
f 118/131/118 121/135/121 120/132/120
f 119/134/119 122/144/122 121/135/121
f 121/135/121 133/138/133 130/136/130
f 121/135/121 122/144/122 123/137/123
f 124/139/124 127/143/127 126/140/126
f 125/142/125 128/149/128 127/143/127
f 127/143/127 122/144/122 119/134/119
f 127/143/127 128/149/128 123/137/123
f 129/145/129 132/148/132 131/146/131
f 130/136/130 133/138/133 132/148/132
f 132/148/132 128/149/128 125/142/125
f 132/148/132 133/138/133 123/137/123
f 137/150/137 140/154/140 139/151/139
f 138/153/138 141/163/141 140/154/140
f 140/154/140 152/157/152 149/155/149
f 140/154/140 141/163/141 142/156/142
f 143/158/143 146/162/146 145/159/145
f 144/161/144 147/168/147 146/162/146
f 146/162/146 141/163/141 138/153/138
f 146/162/146 147/168/147 142/156/142
f 148/164/148 151/167/151 150/165/150
f 149/155/149 152/157/152 151/167/151
f 151/167/151 147/168/147 144/161/144
f 151/167/151 152/157/152 142/156/142
f 1/3/1 6/2/6 42/49/42
f 6/2/6 16/6/16 43/52/43
f 16/20/16 15/17/15 50/58/50
f 15/17/15 3/19/3 40/59/40
f 20/27/20 25/26/25 10/9/10
f 25/26/25 35/30/35 11/12/11
f 35/44/35 34/41/34 17/18/17
f 34/41/34 22/43/22 3/19/3
f 58/73/58 63/72/63 29/33/29
f 63/72/63 73/76/73 30/36/30
f 73/90/73 72/87/72 36/42/36
f 72/87/72 60/89/60 22/43/22
f 41/67/41 55/66/55 67/79/67
f 55/66/55 49/60/49 68/82/68
f 49/60/49 48/57/48 74/88/74
f 48/57/48 40/59/40 60/89/60
f 39/51/39 44/50/44 118/131/118
f 44/50/44 54/54/54 119/134/119
f 54/68/54 53/65/53 126/140/126
f 53/65/53 41/67/41 116/141/116
f 134/152/134 139/151/139 61/71/61
f 139/151/139 149/155/149 62/74/62
f 149/155/149 148/164/148 69/80/69
f 148/164/148 136/166/136 59/81/59
f 117/147/117 131/146/131 143/158/143
f 131/146/131 125/142/125 144/161/144
f 125/142/125 124/139/124 150/165/150
f 124/139/124 116/141/116 136/166/136
f 115/133/115 120/132/120 80/93/80
f 120/132/120 130/136/130 81/96/81
f 130/136/130 129/145/129 88/102/88
f 129/145/129 117/147/117 78/103/78
f 96/114/96 101/113/101 137/150/137
f 101/113/101 111/117/111 138/153/138
f 111/117/111 110/126/110 145/159/145
f 110/126/110 98/128/98 135/160/135
f 79/109/79 93/108/93 105/120/105
f 93/108/93 87/104/87 106/123/106
f 87/104/87 86/101/86 112/127/112
f 86/101/86 78/103/78 98/128/98
f 77/95/77 82/94/82 4/1/4
f 82/94/82 92/98/92 5/4/5
f 92/98/92 91/107/91 12/10/12
f 91/107/91 79/109/79 2/11/2
f 21/35/21 31/34/31 99/112/99
f 31/34/31 24/38/24 100/115/100
f 24/28/24 23/25/23 107/121/107
f 23/25/23 20/27/20 97/122/97
f 115/133/115 77/95/77 1/3/1
f 22/43/22 60/89/60 40/59/40
f 97/122/97 20/27/20 2/11/2
f 58/73/58 21/35/21 96/114/96
f 59/81/59 136/166/136 116/141/116
f 135/160/135 98/128/98 78/103/78
usemtl Accent
f 156/169/156 157/170/157 153/171/153
f 156/169/156 161/172/161 158/173/158
f 159/174/159 160/175/160 154/176/154
f 163/177/163 161/178/161 159/179/159
f 162/180/162 163/177/163 155/181/155
f 157/170/157 164/182/164 162/183/162
f 158/173/158 161/172/161 164/182/164
f 168/184/168 169/185/169 165/186/165
f 172/187/172 170/188/170 168/184/168
f 171/189/171 172/190/172 166/191/166
f 175/192/175 173/193/173 171/194/171
f 174/195/174 175/192/175 167/196/167
f 169/197/169 176/198/176 174/195/174
f 170/199/170 173/193/173 176/198/176
f 180/200/180 181/201/181 177/202/177
f 180/200/180 185/203/185 182/204/182
f 183/205/183 184/206/184 178/207/178
f 187/208/187 185/209/185 183/205/183
f 186/210/186 187/208/187 179/211/179
f 181/201/181 188/212/188 186/213/186
f 182/204/182 185/203/185 188/212/188
f 192/214/192 193/215/193 189/216/189
f 192/217/192 197/218/197 194/219/194
f 195/220/195 196/221/196 190/222/190
f 199/223/199 197/218/197 195/220/195
f 198/224/198 199/223/199 191/225/191
f 193/226/193 200/227/200 198/224/198
f 194/219/194 197/218/197 200/227/200
f 204/228/204 205/229/205 201/230/201
f 204/228/204 209/231/209 206/232/206
f 207/233/207 208/234/208 202/235/202
f 211/236/211 209/231/209 207/233/207
f 210/237/210 211/236/211 203/238/203
f 205/229/205 212/239/212 210/237/210
f 206/232/206 209/231/209 212/239/212
f 216/240/216 217/241/217 213/242/213
f 216/240/216 221/243/221 218/244/218
f 219/245/219 220/246/220 214/247/214
f 223/248/223 221/243/221 219/245/219
f 222/249/222 223/248/223 215/250/215
f 217/241/217 224/251/224 222/249/222
f 218/244/218 221/243/221 224/251/224
f 228/252/228 229/253/229 225/254/225
f 228/252/228 233/255/233 230/256/230
f 231/257/231 232/258/232 226/259/226
f 235/260/235 233/255/233 231/257/231
f 234/261/234 235/260/235 227/262/227
f 229/253/229 236/263/236 234/261/234
f 230/256/230 233/255/233 236/263/236
f 240/264/240 241/265/241 237/266/237
f 244/267/244 242/268/242 240/264/240
f 243/269/243 244/267/244 238/270/238
f 247/271/247 245/272/245 243/269/243
f 246/273/246 247/271/247 239/274/239
f 241/265/241 248/275/248 246/273/246
f 242/268/242 245/272/245 248/275/248
f 153/171/153 180/200/180 177/202/177
f 157/170/157 184/276/184 180/200/180
f 162/180/162 178/207/178 184/206/184
f 165/186/165 159/174/159 154/176/154
f 169/197/169 163/177/163 159/179/159
f 174/195/174 155/181/155 163/177/163
f 189/216/189 171/189/171 166/191/166
f 193/226/193 175/192/175 171/194/171
f 198/224/198 167/196/167 175/192/175
f 179/211/179 195/220/195 190/222/190
f 187/208/187 199/223/199 195/220/195
f 183/205/183 191/225/191 199/223/199
f 177/202/177 228/252/228 225/254/225
f 181/201/181 232/258/232 228/252/228
f 232/258/232 179/211/179 226/259/226
f 189/216/189 241/265/241 192/214/192
f 241/265/241 196/221/196 192/217/192
f 246/273/246 190/222/190 196/221/196
f 227/262/227 243/269/243 238/270/238
f 235/260/235 247/271/247 243/269/243
f 231/257/231 239/274/239 247/271/247
f 225/254/225 204/228/204 201/230/201
f 229/253/229 208/234/208 204/228/204
f 234/261/234 202/235/202 208/234/208
f 213/242/213 240/264/240 237/266/237
f 217/241/217 244/267/244 240/264/240
f 222/249/222 238/270/238 244/267/244
f 203/238/203 219/245/219 214/247/214
f 211/236/211 223/248/223 219/245/219
f 207/233/207 215/250/215 223/248/223
f 201/230/201 156/169/156 153/171/153
f 205/229/205 160/277/160 156/169/156
f 160/175/160 203/238/203 154/176/154
f 213/242/213 172/190/172 216/240/216
f 172/187/172 220/246/220 216/240/216
f 168/184/168 214/247/214 220/246/220
f 225/254/225 153/171/153 177/202/177
f 155/181/155 191/225/191 178/207/178
f 214/247/214 154/176/154 203/238/203
f 189/216/189 213/242/213 237/266/237
f 190/222/190 226/259/226 179/211/179
f 227/262/227 215/250/215 202/235/202
f 156/169/156 158/173/158 157/170/157
f 156/169/156 160/277/160 161/172/161
f 159/174/159 161/288/161 160/175/160
f 163/177/163 164/289/164 161/178/161
f 162/180/162 164/289/164 163/177/163
f 157/170/157 158/173/158 164/182/164
f 168/184/168 170/188/170 169/185/169
f 172/187/172 173/290/173 170/188/170
f 171/189/171 173/291/173 172/190/172
f 175/192/175 176/198/176 173/193/173
f 174/195/174 176/198/176 175/192/175
f 169/197/169 170/199/170 176/198/176
f 180/200/180 182/204/182 181/201/181
f 180/200/180 184/276/184 185/203/185
f 183/205/183 185/209/185 184/206/184
f 187/208/187 188/292/188 185/209/185
f 186/210/186 188/292/188 187/208/187
f 181/201/181 182/204/182 188/212/188
f 192/214/192 194/293/194 193/215/193
f 192/217/192 196/221/196 197/218/197
f 195/220/195 197/218/197 196/221/196
f 199/223/199 200/227/200 197/218/197
f 198/224/198 200/227/200 199/223/199
f 193/226/193 194/219/194 200/227/200
f 204/228/204 206/232/206 205/229/205
f 204/228/204 208/234/208 209/231/209
f 207/233/207 209/231/209 208/234/208
f 211/236/211 212/239/212 209/231/209
f 210/237/210 212/239/212 211/236/211
f 205/229/205 206/232/206 212/239/212
f 216/240/216 218/244/218 217/241/217
f 216/240/216 220/246/220 221/243/221
f 219/245/219 221/243/221 220/246/220
f 223/248/223 224/251/224 221/243/221
f 222/249/222 224/251/224 223/248/223
f 217/241/217 218/244/218 224/251/224
f 228/252/228 230/256/230 229/253/229
f 228/252/228 232/258/232 233/255/233
f 231/257/231 233/255/233 232/258/232
f 235/260/235 236/263/236 233/255/233
f 234/261/234 236/263/236 235/260/235
f 229/253/229 230/256/230 236/263/236
f 240/264/240 242/268/242 241/265/241
f 244/267/244 245/272/245 242/268/242
f 243/269/243 245/272/245 244/267/244
f 247/271/247 248/275/248 245/272/245
f 246/273/246 248/275/248 247/271/247
f 241/265/241 242/268/242 248/275/248
f 153/171/153 157/170/157 180/200/180
f 157/170/157 162/183/162 184/276/184
f 162/180/162 155/181/155 178/207/178
f 165/186/165 169/185/169 159/174/159
f 169/197/169 174/195/174 163/177/163
f 174/195/174 167/196/167 155/181/155
f 189/216/189 193/215/193 171/189/171
f 193/226/193 198/224/198 175/192/175
f 198/224/198 191/225/191 167/196/167
f 179/211/179 187/208/187 195/220/195
f 187/208/187 183/205/183 199/223/199
f 183/205/183 178/207/178 191/225/191
f 177/202/177 181/201/181 228/252/228
f 181/201/181 186/213/186 232/258/232
f 232/258/232 186/210/186 179/211/179
f 189/216/189 237/266/237 241/265/241
f 241/265/241 246/273/246 196/221/196
f 246/273/246 239/274/239 190/222/190
f 227/262/227 235/260/235 243/269/243
f 235/260/235 231/257/231 247/271/247
f 231/257/231 226/259/226 239/274/239
f 225/254/225 229/253/229 204/228/204
f 229/253/229 234/261/234 208/234/208
f 234/261/234 227/262/227 202/235/202
f 213/242/213 217/241/217 240/264/240
f 217/241/217 222/249/222 244/267/244
f 222/249/222 215/250/215 238/270/238
f 203/238/203 211/236/211 219/245/219
f 211/236/211 207/233/207 223/248/223
f 207/233/207 202/235/202 215/250/215
f 201/230/201 205/229/205 156/169/156
f 205/229/205 210/237/210 160/277/160
f 160/175/160 210/237/210 203/238/203
f 213/242/213 166/191/166 172/190/172
f 172/187/172 168/184/168 220/246/220
f 168/184/168 165/186/165 214/247/214
f 225/254/225 201/230/201 153/171/153
f 155/181/155 167/196/167 191/225/191
f 214/247/214 165/186/165 154/176/154
f 189/216/189 166/191/166 213/242/213
f 190/222/190 239/274/239 226/259/226
f 227/262/227 238/270/238 215/250/215
