# Blender 5.1.2
# www.blender.org
mtllib Floor.mtl
o Floor
v -0.460000 -0.500000 0.460000
v -0.460000 -0.460000 0.500000
v -0.500000 -0.460000 0.460000
v -0.460000 -0.494656 0.479974
v -0.479974 -0.494656 0.460000
v -0.479129 -0.489465 0.479129
v -0.479974 -0.460000 0.494656
v -0.460000 -0.479974 0.494656
v -0.479129 -0.479129 0.489465
v -0.494656 -0.479974 0.460000
v -0.494656 -0.460000 0.479974
v -0.489465 -0.479129 0.479129
v -0.460000 0.460000 0.500000
v -0.460000 0.500000 0.460000
v -0.500000 0.460000 0.460000
v -0.460000 0.479974 0.494656
v -0.479974 0.460000 0.494656
v -0.479129 0.479129 0.489465
v -0.479974 0.494656 0.460000
v -0.460000 0.494656 0.479974
v -0.479129 0.489465 0.479129
v -0.494656 0.460000 0.479974
v -0.494656 0.479974 0.460000
v -0.489465 0.479129 0.479129
v -0.460000 -0.500000 -0.460000
v -0.500000 -0.460000 -0.460000
v -0.460000 -0.460000 -0.500000
v -0.479974 -0.494656 -0.460000
v -0.460000 -0.494656 -0.479974
v -0.479129 -0.489465 -0.479129
v -0.494656 -0.460000 -0.479974
v -0.494656 -0.479974 -0.460000
v -0.489465 -0.479129 -0.479129
v -0.460000 -0.479974 -0.494656
v -0.479974 -0.460000 -0.494656
v -0.479129 -0.479129 -0.489465
v -0.460000 0.500000 -0.460000
v -0.460000 0.460000 -0.500000
v -0.500000 0.460000 -0.460000
v -0.460000 0.494656 -0.479974
v -0.479974 0.494656 -0.460000
v -0.479129 0.489465 -0.479129
v -0.479974 0.460000 -0.494656
v -0.460000 0.479974 -0.494656
v -0.479129 0.479129 -0.489465
v -0.494656 0.479974 -0.460000
v -0.494656 0.460000 -0.479974
v -0.489465 0.479129 -0.479129
v 0.460000 -0.500000 0.460000
v 0.500000 -0.460000 0.460000
v 0.460000 -0.460000 0.500000
v 0.479974 -0.494656 0.460000
v 0.460000 -0.494656 0.479974
v 0.479129 -0.489465 0.479129
v 0.494656 -0.460000 0.479974
v 0.494656 -0.479974 0.460000
v 0.489465 -0.479129 0.479129
v 0.460000 -0.479974 0.494656
v 0.479974 -0.460000 0.494656
v 0.479129 -0.479129 0.489465
v 0.460000 0.500000 0.460000
v 0.460000 0.460000 0.500000
v 0.500000 0.460000 0.460000
v 0.460000 0.494656 0.479974
v 0.479974 0.494656 0.460000
v 0.479129 0.489465 0.479129
v 0.479974 0.460000 0.494656
v 0.460000 0.479974 0.494656
v 0.479129 0.479129 0.489465
v 0.494656 0.479974 0.460000
v 0.494656 0.460000 0.479974
v 0.489465 0.479129 0.479129
v 0.460000 -0.500000 -0.460000
v 0.460000 -0.460000 -0.500000
v 0.500000 -0.460000 -0.460000
v 0.460000 -0.494656 -0.479974
v 0.479974 -0.494656 -0.460000
v 0.479129 -0.489465 -0.479129
v 0.479974 -0.460000 -0.494656
v 0.460000 -0.479974 -0.494656
v 0.479129 -0.479129 -0.489465
v 0.494656 -0.479974 -0.460000
v 0.494656 -0.460000 -0.479974
v 0.489465 -0.479129 -0.479129
v 0.460000 0.500000 -0.460000
v 0.500000 0.460000 -0.460000
v 0.460000 0.460000 -0.500000
v 0.479974 0.494656 -0.460000
v 0.460000 0.494656 -0.479974
v 0.479129 0.489465 -0.479129
v 0.494656 0.460000 -0.479974
v 0.494656 0.479974 -0.460000
v 0.489465 0.479129 -0.479129
v 0.460000 0.479974 -0.494656
v 0.479974 0.460000 -0.494656
v 0.479129 0.479129 -0.489465
vn -0.1280 -0.9835 0.1280
vn -0.1280 -0.1280 0.9835
vn -0.9835 -0.1280 0.1280
vn -0.1216 -0.8623 0.4916
vn -0.4916 -0.8623 0.1216
vn -0.4488 -0.7727 0.4488
vn -0.4916 -0.1216 0.8623
vn -0.1216 -0.4916 0.8623
vn -0.4488 -0.4488 0.7727
vn -0.8623 -0.4916 0.1216
vn -0.8623 -0.1216 0.4916
vn -0.7727 -0.4488 0.4488
vn -0.1280 0.1280 0.9835
vn -0.1280 0.9835 0.1280
vn -0.9835 0.1280 0.1280
vn -0.1216 0.4916 0.8623
vn -0.4916 0.1216 0.8623
vn -0.4488 0.4488 0.7727
vn -0.4916 0.8623 0.1216
vn -0.1216 0.8623 0.4916
vn -0.4488 0.7727 0.4488
vn -0.8623 0.1216 0.4916
vn -0.8623 0.4916 0.1216
vn -0.7727 0.4488 0.4488
vn -0.1280 -0.9835 -0.1280
vn -0.9835 -0.1280 -0.1280
vn -0.1280 -0.1280 -0.9835
vn -0.4916 -0.8623 -0.1216
vn -0.1216 -0.8623 -0.4916
vn -0.4488 -0.7727 -0.4488
vn -0.8623 -0.1216 -0.4916
vn -0.8623 -0.4916 -0.1216
vn -0.7727 -0.4488 -0.4488
vn -0.1216 -0.4916 -0.8623
vn -0.4916 -0.1216 -0.8623
vn -0.4488 -0.4488 -0.7727
vn -0.1280 0.9835 -0.1280
vn -0.1280 0.1280 -0.9835
vn -0.9835 0.1280 -0.1280
vn -0.1216 0.8623 -0.4916
vn -0.4916 0.8623 -0.1216
vn -0.4488 0.7727 -0.4488
vn -0.4916 0.1216 -0.8623
vn -0.1216 0.4916 -0.8623
vn -0.4488 0.4488 -0.7727
vn -0.8623 0.4916 -0.1216
vn -0.8623 0.1216 -0.4916
vn -0.7727 0.4488 -0.4488
vn 0.1280 -0.9835 0.1280
vn 0.9835 -0.1280 0.1280
vn 0.1280 -0.1280 0.9835
vn 0.4916 -0.8623 0.1216
vn 0.1216 -0.8623 0.4916
vn 0.4488 -0.7727 0.4488
vn 0.8623 -0.1216 0.4916
vn 0.8623 -0.4916 0.1216
vn 0.7727 -0.4488 0.4488
vn 0.1216 -0.4916 0.8623
vn 0.4916 -0.1216 0.8623
vn 0.4488 -0.4488 0.7727
vn 0.1280 0.9835 0.1280
vn 0.1280 0.1280 0.9835
vn 0.9835 0.1280 0.1280
vn 0.1216 0.8623 0.4916
vn 0.4916 0.8623 0.1216
vn 0.4488 0.7727 0.4488
vn 0.4916 0.1216 0.8623
vn 0.1216 0.4916 0.8623
vn 0.4488 0.4488 0.7727
vn 0.8623 0.4916 0.1216
vn 0.8623 0.1216 0.4916
vn 0.7727 0.4488 0.4488
vn 0.1280 -0.9835 -0.1280
vn 0.1280 -0.1280 -0.9835
vn 0.9835 -0.1280 -0.1280
vn 0.1216 -0.8623 -0.4916
vn 0.4916 -0.8623 -0.1216
vn 0.4488 -0.7727 -0.4488
vn 0.4916 -0.1216 -0.8623
vn 0.1216 -0.4916 -0.8623
vn 0.4488 -0.4488 -0.7727
vn 0.8623 -0.4916 -0.1216
vn 0.8623 -0.1216 -0.4916
vn 0.7727 -0.4488 -0.4488
vn 0.1280 0.9835 -0.1280
vn 0.9835 0.1280 -0.1280
vn 0.1280 0.1280 -0.9835
vn 0.4916 0.8623 -0.1216
vn 0.1216 0.8623 -0.4916
vn 0.4488 0.7727 -0.4488
vn 0.8623 0.1216 -0.4916
vn 0.8623 0.4916 -0.1216
vn 0.7727 0.4488 -0.4488
vn 0.1216 0.4916 -0.8623
vn 0.4916 0.1216 -0.8623
vn 0.4488 0.4488 -0.7727
vt 0.135000 0.744993
vt 0.130007 0.740000
vt 0.135000 0.740000
vt 0.130218 0.750000
vt 0.130218 0.744782
vt 0.385000 1.000000
vt 0.375000 0.990000
vt 0.385000 0.990000
vt 0.385000 0.005007
vt 0.375000 0.000000
vt 0.385000 0.000000
vt 0.375000 0.010000
vt 0.385000 0.010000
vt 0.125000 0.744782
vt 0.125000 0.740000
vt 0.619993 0.990000
vt 0.615000 1.000000
vt 0.615000 0.990000
vt 0.625000 0.990000
vt 0.619782 1.000000
vt 0.875000 0.740000
vt 0.865000 0.750000
vt 0.865000 0.740000
vt 0.625000 0.010000
vt 0.619782 0.005218
vt 0.625000 0.005218
vt 0.615000 0.005007
vt 0.619993 0.010000
vt 0.615000 0.010000
vt 0.615000 0.000000
vt 0.619782 0.000000
vt 0.130007 0.510000
vt 0.135000 0.505007
vt 0.135000 0.510000
vt 0.125000 0.505218
vt 0.130218 0.505218
vt 0.385000 0.244993
vt 0.375000 0.240000
vt 0.385000 0.240000
vt 0.385000 0.255007
vt 0.375000 0.244782
vt 0.375000 0.260000
vt 0.385000 0.260000
vt 0.130218 0.500000
vt 0.135000 0.500000
vt 0.865000 0.500000
vt 0.875000 0.510000
vt 0.865000 0.510000
vt 0.625000 0.260000
vt 0.619782 0.253255
vt 0.625000 0.246521
vt 0.615000 0.255007
vt 0.619993 0.260000
vt 0.615000 0.260000
vt 0.615000 0.244993
vt 0.619993 0.240000
vt 0.615000 0.240000
vt 0.625000 0.240000
vt 0.619782 0.244782
vt 0.369993 0.740000
vt 0.365000 0.744993
vt 0.365000 0.740000
vt 0.378255 0.744782
vt 0.369782 0.744782
vt 0.385000 0.744993
vt 0.380007 0.740000
vt 0.385000 0.740000
vt 0.385000 0.755007
vt 0.370000 0.755000
vt 0.385000 0.760000
vt 0.372391 0.752609
vt 0.630000 0.755000
vt 0.630007 0.740000
vt 0.635000 0.740000
vt 0.619782 0.755218
vt 0.627609 0.752609
vt 0.615000 0.755007
vt 0.619993 0.760000
vt 0.615000 0.760000
vt 0.615000 0.744993
vt 0.619993 0.740000
vt 0.615000 0.740000
vt 0.619782 0.746745
vt 0.365000 0.505007
vt 0.369993 0.510000
vt 0.365000 0.510000
vt 0.372391 0.497391
vt 0.369782 0.505218
vt 0.385000 0.494993
vt 0.370000 0.495000
vt 0.385000 0.490000
vt 0.385000 0.505007
vt 0.380007 0.510000
vt 0.385000 0.510000
vt 0.378255 0.505218
vt 0.630007 0.510000
vt 0.630000 0.495000
vt 0.635000 0.510000
vt 0.619782 0.503255
vt 0.627609 0.497391
vt 0.615000 0.505007
vt 0.619993 0.510000
vt 0.615000 0.510000
vt 0.615000 0.494993
vt 0.619993 0.490000
vt 0.615000 0.490000
vt 0.619782 0.494782
vt 0.125000 0.510000
vt 0.135000 0.750000
vt 0.375000 0.994782
vt 0.375000 0.005218
vt 0.625000 1.000000
vt 0.875000 0.744782
vt 0.375000 0.255218
vt 0.875000 0.505218
s 1
usemtl Floor_Body
f 4/1/4 5/2/5 1/3/1
f 4/1/4 9/4/9 6/5/6
f 7/6/7 8/7/8 2/8/2
f 11/9/11 9/10/9 7/11/7
f 10/12/10 11/9/11 3/13/3
f 5/2/5 12/14/12 10/15/10
f 6/5/6 9/4/9 12/14/12
f 16/16/16 17/17/17 13/18/13
f 20/19/20 18/20/18 16/16/16
f 19/21/19 20/22/20 14/23/14
f 19/24/19 24/25/24 21/26/21
f 22/27/22 23/28/23 15/29/15
f 17/30/17 24/25/24 22/27/22
f 18/31/18 21/26/21 24/25/24
f 28/32/28 29/33/29 25/34/25
f 28/32/28 33/35/33 30/36/30
f 31/37/31 32/38/32 26/39/26
f 35/40/35 33/41/33 31/37/31
f 34/42/34 35/40/35 27/43/27
f 29/33/29 36/44/36 34/45/34
f 30/36/30 33/35/33 36/44/36
f 40/46/40 41/47/41 37/48/37
f 40/49/40 45/50/45 42/51/42
f 43/52/43 44/53/44 38/54/38
f 47/55/47 45/50/45 43/52/43
f 46/56/46 47/55/47 39/57/39
f 41/58/41 48/59/48 46/56/46
f 42/51/42 45/50/45 48/59/48
f 52/60/52 53/61/53 49/62/49
f 52/60/52 57/63/57 54/64/54
f 55/65/55 56/66/56 50/67/50
f 59/68/59 57/63/57 55/65/55
f 58/69/58 59/68/59 51/70/51
f 53/61/53 60/71/60 58/69/58
f 54/64/54 57/63/57 60/71/60
f 64/72/64 65/73/65 61/74/61
f 64/72/64 69/75/69 66/76/66
f 67/77/67 68/78/68 62/79/62
f 71/80/71 69/75/69 67/77/67
f 70/81/70 71/80/71 63/82/63
f 65/73/65 72/83/72 70/81/70
f 66/76/66 69/75/69 72/83/72
f 76/84/76 77/85/77 73/86/73
f 76/84/76 81/87/81 78/88/78
f 79/89/79 80/90/80 74/91/74
f 83/92/83 81/87/81 79/89/79
f 82/93/82 83/92/83 75/94/75
f 77/85/77 84/95/84 82/93/82
f 78/88/78 81/87/81 84/95/84
f 88/96/88 89/97/89 85/98/85
f 88/96/88 93/99/93 90/100/90
f 91/101/91 92/102/92 86/103/86
f 95/104/95 93/99/93 91/101/91
f 94/105/94 95/104/95 87/106/87
f 89/97/89 96/107/96 94/105/94
f 90/100/90 93/99/93 96/107/96
f 1/3/1 28/32/28 25/34/25
f 5/2/5 32/108/32 28/32/28
f 10/12/10 26/39/26 32/38/32
f 13/18/13 7/6/7 2/8/2
f 17/30/17 11/9/11 7/11/7
f 22/27/22 3/13/3 11/9/11
f 37/48/37 19/21/19 14/23/14
f 41/58/41 23/28/23 19/24/19
f 46/56/46 15/29/15 23/28/23
f 27/43/27 43/52/43 38/54/38
f 35/40/35 47/55/47 43/52/43
f 31/37/31 39/57/39 47/55/47
f 25/34/25 76/84/76 73/86/73
f 29/33/29 80/90/80 76/84/76
f 34/42/34 74/91/74 80/90/80
f 85/98/85 40/46/40 37/48/37
f 89/97/89 44/53/44 40/49/40
f 94/105/94 38/54/38 44/53/44
f 75/94/75 91/101/91 86/103/86
f 83/92/83 95/104/95 91/101/91
f 79/89/79 87/106/87 95/104/95
f 73/86/73 52/60/52 49/62/49
f 77/85/77 56/66/56 52/60/52
f 82/93/82 50/67/50 56/66/56
f 61/74/61 88/96/88 85/98/85
f 65/73/65 92/102/92 88/96/88
f 70/81/70 86/103/86 92/102/92
f 51/70/51 67/77/67 62/79/62
f 59/68/59 71/80/71 67/77/67
f 55/65/55 63/82/63 71/80/71
f 49/62/49 4/1/4 1/3/1
f 53/61/53 8/109/8 4/1/4
f 58/69/58 2/8/2 8/7/8
f 14/23/14 64/72/64 61/74/61
f 20/19/20 68/78/68 64/72/64
f 16/16/16 62/79/62 68/78/68
f 73/86/73 1/3/1 25/34/25
f 15/29/15 26/39/26 3/13/3
f 62/79/62 2/8/2 51/70/51
f 37/48/37 61/74/61 85/98/85
f 38/54/38 74/91/74 27/43/27
f 86/103/86 50/67/50 75/94/75
f 4/1/4 6/5/6 5/2/5
f 4/1/4 8/109/8 9/4/9
f 7/6/7 9/110/9 8/7/8
f 11/9/11 12/111/12 9/10/9
f 10/12/10 12/111/12 11/9/11
f 5/2/5 6/5/6 12/14/12
f 16/16/16 18/20/18 17/17/17
f 20/19/20 21/112/21 18/20/18
f 19/21/19 21/113/21 20/22/20
f 19/24/19 23/28/23 24/25/24
f 22/27/22 24/25/24 23/28/23
f 17/30/17 18/31/18 24/25/24
f 28/32/28 30/36/30 29/33/29
f 28/32/28 32/108/32 33/35/33
f 31/37/31 33/41/33 32/38/32
f 35/40/35 36/114/36 33/41/33
f 34/42/34 36/114/36 35/40/35
f 29/33/29 30/36/30 36/44/36
f 40/46/40 42/115/42 41/47/41
f 40/49/40 44/53/44 45/50/45
f 43/52/43 45/50/45 44/53/44
f 47/55/47 48/59/48 45/50/45
f 46/56/46 48/59/48 47/55/47
f 41/58/41 42/51/42 48/59/48
f 52/60/52 54/64/54 53/61/53
f 52/60/52 56/66/56 57/63/57
f 55/65/55 57/63/57 56/66/56
f 59/68/59 60/71/60 57/63/57
f 58/69/58 60/71/60 59/68/59
f 53/61/53 54/64/54 60/71/60
f 64/72/64 66/76/66 65/73/65
f 64/72/64 68/78/68 69/75/69
f 67/77/67 69/75/69 68/78/68
f 71/80/71 72/83/72 69/75/69
f 70/81/70 72/83/72 71/80/71
f 65/73/65 66/76/66 72/83/72
f 76/84/76 78/88/78 77/85/77
f 76/84/76 80/90/80 81/87/81
f 79/89/79 81/87/81 80/90/80
f 83/92/83 84/95/84 81/87/81
f 82/93/82 84/95/84 83/92/83
f 77/85/77 78/88/78 84/95/84
f 88/96/88 90/100/90 89/97/89
f 88/96/88 92/102/92 93/99/93
f 91/101/91 93/99/93 92/102/92
f 95/104/95 96/107/96 93/99/93
f 94/105/94 96/107/96 95/104/95
f 89/97/89 90/100/90 96/107/96
f 1/3/1 5/2/5 28/32/28
f 5/2/5 10/15/10 32/108/32
f 10/12/10 3/13/3 26/39/26
f 13/18/13 17/17/17 7/6/7
f 17/30/17 22/27/22 11/9/11
f 22/27/22 15/29/15 3/13/3
f 37/48/37 41/47/41 19/21/19
f 41/58/41 46/56/46 23/28/23
f 46/56/46 39/57/39 15/29/15
f 27/43/27 35/40/35 43/52/43
f 35/40/35 31/37/31 47/55/47
f 31/37/31 26/39/26 39/57/39
f 25/34/25 29/33/29 76/84/76
f 29/33/29 34/45/34 80/90/80
f 34/42/34 27/43/27 74/91/74
f 85/98/85 89/97/89 40/46/40
f 89/97/89 94/105/94 44/53/44
f 94/105/94 87/106/87 38/54/38
f 75/94/75 83/92/83 91/101/91
f 83/92/83 79/89/79 95/104/95
f 79/89/79 74/91/74 87/106/87
f 73/86/73 77/85/77 52/60/52
f 77/85/77 82/93/82 56/66/56
f 82/93/82 75/94/75 50/67/50
f 61/74/61 65/73/65 88/96/88
f 65/73/65 70/81/70 92/102/92
f 70/81/70 63/82/63 86/103/86
f 51/70/51 59/68/59 67/77/67
f 59/68/59 55/65/55 71/80/71
f 55/65/55 50/67/50 63/82/63
f 49/62/49 53/61/53 4/1/4
f 53/61/53 58/69/58 8/109/8
f 58/69/58 51/70/51 2/8/2
f 14/23/14 20/22/20 64/72/64
f 20/19/20 16/16/16 68/78/68
f 16/16/16 13/18/13 62/79/62
f 73/86/73 49/62/49 1/3/1
f 15/29/15 39/57/39 26/39/26
f 62/79/62 13/18/13 2/8/2
f 37/48/37 14/23/14 61/74/61
f 38/54/38 87/106/87 74/91/74
f 86/103/86 63/82/63 50/67/50
