# Blender 5.1.2
# www.blender.org
mtllib HoleRing.mtl
o HoleRing
v 0.000000 -1.000000 -0.419904
v 0.000000 -0.920000 -0.500000
v 0.000000 -0.993910 -0.450555
v 0.000000 -0.976569 -0.476540
v 0.000000 -0.950615 -0.493903
v 0.000000 1.000000 -0.419904
v 0.000000 0.920000 -0.500000
v 0.000000 0.993910 -0.450555
v 0.000000 0.976569 -0.476540
v 0.000000 0.950615 -0.493903
v 0.041158 -1.000000 -0.417882
v 0.049009 -0.920000 -0.497592
v 0.044162 -0.993910 -0.448386
v 0.046709 -0.976569 -0.474246
v 0.048411 -0.950615 -0.491525
v 0.041158 1.000000 -0.417882
v 0.049009 0.920000 -0.497592
v 0.044162 0.993910 -0.448386
v 0.046709 0.976569 -0.474246
v 0.048411 0.950615 -0.491525
v 0.081919 -1.000000 -0.411835
v 0.097545 -0.920000 -0.490393
v 0.087899 -0.993910 -0.441898
v 0.092968 -0.976569 -0.467384
v 0.096356 -0.950615 -0.484413
v 0.081919 1.000000 -0.411835
v 0.097545 0.920000 -0.490393
v 0.087899 0.993910 -0.441898
v 0.092968 0.976569 -0.467384
v 0.096356 0.950615 -0.484413
v 0.121891 -1.000000 -0.401823
v 0.145142 -0.920000 -0.478470
v 0.130789 -0.993910 -0.431154
v 0.138332 -0.976569 -0.456021
v 0.143372 -0.950615 -0.472636
v 0.121891 1.000000 -0.401823
v 0.145142 0.920000 -0.478470
v 0.130789 0.993910 -0.431154
v 0.138332 0.976569 -0.456021
v 0.143372 0.950615 -0.472636
v 0.160690 -1.000000 -0.387940
v 0.191342 -0.920000 -0.461940
v 0.172420 -0.993910 -0.416259
v 0.182364 -0.976569 -0.440266
v 0.189009 -0.950615 -0.456307
v 0.160690 1.000000 -0.387940
v 0.191342 0.920000 -0.461940
v 0.172420 0.993910 -0.416259
v 0.182364 0.976569 -0.440266
v 0.189008 0.950615 -0.456307
v 0.197941 -1.000000 -0.370322
v 0.235698 -0.920000 -0.440961
v 0.212390 -0.993910 -0.397354
v 0.224639 -0.976569 -0.420271
v 0.232824 -0.950615 -0.435584
v 0.197941 1.000000 -0.370322
v 0.235698 0.920000 -0.440961
v 0.212390 0.993910 -0.397354
v 0.224639 0.976569 -0.420271
v 0.232824 0.950615 -0.435584
v 0.233286 -1.000000 -0.349137
v 0.277785 -0.920000 -0.415735
v 0.250315 -0.993910 -0.374623
v 0.264752 -0.976569 -0.396229
v 0.274398 -0.950615 -0.410665
v 0.233286 1.000000 -0.349137
v 0.277785 0.920000 -0.415735
v 0.250315 0.993910 -0.374623
v 0.264752 0.976569 -0.396229
v 0.274398 0.950615 -0.410665
v 0.266384 -1.000000 -0.324590
v 0.317197 -0.920000 -0.386505
v 0.285829 -0.993910 -0.348284
v 0.302314 -0.976569 -0.368371
v 0.313329 -0.950615 -0.381792
v 0.266384 1.000000 -0.324590
v 0.317197 0.920000 -0.386505
v 0.285829 0.993910 -0.348284
v 0.302314 0.976569 -0.368371
v 0.313329 0.950615 -0.381792
v 0.296917 -1.000000 -0.296917
v 0.353553 -0.920000 -0.353553
v 0.318591 -0.993910 -0.318591
v 0.336965 -0.976569 -0.336965
v 0.349242 -0.950615 -0.349242
v 0.296917 1.000000 -0.296917
v 0.353553 0.920000 -0.353553
v 0.318591 0.993910 -0.318591
v 0.336965 0.976569 -0.336965
v 0.349242 0.950615 -0.349242
v 0.324590 -1.000000 -0.266384
v 0.386505 -0.920000 -0.317197
v 0.348284 -0.993910 -0.285829
v 0.368371 -0.976569 -0.302314
v 0.381792 -0.950615 -0.313329
v 0.324590 1.000000 -0.266384
v 0.386505 0.920000 -0.317197
v 0.348284 0.993910 -0.285829
v 0.368371 0.976569 -0.302314
v 0.381792 0.950615 -0.313329
v 0.349137 -1.000000 -0.233286
v 0.415735 -0.920000 -0.277785
v 0.374623 -0.993910 -0.250315
v 0.396229 -0.976569 -0.264752
v 0.410665 -0.950615 -0.274398
v 0.349137 1.000000 -0.233286
v 0.415735 0.920000 -0.277785
v 0.374623 0.993910 -0.250315
v 0.396229 0.976569 -0.264752
v 0.410665 0.950615 -0.274398
v 0.370322 -1.000000 -0.197941
v 0.440961 -0.920000 -0.235698
v 0.397354 -0.993910 -0.212390
v 0.420271 -0.976569 -0.224639
v 0.435584 -0.950615 -0.232824
v 0.370322 1.000000 -0.197941
v 0.440961 0.920000 -0.235698
v 0.397354 0.993910 -0.212390
v 0.420271 0.976569 -0.224639
v 0.435584 0.950615 -0.232824
v 0.387940 -1.000000 -0.160690
v 0.461940 -0.920000 -0.191342
v 0.416259 -0.993910 -0.172420
v 0.440266 -0.976569 -0.182364
v 0.456307 -0.950615 -0.189008
v 0.387940 1.000000 -0.160690
v 0.461940 0.920000 -0.191342
v 0.416259 0.993910 -0.172420
v 0.440266 0.976569 -0.182364
v 0.456307 0.950615 -0.189009
v 0.401823 -1.000000 -0.121891
v 0.478470 -0.920000 -0.145142
v 0.431154 -0.993910 -0.130789
v 0.456021 -0.976569 -0.138332
v 0.472636 -0.950615 -0.143372
v 0.401823 1.000000 -0.121891
v 0.478470 0.920000 -0.145142
v 0.431154 0.993910 -0.130789
v 0.456021 0.976569 -0.138332
v 0.472636 0.950615 -0.143372
v 0.411835 -1.000000 -0.081919
v 0.490393 -0.920000 -0.097545
v 0.441898 -0.993910 -0.087899
v 0.467384 -0.976569 -0.092968
v 0.484413 -0.950615 -0.096356
v 0.411835 1.000000 -0.081919
v 0.490393 0.920000 -0.097545
v 0.441898 0.993910 -0.087899
v 0.467384 0.976569 -0.092968
v 0.484413 0.950615 -0.096356
v 0.417882 -1.000000 -0.041158
v 0.497592 -0.920000 -0.049009
v 0.448386 -0.993910 -0.044162
v 0.474246 -0.976569 -0.046709
v 0.491525 -0.950615 -0.048411
v 0.417882 1.000000 -0.041158
v 0.497592 0.920000 -0.049009
v 0.448386 0.993910 -0.044162
v 0.474246 0.976569 -0.046709
v 0.491525 0.950615 -0.048411
v 0.419904 -1.000000 0.000000
v 0.500000 -0.920000 0.000000
v 0.450555 -0.993910 0.000000
v 0.476540 -0.976569 0.000000
v 0.493903 -0.950615 0.000000
v 0.419904 1.000000 0.000000
v 0.500000 0.920000 0.000000
v 0.450555 0.993910 0.000000
v 0.476540 0.976569 0.000000
v 0.493903 0.950615 0.000000
v 0.417882 -1.000000 0.041158
v 0.497592 -0.920000 0.049009
v 0.448386 -0.993910 0.044162
v 0.474246 -0.976569 0.046709
v 0.491525 -0.950615 0.048411
v 0.417882 1.000000 0.041158
v 0.497592 0.920000 0.049009
v 0.448386 0.993910 0.044162
v 0.474246 0.976569 0.046709
v 0.491525 0.950615 0.048411
v 0.411835 -1.000000 0.081919
v 0.490393 -0.920000 0.097545
v 0.441898 -0.993910 0.087899
v 0.467384 -0.976569 0.092968
v 0.484413 -0.950615 0.096356
v 0.411835 1.000000 0.081919
v 0.490393 0.920000 0.097545
v 0.441898 0.993910 0.087899
v 0.467384 0.976569 0.092968
v 0.484413 0.950615 0.096356
v 0.401823 -1.000000 0.121891
v 0.478470 -0.920000 0.145142
v 0.431154 -0.993910 0.130789
v 0.456021 -0.976569 0.138332
v 0.472636 -0.950615 0.143372
v 0.401823 1.000000 0.121891
v 0.478470 0.920000 0.145142
v 0.431154 0.993910 0.130789
v 0.456021 0.976569 0.138332
v 0.472636 0.950615 0.143372
v 0.387940 -1.000000 0.160690
v 0.461940 -0.920000 0.191342
v 0.416259 -0.993910 0.172420
v 0.440266 -0.976569 0.182364
v 0.456307 -0.950615 0.189009
v 0.387940 1.000000 0.160690
v 0.461940 0.920000 0.191342
v 0.416259 0.993910 0.172420
v 0.440266 0.976569 0.182364
v 0.456307 0.950615 0.189008
v 0.370322 -1.000000 0.197941
v 0.440961 -0.920000 0.235698
v 0.397354 -0.993910 0.212390
v 0.420271 -0.976569 0.224639
v 0.435584 -0.950615 0.232824
v 0.370322 1.000000 0.197941
v 0.440961 0.920000 0.235698
v 0.397354 0.993910 0.212390
v 0.420271 0.976569 0.224639
v 0.435584 0.950615 0.232824
v 0.349137 -1.000000 0.233286
v 0.415735 -0.920000 0.277785
v 0.374623 -0.993910 0.250315
v 0.396229 -0.976569 0.264752
v 0.410665 -0.950615 0.274398
v 0.349137 1.000000 0.233286
v 0.415735 0.920000 0.277785
v 0.374623 0.993910 0.250315
v 0.396229 0.976569 0.264752
v 0.410665 0.950615 0.274398
v 0.324590 -1.000000 0.266384
v 0.386505 -0.920000 0.317197
v 0.348284 -0.993910 0.285829
v 0.368371 -0.976569 0.302314
v 0.381792 -0.950615 0.313329
v 0.324590 1.000000 0.266384
v 0.386505 0.920000 0.317197
v 0.348284 0.993910 0.285829
v 0.368371 0.976569 0.302314
v 0.381792 0.950615 0.313329
v 0.296917 -1.000000 0.296917
v 0.353553 -0.920000 0.353553
v 0.318591 -0.993910 0.318591
v 0.336965 -0.976569 0.336965
v 0.349242 -0.950615 0.349242
v 0.296917 1.000000 0.296917
v 0.353553 0.920000 0.353553
v 0.318591 0.993910 0.318591
v 0.336965 0.976569 0.336965
v 0.349242 0.950615 0.349242
v 0.266384 -1.000000 0.324590
v 0.317197 -0.920000 0.386505
v 0.285829 -0.993910 0.348284
v 0.302314 -0.976569 0.368371
v 0.313329 -0.950615 0.381792
v 0.266384 1.000000 0.324590
v 0.317197 0.920000 0.386505
v 0.285829 0.993910 0.348284
v 0.302314 0.976569 0.368371
v 0.313329 0.950615 0.381792
v 0.233286 -1.000000 0.349137
v 0.277785 -0.920000 0.415735
v 0.250315 -0.993910 0.374623
v 0.264752 -0.976569 0.396229
v 0.274398 -0.950615 0.410665
v 0.233286 1.000000 0.349137
v 0.277785 0.920000 0.415735
v 0.250315 0.993910 0.374623
v 0.264752 0.976569 0.396229
v 0.274398 0.950615 0.410665
v 0.197941 -1.000000 0.370322
v 0.235698 -0.920000 0.440961
v 0.212390 -0.993910 0.397354
v 0.224639 -0.976569 0.420271
v 0.232824 -0.950615 0.435584
v 0.197941 1.000000 0.370322
v 0.235698 0.920000 0.440961
v 0.212390 0.993910 0.397354
v 0.224639 0.976569 0.420271
v 0.232824 0.950615 0.435584
v 0.160690 -1.000000 0.387940
v 0.191342 -0.920000 0.461940
v 0.172420 -0.993910 0.416259
v 0.182364 -0.976569 0.440266
v 0.189008 -0.950615 0.456307
v 0.160690 1.000000 0.387940
v 0.191342 0.920000 0.461940
v 0.172420 0.993910 0.416259
v 0.182364 0.976569 0.440266
v 0.189009 0.950615 0.456307
v 0.121891 -1.000000 0.401823
v 0.145142 -0.920000 0.478470
v 0.130789 -0.993910 0.431154
v 0.138332 -0.976569 0.456021
v 0.143372 -0.950615 0.472636
v 0.121891 1.000000 0.401823
v 0.145142 0.920000 0.478470
v 0.130789 0.993910 0.431154
v 0.138332 0.976569 0.456021
v 0.143372 0.950615 0.472636
v 0.081919 -1.000000 0.411835
v 0.097545 -0.920000 0.490393
v 0.087899 -0.993910 0.441898
v 0.092968 -0.976569 0.467384
v 0.096356 -0.950615 0.484413
v 0.081919 1.000000 0.411835
v 0.097545 0.920000 0.490393
v 0.087899 0.993910 0.441898
v 0.092968 0.976569 0.467384
v 0.096356 0.950615 0.484413
v 0.041158 -1.000000 0.417882
v 0.049009 -0.920000 0.497592
v 0.044162 -0.993910 0.448386
v 0.046709 -0.976569 0.474246
v 0.048411 -0.950615 0.491525
v 0.041158 1.000000 0.417882
v 0.049009 0.920000 0.497592
v 0.044162 0.993910 0.448386
v 0.046709 0.976569 0.474246
v 0.048411 0.950615 0.491525
v 0.000000 -1.000000 0.419904
v 0.000000 -0.920000 0.500000
v 0.000000 -0.993910 0.450555
v 0.000000 -0.976569 0.476540
v 0.000000 -0.950615 0.493903
v 0.000000 1.000000 0.419904
v 0.000000 0.920000 0.500000
v 0.000000 0.993910 0.450555
v 0.000000 0.976569 0.476540
v 0.000000 0.950615 0.493903
v -0.041158 -1.000000 0.417882
v -0.049009 -0.920000 0.497592
v -0.044162 -0.993910 0.448386
v -0.046709 -0.976569 0.474246
v -0.048411 -0.950615 0.491525
v -0.041158 1.000000 0.417882
v -0.049009 0.920000 0.497592
v -0.044162 0.993910 0.448386
v -0.046709 0.976569 0.474246
v -0.048411 0.950615 0.491525
v -0.081919 -1.000000 0.411835
v -0.097545 -0.920000 0.490393
v -0.087899 -0.993910 0.441898
v -0.092968 -0.976569 0.467384
v -0.096356 -0.950615 0.484413
v -0.081919 1.000000 0.411835
v -0.097545 0.920000 0.490393
v -0.087899 0.993910 0.441898
v -0.092968 0.976569 0.467384
v -0.096356 0.950615 0.484413
v -0.121891 -1.000000 0.401823
v -0.145142 -0.920000 0.478470
v -0.130789 -0.993910 0.431154
v -0.138332 -0.976569 0.456021
v -0.143372 -0.950615 0.472636
v -0.121891 1.000000 0.401823
v -0.145142 0.920000 0.478470
v -0.130789 0.993910 0.431154
v -0.138332 0.976569 0.456021
v -0.143372 0.950615 0.472636
v -0.160690 -1.000000 0.387940
v -0.191342 -0.920000 0.461940
v -0.172420 -0.993910 0.416259
v -0.182364 -0.976569 0.440266
v -0.189009 -0.950615 0.456307
v -0.160690 1.000000 0.387940
v -0.191342 0.920000 0.461940
v -0.172420 0.993910 0.416259
v -0.182364 0.976569 0.440266
v -0.189008 0.950615 0.456307
v -0.197941 -1.000000 0.370322
v -0.235698 -0.920000 0.440961
v -0.212390 -0.993910 0.397354
v -0.224639 -0.976569 0.420271
v -0.232824 -0.950615 0.435584
v -0.197941 1.000000 0.370322
v -0.235698 0.920000 0.440961
v -0.212390 0.993910 0.397354
v -0.224639 0.976569 0.420271
v -0.232824 0.950615 0.435584
v -0.233286 -1.000000 0.349137
v -0.277785 -0.920000 0.415735
v -0.250315 -0.993910 0.374623
v -0.264752 -0.976569 0.396229
v -0.274398 -0.950615 0.410665
v -0.233286 1.000000 0.349137
v -0.277785 0.920000 0.415735
v -0.250315 0.993910 0.374623
v -0.264752 0.976569 0.396229
v -0.274398 0.950615 0.410665
v -0.266384 -1.000000 0.324590
v -0.317197 -0.920000 0.386505
v -0.285829 -0.993910 0.348284
v -0.302314 -0.976569 0.368371
v -0.313329 -0.950615 0.381792
v -0.266384 1.000000 0.324590
v -0.317197 0.920000 0.386505
v -0.285829 0.993910 0.348284
v -0.302314 0.976569 0.368371
v -0.313329 0.950615 0.381792
v -0.296917 -1.000000 0.296917
v -0.353553 -0.920000 0.353553
v -0.318591 -0.993910 0.318591
v -0.336965 -0.976569 0.336965
v -0.349242 -0.950615 0.349242
v -0.296917 1.000000 0.296917
v -0.353553 0.920000 0.353553
v -0.318591 0.993910 0.318591
v -0.336965 0.976569 0.336965
v -0.349242 0.950615 0.349242
v -0.324590 -1.000000 0.266384
v -0.386505 -0.920000 0.317197
v -0.348284 -0.993910 0.285829
v -0.368371 -0.976569 0.302314
v -0.381792 -0.950615 0.313329
v -0.324590 1.000000 0.266384
v -0.386505 0.920000 0.317197
v -0.348284 0.993910 0.285829
v -0.368371 0.976569 0.302314
v -0.381792 0.950615 0.313329
v -0.349137 -1.000000 0.233286
v -0.415735 -0.920000 0.277785
v -0.374623 -0.993910 0.250315
v -0.396229 -0.976569 0.264752
v -0.410665 -0.950615 0.274398
v -0.349137 1.000000 0.233286
v -0.415735 0.920000 0.277785
v -0.374623 0.993910 0.250315
v -0.396229 0.976569 0.264752
v -0.410665 0.950615 0.274398
v -0.370322 -1.000000 0.197941
v -0.440961 -0.920000 0.235698
v -0.397354 -0.993910 0.212390
v -0.420271 -0.976569 0.224639
v -0.435584 -0.950615 0.232824
v -0.370322 1.000000 0.197941
v -0.440961 0.920000 0.235698
v -0.397354 0.993910 0.212390
v -0.420271 0.976569 0.224639
v -0.435584 0.950615 0.232824
v -0.387940 -1.000000 0.160690
v -0.461940 -0.920000 0.191342
v -0.416259 -0.993910 0.172420
v -0.440266 -0.976569 0.182364
v -0.456307 -0.950615 0.189008
v -0.387940 1.000000 0.160690
v -0.461940 0.920000 0.191342
v -0.416259 0.993910 0.172420
v -0.440266 0.976569 0.182364
v -0.456307 0.950615 0.189009
v -0.401823 -1.000000 0.121891
v -0.478470 -0.920000 0.145142
v -0.431154 -0.993910 0.130789
v -0.456021 -0.976569 0.138332
v -0.472636 -0.950615 0.143372
v -0.401823 1.000000 0.121891
v -0.478470 0.920000 0.145142
v -0.431154 0.993910 0.130789
v -0.456021 0.976569 0.138332
v -0.472636 0.950615 0.143372
v -0.411835 -1.000000 0.081919
v -0.490393 -0.920000 0.097545
v -0.441898 -0.993910 0.087899
v -0.467384 -0.976569 0.092968
v -0.484413 -0.950615 0.096356
v -0.411835 1.000000 0.081919
v -0.490393 0.920000 0.097545
v -0.441898 0.993910 0.087899
v -0.467384 0.976569 0.092968
v -0.484413 0.950615 0.096356
v -0.417882 -1.000000 0.041158
v -0.497592 -0.920000 0.049009
v -0.448386 -0.993910 0.044162
v -0.474246 -0.976569 0.046709
v -0.491525 -0.950615 0.048411
v -0.417882 1.000000 0.041158
v -0.497592 0.920000 0.049009
v -0.448386 0.993910 0.044162
v -0.474246 0.976569 0.046709
v -0.491525 0.950615 0.048411
v -0.419904 -1.000000 0.000000
v -0.500000 -0.920000 0.000000
v -0.450555 -0.993910 0.000000
v -0.476540 -0.976569 0.000000
v -0.493903 -0.950615 0.000000
v -0.419904 1.000000 0.000000
v -0.500000 0.920000 0.000000
v -0.450555 0.993910 0.000000
v -0.476540 0.976569 0.000000
v -0.493903 0.950615 0.000000
v -0.417882 -1.000000 -0.041158
v -0.497592 -0.920000 -0.049009
v -0.448386 -0.993910 -0.044162
v -0.474246 -0.976569 -0.046709
v -0.491525 -0.950615 -0.048411
v -0.417882 1.000000 -0.041158
v -0.497592 0.920000 -0.049009
v -0.448386 0.993910 -0.044162
v -0.474246 0.976569 -0.046709
v -0.491525 0.950615 -0.048411
v -0.411835 -1.000000 -0.081919
v -0.490393 -0.920000 -0.097545
v -0.441898 -0.993910 -0.087899
v -0.467384 -0.976569 -0.092968
v -0.484413 -0.950615 -0.096356
v -0.411835 1.000000 -0.081919
v -0.490393 0.920000 -0.097545
v -0.441898 0.993910 -0.087899
v -0.467384 0.976569 -0.092968
v -0.484413 0.950615 -0.096356
v -0.401823 -1.000000 -0.121891
v -0.478470 -0.920000 -0.145142
v -0.431154 -0.993910 -0.130789
v -0.456021 -0.976569 -0.138332
v -0.472636 -0.950615 -0.143372
v -0.401823 1.000000 -0.121891
v -0.478470 0.920000 -0.145142
v -0.431154 0.993910 -0.130789
v -0.456021 0.976569 -0.138332
v -0.472636 0.950615 -0.143372
v -0.387940 -1.000000 -0.160690
v -0.461940 -0.920000 -0.191342
v -0.416259 -0.993910 -0.172420
v -0.440266 -0.976569 -0.182364
v -0.456307 -0.950615 -0.189009
v -0.387940 1.000000 -0.160690
v -0.461940 0.920000 -0.191342
v -0.416259 0.993910 -0.172420
v -0.440266 0.976569 -0.182364
v -0.456307 0.950615 -0.189008
v -0.370322 -1.000000 -0.197941
v -0.440961 -0.920000 -0.235698
v -0.397354 -0.993910 -0.212390
v -0.420271 -0.976569 -0.224639
v -0.435584 -0.950615 -0.232824
v -0.370322 1.000000 -0.197941
v -0.440961 0.920000 -0.235698
v -0.397354 0.993910 -0.212390
v -0.420271 0.976569 -0.224639
v -0.435584 0.950615 -0.232824
v -0.349137 -1.000000 -0.233286
v -0.415735 -0.920000 -0.277785
v -0.374623 -0.993910 -0.250315
v -0.396229 -0.976569 -0.264752
v -0.410665 -0.950615 -0.274398
v -0.349137 1.000000 -0.233286
v -0.415735 0.920000 -0.277785
v -0.374623 0.993910 -0.250315
v -0.396229 0.976569 -0.264752
v -0.410665 0.950615 -0.274398
v -0.324590 -1.000000 -0.266384
v -0.386505 -0.920000 -0.317197
v -0.348284 -0.993910 -0.285829
v -0.368371 -0.976569 -0.302314
v -0.381792 -0.950615 -0.313329
v -0.324590 1.000000 -0.266384
v -0.386505 0.920000 -0.317197
v -0.348284 0.993910 -0.285829
v -0.368371 0.976569 -0.302314
v -0.381792 0.950615 -0.313329
v -0.296917 -1.000000 -0.296917
v -0.353553 -0.920000 -0.353553
v -0.318591 -0.993910 -0.318591
v -0.336965 -0.976569 -0.336965
v -0.349242 -0.950615 -0.349242
v -0.296917 1.000000 -0.296917
v -0.353553 0.920000 -0.353553
v -0.318591 0.993910 -0.318591
v -0.336965 0.976569 -0.336965
v -0.349242 0.950615 -0.349242
v -0.266384 -1.000000 -0.324590
v -0.317197 -0.920000 -0.386505
v -0.285829 -0.993910 -0.348284
v -0.302314 -0.976569 -0.368371
v -0.313329 -0.950615 -0.381792
v -0.266384 1.000000 -0.324590
v -0.317197 0.920000 -0.386505
v -0.285829 0.993910 -0.348284
v -0.302314 0.976569 -0.368371
v -0.313329 0.950615 -0.381792
v -0.233286 -1.000000 -0.349137
v -0.277785 -0.920000 -0.415735
v -0.250315 -0.993910 -0.374623
v -0.264752 -0.976569 -0.396229
v -0.274398 -0.950615 -0.410665
v -0.233286 1.000000 -0.349137
v -0.277785 0.920000 -0.415735
v -0.250315 0.993910 -0.374623
v -0.264752 0.976569 -0.396229
v -0.274398 0.950615 -0.410665
v -0.197941 -1.000000 -0.370322
v -0.235698 -0.920000 -0.440961
v -0.212390 -0.993910 -0.397354
v -0.224639 -0.976569 -0.420271
v -0.232824 -0.950615 -0.435584
v -0.197941 1.000000 -0.370322
v -0.235698 0.920000 -0.440961
v -0.212390 0.993910 -0.397354
v -0.224639 0.976569 -0.420271
v -0.232824 0.950615 -0.435584
v -0.160690 -1.000000 -0.387940
v -0.191342 -0.920000 -0.461940
v -0.172420 -0.993910 -0.416259
v -0.182364 -0.976569 -0.440266
v -0.189008 -0.950615 -0.456307
v -0.160690 1.000000 -0.387940
v -0.191342 0.920000 -0.461940
v -0.172420 0.993910 -0.416259
v -0.182364 0.976569 -0.440266
v -0.189009 0.950615 -0.456307
v -0.121891 -1.000000 -0.401823
v -0.145142 -0.920000 -0.478470
v -0.130789 -0.993910 -0.431154
v -0.138332 -0.976569 -0.456021
v -0.143372 -0.950615 -0.472636
v -0.121891 1.000000 -0.401823
v -0.145142 0.920000 -0.478470
v -0.130789 0.993910 -0.431154
v -0.138332 0.976569 -0.456021
v -0.143372 0.950615 -0.472636
v -0.081919 -1.000000 -0.411835
v -0.097545 -0.920000 -0.490393
v -0.087899 -0.993910 -0.441898
v -0.092968 -0.976569 -0.467384
v -0.096356 -0.950615 -0.484413
v -0.081919 1.000000 -0.411835
v -0.097545 0.920000 -0.490393
v -0.087899 0.993910 -0.441898
v -0.092968 0.976569 -0.467384
v -0.096356 0.950615 -0.484413
v -0.041158 -1.000000 -0.417882
v -0.049009 -0.920000 -0.497592
v -0.044162 -0.993910 -0.448386
v -0.046709 -0.976569 -0.474246
v -0.048411 -0.950615 -0.491525
v -0.041158 1.000000 -0.417882
v -0.049009 0.920000 -0.497592
v -0.044162 0.993910 -0.448386
v -0.046709 0.976569 -0.474246
v -0.048411 0.950615 -0.491525
vn -0.0000 -0.9949 -0.1009
vn -0.0000 -0.0978 -0.9952
vn -0.0000 -0.9219 -0.3875
vn -0.0000 -0.7045 -0.7097
vn -0.0000 -0.3809 -0.9246
vn -0.0000 0.9949 -0.1009
vn -0.0000 0.0978 -0.9952
vn -0.0000 0.9219 -0.3875
vn -0.0000 0.7045 -0.7097
vn -0.0000 0.3809 -0.9246
vn 0.0099 -0.9949 -0.1004
vn 0.0975 -0.0978 -0.9904
vn 0.0380 -0.9219 -0.3856
vn 0.0696 -0.7045 -0.7063
vn 0.0906 -0.3809 -0.9202
vn 0.0099 0.9949 -0.1004
vn 0.0975 0.0978 -0.9904
vn 0.0380 0.9219 -0.3856
vn 0.0696 0.7045 -0.7063
vn 0.0906 0.3809 -0.9202
vn 0.0197 -0.9949 -0.0990
vn 0.1942 -0.0978 -0.9761
vn 0.0756 -0.9219 -0.3800
vn 0.1385 -0.7045 -0.6961
vn 0.1804 -0.3809 -0.9068
vn 0.0197 0.9949 -0.0990
vn 0.1942 0.0978 -0.9761
vn 0.0756 0.9219 -0.3800
vn 0.1385 0.7045 -0.6961
vn 0.1804 0.3809 -0.9068
vn 0.0293 -0.9949 -0.0966
vn 0.2889 -0.0978 -0.9523
vn 0.1125 -0.9219 -0.3708
vn 0.2060 -0.7045 -0.6792
vn 0.2684 -0.3809 -0.8848
vn 0.0293 0.9949 -0.0966
vn 0.2889 0.0978 -0.9523
vn 0.1125 0.9219 -0.3708
vn 0.2060 0.7045 -0.6792
vn 0.2684 0.3809 -0.8848
vn 0.0386 -0.9949 -0.0932
vn 0.3808 -0.0978 -0.9194
vn 0.1483 -0.9219 -0.3580
vn 0.2716 -0.7045 -0.6557
vn 0.3538 -0.3809 -0.8542
vn 0.0386 0.9949 -0.0932
vn 0.3808 0.0978 -0.9194
vn 0.1483 0.9219 -0.3580
vn 0.2716 0.7045 -0.6557
vn 0.3538 0.3809 -0.8542
vn 0.0476 -0.9949 -0.0890
vn 0.4691 -0.0978 -0.8777
vn 0.1827 -0.9219 -0.3417
vn 0.3346 -0.7045 -0.6259
vn 0.4359 -0.3809 -0.8154
vn 0.0476 0.9949 -0.0890
vn 0.4691 0.0978 -0.8777
vn 0.1827 0.9219 -0.3417
vn 0.3346 0.7045 -0.6259
vn 0.4359 0.3809 -0.8154
vn 0.0561 -0.9949 -0.0839
vn 0.5529 -0.0978 -0.8275
vn 0.2153 -0.9219 -0.3222
vn 0.3943 -0.7045 -0.5901
vn 0.5137 -0.3809 -0.7688
vn 0.0561 0.9949 -0.0839
vn 0.5529 0.0978 -0.8275
vn 0.2153 0.9219 -0.3222
vn 0.3943 0.7045 -0.5901
vn 0.5137 0.3809 -0.7688
vn 0.0640 -0.9949 -0.0780
vn 0.6314 -0.0978 -0.7693
vn 0.2458 -0.9219 -0.2995
vn 0.4503 -0.7045 -0.5486
vn 0.5866 -0.3809 -0.7147
vn 0.0640 0.9949 -0.0780
vn 0.6314 0.0978 -0.7693
vn 0.2458 0.9219 -0.2995
vn 0.4503 0.7045 -0.5486
vn 0.5866 0.3809 -0.7147
vn 0.0714 -0.9949 -0.0714
vn 0.7037 -0.0978 -0.7037
vn 0.2740 -0.9219 -0.2740
vn 0.5019 -0.7045 -0.5019
vn 0.6538 -0.3809 -0.6538
vn 0.0714 0.9949 -0.0714
vn 0.7037 0.0978 -0.7037
vn 0.2740 0.9219 -0.2740
vn 0.5019 0.7045 -0.5019
vn 0.6538 0.3809 -0.6538
vn 0.0780 -0.9949 -0.0640
vn 0.7693 -0.0978 -0.6314
vn 0.2995 -0.9219 -0.2458
vn 0.5486 -0.7045 -0.4503
vn 0.7147 -0.3809 -0.5866
vn 0.0780 0.9949 -0.0640
vn 0.7693 0.0978 -0.6314
vn 0.2995 0.9219 -0.2458
vn 0.5486 0.7045 -0.4503
vn 0.7147 0.3809 -0.5866
vn 0.0839 -0.9949 -0.0561
vn 0.8275 -0.0978 -0.5529
vn 0.3222 -0.9219 -0.2153
vn 0.5901 -0.7045 -0.3943
vn 0.7688 -0.3809 -0.5137
vn 0.0839 0.9949 -0.0561
vn 0.8275 0.0978 -0.5529
vn 0.3222 0.9219 -0.2153
vn 0.5901 0.7045 -0.3943
vn 0.7688 0.3809 -0.5137
vn 0.0890 -0.9949 -0.0476
vn 0.8777 -0.0978 -0.4691
vn 0.3417 -0.9219 -0.1827
vn 0.6259 -0.7045 -0.3346
vn 0.8154 -0.3809 -0.4359
vn 0.0890 0.9949 -0.0476
vn 0.8777 0.0978 -0.4691
vn 0.3417 0.9219 -0.1827
vn 0.6259 0.7045 -0.3346
vn 0.8154 0.3809 -0.4359
vn 0.0932 -0.9949 -0.0386
vn 0.9194 -0.0978 -0.3808
vn 0.3580 -0.9219 -0.1483
vn 0.6557 -0.7045 -0.2716
vn 0.8542 -0.3809 -0.3538
vn 0.0932 0.9949 -0.0386
vn 0.9194 0.0978 -0.3808
vn 0.3580 0.9219 -0.1483
vn 0.6557 0.7045 -0.2716
vn 0.8542 0.3809 -0.3538
vn 0.0966 -0.9949 -0.0293
vn 0.9523 -0.0978 -0.2889
vn 0.3708 -0.9219 -0.1125
vn 0.6792 -0.7045 -0.2060
vn 0.8848 -0.3809 -0.2684
vn 0.0966 0.9949 -0.0293
vn 0.9523 0.0978 -0.2889
vn 0.3708 0.9219 -0.1125
vn 0.6792 0.7045 -0.2060
vn 0.8848 0.3809 -0.2684
vn 0.0990 -0.9949 -0.0197
vn 0.9761 -0.0978 -0.1942
vn 0.3800 -0.9219 -0.0756
vn 0.6961 -0.7045 -0.1385
vn 0.9068 -0.3809 -0.1804
vn 0.0990 0.9949 -0.0197
vn 0.9761 0.0978 -0.1942
vn 0.3800 0.9219 -0.0756
vn 0.6961 0.7045 -0.1385
vn 0.9068 0.3809 -0.1804
vn 0.1004 -0.9949 -0.0099
vn 0.9904 -0.0978 -0.0975
vn 0.3856 -0.9219 -0.0380
vn 0.7063 -0.7045 -0.0696
vn 0.9202 -0.3809 -0.0906
vn 0.1004 0.9949 -0.0099
vn 0.9904 0.0978 -0.0975
vn 0.3856 0.9219 -0.0380
vn 0.7063 0.7045 -0.0696
vn 0.9202 0.3809 -0.0906
vn 0.1009 -0.9949 -0.0000
vn 0.9952 -0.0978 -0.0000
vn 0.3875 -0.9219 -0.0000
vn 0.7097 -0.7045 -0.0000
vn 0.9246 -0.3809 -0.0000
vn 0.1009 0.9949 -0.0000
vn 0.9952 0.0978 -0.0000
vn 0.3875 0.9219 -0.0000
vn 0.7097 0.7045 -0.0000
vn 0.9246 0.3809 -0.0000
vn 0.1004 -0.9949 0.0099
vn 0.9904 -0.0978 0.0975
vn 0.3856 -0.9219 0.0380
vn 0.7063 -0.7045 0.0696
vn 0.9202 -0.3809 0.0906
vn 0.1004 0.9949 0.0099
vn 0.9904 0.0978 0.0975
vn 0.3856 0.9219 0.0380
vn 0.7063 0.7045 0.0696
vn 0.9202 0.3809 0.0906
vn 0.0990 -0.9949 0.0197
vn 0.9761 -0.0978 0.1942
vn 0.3800 -0.9219 0.0756
vn 0.6961 -0.7045 0.1385
vn 0.9068 -0.3809 0.1804
vn 0.0990 0.9949 0.0197
vn 0.9761 0.0978 0.1942
vn 0.3800 0.9219 0.0756
vn 0.6961 0.7045 0.1385
vn 0.9068 0.3809 0.1804
vn 0.0966 -0.9949 0.0293
vn 0.9523 -0.0978 0.2889
vn 0.3708 -0.9219 0.1125
vn 0.6792 -0.7045 0.2060
vn 0.8848 -0.3809 0.2684
vn 0.0966 0.9949 0.0293
vn 0.9523 0.0978 0.2889
vn 0.3708 0.9219 0.1125
vn 0.6792 0.7045 0.2060
vn 0.8848 0.3809 0.2684
vn 0.0932 -0.9949 0.0386
vn 0.9194 -0.0978 0.3808
vn 0.3580 -0.9219 0.1483
vn 0.6557 -0.7045 0.2716
vn 0.8542 -0.3809 0.3538
vn 0.0932 0.9949 0.0386
vn 0.9194 0.0978 0.3808
vn 0.3580 0.9219 0.1483
vn 0.6557 0.7045 0.2716
vn 0.8542 0.3809 0.3538
vn 0.0890 -0.9949 0.0476
vn 0.8777 -0.0978 0.4691
vn 0.3417 -0.9219 0.1827
vn 0.6259 -0.7045 0.3346
vn 0.8154 -0.3809 0.4359
vn 0.0890 0.9949 0.0476
vn 0.8777 0.0978 0.4691
vn 0.3417 0.9219 0.1827
vn 0.6259 0.7045 0.3346
vn 0.8154 0.3809 0.4359
vn 0.0839 -0.9949 0.0561
vn 0.8275 -0.0978 0.5529
vn 0.3222 -0.9219 0.2153
vn 0.5901 -0.7045 0.3943
vn 0.7688 -0.3809 0.5137
vn 0.0839 0.9949 0.0561
vn 0.8275 0.0978 0.5529
vn 0.3222 0.9219 0.2153
vn 0.5901 0.7045 0.3943
vn 0.7688 0.3809 0.5137
vn 0.0780 -0.9949 0.0640
vn 0.7693 -0.0978 0.6314
vn 0.2995 -0.9219 0.2458
vn 0.5486 -0.7045 0.4503
vn 0.7147 -0.3809 0.5866
vn 0.0780 0.9949 0.0640
vn 0.7693 0.0978 0.6314
vn 0.2995 0.9219 0.2458
vn 0.5486 0.7045 0.4503
vn 0.7147 0.3809 0.5866
vn 0.0714 -0.9949 0.0714
vn 0.7037 -0.0978 0.7037
vn 0.2740 -0.9219 0.2740
vn 0.5019 -0.7045 0.5019
vn 0.6538 -0.3809 0.6538
vn 0.0714 0.9949 0.0714
vn 0.7037 0.0978 0.7037
vn 0.2740 0.9219 0.2740
vn 0.5019 0.7045 0.5019
vn 0.6538 0.3809 0.6538
vn 0.0640 -0.9949 0.0780
vn 0.6314 -0.0978 0.7693
vn 0.2458 -0.9219 0.2995
vn 0.4503 -0.7045 0.5486
vn 0.5866 -0.3809 0.7147
vn 0.0640 0.9949 0.0780
vn 0.6314 0.0978 0.7693
vn 0.2458 0.9219 0.2995
vn 0.4503 0.7045 0.5486
vn 0.5866 0.3809 0.7147
vn 0.0561 -0.9949 0.0839
vn 0.5529 -0.0978 0.8275
vn 0.2153 -0.9219 0.3222
vn 0.3943 -0.7045 0.5901
vn 0.5137 -0.3809 0.7688
vn 0.0561 0.9949 0.0839
vn 0.5529 0.0978 0.8275
vn 0.2153 0.9219 0.3222
vn 0.3943 0.7045 0.5901
vn 0.5137 0.3809 0.7688
vn 0.0476 -0.9949 0.0890
vn 0.4691 -0.0978 0.8777
vn 0.1827 -0.9219 0.3417
vn 0.3346 -0.7045 0.6259
vn 0.4359 -0.3809 0.8154
vn 0.0476 0.9949 0.0890
vn 0.4691 0.0978 0.8777
vn 0.1827 0.9219 0.3417
vn 0.3346 0.7045 0.6259
vn 0.4359 0.3809 0.8154
vn 0.0386 -0.9949 0.0932
vn 0.3808 -0.0978 0.9194
vn 0.1483 -0.9219 0.3580
vn 0.2716 -0.7045 0.6557
vn 0.3538 -0.3809 0.8542
vn 0.0386 0.9949 0.0932
vn 0.3808 0.0978 0.9194
vn 0.1483 0.9219 0.3580
vn 0.2716 0.7045 0.6557
vn 0.3538 0.3809 0.8542
vn 0.0293 -0.9949 0.0966
vn 0.2889 -0.0978 0.9523
vn 0.1125 -0.9219 0.3708
vn 0.2060 -0.7045 0.6792
vn 0.2684 -0.3809 0.8848
vn 0.0293 0.9949 0.0966
vn 0.2889 0.0978 0.9523
vn 0.1125 0.9219 0.3708
vn 0.2060 0.7045 0.6792
vn 0.2684 0.3809 0.8848
vn 0.0197 -0.9949 0.0990
vn 0.1942 -0.0978 0.9761
vn 0.0756 -0.9219 0.3800
vn 0.1385 -0.7045 0.6961
vn 0.1804 -0.3809 0.9068
vn 0.0197 0.9949 0.0990
vn 0.1942 0.0978 0.9761
vn 0.0756 0.9219 0.3800
vn 0.1385 0.7045 0.6961
vn 0.1804 0.3809 0.9068
vn 0.0099 -0.9949 0.1004
vn 0.0975 -0.0978 0.9904
vn 0.0380 -0.9219 0.3856
vn 0.0696 -0.7045 0.7063
vn 0.0906 -0.3809 0.9202
vn 0.0099 0.9949 0.1004
vn 0.0975 0.0978 0.9904
vn 0.0380 0.9219 0.3856
vn 0.0696 0.7045 0.7063
vn 0.0906 0.3809 0.9202
vn -0.0000 -0.9949 0.1009
vn -0.0000 -0.0978 0.9952
vn -0.0000 -0.9219 0.3875
vn -0.0000 -0.7045 0.7097
vn -0.0000 -0.3809 0.9246
vn -0.0000 0.9949 0.1009
vn -0.0000 0.0978 0.9952
vn -0.0000 0.9219 0.3875
vn -0.0000 0.7045 0.7097
vn -0.0000 0.3809 0.9246
vn -0.0099 -0.9949 0.1004
vn -0.0975 -0.0978 0.9904
vn -0.0380 -0.9219 0.3856
vn -0.0696 -0.7045 0.7063
vn -0.0906 -0.3809 0.9202
vn -0.0099 0.9949 0.1004
vn -0.0975 0.0978 0.9904
vn -0.0380 0.9219 0.3856
vn -0.0696 0.7045 0.7063
vn -0.0906 0.3809 0.9202
vn -0.0197 -0.9949 0.0990
vn -0.1942 -0.0978 0.9761
vn -0.0756 -0.9219 0.3800
vn -0.1385 -0.7045 0.6961
vn -0.1804 -0.3809 0.9068
vn -0.0197 0.9949 0.0990
vn -0.1942 0.0978 0.9761
vn -0.0756 0.9219 0.3800
vn -0.1385 0.7045 0.6961
vn -0.1804 0.3809 0.9068
vn -0.0293 -0.9949 0.0966
vn -0.2889 -0.0978 0.9523
vn -0.1125 -0.9219 0.3708
vn -0.2060 -0.7045 0.6792
vn -0.2684 -0.3809 0.8848
vn -0.0293 0.9949 0.0966
vn -0.2889 0.0978 0.9523
vn -0.1125 0.9219 0.3708
vn -0.2060 0.7045 0.6792
vn -0.2684 0.3809 0.8848
vn -0.0386 -0.9949 0.0932
vn -0.3808 -0.0978 0.9194
vn -0.1483 -0.9219 0.3580
vn -0.2716 -0.7045 0.6557
vn -0.3538 -0.3809 0.8542
vn -0.0386 0.9949 0.0932
vn -0.3808 0.0978 0.9194
vn -0.1483 0.9219 0.3580
vn -0.2716 0.7045 0.6557
vn -0.3538 0.3809 0.8542
vn -0.0476 -0.9949 0.0890
vn -0.4691 -0.0978 0.8777
vn -0.1827 -0.9219 0.3417
vn -0.3346 -0.7045 0.6259
vn -0.4359 -0.3809 0.8154
vn -0.0476 0.9949 0.0890
vn -0.4691 0.0978 0.8777
vn -0.1827 0.9219 0.3417
vn -0.3346 0.7045 0.6259
vn -0.4359 0.3809 0.8154
vn -0.0561 -0.9949 0.0839
vn -0.5529 -0.0978 0.8275
vn -0.2153 -0.9219 0.3222
vn -0.3943 -0.7045 0.5901
vn -0.5137 -0.3809 0.7688
vn -0.0561 0.9949 0.0839
vn -0.5529 0.0978 0.8275
vn -0.2153 0.9219 0.3222
vn -0.3943 0.7045 0.5901
vn -0.5137 0.3809 0.7688
vn -0.0640 -0.9949 0.0780
vn -0.6314 -0.0978 0.7693
vn -0.2458 -0.9219 0.2995
vn -0.4503 -0.7045 0.5486
vn -0.5866 -0.3809 0.7147
vn -0.0640 0.9949 0.0780
vn -0.6314 0.0978 0.7693
vn -0.2458 0.9219 0.2995
vn -0.4503 0.7045 0.5486
vn -0.5866 0.3809 0.7147
vn -0.0714 -0.9949 0.0714
vn -0.7037 -0.0978 0.7037
vn -0.2740 -0.9219 0.2740
vn -0.5019 -0.7045 0.5019
vn -0.6538 -0.3809 0.6538
vn -0.0714 0.9949 0.0714
vn -0.7037 0.0978 0.7037
vn -0.2740 0.9219 0.2740
vn -0.5019 0.7045 0.5019
vn -0.6538 0.3809 0.6538
vn -0.0780 -0.9949 0.0640
vn -0.7693 -0.0978 0.6314
vn -0.2995 -0.9219 0.2458
vn -0.5486 -0.7045 0.4503
vn -0.7147 -0.3809 0.5866
vn -0.0780 0.9949 0.0640
vn -0.7693 0.0978 0.6314
vn -0.2995 0.9219 0.2458
vn -0.5486 0.7045 0.4503
vn -0.7147 0.3809 0.5866
vn -0.0839 -0.9949 0.0561
vn -0.8275 -0.0978 0.5529
vn -0.3222 -0.9219 0.2153
vn -0.5901 -0.7045 0.3943
vn -0.7688 -0.3809 0.5137
vn -0.0839 0.9949 0.0561
vn -0.8275 0.0978 0.5529
vn -0.3222 0.9219 0.2153
vn -0.5901 0.7045 0.3943
vn -0.7688 0.3809 0.5137
vn -0.0890 -0.9949 0.0476
vn -0.8777 -0.0978 0.4691
vn -0.3417 -0.9219 0.1827
vn -0.6259 -0.7045 0.3346
vn -0.8154 -0.3809 0.4359
vn -0.0890 0.9949 0.0476
vn -0.8777 0.0978 0.4691
vn -0.3417 0.9219 0.1827
vn -0.6259 0.7045 0.3346
vn -0.8154 0.3809 0.4359
vn -0.0932 -0.9949 0.0386
vn -0.9194 -0.0978 0.3808
vn -0.3580 -0.9219 0.1483
vn -0.6557 -0.7045 0.2716
vn -0.8542 -0.3809 0.3538
vn -0.0932 0.9949 0.0386
vn -0.9194 0.0978 0.3808
vn -0.3580 0.9219 0.1483
vn -0.6557 0.7045 0.2716
vn -0.8542 0.3809 0.3538
vn -0.0966 -0.9949 0.0293
vn -0.9523 -0.0978 0.2889
vn -0.3708 -0.9219 0.1125
vn -0.6792 -0.7045 0.2060
vn -0.8848 -0.3809 0.2684
vn -0.0966 0.9949 0.0293
vn -0.9523 0.0978 0.2889
vn -0.3708 0.9219 0.1125
vn -0.6792 0.7045 0.2060
vn -0.8848 0.3809 0.2684
vn -0.0990 -0.9949 0.0197
vn -0.9761 -0.0978 0.1942
vn -0.3800 -0.9219 0.0756
vn -0.6961 -0.7045 0.1385
vn -0.9068 -0.3809 0.1804
vn -0.0990 0.9949 0.0197
vn -0.9761 0.0978 0.1942
vn -0.3800 0.9219 0.0756
vn -0.6961 0.7045 0.1385
vn -0.9068 0.3809 0.1804
vn -0.1004 -0.9949 0.0099
vn -0.9904 -0.0978 0.0975
vn -0.3856 -0.9219 0.0380
vn -0.7063 -0.7045 0.0696
vn -0.9202 -0.3809 0.0906
vn -0.1004 0.9949 0.0099
vn -0.9904 0.0978 0.0975
vn -0.3856 0.9219 0.0380
vn -0.7063 0.7045 0.0696
vn -0.9202 0.3809 0.0906
vn -0.1009 -0.9949 -0.0000
vn -0.9952 -0.0978 -0.0000
vn -0.3875 -0.9219 -0.0000
vn -0.7097 -0.7045 -0.0000
vn -0.9246 -0.3809 -0.0000
vn -0.1009 0.9949 -0.0000
vn -0.9952 0.0978 -0.0000
vn -0.3875 0.9219 -0.0000
vn -0.7097 0.7045 -0.0000
vn -0.9246 0.3809 -0.0000
vn -0.1004 -0.9949 -0.0099
vn -0.9904 -0.0978 -0.0975
vn -0.3856 -0.9219 -0.0380
vn -0.7063 -0.7045 -0.0696
vn -0.9202 -0.3809 -0.0906
vn -0.1004 0.9949 -0.0099
vn -0.9904 0.0978 -0.0975
vn -0.3856 0.9219 -0.0380
vn -0.7063 0.7045 -0.0696
vn -0.9202 0.3809 -0.0906
vn -0.0990 -0.9949 -0.0197
vn -0.9761 -0.0978 -0.1942
vn -0.3800 -0.9219 -0.0756
vn -0.6961 -0.7045 -0.1385
vn -0.9068 -0.3809 -0.1804
vn -0.0990 0.9949 -0.0197
vn -0.9761 0.0978 -0.1942
vn -0.3800 0.9219 -0.0756
vn -0.6961 0.7045 -0.1385
vn -0.9068 0.3809 -0.1804
vn -0.0966 -0.9949 -0.0293
vn -0.9523 -0.0978 -0.2889
vn -0.3708 -0.9219 -0.1125
vn -0.6792 -0.7045 -0.2060
vn -0.8848 -0.3809 -0.2684
vn -0.0966 0.9949 -0.0293
vn -0.9523 0.0978 -0.2889
vn -0.3708 0.9219 -0.1125
vn -0.6792 0.7045 -0.2060
vn -0.8848 0.3809 -0.2684
vn -0.0932 -0.9949 -0.0386
vn -0.9194 -0.0978 -0.3808
vn -0.3580 -0.9219 -0.1483
vn -0.6557 -0.7045 -0.2716
vn -0.8542 -0.3809 -0.3538
vn -0.0932 0.9949 -0.0386
vn -0.9194 0.0978 -0.3808
vn -0.3580 0.9219 -0.1483
vn -0.6557 0.7045 -0.2716
vn -0.8542 0.3809 -0.3538
vn -0.0890 -0.9949 -0.0476
vn -0.8777 -0.0978 -0.4691
vn -0.3417 -0.9219 -0.1827
vn -0.6259 -0.7045 -0.3346
vn -0.8154 -0.3809 -0.4359
vn -0.0890 0.9949 -0.0476
vn -0.8777 0.0978 -0.4691
vn -0.3417 0.9219 -0.1827
vn -0.6259 0.7045 -0.3346
vn -0.8154 0.3809 -0.4359
vn -0.0839 -0.9949 -0.0561
vn -0.8275 -0.0978 -0.5529
vn -0.3222 -0.9219 -0.2153
vn -0.5901 -0.7045 -0.3943
vn -0.7688 -0.3809 -0.5137
vn -0.0839 0.9949 -0.0561
vn -0.8275 0.0978 -0.5529
vn -0.3222 0.9219 -0.2153
vn -0.5901 0.7045 -0.3943
vn -0.7688 0.3809 -0.5137
vn -0.0780 -0.9949 -0.0640
vn -0.7693 -0.0978 -0.6314
vn -0.2995 -0.9219 -0.2458
vn -0.5486 -0.7045 -0.4503
vn -0.7147 -0.3809 -0.5866
vn -0.0780 0.9949 -0.0640
vn -0.7693 0.0978 -0.6314
vn -0.2995 0.9219 -0.2458
vn -0.5486 0.7045 -0.4503
vn -0.7147 0.3809 -0.5866
vn -0.0714 -0.9949 -0.0714
vn -0.7037 -0.0978 -0.7037
vn -0.2740 -0.9219 -0.2740
vn -0.5019 -0.7045 -0.5019
vn -0.6538 -0.3809 -0.6538
vn -0.0714 0.9949 -0.0714
vn -0.7037 0.0978 -0.7037
vn -0.2740 0.9219 -0.2740
vn -0.5019 0.7045 -0.5019
vn -0.6538 0.3809 -0.6538
vn -0.0640 -0.9949 -0.0780
vn -0.6314 -0.0978 -0.7693
vn -0.2458 -0.9219 -0.2995
vn -0.4503 -0.7045 -0.5486
vn -0.5866 -0.3809 -0.7147
vn -0.0640 0.9949 -0.0780
vn -0.6314 0.0978 -0.7693
vn -0.2458 0.9219 -0.2995
vn -0.4503 0.7045 -0.5486
vn -0.5866 0.3809 -0.7147
vn -0.0561 -0.9949 -0.0839
vn -0.5529 -0.0978 -0.8275
vn -0.2153 -0.9219 -0.3222
vn -0.3943 -0.7045 -0.5901
vn -0.5137 -0.3809 -0.7688
vn -0.0561 0.9949 -0.0839
vn -0.5529 0.0978 -0.8275
vn -0.2153 0.9219 -0.3222
vn -0.3943 0.7045 -0.5901
vn -0.5137 0.3809 -0.7688
vn -0.0476 -0.9949 -0.0890
vn -0.4691 -0.0978 -0.8777
vn -0.1827 -0.9219 -0.3417
vn -0.3346 -0.7045 -0.6259
vn -0.4359 -0.3809 -0.8154
vn -0.0476 0.9949 -0.0890
vn -0.4691 0.0978 -0.8777
vn -0.1827 0.9219 -0.3417
vn -0.3346 0.7045 -0.6259
vn -0.4359 0.3809 -0.8154
vn -0.0386 -0.9949 -0.0932
vn -0.3808 -0.0978 -0.9194
vn -0.1483 -0.9219 -0.3580
vn -0.2716 -0.7045 -0.6557
vn -0.3538 -0.3809 -0.8542
vn -0.0386 0.9949 -0.0932
vn -0.3808 0.0978 -0.9194
vn -0.1483 0.9219 -0.3580
vn -0.2716 0.7045 -0.6557
vn -0.3538 0.3809 -0.8542
vn -0.0293 -0.9949 -0.0966
vn -0.2889 -0.0978 -0.9523
vn -0.1125 -0.9219 -0.3708
vn -0.2060 -0.7045 -0.6792
vn -0.2684 -0.3809 -0.8848
vn -0.0293 0.9949 -0.0966
vn -0.2889 0.0978 -0.9523
vn -0.1125 0.9219 -0.3708
vn -0.2060 0.7045 -0.6792
vn -0.2684 0.3809 -0.8848
vn -0.0197 -0.9949 -0.0990
vn -0.1942 -0.0978 -0.9761
vn -0.0756 -0.9219 -0.3800
vn -0.1385 -0.7045 -0.6961
vn -0.1804 -0.3809 -0.9068
vn -0.0197 0.9949 -0.0990
vn -0.1942 0.0978 -0.9761
vn -0.0756 0.9219 -0.3800
vn -0.1385 0.7045 -0.6961
vn -0.1804 0.3809 -0.9068
vn -0.0099 -0.9949 -0.1004
vn -0.0975 -0.0978 -0.9904
vn -0.0380 -0.9219 -0.3856
vn -0.0696 -0.7045 -0.7063
vn -0.0906 -0.3809 -0.9202
vn -0.0099 0.9949 -0.1004
vn -0.0975 0.0978 -0.9904
vn -0.0380 0.9219 -0.3856
vn -0.0696 0.7045 -0.7063
vn -0.0906 0.3809 -0.9202
vt 1.000000 0.520000
vt 0.984375 0.512346
vt 0.999905 0.512346
vt 0.984375 0.500000
vt 0.999633 0.500000
vt 0.750000 0.489973
vt 0.771198 0.465225
vt 0.750000 0.466266
vt 0.769755 0.450583
vt 0.750000 0.451554
vt 1.000000 0.980000
vt 0.984375 0.987654
vt 0.984375 0.980000
vt 0.999905 0.987654
vt 0.984375 1.000000
vt 0.250000 0.489973
vt 0.271198 0.465225
vt 0.273521 0.488817
vt 0.250000 0.466266
vt 0.269756 0.450583
vt 0.968750 0.520000
vt 0.984375 0.520000
vt 0.968750 0.500000
vt 0.773521 0.488817
vt 0.792191 0.462111
vt 0.789321 0.447681
vt 0.968750 0.987654
vt 0.968750 0.980000
vt 0.968750 1.000000
vt 0.292191 0.462111
vt 0.296816 0.485362
vt 0.289321 0.447681
vt 0.953125 0.512346
vt 0.968750 0.512346
vt 0.796816 0.485362
vt 0.812779 0.456954
vt 0.808508 0.442875
vt 0.953125 0.987654
vt 0.953125 0.980000
vt 0.953125 1.000000
vt 0.312779 0.456954
vt 0.319660 0.479640
vt 0.308508 0.442875
vt 0.937500 0.520000
vt 0.953125 0.520000
vt 0.937500 0.500000
vt 0.953125 0.500000
vt 0.819660 0.479640
vt 0.832761 0.449804
vt 0.827131 0.436211
vt 0.937500 0.987654
vt 0.937500 0.980000
vt 0.937500 1.000000
vt 0.332762 0.449804
vt 0.341834 0.471706
vt 0.327131 0.436211
vt 0.921875 0.520000
vt 0.937500 0.512346
vt 0.921875 0.500000
vt 0.841834 0.471706
vt 0.851947 0.440730
vt 0.845011 0.427755
vt 0.921875 0.987654
vt 0.921875 0.980000
vt 0.921875 1.000000
vt 0.351947 0.440730
vt 0.363122 0.461637
vt 0.345012 0.427755
vt 0.906250 0.520000
vt 0.921875 0.512346
vt 0.906250 0.500000
vt 0.863122 0.461637
vt 0.870151 0.429819
vt 0.861977 0.417586
vt 0.906250 0.987654
vt 0.906250 0.980000
vt 0.906250 1.000000
vt 0.370151 0.429819
vt 0.383322 0.449530
vt 0.361977 0.417586
vt 0.890625 0.520000
vt 0.906250 0.512346
vt 0.890625 0.512346
vt 0.902237 0.435502
vt 0.883322 0.449530
vt 0.887198 0.417176
vt 0.890625 0.980000
vt 0.890625 0.987654
vt 0.890625 1.000000
vt 0.402237 0.435502
vt 0.387198 0.417176
vt 0.377864 0.405803
vt 0.875000 0.520000
vt 0.875000 0.512346
vt 0.890625 0.500000
vt 0.902923 0.402923
vt 0.877864 0.405803
vt 0.875000 0.987654
vt 0.875000 0.980000
vt 0.875000 1.000000
vt 0.402923 0.402923
vt 0.419686 0.419686
vt 0.392520 0.392520
vt 0.859375 0.520000
vt 0.859375 0.500000
vt 0.875000 0.500000
vt 0.935502 0.402237
vt 0.919686 0.419686
vt 0.917176 0.387198
vt 0.892520 0.392520
vt 0.859375 0.987654
vt 0.859375 0.980000
vt 0.859375 1.000000
vt 0.435502 0.402237
vt 0.417176 0.387198
vt 0.405803 0.377864
vt 0.843750 0.512346
vt 0.859375 0.512346
vt 0.929819 0.370151
vt 0.917586 0.361977
vt 0.905803 0.377864
vt 0.843750 0.987654
vt 0.843750 0.980000
vt 0.843750 1.000000
vt 0.429819 0.370151
vt 0.449530 0.383322
vt 0.417586 0.361977
vt 0.828125 0.520000
vt 0.843750 0.520000
vt 0.828125 0.512346
vt 0.843750 0.500000
vt 0.961637 0.363122
vt 0.949530 0.383322
vt 0.940730 0.351947
vt 0.828125 0.987654
vt 0.828125 0.980000
vt 0.828125 1.000000
vt 0.461637 0.363122
vt 0.440730 0.351947
vt 0.427755 0.345012
vt 0.812500 0.520000
vt 0.812500 0.512346
vt 0.828125 0.500000
vt 0.971706 0.341834
vt 0.949804 0.332762
vt 0.927754 0.345012
vt 0.812500 0.987654
vt 0.812500 0.980000
vt 0.812500 1.000000
vt 0.471706 0.341834
vt 0.449804 0.332762
vt 0.436211 0.327131
vt 0.796875 0.520000
vt 0.796875 0.512346
vt 0.812500 0.500000
vt 0.979640 0.319660
vt 0.956954 0.312779
vt 0.936211 0.327131
vt 0.796875 0.987654
vt 0.796875 0.980000
vt 0.796875 1.000000
vt 0.479640 0.319660
vt 0.456954 0.312779
vt 0.442875 0.308508
vt 0.781250 0.520000
vt 0.781250 0.512346
vt 0.796875 0.500000
vt 0.985362 0.296816
vt 0.962111 0.292191
vt 0.942875 0.308508
vt 0.781250 0.980000
vt 0.781250 0.987654
vt 0.781250 1.000000
vt 0.485362 0.296816
vt 0.462111 0.292191
vt 0.447681 0.289321
vt 0.765625 0.520000
vt 0.765625 0.512346
vt 0.781250 0.500000
vt 0.988817 0.273521
vt 0.965225 0.271198
vt 0.947681 0.289321
vt 0.765625 0.987654
vt 0.765625 0.980000
vt 0.765625 1.000000
vt 0.488817 0.273521
vt 0.465225 0.271198
vt 0.450583 0.269756
vt 0.750000 0.520000
vt 0.750000 0.512346
vt 0.765625 0.500000
vt 0.989973 0.250000
vt 0.966266 0.250000
vt 0.950583 0.269756
vt 0.750000 0.980000
vt 0.750000 0.987654
vt 0.750000 1.000000
vt 0.489973 0.250000
vt 0.466266 0.250000
vt 0.451554 0.250000
vt 0.734375 0.512346
vt 0.734375 0.500000
vt 0.750000 0.500000
vt 0.965225 0.228802
vt 0.950583 0.230244
vt 0.951554 0.250000
vt 0.734375 0.987654
vt 0.734375 0.980000
vt 0.734375 1.000000
vt 0.465225 0.228802
vt 0.488817 0.226479
vt 0.450583 0.230244
vt 0.718750 0.520000
vt 0.734375 0.520000
vt 0.718750 0.500000
vt 0.988817 0.226479
vt 0.962111 0.207808
vt 0.947681 0.210679
vt 0.718750 0.987654
vt 0.718750 0.980000
vt 0.718750 1.000000
vt 0.462111 0.207808
vt 0.485362 0.203184
vt 0.447681 0.210679
vt 0.703125 0.512346
vt 0.718750 0.512346
vt 0.985362 0.203184
vt 0.956954 0.187221
vt 0.942875 0.191492
vt 0.703125 0.987654
vt 0.703125 0.980000
vt 0.703125 1.000000
vt 0.456954 0.187221
vt 0.479640 0.180340
vt 0.442875 0.191492
vt 0.687500 0.520000
vt 0.703125 0.520000
vt 0.687500 0.500000
vt 0.703125 0.500000
vt 0.979640 0.180340
vt 0.949804 0.167238
vt 0.936211 0.172869
vt 0.687500 0.987654
vt 0.687500 0.980000
vt 0.687500 1.000000
vt 0.449804 0.167238
vt 0.471706 0.158166
vt 0.436211 0.172869
vt 0.671875 0.520000
vt 0.687500 0.512346
vt 0.671875 0.500000
vt 0.971706 0.158166
vt 0.940730 0.148053
vt 0.927755 0.154988
vt 0.671875 0.987654
vt 0.671875 0.980000
vt 0.671875 1.000000
vt 0.440730 0.148053
vt 0.461637 0.136878
vt 0.427755 0.154988
vt 0.656250 0.520000
vt 0.671875 0.512346
vt 0.656250 0.500000
vt 0.961637 0.136878
vt 0.929819 0.129849
vt 0.917586 0.138023
vt 0.656250 0.987654
vt 0.656250 0.980000
vt 0.656250 1.000000
vt 0.429819 0.129849
vt 0.449530 0.116678
vt 0.417586 0.138023
vt 0.640625 0.520000
vt 0.656250 0.512346
vt 0.640625 0.512346
vt 0.935502 0.097763
vt 0.949530 0.116678
vt 0.917176 0.112802
vt 0.640625 0.980000
vt 0.640625 0.987654
vt 0.640625 1.000000
vt 0.435502 0.097763
vt 0.417176 0.112802
vt 0.405803 0.122136
vt 0.625000 0.520000
vt 0.625000 0.512346
vt 0.640625 0.500000
vt 0.902923 0.097077
vt 0.905803 0.122136
vt 0.625000 0.987654
vt 0.625000 0.980000
vt 0.625000 1.000000
vt 0.402924 0.097077
vt 0.419686 0.080314
vt 0.392520 0.107480
vt 0.609375 0.520000
vt 0.609375 0.500000
vt 0.625000 0.500000
vt 0.902237 0.064498
vt 0.919686 0.080314
vt 0.887198 0.082824
vt 0.892520 0.107480
vt 0.609375 0.987654
vt 0.609375 0.980000
vt 0.609375 1.000000
vt 0.402237 0.064498
vt 0.387198 0.082824
vt 0.377864 0.094197
vt 0.593750 0.512346
vt 0.609375 0.512346
vt 0.870151 0.070181
vt 0.861977 0.082414
vt 0.877864 0.094197
vt 0.593750 0.987654
vt 0.593750 0.980000
vt 0.593750 1.000000
vt 0.370151 0.070181
vt 0.383322 0.050470
vt 0.361977 0.082414
vt 0.578125 0.520000
vt 0.593750 0.520000
vt 0.578125 0.512346
vt 0.593750 0.500000
vt 0.863122 0.038363
vt 0.883322 0.050470
vt 0.851947 0.059270
vt 0.578125 0.987654
vt 0.578125 0.980000
vt 0.578125 1.000000
vt 0.363122 0.038363
vt 0.351947 0.059270
vt 0.345012 0.072245
vt 0.562500 0.520000
vt 0.562500 0.512346
vt 0.578125 0.500000
vt 0.841834 0.028294
vt 0.832762 0.050196
vt 0.845012 0.072245
vt 0.562500 0.987654
vt 0.562500 0.980000
vt 0.562500 1.000000
vt 0.341834 0.028294
vt 0.332762 0.050196
vt 0.327131 0.063789
vt 0.546875 0.520000
vt 0.546875 0.512346
vt 0.562500 0.500000
vt 0.819660 0.020360
vt 0.812779 0.043046
vt 0.827131 0.063789
vt 0.546875 0.987654
vt 0.546875 0.980000
vt 0.546875 1.000000
vt 0.319660 0.020360
vt 0.312779 0.043046
vt 0.308508 0.057125
vt 0.531250 0.520000
vt 0.531250 0.512346
vt 0.546875 0.500000
vt 0.796816 0.014638
vt 0.792191 0.037889
vt 0.808508 0.057125
vt 0.531250 0.980000
vt 0.531250 0.987654
vt 0.531250 1.000000
vt 0.296816 0.014638
vt 0.292191 0.037889
vt 0.289321 0.052319
vt 0.515625 0.520000
vt 0.515625 0.512346
vt 0.531250 0.500000
vt 0.773521 0.011183
vt 0.771198 0.034775
vt 0.789321 0.052319
vt 0.515625 0.987654
vt 0.515625 0.980000
vt 0.515625 1.000000
vt 0.273521 0.011183
vt 0.271198 0.034775
vt 0.269756 0.049417
vt 0.500000 0.520000
vt 0.500000 0.512346
vt 0.515625 0.500000
vt 0.750000 0.010027
vt 0.750000 0.033734
vt 0.769756 0.049417
vt 0.500000 0.980000
vt 0.500000 0.987654
vt 0.500000 1.000000
vt 0.250000 0.010027
vt 0.250000 0.033734
vt 0.250000 0.048446
vt 0.484375 0.512346
vt 0.484375 0.500000
vt 0.500000 0.500000
vt 0.728802 0.034775
vt 0.730244 0.049417
vt 0.750000 0.048446
vt 0.484375 0.987654
vt 0.484375 0.980000
vt 0.484375 1.000000
vt 0.228802 0.034775
vt 0.226479 0.011183
vt 0.230244 0.049417
vt 0.468750 0.520000
vt 0.484375 0.520000
vt 0.468750 0.500000
vt 0.726479 0.011183
vt 0.707808 0.037889
vt 0.710679 0.052319
vt 0.468750 0.987654
vt 0.468750 0.980000
vt 0.468750 1.000000
vt 0.207808 0.037889
vt 0.203184 0.014638
vt 0.210679 0.052319
vt 0.453125 0.512346
vt 0.468750 0.512346
vt 0.703184 0.014638
vt 0.687221 0.043046
vt 0.691492 0.057125
vt 0.453125 0.987654
vt 0.453125 0.980000
vt 0.453125 1.000000
vt 0.187221 0.043046
vt 0.180340 0.020360
vt 0.191492 0.057125
vt 0.437500 0.520000
vt 0.453125 0.520000
vt 0.437500 0.500000
vt 0.453125 0.500000
vt 0.680340 0.020360
vt 0.667239 0.050196
vt 0.672869 0.063789
vt 0.437500 0.987654
vt 0.437500 0.980000
vt 0.437500 1.000000
vt 0.167238 0.050196
vt 0.158166 0.028294
vt 0.172869 0.063789
vt 0.421875 0.520000
vt 0.437500 0.512346
vt 0.421875 0.500000
vt 0.658166 0.028294
vt 0.648053 0.059270
vt 0.654988 0.072245
vt 0.421875 0.987654
vt 0.421875 0.980000
vt 0.421875 1.000000
vt 0.148053 0.059270
vt 0.136878 0.038363
vt 0.154988 0.072245
vt 0.406250 0.520000
vt 0.421875 0.512346
vt 0.406250 0.500000
vt 0.636878 0.038363
vt 0.629849 0.070181
vt 0.638023 0.082414
vt 0.406250 0.987654
vt 0.406250 0.980000
vt 0.406250 1.000000
vt 0.129849 0.070181
vt 0.116678 0.050470
vt 0.138023 0.082414
vt 0.390625 0.520000
vt 0.406250 0.512346
vt 0.390625 0.512346
vt 0.597763 0.064498
vt 0.616678 0.050470
vt 0.612802 0.082824
vt 0.390625 0.980000
vt 0.390625 0.987654
vt 0.390625 1.000000
vt 0.097763 0.064498
vt 0.112802 0.082824
vt 0.122136 0.094197
vt 0.375000 0.520000
vt 0.375000 0.512346
vt 0.390625 0.500000
vt 0.597077 0.097077
vt 0.622136 0.094197
vt 0.375000 0.987654
vt 0.375000 0.980000
vt 0.375000 1.000000
vt 0.097077 0.097077
vt 0.080314 0.080314
vt 0.107480 0.107480
vt 0.359375 0.520000
vt 0.359375 0.500000
vt 0.375000 0.500000
vt 0.564498 0.097763
vt 0.580314 0.080314
vt 0.582824 0.112802
vt 0.607480 0.107480
vt 0.359375 0.987654
vt 0.359375 0.980000
vt 0.359375 1.000000
vt 0.064498 0.097763
vt 0.082824 0.112802
vt 0.094197 0.122136
vt 0.343750 0.512346
vt 0.359375 0.512346
vt 0.570181 0.129849
vt 0.582414 0.138023
vt 0.594197 0.122136
vt 0.343750 0.987654
vt 0.343750 0.980000
vt 0.343750 1.000000
vt 0.070181 0.129849
vt 0.050470 0.116678
vt 0.082414 0.138023
vt 0.328125 0.520000
vt 0.343750 0.520000
vt 0.328125 0.512346
vt 0.343750 0.500000
vt 0.538363 0.136878
vt 0.550470 0.116678
vt 0.559270 0.148053
vt 0.328125 0.987654
vt 0.328125 0.980000
vt 0.328125 1.000000
vt 0.038363 0.136878
vt 0.059270 0.148053
vt 0.072245 0.154988
vt 0.312500 0.520000
vt 0.312500 0.512346
vt 0.328125 0.500000
vt 0.528294 0.158166
vt 0.550196 0.167238
vt 0.572245 0.154988
vt 0.312500 0.987654
vt 0.312500 0.980000
vt 0.312500 1.000000
vt 0.028294 0.158166
vt 0.050196 0.167238
vt 0.063789 0.172869
vt 0.296875 0.520000
vt 0.296875 0.512346
vt 0.312500 0.500000
vt 0.520360 0.180340
vt 0.543046 0.187221
vt 0.563789 0.172869
vt 0.296875 0.987654
vt 0.296875 0.980000
vt 0.296875 1.000000
vt 0.020360 0.180340
vt 0.043046 0.187221
vt 0.057125 0.191492
vt 0.281250 0.520000
vt 0.281250 0.512346
vt 0.296875 0.500000
vt 0.514638 0.203184
vt 0.537889 0.207809
vt 0.557125 0.191492
vt 0.281250 0.980000
vt 0.281250 0.987654
vt 0.281250 1.000000
vt 0.014638 0.203184
vt 0.037889 0.207808
vt 0.052319 0.210679
vt 0.265625 0.520000
vt 0.265625 0.512346
vt 0.281250 0.500000
vt 0.511183 0.226479
vt 0.534775 0.228802
vt 0.552319 0.210679
vt 0.265625 0.987654
vt 0.265625 0.980000
vt 0.265625 1.000000
vt 0.011183 0.226479
vt 0.034775 0.228802
vt 0.049417 0.230244
vt 0.250000 0.520000
vt 0.250000 0.512346
vt 0.265625 0.500000
vt 0.510027 0.250000
vt 0.533734 0.250000
vt 0.549417 0.230244
vt 0.250000 0.980000
vt 0.250000 0.987654
vt 0.250000 1.000000
vt 0.010027 0.250000
vt 0.033734 0.250000
vt 0.048446 0.250000
vt 0.234375 0.512346
vt 0.234375 0.500000
vt 0.250000 0.500000
vt 0.534775 0.271198
vt 0.549417 0.269756
vt 0.548446 0.250000
vt 0.234375 0.987654
vt 0.234375 0.980000
vt 0.234375 1.000000
vt 0.034775 0.271198
vt 0.011183 0.273521
vt 0.049417 0.269756
vt 0.218750 0.520000
vt 0.234375 0.520000
vt 0.218750 0.500000
vt 0.511183 0.273521
vt 0.537889 0.292192
vt 0.552319 0.289321
vt 0.218750 0.987654
vt 0.218750 0.980000
vt 0.218750 1.000000
vt 0.037889 0.292191
vt 0.014638 0.296816
vt 0.052319 0.289321
vt 0.203125 0.512346
vt 0.218750 0.512346
vt 0.514638 0.296816
vt 0.543046 0.312779
vt 0.557125 0.308508
vt 0.203125 0.987654
vt 0.203125 0.980000
vt 0.203125 1.000000
vt 0.043046 0.312779
vt 0.020360 0.319660
vt 0.057125 0.308508
vt 0.187500 0.520000
vt 0.203125 0.520000
vt 0.187500 0.500000
vt 0.203125 0.500000
vt 0.520360 0.319660
vt 0.550196 0.332762
vt 0.563789 0.327131
vt 0.187500 0.987654
vt 0.187500 0.980000
vt 0.187500 1.000000
vt 0.050196 0.332762
vt 0.028294 0.341834
vt 0.063789 0.327131
vt 0.171875 0.520000
vt 0.187500 0.512346
vt 0.171875 0.500000
vt 0.528294 0.341834
vt 0.559270 0.351947
vt 0.572245 0.345012
vt 0.171875 0.987654
vt 0.171875 0.980000
vt 0.171875 1.000000
vt 0.059270 0.351947
vt 0.038363 0.363122
vt 0.072245 0.345012
vt 0.156250 0.520000
vt 0.171875 0.512346
vt 0.156250 0.500000
vt 0.538363 0.363122
vt 0.570181 0.370151
vt 0.582414 0.361977
vt 0.156250 0.987654
vt 0.156250 0.980000
vt 0.156250 1.000000
vt 0.070181 0.370151
vt 0.050470 0.383322
vt 0.082414 0.361977
vt 0.140625 0.520000
vt 0.156250 0.512346
vt 0.140625 0.512346
vt 0.564498 0.402237
vt 0.550470 0.383322
vt 0.582824 0.387198
vt 0.140625 0.980000
vt 0.140625 0.987654
vt 0.140625 1.000000
vt 0.064498 0.402237
vt 0.082824 0.387198
vt 0.094197 0.377864
vt 0.125000 0.520000
vt 0.125000 0.512346
vt 0.140625 0.500000
vt 0.597077 0.402924
vt 0.594197 0.377864
vt 0.125000 0.987654
vt 0.125000 0.980000
vt 0.125000 1.000000
vt 0.097076 0.402923
vt 0.080314 0.419686
vt 0.107480 0.392520
vt 0.109375 0.520000
vt 0.109375 0.500000
vt 0.125000 0.500000
vt 0.597763 0.435502
vt 0.580314 0.419686
vt 0.612802 0.417176
vt 0.607480 0.392520
vt 0.109375 0.987654
vt 0.109375 0.980000
vt 0.109375 1.000000
vt 0.097763 0.435502
vt 0.112802 0.417176
vt 0.122136 0.405803
vt 0.093750 0.512346
vt 0.109375 0.512346
vt 0.629849 0.429819
vt 0.638023 0.417586
vt 0.622136 0.405803
vt 0.093750 0.987654
vt 0.093750 0.980000
vt 0.093750 1.000000
vt 0.129849 0.429819
vt 0.116678 0.449530
vt 0.138023 0.417586
vt 0.078125 0.520000
vt 0.093750 0.520000
vt 0.078125 0.512346
vt 0.093750 0.500000
vt 0.636878 0.461637
vt 0.616678 0.449530
vt 0.648053 0.440730
vt 0.078125 0.987654
vt 0.078125 0.980000
vt 0.078125 1.000000
vt 0.136878 0.461637
vt 0.148053 0.440730
vt 0.154988 0.427755
vt 0.062500 0.520000
vt 0.062500 0.512346
vt 0.078125 0.500000
vt 0.658166 0.471706
vt 0.667238 0.449804
vt 0.654988 0.427755
vt 0.062500 0.987654
vt 0.062500 0.980000
vt 0.062500 1.000000
vt 0.158166 0.471706
vt 0.167238 0.449804
vt 0.172869 0.436211
vt 0.046875 0.520000
vt 0.046875 0.512346
vt 0.062500 0.500000
vt 0.680340 0.479640
vt 0.687221 0.456954
vt 0.672869 0.436211
vt 0.046875 0.987654
vt 0.046875 0.980000
vt 0.046875 1.000000
vt 0.180340 0.479640
vt 0.187221 0.456954
vt 0.191492 0.442875
vt 0.031250 0.520000
vt 0.031250 0.512346
vt 0.046875 0.500000
vt 0.703184 0.485362
vt 0.707809 0.462111
vt 0.691492 0.442875
vt 0.031250 0.980000
vt 0.031250 0.987654
vt 0.031250 1.000000
vt 0.203184 0.485362
vt 0.207808 0.462111
vt 0.210679 0.447681
vt 0.015625 0.520000
vt 0.015625 0.512346
vt 0.031250 0.500000
vt 0.726479 0.488817
vt 0.728802 0.465225
vt 0.710679 0.447681
vt 0.015625 0.987654
vt 0.015625 0.980000
vt 0.015625 1.000000
vt 0.226479 0.488817
vt 0.228802 0.465225
vt 0.230244 0.450583
vt 0.000000 0.520000
vt 0.000095 0.512346
vt 0.015625 0.500000
vt 0.730244 0.450583
vt 0.000000 0.980000
vt 0.000095 0.987654
vt 0.000367 1.000000
vt 0.250000 0.451554
vt 0.999633 1.000000
vt 0.000367 0.500000
s 1
f 2/1/2 15/2/15 5/3/5
f 5/3/5 14/4/14 4/5/4
f 4/6/4 13/7/13 3/8/3
f 3/8/3 11/9/11 1/10/1
f 7/11/7 20/12/20 17/13/17
f 10/14/10 19/15/19 20/12/20
f 9/16/9 18/17/18 19/18/19
f 8/19/8 16/20/16 18/17/18
f 22/21/22 15/2/15 12/22/12
f 15/2/15 24/23/24 14/4/14
f 14/24/14 23/25/23 13/7/13
f 13/7/13 21/26/21 11/9/11
f 17/13/17 30/27/30 27/28/27
f 20/12/20 29/29/29 30/27/30
f 19/18/19 28/30/28 29/31/29
f 18/17/18 26/32/26 28/30/28
f 22/21/22 35/33/35 25/34/25
f 35/33/35 24/23/24 25/34/25
f 24/35/24 33/36/33 23/25/23
f 23/25/23 31/37/31 21/26/21
f 27/28/27 40/38/40 37/39/37
f 30/27/30 39/40/39 40/38/40
f 29/31/29 38/41/38 39/42/39
f 28/30/28 36/43/36 38/41/38
f 42/44/42 35/33/35 32/45/32
f 35/33/35 44/46/44 34/47/34
f 34/48/34 43/49/43 33/36/33
f 33/36/33 41/50/41 31/37/31
f 37/39/37 50/51/50 47/52/47
f 40/38/40 49/53/49 50/51/50
f 39/42/39 48/54/48 49/55/49
f 38/41/38 46/56/46 48/54/48
f 52/57/52 45/58/45 42/44/42
f 45/58/45 54/59/54 44/46/44
f 44/60/44 53/61/53 43/49/43
f 43/49/43 51/62/51 41/50/41
f 47/52/47 60/63/60 57/64/57
f 50/51/50 59/65/59 60/63/60
f 49/55/49 58/66/58 59/67/59
f 48/54/48 56/68/56 58/66/58
f 62/69/62 55/70/55 52/57/52
f 55/70/55 64/71/64 54/59/54
f 54/72/54 63/73/63 53/61/53
f 53/61/53 61/74/61 51/62/51
f 57/64/57 70/75/70 67/76/67
f 60/63/60 69/77/69 70/75/70
f 59/67/59 68/78/68 69/79/69
f 58/66/58 66/80/66 68/78/68
f 72/81/72 65/82/65 62/69/62
f 75/83/75 64/71/64 65/82/65
f 74/84/74 63/73/63 64/85/64
f 73/86/73 61/74/61 63/73/63
f 77/87/77 70/75/70 80/88/80
f 70/75/70 79/89/79 80/88/80
f 79/90/79 68/78/68 78/91/78
f 78/91/78 66/80/66 76/92/76
f 82/93/82 75/83/75 72/81/72
f 85/94/85 74/95/74 75/83/75
f 74/84/74 83/96/83 73/86/73
f 83/96/83 71/97/71 73/86/73
f 77/87/77 90/98/90 87/99/87
f 90/98/90 79/89/79 89/100/89
f 79/90/79 88/101/88 89/102/89
f 78/91/78 86/103/86 88/101/88
f 92/104/92 85/94/85 82/93/82
f 85/94/85 94/105/94 84/106/84
f 94/107/94 83/96/83 84/108/84
f 93/109/93 81/110/81 83/96/83
f 87/99/87 100/111/100 97/112/97
f 90/98/90 99/113/99 100/111/100
f 99/114/99 88/101/88 98/115/98
f 88/101/88 96/116/96 98/115/98
f 92/104/92 105/117/105 95/118/95
f 105/117/105 94/105/94 95/118/95
f 94/107/94 103/119/103 93/109/93
f 93/109/93 101/120/101 91/121/91
f 97/112/97 110/122/110 107/123/107
f 100/111/100 109/124/109 110/122/110
f 99/114/99 108/125/108 109/126/109
f 98/115/98 106/127/106 108/125/108
f 112/128/112 105/117/105 102/129/102
f 115/130/115 104/131/104 105/117/105
f 114/132/114 103/119/103 104/133/104
f 113/134/113 101/120/101 103/119/103
f 107/123/107 120/135/120 117/136/117
f 120/135/120 109/124/109 119/137/119
f 119/138/119 108/125/108 118/139/118
f 118/139/118 106/127/106 116/140/116
f 122/141/122 115/130/115 112/128/112
f 125/142/125 114/143/114 115/130/115
f 124/144/124 113/134/113 114/132/114
f 123/145/123 111/146/111 113/134/113
f 117/136/117 130/147/130 127/148/127
f 130/147/130 119/137/119 129/149/129
f 129/150/129 118/139/118 128/151/128
f 128/151/128 116/140/116 126/152/126
f 132/153/132 125/142/125 122/141/122
f 135/154/135 124/155/124 125/142/125
f 134/156/134 123/145/123 124/144/124
f 133/157/133 121/158/121 123/145/123
f 127/148/127 140/159/140 137/160/137
f 140/159/140 129/149/129 139/161/139
f 139/162/139 128/151/128 138/163/138
f 138/163/138 126/152/126 136/164/136
f 142/165/142 135/154/135 132/153/132
f 145/166/145 134/167/134 135/154/135
f 144/168/144 133/157/133 134/156/134
f 143/169/143 131/170/131 133/157/133
f 147/171/147 140/159/140 150/172/150
f 140/159/140 149/173/149 150/172/150
f 149/174/149 138/163/138 148/175/148
f 148/175/148 136/164/136 146/176/146
f 152/177/152 145/166/145 142/165/142
f 155/178/155 144/179/144 145/166/145
f 154/180/154 143/169/143 144/168/144
f 153/181/153 141/182/141 143/169/143
f 147/171/147 160/183/160 157/184/157
f 160/183/160 149/173/149 159/185/159
f 159/186/159 148/175/148 158/187/158
f 158/187/158 146/176/146 156/188/156
f 162/189/162 155/178/155 152/177/152
f 165/190/165 154/191/154 155/178/155
f 164/192/164 153/181/153 154/180/154
f 163/193/163 151/194/151 153/181/153
f 167/195/167 160/183/160 170/196/170
f 170/196/170 159/185/159 169/197/169
f 169/198/169 158/187/158 168/199/168
f 168/199/168 156/188/156 166/200/166
f 162/189/162 175/201/175 165/190/165
f 165/190/165 174/202/174 164/203/164
f 164/192/164 173/204/173 163/193/163
f 163/193/163 171/205/171 161/206/161
f 167/195/167 180/207/180 177/208/177
f 170/196/170 179/209/179 180/207/180
f 169/198/169 178/210/178 179/211/179
f 168/199/168 176/212/176 178/210/178
f 182/213/182 175/201/175 172/214/172
f 175/201/175 184/215/184 174/202/174
f 174/216/174 183/217/183 173/204/173
f 173/204/173 181/218/181 171/205/171
f 177/208/177 190/219/190 187/220/187
f 180/207/180 189/221/189 190/219/190
f 179/211/179 188/222/188 189/223/189
f 178/210/178 186/224/186 188/222/188
f 182/213/182 195/225/195 185/226/185
f 195/225/195 184/215/184 185/226/185
f 184/227/184 193/228/193 183/217/183
f 183/217/183 191/229/191 181/218/181
f 187/220/187 200/230/200 197/231/197
f 190/219/190 199/232/199 200/230/200
f 189/223/189 198/233/198 199/234/199
f 188/222/188 196/235/196 198/233/198
f 202/236/202 195/225/195 192/237/192
f 195/225/195 204/238/204 194/239/194
f 194/240/194 203/241/203 193/228/193
f 193/228/193 201/242/201 191/229/191
f 197/231/197 210/243/210 207/244/207
f 200/230/200 209/245/209 210/243/210
f 199/234/199 208/246/208 209/247/209
f 198/233/198 206/248/206 208/246/208
f 212/249/212 205/250/205 202/236/202
f 205/250/205 214/251/214 204/238/204
f 204/252/204 213/253/213 203/241/203
f 203/241/203 211/254/211 201/242/201
f 207/244/207 220/255/220 217/256/217
f 210/243/210 219/257/219 220/255/220
f 209/247/209 218/258/218 219/259/219
f 208/246/208 216/260/216 218/258/218
f 222/261/222 215/262/215 212/249/212
f 215/262/215 224/263/224 214/251/214
f 214/264/214 223/265/223 213/253/213
f 213/253/213 221/266/221 211/254/211
f 217/256/217 230/267/230 227/268/227
f 220/255/220 229/269/229 230/267/230
f 219/259/219 228/270/228 229/271/229
f 218/258/218 226/272/226 228/270/228
f 232/273/232 225/274/225 222/261/222
f 235/275/235 224/263/224 225/274/225
f 234/276/234 223/265/223 224/277/224
f 233/278/233 221/266/221 223/265/223
f 237/279/237 230/267/230 240/280/240
f 230/267/230 239/281/239 240/280/240
f 239/282/239 228/270/228 238/283/238
f 238/283/238 226/272/226 236/284/236
f 242/285/242 235/275/235 232/273/232
f 245/286/245 234/287/234 235/275/235
f 234/276/234 243/288/243 233/278/233
f 243/288/243 231/289/231 233/278/233
f 237/279/237 250/290/250 247/291/247
f 250/290/250 239/281/239 249/292/249
f 239/282/239 248/293/248 249/294/249
f 238/283/238 246/295/246 248/293/248
f 252/296/252 245/286/245 242/285/242
f 245/286/245 254/297/254 244/298/244
f 254/299/254 243/288/243 244/300/244
f 253/301/253 241/302/241 243/288/243
f 247/291/247 260/303/260 257/304/257
f 250/290/250 259/305/259 260/303/260
f 259/306/259 248/293/248 258/307/258
f 248/293/248 256/308/256 258/307/258
f 252/296/252 265/309/265 255/310/255
f 265/309/265 254/297/254 255/310/255
f 254/299/254 263/311/263 253/301/253
f 253/301/253 261/312/261 251/313/251
f 257/304/257 270/314/270 267/315/267
f 260/303/260 269/316/269 270/314/270
f 259/306/259 268/317/268 269/318/269
f 258/307/258 266/319/266 268/317/268
f 272/320/272 265/309/265 262/321/262
f 275/322/275 264/323/264 265/309/265
f 274/324/274 263/311/263 264/325/264
f 273/326/273 261/312/261 263/311/263
f 267/315/267 280/327/280 277/328/277
f 280/327/280 269/316/269 279/329/279
f 279/330/279 268/317/268 278/331/278
f 278/331/278 266/319/266 276/332/276
f 282/333/282 275/322/275 272/320/272
f 285/334/285 274/335/274 275/322/275
f 284/336/284 273/326/273 274/324/274
f 283/337/283 271/338/271 273/326/273
f 277/328/277 290/339/290 287/340/287
f 290/339/290 279/329/279 289/341/289
f 289/342/289 278/331/278 288/343/288
f 288/343/288 276/332/276 286/344/286
f 292/345/292 285/334/285 282/333/282
f 295/346/295 284/347/284 285/334/285
f 294/348/294 283/337/283 284/336/284
f 293/349/293 281/350/281 283/337/283
f 287/340/287 300/351/300 297/352/297
f 300/351/300 289/341/289 299/353/299
f 299/354/299 288/343/288 298/355/298
f 298/355/298 286/344/286 296/356/296
f 302/357/302 295/346/295 292/345/292
f 305/358/305 294/359/294 295/346/295
f 304/360/304 293/349/293 294/348/294
f 303/361/303 291/362/291 293/349/293
f 307/363/307 300/351/300 310/364/310
f 300/351/300 309/365/309 310/364/310
f 309/366/309 298/355/298 308/367/308
f 308/367/308 296/356/296 306/368/306
f 312/369/312 305/358/305 302/357/302
f 315/370/315 304/371/304 305/358/305
f 314/372/314 303/361/303 304/360/304
f 313/373/313 301/374/301 303/361/303
f 307/363/307 320/375/320 317/376/317
f 320/375/320 309/365/309 319/377/319
f 319/378/319 308/367/308 318/379/318
f 318/379/318 306/368/306 316/380/316
f 322/381/322 315/370/315 312/369/312
f 325/382/325 314/383/314 315/370/315
f 324/384/324 313/373/313 314/372/314
f 323/385/323 311/386/311 313/373/313
f 327/387/327 320/375/320 330/388/330
f 330/388/330 319/377/319 329/389/329
f 329/390/329 318/379/318 328/391/328
f 328/391/328 316/380/316 326/392/326
f 322/381/322 335/393/335 325/382/325
f 325/382/325 334/394/334 324/395/324
f 324/384/324 333/396/333 323/385/323
f 323/385/323 331/397/331 321/398/321
f 327/387/327 340/399/340 337/400/337
f 330/388/330 339/401/339 340/399/340
f 329/390/329 338/402/338 339/403/339
f 328/391/328 336/404/336 338/402/338
f 342/405/342 335/393/335 332/406/332
f 335/393/335 344/407/344 334/394/334
f 334/408/334 343/409/343 333/396/333
f 333/396/333 341/410/341 331/397/331
f 337/400/337 350/411/350 347/412/347
f 340/399/340 349/413/349 350/411/350
f 339/403/339 348/414/348 349/415/349
f 338/402/338 346/416/346 348/414/348
f 342/405/342 355/417/355 345/418/345
f 355/417/355 344/407/344 345/418/345
f 344/419/344 353/420/353 343/409/343
f 343/409/343 351/421/351 341/410/341
f 347/412/347 360/422/360 357/423/357
f 350/411/350 359/424/359 360/422/360
f 349/415/349 358/425/358 359/426/359
f 348/414/348 356/427/356 358/425/358
f 362/428/362 355/417/355 352/429/352
f 355/417/355 364/430/364 354/431/354
f 354/432/354 363/433/363 353/420/353
f 353/420/353 361/434/361 351/421/351
f 357/423/357 370/435/370 367/436/367
f 360/422/360 369/437/369 370/435/370
f 359/426/359 368/438/368 369/439/369
f 358/425/358 366/440/366 368/438/368
f 372/441/372 365/442/365 362/428/362
f 365/442/365 374/443/374 364/430/364
f 364/444/364 373/445/373 363/433/363
f 363/433/363 371/446/371 361/434/361
f 367/436/367 380/447/380 377/448/377
f 370/435/370 379/449/379 380/447/380
f 369/439/369 378/450/378 379/451/379
f 368/438/368 376/452/376 378/450/378
f 382/453/382 375/454/375 372/441/372
f 375/454/375 384/455/384 374/443/374
f 374/456/374 383/457/383 373/445/373
f 373/445/373 381/458/381 371/446/371
f 377/448/377 390/459/390 387/460/387
f 380/447/380 389/461/389 390/459/390
f 379/451/379 388/462/388 389/463/389
f 378/450/378 386/464/386 388/462/388
f 392/465/392 385/466/385 382/453/382
f 395/467/395 384/455/384 385/466/385
f 394/468/394 383/457/383 384/469/384
f 393/470/393 381/458/381 383/457/383
f 397/471/397 390/459/390 400/472/400
f 390/459/390 399/473/399 400/472/400
f 399/474/399 388/462/388 398/475/398
f 398/475/398 386/464/386 396/476/396
f 402/477/402 395/467/395 392/465/392
f 405/478/405 394/479/394 395/467/395
f 394/468/394 403/480/403 393/470/393
f 403/480/403 391/481/391 393/470/393
f 397/471/397 410/482/410 407/483/407
f 410/482/410 399/473/399 409/484/409
f 399/474/399 408/485/408 409/486/409
f 398/475/398 406/487/406 408/485/408
f 412/488/412 405/478/405 402/477/402
f 405/478/405 414/489/414 404/490/404
f 414/491/414 403/480/403 404/492/404
f 413/493/413 401/494/401 403/480/403
f 407/483/407 420/495/420 417/496/417
f 410/482/410 419/497/419 420/495/420
f 419/498/419 408/485/408 418/499/418
f 408/485/408 416/500/416 418/499/418
f 412/488/412 425/501/425 415/502/415
f 425/501/425 414/489/414 415/502/415
f 414/491/414 423/503/423 413/493/413
f 413/493/413 421/504/421 411/505/411
f 417/496/417 430/506/430 427/507/427
f 420/495/420 429/508/429 430/506/430
f 419/498/419 428/509/428 429/510/429
f 418/499/418 426/511/426 428/509/428
f 432/512/432 425/501/425 422/513/422
f 435/514/435 424/515/424 425/501/425
f 434/516/434 423/503/423 424/517/424
f 433/518/433 421/504/421 423/503/423
f 427/507/427 440/519/440 437/520/437
f 440/519/440 429/508/429 439/521/439
f 439/522/439 428/509/428 438/523/438
f 438/523/438 426/511/426 436/524/436
f 442/525/442 435/514/435 432/512/432
f 445/526/445 434/527/434 435/514/435
f 444/528/444 433/518/433 434/516/434
f 443/529/443 431/530/431 433/518/433
f 437/520/437 450/531/450 447/532/447
f 450/531/450 439/521/439 449/533/449
f 449/534/449 438/523/438 448/535/448
f 448/535/448 436/524/436 446/536/446
f 452/537/452 445/526/445 442/525/442
f 455/538/455 444/539/444 445/526/445
f 454/540/454 443/529/443 444/528/444
f 453/541/453 441/542/441 443/529/443
f 447/532/447 460/543/460 457/544/457
f 460/543/460 449/533/449 459/545/459
f 459/546/459 448/535/448 458/547/458
f 458/547/458 446/536/446 456/548/456
f 462/549/462 455/538/455 452/537/452
f 465/550/465 454/551/454 455/538/455
f 464/552/464 453/541/453 454/540/454
f 463/553/463 451/554/451 453/541/453
f 467/555/467 460/543/460 470/556/470
f 460/543/460 469/557/469 470/556/470
f 469/558/469 458/547/458 468/559/468
f 468/559/468 456/548/456 466/560/466
f 472/561/472 465/550/465 462/549/462
f 475/562/475 464/563/464 465/550/465
f 474/564/474 463/553/463 464/552/464
f 473/565/473 461/566/461 463/553/463
f 467/555/467 480/567/480 477/568/477
f 480/567/480 469/557/469 479/569/479
f 479/570/479 468/559/468 478/571/478
f 478/571/478 466/560/466 476/572/476
f 482/573/482 475/562/475 472/561/472
f 485/574/485 474/575/474 475/562/475
f 484/576/484 473/565/473 474/564/474
f 483/577/483 471/578/471 473/565/473
f 487/579/487 480/567/480 490/580/490
f 490/580/490 479/569/479 489/581/489
f 489/582/489 478/571/478 488/583/488
f 488/583/488 476/572/476 486/584/486
f 482/573/482 495/585/495 485/574/485
f 485/574/485 494/586/494 484/587/484
f 484/576/484 493/588/493 483/577/483
f 483/577/483 491/589/491 481/590/481
f 487/579/487 500/591/500 497/592/497
f 490/580/490 499/593/499 500/591/500
f 489/582/489 498/594/498 499/595/499
f 488/583/488 496/596/496 498/594/498
f 502/597/502 495/585/495 492/598/492
f 495/585/495 504/599/504 494/586/494
f 494/600/494 503/601/503 493/588/493
f 493/588/493 501/602/501 491/589/491
f 497/592/497 510/603/510 507/604/507
f 500/591/500 509/605/509 510/603/510
f 499/595/499 508/606/508 509/607/509
f 498/594/498 506/608/506 508/606/508
f 502/597/502 515/609/515 505/610/505
f 515/609/515 504/599/504 505/610/505
f 504/611/504 513/612/513 503/601/503
f 503/601/503 511/613/511 501/602/501
f 507/604/507 520/614/520 517/615/517
f 510/603/510 519/616/519 520/614/520
f 509/607/509 518/617/518 519/618/519
f 508/606/508 516/619/516 518/617/518
f 522/620/522 515/609/515 512/621/512
f 515/609/515 524/622/524 514/623/514
f 514/624/514 523/625/523 513/612/513
f 513/612/513 521/626/521 511/613/511
f 517/615/517 530/627/530 527/628/527
f 520/614/520 529/629/529 530/627/530
f 519/618/519 528/630/528 529/631/529
f 518/617/518 526/632/526 528/630/528
f 532/633/532 525/634/525 522/620/522
f 525/634/525 534/635/534 524/622/524
f 524/636/524 533/637/533 523/625/523
f 523/625/523 531/638/531 521/626/521
f 527/628/527 540/639/540 537/640/537
f 530/627/530 539/641/539 540/639/540
f 529/631/529 538/642/538 539/643/539
f 528/630/528 536/644/536 538/642/538
f 542/645/542 535/646/535 532/633/532
f 535/646/535 544/647/544 534/635/534
f 534/648/534 543/649/543 533/637/533
f 533/637/533 541/650/541 531/638/531
f 537/640/537 550/651/550 547/652/547
f 540/639/540 549/653/549 550/651/550
f 539/643/539 548/654/548 549/655/549
f 538/642/538 546/656/546 548/654/548
f 552/657/552 545/658/545 542/645/542
f 555/659/555 544/647/544 545/658/545
f 554/660/554 543/649/543 544/661/544
f 553/662/553 541/650/541 543/649/543
f 557/663/557 550/651/550 560/664/560
f 550/651/550 559/665/559 560/664/560
f 559/666/559 548/654/548 558/667/558
f 558/667/558 546/656/546 556/668/556
f 562/669/562 555/659/555 552/657/552
f 565/670/565 554/671/554 555/659/555
f 554/660/554 563/672/563 553/662/553
f 563/672/563 551/673/551 553/662/553
f 557/663/557 570/674/570 567/675/567
f 570/674/570 559/665/559 569/676/569
f 559/666/559 568/677/568 569/678/569
f 558/667/558 566/679/566 568/677/568
f 572/680/572 565/670/565 562/669/562
f 565/670/565 574/681/574 564/682/564
f 574/683/574 563/672/563 564/684/564
f 573/685/573 561/686/561 563/672/563
f 567/675/567 580/687/580 577/688/577
f 570/674/570 579/689/579 580/687/580
f 579/690/579 568/677/568 578/691/578
f 568/677/568 576/692/576 578/691/578
f 572/680/572 585/693/585 575/694/575
f 585/693/585 574/681/574 575/694/575
f 574/683/574 583/695/583 573/685/573
f 573/685/573 581/696/581 571/697/571
f 577/688/577 590/698/590 587/699/587
f 580/687/580 589/700/589 590/698/590
f 579/690/579 588/701/588 589/702/589
f 578/691/578 586/703/586 588/701/588
f 592/704/592 585/693/585 582/705/582
f 595/706/595 584/707/584 585/693/585
f 594/708/594 583/695/583 584/709/584
f 593/710/593 581/696/581 583/695/583
f 587/699/587 600/711/600 597/712/597
f 600/711/600 589/700/589 599/713/599
f 599/714/599 588/701/588 598/715/598
f 598/715/598 586/703/586 596/716/596
f 602/717/602 595/706/595 592/704/592
f 605/718/605 594/719/594 595/706/595
f 604/720/604 593/710/593 594/708/594
f 603/721/603 591/722/591 593/710/593
f 597/712/597 610/723/610 607/724/607
f 610/723/610 599/713/599 609/725/609
f 609/726/609 598/715/598 608/727/608
f 608/727/608 596/716/596 606/728/606
f 612/729/612 605/718/605 602/717/602
f 615/730/615 604/731/604 605/718/605
f 614/732/614 603/721/603 604/720/604
f 613/733/613 601/734/601 603/721/603
f 607/724/607 620/735/620 617/736/617
f 620/735/620 609/725/609 619/737/619
f 619/738/619 608/727/608 618/739/618
f 618/739/618 606/728/606 616/740/616
f 622/741/622 615/730/615 612/729/612
f 625/742/625 614/743/614 615/730/615
f 624/744/624 613/733/613 614/732/614
f 623/745/623 611/746/611 613/733/613
f 627/747/627 620/735/620 630/748/630
f 620/735/620 629/749/629 630/748/630
f 629/750/629 618/739/618 628/751/628
f 628/751/628 616/740/616 626/752/626
f 632/753/632 625/742/625 622/741/622
f 635/754/635 624/755/624 625/742/625
f 634/756/634 623/745/623 624/744/624
f 633/757/633 621/758/621 623/745/623
f 627/747/627 640/759/640 637/760/637
f 640/759/640 629/749/629 639/761/639
f 639/762/639 628/751/628 638/763/638
f 638/763/638 626/752/626 636/764/636
f 2/765/2 635/754/635 632/753/632
f 5/766/5 634/767/634 635/754/635
f 4/6/4 633/757/633 634/756/634
f 3/8/3 631/768/631 633/757/633
f 7/769/7 640/759/640 10/770/10
f 10/770/10 639/761/639 9/771/9
f 9/16/9 638/763/638 8/19/8
f 8/19/8 636/764/636 6/772/6
f 311/386/311 471/578/471 631/768/631
f 7/11/7 12/22/12 2/1/2
f 637/760/637 2/765/2 632/753/632
f 346/416/346 186/224/186 26/32/26
f 17/13/17 22/21/22 12/22/12
f 27/28/27 32/45/32 22/21/22
f 37/39/37 42/44/42 32/45/32
f 47/52/47 52/57/52 42/44/42
f 57/64/57 62/69/62 52/57/52
f 67/76/67 72/81/72 62/69/62
f 77/87/77 82/93/82 72/81/72
f 87/99/87 92/104/92 82/93/82
f 97/112/97 102/129/102 92/104/92
f 107/123/107 112/128/112 102/129/102
f 117/136/117 122/141/122 112/128/112
f 127/148/127 132/153/132 122/141/122
f 137/160/137 142/165/142 132/153/132
f 147/171/147 152/177/152 142/165/142
f 157/184/157 162/189/162 152/177/152
f 167/195/167 172/214/172 162/189/162
f 177/208/177 182/213/182 172/214/172
f 187/220/187 192/237/192 182/213/182
f 197/231/197 202/236/202 192/237/192
f 207/244/207 212/249/212 202/236/202
f 217/256/217 222/261/222 212/249/212
f 227/268/227 232/273/232 222/261/222
f 237/279/237 242/285/242 232/273/232
f 247/291/247 252/296/252 242/285/242
f 257/304/257 262/321/262 252/296/252
f 267/315/267 272/320/272 262/321/262
f 277/328/277 282/333/282 272/320/272
f 287/340/287 292/345/292 282/333/282
f 297/352/297 302/357/302 292/345/292
f 307/363/307 312/369/312 302/357/302
f 317/376/317 322/381/322 312/369/312
f 327/387/327 332/406/332 322/381/322
f 337/400/337 342/405/342 332/406/332
f 347/412/347 352/429/352 342/405/342
f 357/423/357 362/428/362 352/429/352
f 367/436/367 372/441/372 362/428/362
f 377/448/377 382/453/382 372/441/372
f 387/460/387 392/465/392 382/453/382
f 397/471/397 402/477/402 392/465/392
f 407/483/407 412/488/412 402/477/402
f 417/496/417 422/513/422 412/488/412
f 427/507/427 432/512/432 422/513/422
f 437/520/437 442/525/442 432/512/432
f 447/532/447 452/537/452 442/525/442
f 457/544/457 462/549/462 452/537/452
f 467/555/467 472/561/472 462/549/462
f 477/568/477 482/573/482 472/561/472
f 487/579/487 492/598/492 482/573/482
f 497/592/497 502/597/502 492/598/492
f 507/604/507 512/621/512 502/597/502
f 517/615/517 522/620/522 512/621/512
f 527/628/527 532/633/532 522/620/522
f 537/640/537 542/645/542 532/633/532
f 547/652/547 552/657/552 542/645/542
f 557/663/557 562/669/562 552/657/552
f 567/675/567 572/680/572 562/669/562
f 577/688/577 582/705/582 572/680/572
f 587/699/587 592/704/592 582/705/582
f 597/712/597 602/717/602 592/704/592
f 607/724/607 612/729/612 602/717/602
f 617/736/617 622/741/622 612/729/612
f 627/747/627 632/753/632 622/741/622
f 2/1/2 12/22/12 15/2/15
f 5/3/5 15/2/15 14/4/14
f 4/6/4 14/24/14 13/7/13
f 3/8/3 13/7/13 11/9/11
f 7/11/7 10/14/10 20/12/20
f 10/14/10 9/773/9 19/15/19
f 9/16/9 8/19/8 18/17/18
f 8/19/8 6/772/6 16/20/16
f 22/21/22 25/34/25 15/2/15
f 15/2/15 25/34/25 24/23/24
f 14/24/14 24/35/24 23/25/23
f 13/7/13 23/25/23 21/26/21
f 17/13/17 20/12/20 30/27/30
f 20/12/20 19/15/19 29/29/29
f 19/18/19 18/17/18 28/30/28
f 18/17/18 16/20/16 26/32/26
f 22/21/22 32/45/32 35/33/35
f 35/33/35 34/47/34 24/23/24
f 24/35/24 34/48/34 33/36/33
f 23/25/23 33/36/33 31/37/31
f 27/28/27 30/27/30 40/38/40
f 30/27/30 29/29/29 39/40/39
f 29/31/29 28/30/28 38/41/38
f 28/30/28 26/32/26 36/43/36
f 42/44/42 45/58/45 35/33/35
f 35/33/35 45/58/45 44/46/44
f 34/48/34 44/60/44 43/49/43
f 33/36/33 43/49/43 41/50/41
f 37/39/37 40/38/40 50/51/50
f 40/38/40 39/40/39 49/53/49
f 39/42/39 38/41/38 48/54/48
f 38/41/38 36/43/36 46/56/46
f 52/57/52 55/70/55 45/58/45
f 45/58/45 55/70/55 54/59/54
f 44/60/44 54/72/54 53/61/53
f 43/49/43 53/61/53 51/62/51
f 47/52/47 50/51/50 60/63/60
f 50/51/50 49/53/49 59/65/59
f 49/55/49 48/54/48 58/66/58
f 48/54/48 46/56/46 56/68/56
f 62/69/62 65/82/65 55/70/55
f 55/70/55 65/82/65 64/71/64
f 54/72/54 64/85/64 63/73/63
f 53/61/53 63/73/63 61/74/61
f 57/64/57 60/63/60 70/75/70
f 60/63/60 59/65/59 69/77/69
f 59/67/59 58/66/58 68/78/68
f 58/66/58 56/68/56 66/80/66
f 72/81/72 75/83/75 65/82/65
f 75/83/75 74/95/74 64/71/64
f 74/84/74 73/86/73 63/73/63
f 73/86/73 71/97/71 61/74/61
f 77/87/77 67/76/67 70/75/70
f 70/75/70 69/77/69 79/89/79
f 79/90/79 69/79/69 68/78/68
f 78/91/78 68/78/68 66/80/66
f 82/93/82 85/94/85 75/83/75
f 85/94/85 84/106/84 74/95/74
f 74/84/74 84/108/84 83/96/83
f 83/96/83 81/110/81 71/97/71
f 77/87/77 80/88/80 90/98/90
f 90/98/90 80/88/80 79/89/79
f 79/90/79 78/91/78 88/101/88
f 78/91/78 76/92/76 86/103/86
f 92/104/92 95/118/95 85/94/85
f 85/94/85 95/118/95 94/105/94
f 94/107/94 93/109/93 83/96/83
f 93/109/93 91/121/91 81/110/81
f 87/99/87 90/98/90 100/111/100
f 90/98/90 89/100/89 99/113/99
f 99/114/99 89/102/89 88/101/88
f 88/101/88 86/103/86 96/116/96
f 92/104/92 102/129/102 105/117/105
f 105/117/105 104/131/104 94/105/94
f 94/107/94 104/133/104 103/119/103
f 93/109/93 103/119/103 101/120/101
f 97/112/97 100/111/100 110/122/110
f 100/111/100 99/113/99 109/124/109
f 99/114/99 98/115/98 108/125/108
f 98/115/98 96/116/96 106/127/106
f 112/128/112 115/130/115 105/117/105
f 115/130/115 114/143/114 104/131/104
f 114/132/114 113/134/113 103/119/103
f 113/134/113 111/146/111 101/120/101
f 107/123/107 110/122/110 120/135/120
f 120/135/120 110/122/110 109/124/109
f 119/138/119 109/126/109 108/125/108
f 118/139/118 108/125/108 106/127/106
f 122/141/122 125/142/125 115/130/115
f 125/142/125 124/155/124 114/143/114
f 124/144/124 123/145/123 113/134/113
f 123/145/123 121/158/121 111/146/111
f 117/136/117 120/135/120 130/147/130
f 130/147/130 120/135/120 119/137/119
f 129/150/129 119/138/119 118/139/118
f 128/151/128 118/139/118 116/140/116
f 132/153/132 135/154/135 125/142/125
f 135/154/135 134/167/134 124/155/124
f 134/156/134 133/157/133 123/145/123
f 133/157/133 131/170/131 121/158/121
f 127/148/127 130/147/130 140/159/140
f 140/159/140 130/147/130 129/149/129
f 139/162/139 129/150/129 128/151/128
f 138/163/138 128/151/128 126/152/126
f 142/165/142 145/166/145 135/154/135
f 145/166/145 144/179/144 134/167/134
f 144/168/144 143/169/143 133/157/133
f 143/169/143 141/182/141 131/170/131
f 147/171/147 137/160/137 140/159/140
f 140/159/140 139/161/139 149/173/149
f 149/174/149 139/162/139 138/163/138
f 148/175/148 138/163/138 136/164/136
f 152/177/152 155/178/155 145/166/145
f 155/178/155 154/191/154 144/179/144
f 154/180/154 153/181/153 143/169/143
f 153/181/153 151/194/151 141/182/141
f 147/171/147 150/172/150 160/183/160
f 160/183/160 150/172/150 149/173/149
f 159/186/159 149/174/149 148/175/148
f 158/187/158 148/175/148 146/176/146
f 162/189/162 165/190/165 155/178/155
f 165/190/165 164/203/164 154/191/154
f 164/192/164 163/193/163 153/181/153
f 163/193/163 161/206/161 151/194/151
f 167/195/167 157/184/157 160/183/160
f 170/196/170 160/183/160 159/185/159
f 169/198/169 159/186/159 158/187/158
f 168/199/168 158/187/158 156/188/156
f 162/189/162 172/214/172 175/201/175
f 165/190/165 175/201/175 174/202/174
f 164/192/164 174/216/174 173/204/173
f 163/193/163 173/204/173 171/205/171
f 167/195/167 170/196/170 180/207/180
f 170/196/170 169/197/169 179/209/179
f 169/198/169 168/199/168 178/210/178
f 168/199/168 166/200/166 176/212/176
f 182/213/182 185/226/185 175/201/175
f 175/201/175 185/226/185 184/215/184
f 174/216/174 184/227/184 183/217/183
f 173/204/173 183/217/183 181/218/181
f 177/208/177 180/207/180 190/219/190
f 180/207/180 179/209/179 189/221/189
f 179/211/179 178/210/178 188/222/188
f 178/210/178 176/212/176 186/224/186
f 182/213/182 192/237/192 195/225/195
f 195/225/195 194/239/194 184/215/184
f 184/227/184 194/240/194 193/228/193
f 183/217/183 193/228/193 191/229/191
f 187/220/187 190/219/190 200/230/200
f 190/219/190 189/221/189 199/232/199
f 189/223/189 188/222/188 198/233/198
f 188/222/188 186/224/186 196/235/196
f 202/236/202 205/250/205 195/225/195
f 195/225/195 205/250/205 204/238/204
f 194/240/194 204/252/204 203/241/203
f 193/228/193 203/241/203 201/242/201
f 197/231/197 200/230/200 210/243/210
f 200/230/200 199/232/199 209/245/209
f 199/234/199 198/233/198 208/246/208
f 198/233/198 196/235/196 206/248/206
f 212/249/212 215/262/215 205/250/205
f 205/250/205 215/262/215 214/251/214
f 204/252/204 214/264/214 213/253/213
f 203/241/203 213/253/213 211/254/211
f 207/244/207 210/243/210 220/255/220
f 210/243/210 209/245/209 219/257/219
f 209/247/209 208/246/208 218/258/218
f 208/246/208 206/248/206 216/260/216
f 222/261/222 225/274/225 215/262/215
f 215/262/215 225/274/225 224/263/224
f 214/264/214 224/277/224 223/265/223
f 213/253/213 223/265/223 221/266/221
f 217/256/217 220/255/220 230/267/230
f 220/255/220 219/257/219 229/269/229
f 219/259/219 218/258/218 228/270/228
f 218/258/218 216/260/216 226/272/226
f 232/273/232 235/275/235 225/274/225
f 235/275/235 234/287/234 224/263/224
f 234/276/234 233/278/233 223/265/223
f 233/278/233 231/289/231 221/266/221
f 237/279/237 227/268/227 230/267/230
f 230/267/230 229/269/229 239/281/239
f 239/282/239 229/271/229 228/270/228
f 238/283/238 228/270/228 226/272/226
f 242/285/242 245/286/245 235/275/235
f 245/286/245 244/298/244 234/287/234
f 234/276/234 244/300/244 243/288/243
f 243/288/243 241/302/241 231/289/231
f 237/279/237 240/280/240 250/290/250
f 250/290/250 240/280/240 239/281/239
f 239/282/239 238/283/238 248/293/248
f 238/283/238 236/284/236 246/295/246
f 252/296/252 255/310/255 245/286/245
f 245/286/245 255/310/255 254/297/254
f 254/299/254 253/301/253 243/288/243
f 253/301/253 251/313/251 241/302/241
f 247/291/247 250/290/250 260/303/260
f 250/290/250 249/292/249 259/305/259
f 259/306/259 249/294/249 248/293/248
f 248/293/248 246/295/246 256/308/256
f 252/296/252 262/321/262 265/309/265
f 265/309/265 264/323/264 254/297/254
f 254/299/254 264/325/264 263/311/263
f 253/301/253 263/311/263 261/312/261
f 257/304/257 260/303/260 270/314/270
f 260/303/260 259/305/259 269/316/269
f 259/306/259 258/307/258 268/317/268
f 258/307/258 256/308/256 266/319/266
f 272/320/272 275/322/275 265/309/265
f 275/322/275 274/335/274 264/323/264
f 274/324/274 273/326/273 263/311/263
f 273/326/273 271/338/271 261/312/261
f 267/315/267 270/314/270 280/327/280
f 280/327/280 270/314/270 269/316/269
f 279/330/279 269/318/269 268/317/268
f 278/331/278 268/317/268 266/319/266
f 282/333/282 285/334/285 275/322/275
f 285/334/285 284/347/284 274/335/274
f 284/336/284 283/337/283 273/326/273
f 283/337/283 281/350/281 271/338/271
f 277/328/277 280/327/280 290/339/290
f 290/339/290 280/327/280 279/329/279
f 289/342/289 279/330/279 278/331/278
f 288/343/288 278/331/278 276/332/276
f 292/345/292 295/346/295 285/334/285
f 295/346/295 294/359/294 284/347/284
f 294/348/294 293/349/293 283/337/283
f 293/349/293 291/362/291 281/350/281
f 287/340/287 290/339/290 300/351/300
f 300/351/300 290/339/290 289/341/289
f 299/354/299 289/342/289 288/343/288
f 298/355/298 288/343/288 286/344/286
f 302/357/302 305/358/305 295/346/295
f 305/358/305 304/371/304 294/359/294
f 304/360/304 303/361/303 293/349/293
f 303/361/303 301/374/301 291/362/291
f 307/363/307 297/352/297 300/351/300
f 300/351/300 299/353/299 309/365/309
f 309/366/309 299/354/299 298/355/298
f 308/367/308 298/355/298 296/356/296
f 312/369/312 315/370/315 305/358/305
f 315/370/315 314/383/314 304/371/304
f 314/372/314 313/373/313 303/361/303
f 313/373/313 311/386/311 301/374/301
f 307/363/307 310/364/310 320/375/320
f 320/375/320 310/364/310 309/365/309
f 319/378/319 309/366/309 308/367/308
f 318/379/318 308/367/308 306/368/306
f 322/381/322 325/382/325 315/370/315
f 325/382/325 324/395/324 314/383/314
f 324/384/324 323/385/323 313/373/313
f 323/385/323 321/398/321 311/386/311
f 327/387/327 317/376/317 320/375/320
f 330/388/330 320/375/320 319/377/319
f 329/390/329 319/378/319 318/379/318
f 328/391/328 318/379/318 316/380/316
f 322/381/322 332/406/332 335/393/335
f 325/382/325 335/393/335 334/394/334
f 324/384/324 334/408/334 333/396/333
f 323/385/323 333/396/333 331/397/331
f 327/387/327 330/388/330 340/399/340
f 330/388/330 329/389/329 339/401/339
f 329/390/329 328/391/328 338/402/338
f 328/391/328 326/392/326 336/404/336
f 342/405/342 345/418/345 335/393/335
f 335/393/335 345/418/345 344/407/344
f 334/408/334 344/419/344 343/409/343
f 333/396/333 343/409/343 341/410/341
f 337/400/337 340/399/340 350/411/350
f 340/399/340 339/401/339 349/413/349
f 339/403/339 338/402/338 348/414/348
f 338/402/338 336/404/336 346/416/346
f 342/405/342 352/429/352 355/417/355
f 355/417/355 354/431/354 344/407/344
f 344/419/344 354/432/354 353/420/353
f 343/409/343 353/420/353 351/421/351
f 347/412/347 350/411/350 360/422/360
f 350/411/350 349/413/349 359/424/359
f 349/415/349 348/414/348 358/425/358
f 348/414/348 346/416/346 356/427/356
f 362/428/362 365/442/365 355/417/355
f 355/417/355 365/442/365 364/430/364
f 354/432/354 364/444/364 363/433/363
f 353/420/353 363/433/363 361/434/361
f 357/423/357 360/422/360 370/435/370
f 360/422/360 359/424/359 369/437/369
f 359/426/359 358/425/358 368/438/368
f 358/425/358 356/427/356 366/440/366
f 372/441/372 375/454/375 365/442/365
f 365/442/365 375/454/375 374/443/374
f 364/444/364 374/456/374 373/445/373
f 363/433/363 373/445/373 371/446/371
f 367/436/367 370/435/370 380/447/380
f 370/435/370 369/437/369 379/449/379
f 369/439/369 368/438/368 378/450/378
f 368/438/368 366/440/366 376/452/376
f 382/453/382 385/466/385 375/454/375
f 375/454/375 385/466/385 384/455/384
f 374/456/374 384/469/384 383/457/383
f 373/445/373 383/457/383 381/458/381
f 377/448/377 380/447/380 390/459/390
f 380/447/380 379/449/379 389/461/389
f 379/451/379 378/450/378 388/462/388
f 378/450/378 376/452/376 386/464/386
f 392/465/392 395/467/395 385/466/385
f 395/467/395 394/479/394 384/455/384
f 394/468/394 393/470/393 383/457/383
f 393/470/393 391/481/391 381/458/381
f 397/471/397 387/460/387 390/459/390
f 390/459/390 389/461/389 399/473/399
f 399/474/399 389/463/389 388/462/388
f 398/475/398 388/462/388 386/464/386
f 402/477/402 405/478/405 395/467/395
f 405/478/405 404/490/404 394/479/394
f 394/468/394 404/492/404 403/480/403
f 403/480/403 401/494/401 391/481/391
f 397/471/397 400/472/400 410/482/410
f 410/482/410 400/472/400 399/473/399
f 399/474/399 398/475/398 408/485/408
f 398/475/398 396/476/396 406/487/406
f 412/488/412 415/502/415 405/478/405
f 405/478/405 415/502/415 414/489/414
f 414/491/414 413/493/413 403/480/403
f 413/493/413 411/505/411 401/494/401
f 407/483/407 410/482/410 420/495/420
f 410/482/410 409/484/409 419/497/419
f 419/498/419 409/486/409 408/485/408
f 408/485/408 406/487/406 416/500/416
f 412/488/412 422/513/422 425/501/425
f 425/501/425 424/515/424 414/489/414
f 414/491/414 424/517/424 423/503/423
f 413/493/413 423/503/423 421/504/421
f 417/496/417 420/495/420 430/506/430
f 420/495/420 419/497/419 429/508/429
f 419/498/419 418/499/418 428/509/428
f 418/499/418 416/500/416 426/511/426
f 432/512/432 435/514/435 425/501/425
f 435/514/435 434/527/434 424/515/424
f 434/516/434 433/518/433 423/503/423
f 433/518/433 431/530/431 421/504/421
f 427/507/427 430/506/430 440/519/440
f 440/519/440 430/506/430 429/508/429
f 439/522/439 429/510/429 428/509/428
f 438/523/438 428/509/428 426/511/426
f 442/525/442 445/526/445 435/514/435
f 445/526/445 444/539/444 434/527/434
f 444/528/444 443/529/443 433/518/433
f 443/529/443 441/542/441 431/530/431
f 437/520/437 440/519/440 450/531/450
f 450/531/450 440/519/440 439/521/439
f 449/534/449 439/522/439 438/523/438
f 448/535/448 438/523/438 436/524/436
f 452/537/452 455/538/455 445/526/445
f 455/538/455 454/551/454 444/539/444
f 454/540/454 453/541/453 443/529/443
f 453/541/453 451/554/451 441/542/441
f 447/532/447 450/531/450 460/543/460
f 460/543/460 450/531/450 449/533/449
f 459/546/459 449/534/449 448/535/448
f 458/547/458 448/535/448 446/536/446
f 462/549/462 465/550/465 455/538/455
f 465/550/465 464/563/464 454/551/454
f 464/552/464 463/553/463 453/541/453
f 463/553/463 461/566/461 451/554/451
f 467/555/467 457/544/457 460/543/460
f 460/543/460 459/545/459 469/557/469
f 469/558/469 459/546/459 458/547/458
f 468/559/468 458/547/458 456/548/456
f 472/561/472 475/562/475 465/550/465
f 475/562/475 474/575/474 464/563/464
f 474/564/474 473/565/473 463/553/463
f 473/565/473 471/578/471 461/566/461
f 467/555/467 470/556/470 480/567/480
f 480/567/480 470/556/470 469/557/469
f 479/570/479 469/558/469 468/559/468
f 478/571/478 468/559/468 466/560/466
f 482/573/482 485/574/485 475/562/475
f 485/574/485 484/587/484 474/575/474
f 484/576/484 483/577/483 473/565/473
f 483/577/483 481/590/481 471/578/471
f 487/579/487 477/568/477 480/567/480
f 490/580/490 480/567/480 479/569/479
f 489/582/489 479/570/479 478/571/478
f 488/583/488 478/571/478 476/572/476
f 482/573/482 492/598/492 495/585/495
f 485/574/485 495/585/495 494/586/494
f 484/576/484 494/600/494 493/588/493
f 483/577/483 493/588/493 491/589/491
f 487/579/487 490/580/490 500/591/500
f 490/580/490 489/581/489 499/593/499
f 489/582/489 488/583/488 498/594/498
f 488/583/488 486/584/486 496/596/496
f 502/597/502 505/610/505 495/585/495
f 495/585/495 505/610/505 504/599/504
f 494/600/494 504/611/504 503/601/503
f 493/588/493 503/601/503 501/602/501
f 497/592/497 500/591/500 510/603/510
f 500/591/500 499/593/499 509/605/509
f 499/595/499 498/594/498 508/606/508
f 498/594/498 496/596/496 506/608/506
f 502/597/502 512/621/512 515/609/515
f 515/609/515 514/623/514 504/599/504
f 504/611/504 514/624/514 513/612/513
f 503/601/503 513/612/513 511/613/511
f 507/604/507 510/603/510 520/614/520
f 510/603/510 509/605/509 519/616/519
f 509/607/509 508/606/508 518/617/518
f 508/606/508 506/608/506 516/619/516
f 522/620/522 525/634/525 515/609/515
f 515/609/515 525/634/525 524/622/524
f 514/624/514 524/636/524 523/625/523
f 513/612/513 523/625/523 521/626/521
f 517/615/517 520/614/520 530/627/530
f 520/614/520 519/616/519 529/629/529
f 519/618/519 518/617/518 528/630/528
f 518/617/518 516/619/516 526/632/526
f 532/633/532 535/646/535 525/634/525
f 525/634/525 535/646/535 534/635/534
f 524/636/524 534/648/534 533/637/533
f 523/625/523 533/637/533 531/638/531
f 527/628/527 530/627/530 540/639/540
f 530/627/530 529/629/529 539/641/539
f 529/631/529 528/630/528 538/642/538
f 528/630/528 526/632/526 536/644/536
f 542/645/542 545/658/545 535/646/535
f 535/646/535 545/658/545 544/647/544
f 534/648/534 544/661/544 543/649/543
f 533/637/533 543/649/543 541/650/541
f 537/640/537 540/639/540 550/651/550
f 540/639/540 539/641/539 549/653/549
f 539/643/539 538/642/538 548/654/548
f 538/642/538 536/644/536 546/656/546
f 552/657/552 555/659/555 545/658/545
f 555/659/555 554/671/554 544/647/544
f 554/660/554 553/662/553 543/649/543
f 553/662/553 551/673/551 541/650/541
f 557/663/557 547/652/547 550/651/550
f 550/651/550 549/653/549 559/665/559
f 559/666/559 549/655/549 548/654/548
f 558/667/558 548/654/548 546/656/546
f 562/669/562 565/670/565 555/659/555
f 565/670/565 564/682/564 554/671/554
f 554/660/554 564/684/564 563/672/563
f 563/672/563 561/686/561 551/673/551
f 557/663/557 560/664/560 570/674/570
f 570/674/570 560/664/560 559/665/559
f 559/666/559 558/667/558 568/677/568
f 558/667/558 556/668/556 566/679/566
f 572/680/572 575/694/575 565/670/565
f 565/670/565 575/694/575 574/681/574
f 574/683/574 573/685/573 563/672/563
f 573/685/573 571/697/571 561/686/561
f 567/675/567 570/674/570 580/687/580
f 570/674/570 569/676/569 579/689/579
f 579/690/579 569/678/569 568/677/568
f 568/677/568 566/679/566 576/692/576
f 572/680/572 582/705/582 585/693/585
f 585/693/585 584/707/584 574/681/574
f 574/683/574 584/709/584 583/695/583
f 573/685/573 583/695/583 581/696/581
f 577/688/577 580/687/580 590/698/590
f 580/687/580 579/689/579 589/700/589
f 579/690/579 578/691/578 588/701/588
f 578/691/578 576/692/576 586/703/586
f 592/704/592 595/706/595 585/693/585
f 595/706/595 594/719/594 584/707/584
f 594/708/594 593/710/593 583/695/583
f 593/710/593 591/722/591 581/696/581
f 587/699/587 590/698/590 600/711/600
f 600/711/600 590/698/590 589/700/589
f 599/714/599 589/702/589 588/701/588
f 598/715/598 588/701/588 586/703/586
f 602/717/602 605/718/605 595/706/595
f 605/718/605 604/731/604 594/719/594
f 604/720/604 603/721/603 593/710/593
f 603/721/603 601/734/601 591/722/591
f 597/712/597 600/711/600 610/723/610
f 610/723/610 600/711/600 599/713/599
f 609/726/609 599/714/599 598/715/598
f 608/727/608 598/715/598 596/716/596
f 612/729/612 615/730/615 605/718/605
f 615/730/615 614/743/614 604/731/604
f 614/732/614 613/733/613 603/721/603
f 613/733/613 611/746/611 601/734/601
f 607/724/607 610/723/610 620/735/620
f 620/735/620 610/723/610 609/725/609
f 619/738/619 609/726/609 608/727/608
f 618/739/618 608/727/608 606/728/606
f 622/741/622 625/742/625 615/730/615
f 625/742/625 624/755/624 614/743/614
f 624/744/624 623/745/623 613/733/613
f 623/745/623 621/758/621 611/746/611
f 627/747/627 617/736/617 620/735/620
f 620/735/620 619/737/619 629/749/629
f 629/750/629 619/738/619 618/739/618
f 628/751/628 618/739/618 616/740/616
f 632/753/632 635/754/635 625/742/625
f 635/754/635 634/767/634 624/755/624
f 634/756/634 633/757/633 623/745/623
f 633/757/633 631/768/631 621/758/621
f 627/747/627 630/748/630 640/759/640
f 640/759/640 630/748/630 629/749/629
f 639/762/639 629/750/629 628/751/628
f 638/763/638 628/751/628 626/752/626
f 2/765/2 5/766/5 635/754/635
f 5/766/5 4/774/4 634/767/634
f 4/6/4 3/8/3 633/757/633
f 3/8/3 1/10/1 631/768/631
f 7/769/7 637/760/637 640/759/640
f 10/770/10 640/759/640 639/761/639
f 9/16/9 639/762/639 638/763/638
f 8/19/8 638/763/638 636/764/636
f 631/768/631 1/10/1 11/9/11
f 11/9/11 21/26/21 31/37/31
f 31/37/31 41/50/41 51/62/51
f 51/62/51 61/74/61 71/97/71
f 71/97/71 81/110/81 91/121/91
f 91/121/91 101/120/101 111/146/111
f 111/146/111 121/158/121 131/170/131
f 131/170/131 141/182/141 151/194/151
f 151/194/151 161/206/161 171/205/171
f 171/205/171 181/218/181 191/229/191
f 191/229/191 201/242/201 211/254/211
f 211/254/211 221/266/221 231/289/231
f 231/289/231 241/302/241 251/313/251
f 251/313/251 261/312/261 271/338/271
f 271/338/271 281/350/281 291/362/291
f 291/362/291 301/374/301 311/386/311
f 311/386/311 321/398/321 331/397/331
f 331/397/331 341/410/341 351/421/351
f 351/421/351 361/434/361 371/446/371
f 371/446/371 381/458/381 391/481/391
f 391/481/391 401/494/401 411/505/411
f 411/505/411 421/504/421 431/530/431
f 431/530/431 441/542/441 451/554/451
f 451/554/451 461/566/461 471/578/471
f 471/578/471 481/590/481 491/589/491
f 491/589/491 501/602/501 511/613/511
f 511/613/511 521/626/521 531/638/531
f 531/638/531 541/650/541 551/673/551
f 551/673/551 561/686/561 571/697/571
f 571/697/571 581/696/581 591/722/591
f 591/722/591 601/734/601 611/746/611
f 611/746/611 621/758/621 631/768/631
f 631/768/631 11/9/11 31/37/31
f 31/37/31 51/62/51 71/97/71
f 71/97/71 91/121/91 111/146/111
f 111/146/111 131/170/131 151/194/151
f 151/194/151 171/205/171 191/229/191
f 191/229/191 211/254/211 231/289/231
f 231/289/231 251/313/251 271/338/271
f 271/338/271 291/362/291 311/386/311
f 311/386/311 331/397/331 351/421/351
f 351/421/351 371/446/371 391/481/391
f 391/481/391 411/505/411 431/530/431
f 431/530/431 451/554/451 471/578/471
f 471/578/471 491/589/491 511/613/511
f 511/613/511 531/638/531 551/673/551
f 551/673/551 571/697/571 591/722/591
f 591/722/591 611/746/611 631/768/631
f 631/768/631 31/37/31 71/97/71
f 71/97/71 111/146/111 151/194/151
f 151/194/151 191/229/191 231/289/231
f 231/289/231 271/338/271 311/386/311
f 311/386/311 351/421/351 391/481/391
f 391/481/391 431/530/431 471/578/471
f 471/578/471 511/613/511 551/673/551
f 551/673/551 591/722/591 631/768/631
f 631/768/631 71/97/71 151/194/151
f 151/194/151 231/289/231 311/386/311
f 311/386/311 391/481/391 471/578/471
f 471/578/471 551/673/551 631/768/631
f 631/768/631 151/194/151 311/386/311
f 7/11/7 17/13/17 12/22/12
f 637/760/637 7/769/7 2/765/2
f 26/32/26 16/20/16 6/772/6
f 6/772/6 636/764/636 626/752/626
f 626/752/626 616/740/616 606/728/606
f 606/728/606 596/716/596 586/703/586
f 586/703/586 576/692/576 566/679/566
f 566/679/566 556/668/556 546/656/546
f 546/656/546 536/644/536 526/632/526
f 526/632/526 516/619/516 506/608/506
f 506/608/506 496/596/496 486/584/486
f 486/584/486 476/572/476 466/560/466
f 466/560/466 456/548/456 446/536/446
f 446/536/446 436/524/436 426/511/426
f 426/511/426 416/500/416 406/487/406
f 406/487/406 396/476/396 386/464/386
f 386/464/386 376/452/376 366/440/366
f 366/440/366 356/427/356 346/416/346
f 346/416/346 336/404/336 326/392/326
f 326/392/326 316/380/316 306/368/306
f 306/368/306 296/356/296 286/344/286
f 286/344/286 276/332/276 266/319/266
f 266/319/266 256/308/256 246/295/246
f 246/295/246 236/284/236 226/272/226
f 226/272/226 216/260/216 206/248/206
f 206/248/206 196/235/196 186/224/186
f 186/224/186 176/212/176 166/200/166
f 166/200/166 156/188/156 146/176/146
f 146/176/146 136/164/136 126/152/126
f 126/152/126 116/140/116 106/127/106
f 106/127/106 96/116/96 86/103/86
f 86/103/86 76/92/76 66/80/66
f 66/80/66 56/68/56 46/56/46
f 46/56/46 36/43/36 26/32/26
f 26/32/26 6/772/6 626/752/626
f 626/752/626 606/728/606 586/703/586
f 586/703/586 566/679/566 546/656/546
f 546/656/546 526/632/526 506/608/506
f 506/608/506 486/584/486 466/560/466
f 466/560/466 446/536/446 426/511/426
f 426/511/426 406/487/406 386/464/386
f 386/464/386 366/440/366 346/416/346
f 346/416/346 326/392/326 306/368/306
f 306/368/306 286/344/286 266/319/266
f 266/319/266 246/295/246 226/272/226
f 226/272/226 206/248/206 186/224/186
f 186/224/186 166/200/166 146/176/146
f 146/176/146 126/152/126 106/127/106
f 106/127/106 86/103/86 66/80/66
f 66/80/66 46/56/46 26/32/26
f 26/32/26 626/752/626 586/703/586
f 586/703/586 546/656/546 506/608/506
f 506/608/506 466/560/466 426/511/426
f 426/511/426 386/464/386 346/416/346
f 346/416/346 306/368/306 266/319/266
f 266/319/266 226/272/226 186/224/186
f 186/224/186 146/176/146 106/127/106
f 106/127/106 66/80/66 26/32/26
f 26/32/26 586/703/586 506/608/506
f 506/608/506 426/511/426 346/416/346
f 346/416/346 266/319/266 186/224/186
f 186/224/186 106/127/106 26/32/26
f 26/32/26 506/608/506 346/416/346
f 17/13/17 27/28/27 22/21/22
f 27/28/27 37/39/37 32/45/32
f 37/39/37 47/52/47 42/44/42
f 47/52/47 57/64/57 52/57/52
f 57/64/57 67/76/67 62/69/62
f 67/76/67 77/87/77 72/81/72
f 77/87/77 87/99/87 82/93/82
f 87/99/87 97/112/97 92/104/92
f 97/112/97 107/123/107 102/129/102
f 107/123/107 117/136/117 112/128/112
f 117/136/117 127/148/127 122/141/122
f 127/148/127 137/160/137 132/153/132
f 137/160/137 147/171/147 142/165/142
f 147/171/147 157/184/157 152/177/152
f 157/184/157 167/195/167 162/189/162
f 167/195/167 177/208/177 172/214/172
f 177/208/177 187/220/187 182/213/182
f 187/220/187 197/231/197 192/237/192
f 197/231/197 207/244/207 202/236/202
f 207/244/207 217/256/217 212/249/212
f 217/256/217 227/268/227 222/261/222
f 227/268/227 237/279/237 232/273/232
f 237/279/237 247/291/247 242/285/242
f 247/291/247 257/304/257 252/296/252
f 257/304/257 267/315/267 262/321/262
f 267/315/267 277/328/277 272/320/272
f 277/328/277 287/340/287 282/333/282
f 287/340/287 297/352/297 292/345/292
f 297/352/297 307/363/307 302/357/302
f 307/363/307 317/376/317 312/369/312
f 317/376/317 327/387/327 322/381/322
f 327/387/327 337/400/337 332/406/332
f 337/400/337 347/412/347 342/405/342
f 347/412/347 357/423/357 352/429/352
f 357/423/357 367/436/367 362/428/362
f 367/436/367 377/448/377 372/441/372
f 377/448/377 387/460/387 382/453/382
f 387/460/387 397/471/397 392/465/392
f 397/471/397 407/483/407 402/477/402
f 407/483/407 417/496/417 412/488/412
f 417/496/417 427/507/427 422/513/422
f 427/507/427 437/520/437 432/512/432
f 437/520/437 447/532/447 442/525/442
f 447/532/447 457/544/457 452/537/452
f 457/544/457 467/555/467 462/549/462
f 467/555/467 477/568/477 472/561/472
f 477/568/477 487/579/487 482/573/482
f 487/579/487 497/592/497 492/598/492
f 497/592/497 507/604/507 502/597/502
f 507/604/507 517/615/517 512/621/512
f 517/615/517 527/628/527 522/620/522
f 527/628/527 537/640/537 532/633/532
f 537/640/537 547/652/547 542/645/542
f 547/652/547 557/663/557 552/657/552
f 557/663/557 567/675/567 562/669/562
f 567/675/567 577/688/577 572/680/572
f 577/688/577 587/699/587 582/705/582
f 587/699/587 597/712/597 592/704/592
f 597/712/597 607/724/607 602/717/602
f 607/724/607 617/736/617 612/729/612
f 617/736/617 627/747/627 622/741/622
f 627/747/627 637/760/637 632/753/632
