# Blender 5.1.2
# www.blender.org
mtllib HoleWell.mtl
o HoleWell
v -0.000000 -1.000000 -0.449940
v 0.000000 -0.950201 -0.495518
v -0.000000 -0.993328 -0.474369
v -0.000000 -0.975100 -0.491052
v -0.000000 1.000000 -0.269940
v 0.000000 0.950201 -0.324482
v -0.000000 0.993328 -0.295570
v -0.000000 0.975100 -0.315534
v 0.044102 -1.000000 -0.447773
v 0.048569 -0.950201 -0.493132
v 0.046496 -0.993328 -0.472085
v 0.048132 -0.975100 -0.488688
v 0.026458 1.000000 -0.268640
v 0.031805 0.950201 -0.322919
v 0.028971 0.993328 -0.294147
v 0.030928 0.975100 -0.314015
v 0.087779 -1.000000 -0.441294
v 0.096671 -0.950201 -0.485997
v 0.092545 -0.993328 -0.465254
v 0.095800 -0.975100 -0.481617
v 0.052663 1.000000 -0.264753
v 0.063303 0.950201 -0.318247
v 0.057663 0.993328 -0.289891
v 0.061558 0.975100 -0.309471
v 0.130611 -1.000000 -0.430565
v 0.143841 -0.950201 -0.474181
v 0.137702 -0.993328 -0.453943
v 0.142545 -0.975100 -0.469908
v 0.078359 1.000000 -0.258316
v 0.094192 0.950201 -0.310510
v 0.085800 0.993328 -0.282843
v 0.091595 0.975100 -0.301947
v 0.172185 -1.000000 -0.415690
v 0.189627 -0.950201 -0.457799
v 0.181533 -0.993328 -0.438260
v 0.187918 -0.975100 -0.453673
v 0.103301 1.000000 -0.249392
v 0.124174 0.950201 -0.299782
v 0.113110 0.993328 -0.273071
v 0.120750 0.975100 -0.291516
v 0.212100 -1.000000 -0.396811
v 0.233586 -0.950201 -0.437008
v 0.223616 -0.993328 -0.418356
v 0.231480 -0.975100 -0.433069
v 0.127249 1.000000 -0.238066
v 0.152960 0.950201 -0.286168
v 0.139331 0.993328 -0.260670
v 0.148742 0.975100 -0.278276
v 0.249973 -1.000000 -0.374111
v 0.275295 -0.950201 -0.412008
v 0.263546 -0.993328 -0.394424
v 0.272814 -0.975100 -0.408295
v 0.149970 1.000000 -0.224447
v 0.180273 0.950201 -0.269797
v 0.164210 0.993328 -0.245758
v 0.175301 0.975100 -0.262357
v 0.285439 -1.000000 -0.347808
v 0.314353 -0.950201 -0.383041
v 0.300937 -0.993328 -0.366692
v 0.311520 -0.975100 -0.379589
v 0.171248 1.000000 -0.208666
v 0.205849 0.950201 -0.250828
v 0.187508 0.993328 -0.228479
v 0.200173 0.975100 -0.243911
v 0.318155 -1.000000 -0.318155
v 0.350384 -0.950201 -0.350384
v 0.335430 -0.993328 -0.335430
v 0.347226 -0.975100 -0.347226
v 0.190876 1.000000 -0.190876
v 0.229443 0.950201 -0.229443
v 0.209000 0.993328 -0.209000
v 0.223116 0.975100 -0.223116
v 0.347808 -1.000000 -0.285439
v 0.383041 -0.950201 -0.314353
v 0.366692 -0.993328 -0.300937
v 0.379589 -0.975100 -0.311520
v 0.208666 1.000000 -0.171248
v 0.250828 0.950201 -0.205849
v 0.228479 0.993328 -0.187508
v 0.243911 0.975100 -0.200173
v 0.374111 -1.000000 -0.249973
v 0.412008 -0.950201 -0.275295
v 0.394424 -0.993328 -0.263545
v 0.408295 -0.975100 -0.272814
v 0.224447 1.000000 -0.149970
v 0.269797 0.950201 -0.180273
v 0.245758 0.993328 -0.164210
v 0.262357 0.975100 -0.175301
v 0.396811 -1.000000 -0.212100
v 0.437008 -0.950201 -0.233586
v 0.418356 -0.993328 -0.223616
v 0.433069 -0.975100 -0.231480
v 0.238066 1.000000 -0.127249
v 0.286168 0.950201 -0.152960
v 0.260670 0.993328 -0.139331
v 0.278276 0.975100 -0.148742
v 0.415690 -1.000000 -0.172185
v 0.457799 -0.950201 -0.189627
v 0.438260 -0.993328 -0.181533
v 0.453673 -0.975100 -0.187918
v 0.249392 1.000000 -0.103301
v 0.299782 0.950201 -0.124174
v 0.273071 0.993328 -0.113110
v 0.291516 0.975100 -0.120750
v 0.430565 -1.000000 -0.130611
v 0.474181 -0.950201 -0.143841
v 0.453943 -0.993328 -0.137702
v 0.469908 -0.975100 -0.142545
v 0.258316 1.000000 -0.078359
v 0.310510 0.950201 -0.094192
v 0.282843 0.993328 -0.085800
v 0.301947 0.975100 -0.091595
v 0.441294 -1.000000 -0.087779
v 0.485997 -0.950201 -0.096671
v 0.465254 -0.993328 -0.092545
v 0.481617 -0.975100 -0.095800
v 0.264753 1.000000 -0.052663
v 0.318247 0.950201 -0.063303
v 0.289891 0.993328 -0.057663
v 0.309471 0.975100 -0.061558
v 0.447773 -1.000000 -0.044102
v 0.493132 -0.950201 -0.048569
v 0.472085 -0.993328 -0.046496
v 0.488688 -0.975100 -0.048132
v 0.268640 1.000000 -0.026458
v 0.322919 0.950201 -0.031805
v 0.294147 0.993328 -0.028971
v 0.314015 0.975100 -0.030928
v 0.449940 -1.000000 -0.000000
v 0.495518 -0.950201 0.000000
v 0.474369 -0.993328 -0.000000
v 0.491052 -0.975100 -0.000000
v 0.269940 1.000000 -0.000000
v 0.324482 0.950201 0.000000
v 0.295570 0.993328 -0.000000
v 0.315534 0.975100 -0.000000
v 0.447773 -1.000000 0.044102
v 0.493132 -0.950201 0.048569
v 0.472085 -0.993328 0.046496
v 0.488688 -0.975100 0.048132
v 0.268640 1.000000 0.026458
v 0.322919 0.950201 0.031805
v 0.294147 0.993328 0.028971
v 0.314015 0.975100 0.030928
v 0.441294 -1.000000 0.087779
v 0.485997 -0.950201 0.096671
v 0.465254 -0.993328 0.092545
v 0.481617 -0.975100 0.095800
v 0.264753 1.000000 0.052663
v 0.318247 0.950201 0.063303
v 0.289891 0.993328 0.057663
v 0.309471 0.975100 0.061558
v 0.430565 -1.000000 0.130611
v 0.474181 -0.950201 0.143841
v 0.453943 -0.993328 0.137702
v 0.469908 -0.975100 0.142545
v 0.258316 1.000000 0.078359
v 0.310510 0.950201 0.094192
v 0.282843 0.993328 0.085800
v 0.301947 0.975100 0.091595
v 0.415690 -1.000000 0.172185
v 0.457799 -0.950201 0.189627
v 0.438260 -0.993328 0.181533
v 0.453673 -0.975100 0.187918
v 0.249392 1.000000 0.103301
v 0.299782 0.950201 0.124174
v 0.273071 0.993328 0.113110
v 0.291516 0.975100 0.120750
v 0.396811 -1.000000 0.212100
v 0.437008 -0.950201 0.233586
v 0.418356 -0.993328 0.223616
v 0.433069 -0.975100 0.231480
v 0.238066 1.000000 0.127249
v 0.286168 0.950201 0.152960
v 0.260670 0.993328 0.139331
v 0.278276 0.975100 0.148742
v 0.374111 -1.000000 0.249973
v 0.412008 -0.950201 0.275295
v 0.394424 -0.993328 0.263546
v 0.408295 -0.975100 0.272814
v 0.224447 1.000000 0.149970
v 0.269797 0.950201 0.180273
v 0.245758 0.993328 0.164210
v 0.262357 0.975100 0.175301
v 0.347808 -1.000000 0.285439
v 0.383041 -0.950201 0.314353
v 0.366692 -0.993328 0.300937
v 0.379589 -0.975100 0.311520
v 0.208666 1.000000 0.171248
v 0.250828 0.950201 0.205849
v 0.228479 0.993328 0.187508
v 0.243911 0.975100 0.200173
v 0.318155 -1.000000 0.318155
v 0.350384 -0.950201 0.350384
v 0.335430 -0.993328 0.335430
v 0.347226 -0.975100 0.347226
v 0.190876 1.000000 0.190876
v 0.229443 0.950201 0.229443
v 0.209000 0.993328 0.209000
v 0.223116 0.975100 0.223116
v 0.285439 -1.000000 0.347808
v 0.314353 -0.950201 0.383041
v 0.300937 -0.993328 0.366692
v 0.311520 -0.975100 0.379589
v 0.171248 1.000000 0.208666
v 0.205849 0.950201 0.250828
v 0.187508 0.993328 0.228479
v 0.200173 0.975100 0.243911
v 0.249973 -1.000000 0.374111
v 0.275295 -0.950201 0.412008
v 0.263545 -0.993328 0.394424
v 0.272814 -0.975100 0.408295
v 0.149970 1.000000 0.224447
v 0.180273 0.950201 0.269797
v 0.164210 0.993328 0.245758
v 0.175301 0.975100 0.262357
v 0.212100 -1.000000 0.396811
v 0.233586 -0.950201 0.437008
v 0.223616 -0.993328 0.418356
v 0.231480 -0.975100 0.433069
v 0.127249 1.000000 0.238066
v 0.152960 0.950201 0.286168
v 0.139331 0.993328 0.260670
v 0.148742 0.975100 0.278276
v 0.172185 -1.000000 0.415690
v 0.189627 -0.950201 0.457799
v 0.181533 -0.993328 0.438260
v 0.187918 -0.975100 0.453673
v 0.103301 1.000000 0.249392
v 0.124174 0.950201 0.299782
v 0.113110 0.993328 0.273071
v 0.120750 0.975100 0.291516
v 0.130611 -1.000000 0.430565
v 0.143841 -0.950201 0.474181
v 0.137702 -0.993328 0.453943
v 0.142545 -0.975100 0.469908
v 0.078359 1.000000 0.258316
v 0.094192 0.950201 0.310510
v 0.085800 0.993328 0.282843
v 0.091595 0.975100 0.301947
v 0.087779 -1.000000 0.441294
v 0.096671 -0.950201 0.485997
v 0.092545 -0.993328 0.465254
v 0.095800 -0.975100 0.481617
v 0.052663 1.000000 0.264753
v 0.063303 0.950201 0.318247
v 0.057663 0.993328 0.289891
v 0.061558 0.975100 0.309471
v 0.044102 -1.000000 0.447773
v 0.048569 -0.950201 0.493132
v 0.046496 -0.993328 0.472085
v 0.048132 -0.975100 0.488688
v 0.026458 1.000000 0.268640
v 0.031805 0.950201 0.322919
v 0.028971 0.993328 0.294147
v 0.030928 0.975100 0.314015
v 0.000000 -1.000000 0.449940
v 0.000000 -0.950201 0.495518
v 0.000000 -0.993328 0.474369
v 0.000000 -0.975100 0.491052
v 0.000000 1.000000 0.269940
v 0.000000 0.950201 0.324482
v 0.000000 0.993328 0.295570
v 0.000000 0.975100 0.315534
v -0.044102 -1.000000 0.447773
v -0.048569 -0.950201 0.493132
v -0.046496 -0.993328 0.472085
v -0.048132 -0.975100 0.488688
v -0.026458 1.000000 0.268640
v -0.031805 0.950201 0.322919
v -0.028971 0.993328 0.294147
v -0.030928 0.975100 0.314015
v -0.087779 -1.000000 0.441294
v -0.096671 -0.950201 0.485997
v -0.092545 -0.993328 0.465254
v -0.095800 -0.975100 0.481617
v -0.052663 1.000000 0.264753
v -0.063303 0.950201 0.318247
v -0.057663 0.993328 0.289891
v -0.061558 0.975100 0.309471
v -0.130611 -1.000000 0.430565
v -0.143841 -0.950201 0.474181
v -0.137702 -0.993328 0.453943
v -0.142545 -0.975100 0.469908
v -0.078359 1.000000 0.258316
v -0.094192 0.950201 0.310510
v -0.085800 0.993328 0.282843
v -0.091595 0.975100 0.301947
v -0.172185 -1.000000 0.415690
v -0.189627 -0.950201 0.457799
v -0.181533 -0.993328 0.438260
v -0.187918 -0.975100 0.453673
v -0.103301 1.000000 0.249392
v -0.124174 0.950201 0.299782
v -0.113110 0.993328 0.273071
v -0.120750 0.975100 0.291516
v -0.212100 -1.000000 0.396811
v -0.233586 -0.950201 0.437008
v -0.223616 -0.993328 0.418356
v -0.231480 -0.975100 0.433069
v -0.127249 1.000000 0.238066
v -0.152960 0.950201 0.286168
v -0.139331 0.993328 0.260670
v -0.148742 0.975100 0.278276
v -0.249973 -1.000000 0.374111
v -0.275295 -0.950201 0.412008
v -0.263546 -0.993328 0.394424
v -0.272814 -0.975100 0.408295
v -0.149970 1.000000 0.224447
v -0.180273 0.950201 0.269797
v -0.164210 0.993328 0.245758
v -0.175301 0.975100 0.262357
v -0.285439 -1.000000 0.347808
v -0.314353 -0.950201 0.383041
v -0.300937 -0.993328 0.366692
v -0.311520 -0.975100 0.379589
v -0.171248 1.000000 0.208666
v -0.205849 0.950201 0.250828
v -0.187508 0.993328 0.228479
v -0.200173 0.975100 0.243911
v -0.318155 -1.000000 0.318155
v -0.350384 -0.950201 0.350384
v -0.335430 -0.993328 0.335430
v -0.347226 -0.975100 0.347226
v -0.190876 1.000000 0.190876
v -0.229443 0.950201 0.229443
v -0.209000 0.993328 0.209000
v -0.223116 0.975100 0.223116
v -0.347808 -1.000000 0.285439
v -0.383041 -0.950201 0.314353
v -0.366692 -0.993328 0.300937
v -0.379589 -0.975100 0.311520
v -0.208666 1.000000 0.171248
v -0.250828 0.950201 0.205849
v -0.228479 0.993328 0.187508
v -0.243911 0.975100 0.200173
v -0.374111 -1.000000 0.249973
v -0.412008 -0.950201 0.275295
v -0.394424 -0.993328 0.263545
v -0.408295 -0.975100 0.272814
v -0.224447 1.000000 0.149970
v -0.269797 0.950201 0.180273
v -0.245758 0.993328 0.164210
v -0.262357 0.975100 0.175301
v -0.396811 -1.000000 0.212100
v -0.437008 -0.950201 0.233586
v -0.418356 -0.993328 0.223616
v -0.433069 -0.975100 0.231480
v -0.238066 1.000000 0.127249
v -0.286168 0.950201 0.152960
v -0.260670 0.993328 0.139331
v -0.278276 0.975100 0.148742
v -0.415690 -1.000000 0.172185
v -0.457799 -0.950201 0.189627
v -0.438260 -0.993328 0.181533
v -0.453673 -0.975100 0.187918
v -0.249392 1.000000 0.103301
v -0.299782 0.950201 0.124174
v -0.273071 0.993328 0.113110
v -0.291516 0.975100 0.120750
v -0.430565 -1.000000 0.130611
v -0.474181 -0.950201 0.143841
v -0.453943 -0.993328 0.137702
v -0.469908 -0.975100 0.142545
v -0.258316 1.000000 0.078359
v -0.310510 0.950201 0.094192
v -0.282843 0.993328 0.085800
v -0.301947 0.975100 0.091595
v -0.441294 -1.000000 0.087779
v -0.485997 -0.950201 0.096671
v -0.465254 -0.993328 0.092545
v -0.481617 -0.975100 0.095800
v -0.264753 1.000000 0.052663
v -0.318247 0.950201 0.063303
v -0.289891 0.993328 0.057663
v -0.309471 0.975100 0.061558
v -0.447773 -1.000000 0.044102
v -0.493132 -0.950201 0.048569
v -0.472085 -0.993328 0.046496
v -0.488688 -0.975100 0.048132
v -0.268640 1.000000 0.026458
v -0.322919 0.950201 0.031805
v -0.294147 0.993328 0.028971
v -0.314015 0.975100 0.030928
v -0.449940 -1.000000 0.000000
v -0.495518 -0.950201 0.000000
v -0.474369 -0.993328 0.000000
v -0.491052 -0.975100 0.000000
v -0.269940 1.000000 0.000000
v -0.324482 0.950201 0.000000
v -0.295570 0.993328 0.000000
v -0.315534 0.975100 0.000000
v -0.447773 -1.000000 -0.044102
v -0.493132 -0.950201 -0.048569
v -0.472085 -0.993328 -0.046496
v -0.488688 -0.975100 -0.048132
v -0.268640 1.000000 -0.026458
v -0.322919 0.950201 -0.031805
v -0.294147 0.993328 -0.028971
v -0.314015 0.975100 -0.030928
v -0.441294 -1.000000 -0.087779
v -0.485997 -0.950201 -0.096671
v -0.465254 -0.993328 -0.092545
v -0.481617 -0.975100 -0.095800
v -0.264753 1.000000 -0.052663
v -0.318247 0.950201 -0.063303
v -0.289891 0.993328 -0.057663
v -0.309471 0.975100 -0.061558
v -0.430565 -1.000000 -0.130611
v -0.474181 -0.950201 -0.143841
v -0.453943 -0.993328 -0.137702
v -0.469908 -0.975100 -0.142545
v -0.258316 1.000000 -0.078359
v -0.310510 0.950201 -0.094192
v -0.282843 0.993328 -0.085800
v -0.301947 0.975100 -0.091595
v -0.415690 -1.000000 -0.172185
v -0.457799 -0.950201 -0.189627
v -0.438260 -0.993328 -0.181533
v -0.453673 -0.975100 -0.187918
v -0.249392 1.000000 -0.103301
v -0.299782 0.950201 -0.124174
v -0.273071 0.993328 -0.113110
v -0.291516 0.975100 -0.120750
v -0.396811 -1.000000 -0.212100
v -0.437008 -0.950201 -0.233586
v -0.418356 -0.993328 -0.223616
v -0.433069 -0.975100 -0.231480
v -0.238066 1.000000 -0.127249
v -0.286168 0.950201 -0.152960
v -0.260670 0.993328 -0.139331
v -0.278276 0.975100 -0.148742
v -0.374111 -1.000000 -0.249973
v -0.412008 -0.950201 -0.275295
v -0.394424 -0.993328 -0.263546
v -0.408295 -0.975100 -0.272814
v -0.224447 1.000000 -0.149970
v -0.269797 0.950201 -0.180273
v -0.245758 0.993328 -0.164210
v -0.262357 0.975100 -0.175301
v -0.347808 -1.000000 -0.285439
v -0.383041 -0.950201 -0.314353
v -0.366692 -0.993328 -0.300937
v -0.379589 -0.975100 -0.311520
v -0.208666 1.000000 -0.171248
v -0.250828 0.950201 -0.205849
v -0.228479 0.993328 -0.187508
v -0.243911 0.975100 -0.200173
v -0.318155 -1.000000 -0.318155
v -0.350384 -0.950201 -0.350384
v -0.335430 -0.993328 -0.335430
v -0.347226 -0.975100 -0.347226
v -0.190876 1.000000 -0.190876
v -0.229443 0.950201 -0.229443
v -0.209000 0.993328 -0.209000
v -0.223116 0.975100 -0.223116
v -0.285439 -1.000000 -0.347808
v -0.314353 -0.950201 -0.383041
v -0.300937 -0.993328 -0.366692
v -0.311520 -0.975100 -0.379589
v -0.171248 1.000000 -0.208666
v -0.205849 0.950201 -0.250828
v -0.187508 0.993328 -0.228479
v -0.200173 0.975100 -0.243911
v -0.249973 -1.000000 -0.374111
v -0.275295 -0.950201 -0.412008
v -0.263545 -0.993328 -0.394424
v -0.272814 -0.975100 -0.408295
v -0.149970 1.000000 -0.224447
v -0.180273 0.950201 -0.269797
v -0.164210 0.993328 -0.245758
v -0.175301 0.975100 -0.262357
v -0.212100 -1.000000 -0.396811
v -0.233586 -0.950201 -0.437008
v -0.223616 -0.993328 -0.418356
v -0.231480 -0.975100 -0.433069
v -0.127249 1.000000 -0.238066
v -0.152960 0.950201 -0.286168
v -0.139331 0.993328 -0.260670
v -0.148742 0.975100 -0.278276
v -0.172185 -1.000000 -0.415690
v -0.189627 -0.950201 -0.457799
v -0.181533 -0.993328 -0.438260
v -0.187918 -0.975100 -0.453673
v -0.103301 1.000000 -0.249392
v -0.124174 0.950201 -0.299782
v -0.113110 0.993328 -0.273071
v -0.120750 0.975100 -0.291516
v -0.130611 -1.000000 -0.430565
v -0.143841 -0.950201 -0.474181
v -0.137702 -0.993328 -0.453943
v -0.142545 -0.975100 -0.469908
v -0.078359 1.000000 -0.258316
v -0.094192 0.950201 -0.310510
v -0.085800 0.993328 -0.282843
v -0.091595 0.975100 -0.301947
v -0.087779 -1.000000 -0.441294
v -0.096671 -0.950201 -0.485997
v -0.092545 -0.993328 -0.465254
v -0.095800 -0.975100 -0.481617
v -0.052663 1.000000 -0.264753
v -0.063303 0.950201 -0.318247
v -0.057663 0.993328 -0.289891
v -0.061558 0.975100 -0.309471
v -0.044102 -1.000000 -0.447773
v -0.048569 -0.950201 -0.493132
v -0.046496 -0.993328 -0.472085
v -0.048132 -0.975100 -0.488688
v -0.026458 1.000000 -0.268640
v -0.031805 0.950201 -0.322919
v -0.028971 0.993328 -0.294147
v -0.030928 0.975100 -0.314015
vn -0.0000 -0.9906 -0.1370
vn -0.0000 -0.0437 -0.9990
vn -0.0000 -0.8497 -0.5273
vn -0.0000 -0.4399 -0.8980
vn -0.0000 0.9914 -0.1309
vn -0.0000 0.2148 -0.9767
vn -0.0000 0.8757 -0.4828
vn -0.0000 0.5512 -0.8344
vn 0.0134 -0.9906 -0.1363
vn 0.0979 -0.0437 -0.9942
vn 0.0517 -0.8497 -0.5248
vn 0.0880 -0.4399 -0.8937
vn 0.0128 0.9914 -0.1303
vn 0.0957 0.2148 -0.9719
vn 0.0473 0.8757 -0.4805
vn 0.0818 0.5512 -0.8304
vn 0.0267 -0.9906 -0.1343
vn 0.1949 -0.0437 -0.9799
vn 0.1029 -0.8497 -0.5172
vn 0.1752 -0.4399 -0.8808
vn 0.0255 0.9914 -0.1284
vn 0.1905 0.2148 -0.9579
vn 0.0942 0.8757 -0.4736
vn 0.1628 0.5512 -0.8184
vn 0.0398 -0.9906 -0.1311
vn 0.2900 -0.0437 -0.9560
vn 0.1531 -0.8497 -0.5046
vn 0.2607 -0.4399 -0.8594
vn 0.0380 0.9914 -0.1252
vn 0.2835 0.2148 -0.9346
vn 0.1402 0.8757 -0.4620
vn 0.2422 0.5512 -0.7985
vn 0.0524 -0.9906 -0.1266
vn 0.3823 -0.0437 -0.9230
vn 0.2018 -0.8497 -0.4872
vn 0.3437 -0.4399 -0.8297
vn 0.0501 0.9914 -0.1209
vn 0.3737 0.2148 -0.9023
vn 0.1848 0.8757 -0.4461
vn 0.3193 0.5512 -0.7709
vn 0.0646 -0.9906 -0.1208
vn 0.4709 -0.0437 -0.8811
vn 0.2486 -0.8497 -0.4651
vn 0.4233 -0.4399 -0.7920
vn 0.0617 0.9914 -0.1154
vn 0.4604 0.2148 -0.8613
vn 0.2276 0.8757 -0.4258
vn 0.3933 0.5512 -0.7359
vn 0.0761 -0.9906 -0.1139
vn 0.5550 -0.0437 -0.8307
vn 0.2930 -0.8497 -0.4385
vn 0.4989 -0.4399 -0.7467
vn 0.0727 0.9914 -0.1088
vn 0.5426 0.2148 -0.8121
vn 0.2682 0.8757 -0.4015
vn 0.4636 0.5512 -0.6938
vn 0.0869 -0.9906 -0.1059
vn 0.6338 -0.0437 -0.7723
vn 0.3345 -0.8497 -0.4076
vn 0.5697 -0.4399 -0.6942
vn 0.0830 0.9914 -0.1012
vn 0.6196 0.2148 -0.7550
vn 0.3063 0.8757 -0.3732
vn 0.5293 0.5512 -0.6450
vn 0.0969 -0.9906 -0.0969
vn 0.7064 -0.0437 -0.7064
vn 0.3729 -0.8497 -0.3729
vn 0.6350 -0.4399 -0.6350
vn 0.0926 0.9914 -0.0926
vn 0.6906 0.2148 -0.6906
vn 0.3414 0.8757 -0.3414
vn 0.5900 0.5512 -0.5900
vn 0.1059 -0.9906 -0.0869
vn 0.7723 -0.0437 -0.6338
vn 0.4076 -0.8497 -0.3345
vn 0.6942 -0.4399 -0.5697
vn 0.1012 0.9914 -0.0830
vn 0.7550 0.2148 -0.6196
vn 0.3732 0.8757 -0.3063
vn 0.6450 0.5512 -0.5293
vn 0.1139 -0.9906 -0.0761
vn 0.8307 -0.0437 -0.5550
vn 0.4385 -0.8497 -0.2930
vn 0.7467 -0.4399 -0.4989
vn 0.1088 0.9914 -0.0727
vn 0.8121 0.2148 -0.5426
vn 0.4014 0.8757 -0.2682
vn 0.6938 0.5512 -0.4636
vn 0.1208 -0.9906 -0.0646
vn 0.8811 -0.0437 -0.4709
vn 0.4651 -0.8497 -0.2486
vn 0.7920 -0.4399 -0.4233
vn 0.1154 0.9914 -0.0617
vn 0.8613 0.2148 -0.4604
vn 0.4258 0.8757 -0.2276
vn 0.7359 0.5512 -0.3933
vn 0.1266 -0.9906 -0.0524
vn 0.9230 -0.0437 -0.3823
vn 0.4872 -0.8497 -0.2018
vn 0.8297 -0.4399 -0.3437
vn 0.1209 0.9914 -0.0501
vn 0.9023 0.2148 -0.3737
vn 0.4461 0.8757 -0.1848
vn 0.7709 0.5512 -0.3193
vn 0.1311 -0.9906 -0.0398
vn 0.9560 -0.0437 -0.2900
vn 0.5046 -0.8497 -0.1531
vn 0.8594 -0.4399 -0.2607
vn 0.1252 0.9914 -0.0380
vn 0.9346 0.2148 -0.2835
vn 0.4620 0.8757 -0.1402
vn 0.7985 0.5512 -0.2422
vn 0.1344 -0.9906 -0.0267
vn 0.9799 -0.0437 -0.1949
vn 0.5172 -0.8497 -0.1029
vn 0.8808 -0.4399 -0.1752
vn 0.1284 0.9914 -0.0255
vn 0.9579 0.2148 -0.1905
vn 0.4735 0.8757 -0.0942
vn 0.8184 0.5512 -0.1628
vn 0.1363 -0.9906 -0.0134
vn 0.9942 -0.0437 -0.0979
vn 0.5248 -0.8497 -0.0517
vn 0.8937 -0.4399 -0.0880
vn 0.1303 0.9914 -0.0128
vn 0.9719 0.2148 -0.0957
vn 0.4805 0.8757 -0.0473
vn 0.8304 0.5512 -0.0818
vn 0.1370 -0.9906 -0.0000
vn 0.9990 -0.0437 -0.0000
vn 0.5273 -0.8497 -0.0000
vn 0.8980 -0.4399 -0.0000
vn 0.1309 0.9914 -0.0000
vn 0.9767 0.2148 -0.0000
vn 0.4828 0.8757 -0.0000
vn 0.8344 0.5512 -0.0000
vn 0.1363 -0.9906 0.0134
vn 0.9942 -0.0437 0.0979
vn 0.5248 -0.8497 0.0517
vn 0.8937 -0.4399 0.0880
vn 0.1303 0.9914 0.0128
vn 0.9719 0.2148 0.0957
vn 0.4805 0.8757 0.0473
vn 0.8304 0.5512 0.0818
vn 0.1344 -0.9906 0.0267
vn 0.9799 -0.0437 0.1949
vn 0.5172 -0.8497 0.1029
vn 0.8808 -0.4399 0.1752
vn 0.1284 0.9914 0.0255
vn 0.9579 0.2148 0.1905
vn 0.4735 0.8757 0.0942
vn 0.8184 0.5512 0.1628
vn 0.1311 -0.9906 0.0398
vn 0.9560 -0.0437 0.2900
vn 0.5046 -0.8497 0.1531
vn 0.8594 -0.4399 0.2607
vn 0.1252 0.9914 0.0380
vn 0.9346 0.2148 0.2835
vn 0.4620 0.8757 0.1402
vn 0.7985 0.5512 0.2422
vn 0.1266 -0.9906 0.0524
vn 0.9230 -0.0437 0.3823
vn 0.4872 -0.8497 0.2018
vn 0.8297 -0.4399 0.3437
vn 0.1209 0.9914 0.0501
vn 0.9023 0.2148 0.3737
vn 0.4461 0.8757 0.1848
vn 0.7709 0.5512 0.3193
vn 0.1208 -0.9906 0.0646
vn 0.8811 -0.0437 0.4709
vn 0.4651 -0.8497 0.2486
vn 0.7920 -0.4399 0.4233
vn 0.1154 0.9914 0.0617
vn 0.8613 0.2148 0.4604
vn 0.4258 0.8757 0.2276
vn 0.7359 0.5512 0.3933
vn 0.1139 -0.9906 0.0761
vn 0.8307 -0.0437 0.5550
vn 0.4385 -0.8497 0.2930
vn 0.7467 -0.4399 0.4989
vn 0.1088 0.9914 0.0727
vn 0.8121 0.2148 0.5426
vn 0.4015 0.8757 0.2682
vn 0.6938 0.5512 0.4636
vn 0.1059 -0.9906 0.0869
vn 0.7723 -0.0437 0.6338
vn 0.4076 -0.8497 0.3345
vn 0.6942 -0.4399 0.5697
vn 0.1012 0.9914 0.0830
vn 0.7550 0.2148 0.6196
vn 0.3732 0.8757 0.3063
vn 0.6450 0.5512 0.5293
vn 0.0969 -0.9906 0.0969
vn 0.7064 -0.0437 0.7064
vn 0.3729 -0.8497 0.3729
vn 0.6350 -0.4399 0.6350
vn 0.0926 0.9914 0.0926
vn 0.6906 0.2148 0.6906
vn 0.3414 0.8757 0.3414
vn 0.5900 0.5512 0.5900
vn 0.0869 -0.9906 0.1059
vn 0.6338 -0.0437 0.7723
vn 0.3345 -0.8497 0.4076
vn 0.5697 -0.4399 0.6942
vn 0.0830 0.9914 0.1012
vn 0.6196 0.2148 0.7550
vn 0.3063 0.8757 0.3732
vn 0.5293 0.5512 0.6450
vn 0.0761 -0.9906 0.1139
vn 0.5550 -0.0437 0.8307
vn 0.2930 -0.8497 0.4385
vn 0.4989 -0.4399 0.7467
vn 0.0727 0.9914 0.1088
vn 0.5426 0.2148 0.8121
vn 0.2682 0.8757 0.4014
vn 0.4636 0.5512 0.6938
vn 0.0646 -0.9906 0.1208
vn 0.4709 -0.0437 0.8811
vn 0.2486 -0.8497 0.4651
vn 0.4233 -0.4399 0.7920
vn 0.0617 0.9914 0.1154
vn 0.4604 0.2148 0.8613
vn 0.2276 0.8757 0.4258
vn 0.3933 0.5512 0.7359
vn 0.0524 -0.9906 0.1266
vn 0.3823 -0.0437 0.9230
vn 0.2018 -0.8497 0.4872
vn 0.3437 -0.4399 0.8297
vn 0.0501 0.9914 0.1209
vn 0.3737 0.2148 0.9023
vn 0.1848 0.8757 0.4461
vn 0.3193 0.5512 0.7709
vn 0.0398 -0.9906 0.1311
vn 0.2900 -0.0437 0.9560
vn 0.1531 -0.8497 0.5046
vn 0.2607 -0.4399 0.8594
vn 0.0380 0.9914 0.1252
vn 0.2835 0.2148 0.9346
vn 0.1402 0.8757 0.4620
vn 0.2422 0.5512 0.7985
vn 0.0267 -0.9906 0.1343
vn 0.1949 -0.0437 0.9799
vn 0.1029 -0.8497 0.5172
vn 0.1752 -0.4399 0.8808
vn 0.0255 0.9914 0.1284
vn 0.1905 0.2148 0.9579
vn 0.0942 0.8757 0.4736
vn 0.1628 0.5512 0.8184
vn 0.0134 -0.9906 0.1363
vn 0.0979 -0.0437 0.9942
vn 0.0517 -0.8497 0.5248
vn 0.0880 -0.4399 0.8937
vn 0.0128 0.9914 0.1303
vn 0.0957 0.2148 0.9719
vn 0.0473 0.8757 0.4805
vn 0.0818 0.5512 0.8304
vn -0.0000 -0.9906 0.1370
vn -0.0000 -0.0437 0.9990
vn -0.0000 -0.8497 0.5273
vn -0.0000 -0.4399 0.8980
vn -0.0000 0.9914 0.1309
vn -0.0000 0.2148 0.9767
vn -0.0000 0.8757 0.4828
vn -0.0000 0.5512 0.8344
vn -0.0134 -0.9906 0.1363
vn -0.0979 -0.0437 0.9942
vn -0.0517 -0.8497 0.5248
vn -0.0880 -0.4399 0.8937
vn -0.0128 0.9914 0.1303
vn -0.0957 0.2148 0.9719
vn -0.0473 0.8757 0.4805
vn -0.0818 0.5512 0.8304
vn -0.0267 -0.9906 0.1343
vn -0.1949 -0.0437 0.9799
vn -0.1029 -0.8497 0.5172
vn -0.1752 -0.4399 0.8808
vn -0.0255 0.9914 0.1284
vn -0.1905 0.2148 0.9579
vn -0.0942 0.8757 0.4736
vn -0.1628 0.5512 0.8184
vn -0.0398 -0.9906 0.1311
vn -0.2900 -0.0437 0.9560
vn -0.1531 -0.8497 0.5046
vn -0.2607 -0.4399 0.8594
vn -0.0380 0.9914 0.1252
vn -0.2835 0.2148 0.9346
vn -0.1402 0.8757 0.4620
vn -0.2422 0.5512 0.7985
vn -0.0524 -0.9906 0.1266
vn -0.3823 -0.0437 0.9230
vn -0.2018 -0.8497 0.4872
vn -0.3437 -0.4399 0.8297
vn -0.0501 0.9914 0.1209
vn -0.3737 0.2148 0.9023
vn -0.1848 0.8757 0.4461
vn -0.3193 0.5512 0.7709
vn -0.0646 -0.9906 0.1208
vn -0.4709 -0.0437 0.8811
vn -0.2486 -0.8497 0.4651
vn -0.4233 -0.4399 0.7920
vn -0.0617 0.9914 0.1154
vn -0.4604 0.2148 0.8613
vn -0.2276 0.8757 0.4258
vn -0.3933 0.5512 0.7359
vn -0.0761 -0.9906 0.1139
vn -0.5550 -0.0437 0.8307
vn -0.2930 -0.8497 0.4385
vn -0.4989 -0.4399 0.7467
vn -0.0727 0.9914 0.1088
vn -0.5426 0.2148 0.8121
vn -0.2682 0.8757 0.4015
vn -0.4636 0.5512 0.6938
vn -0.0869 -0.9906 0.1059
vn -0.6338 -0.0437 0.7723
vn -0.3345 -0.8497 0.4076
vn -0.5697 -0.4399 0.6942
vn -0.0830 0.9914 0.1012
vn -0.6196 0.2148 0.7550
vn -0.3063 0.8757 0.3732
vn -0.5293 0.5512 0.6450
vn -0.0969 -0.9906 0.0969
vn -0.7064 -0.0437 0.7064
vn -0.3729 -0.8497 0.3729
vn -0.6350 -0.4399 0.6350
vn -0.0926 0.9914 0.0926
vn -0.6906 0.2148 0.6906
vn -0.3414 0.8757 0.3414
vn -0.5900 0.5512 0.5900
vn -0.1059 -0.9906 0.0869
vn -0.7723 -0.0437 0.6338
vn -0.4076 -0.8497 0.3345
vn -0.6942 -0.4399 0.5697
vn -0.1012 0.9914 0.0830
vn -0.7550 0.2148 0.6196
vn -0.3732 0.8757 0.3063
vn -0.6450 0.5512 0.5293
vn -0.1139 -0.9906 0.0761
vn -0.8307 -0.0437 0.5550
vn -0.4385 -0.8497 0.2930
vn -0.7467 -0.4399 0.4989
vn -0.1088 0.9914 0.0727
vn -0.8121 0.2148 0.5426
vn -0.4014 0.8757 0.2682
vn -0.6938 0.5512 0.4636
vn -0.1208 -0.9906 0.0646
vn -0.8811 -0.0437 0.4709
vn -0.4651 -0.8497 0.2486
vn -0.7920 -0.4399 0.4233
vn -0.1154 0.9914 0.0617
vn -0.8613 0.2148 0.4604
vn -0.4258 0.8757 0.2276
vn -0.7359 0.5512 0.3933
vn -0.1266 -0.9906 0.0524
vn -0.9230 -0.0437 0.3823
vn -0.4872 -0.8497 0.2018
vn -0.8297 -0.4399 0.3437
vn -0.1209 0.9914 0.0501
vn -0.9023 0.2148 0.3737
vn -0.4461 0.8757 0.1848
vn -0.7709 0.5512 0.3193
vn -0.1311 -0.9906 0.0398
vn -0.9560 -0.0437 0.2900
vn -0.5046 -0.8497 0.1531
vn -0.8594 -0.4399 0.2607
vn -0.1252 0.9914 0.0380
vn -0.9346 0.2148 0.2835
vn -0.4620 0.8757 0.1402
vn -0.7985 0.5512 0.2422
vn -0.1344 -0.9906 0.0267
vn -0.9799 -0.0437 0.1949
vn -0.5172 -0.8497 0.1029
vn -0.8808 -0.4399 0.1752
vn -0.1284 0.9914 0.0255
vn -0.9579 0.2148 0.1905
vn -0.4735 0.8757 0.0942
vn -0.8184 0.5512 0.1628
vn -0.1363 -0.9906 0.0134
vn -0.9942 -0.0437 0.0979
vn -0.5248 -0.8497 0.0517
vn -0.8937 -0.4399 0.0880
vn -0.1303 0.9914 0.0128
vn -0.9719 0.2148 0.0957
vn -0.4805 0.8757 0.0473
vn -0.8304 0.5512 0.0818
vn -0.1370 -0.9906 -0.0000
vn -0.9990 -0.0437 -0.0000
vn -0.5273 -0.8497 -0.0000
vn -0.8980 -0.4399 -0.0000
vn -0.1309 0.9914 -0.0000
vn -0.9767 0.2148 -0.0000
vn -0.4828 0.8757 -0.0000
vn -0.8344 0.5512 -0.0000
vn -0.1363 -0.9906 -0.0134
vn -0.9942 -0.0437 -0.0979
vn -0.5248 -0.8497 -0.0517
vn -0.8937 -0.4399 -0.0880
vn -0.1303 0.9914 -0.0128
vn -0.9719 0.2148 -0.0957
vn -0.4805 0.8757 -0.0473
vn -0.8304 0.5512 -0.0818
vn -0.1344 -0.9906 -0.0267
vn -0.9799 -0.0437 -0.1949
vn -0.5172 -0.8497 -0.1029
vn -0.8808 -0.4399 -0.1752
vn -0.1284 0.9914 -0.0255
vn -0.9579 0.2148 -0.1905
vn -0.4735 0.8757 -0.0942
vn -0.8184 0.5512 -0.1628
vn -0.1311 -0.9906 -0.0398
vn -0.9560 -0.0437 -0.2900
vn -0.5046 -0.8497 -0.1531
vn -0.8594 -0.4399 -0.2607
vn -0.1252 0.9914 -0.0380
vn -0.9346 0.2148 -0.2835
vn -0.4620 0.8757 -0.1402
vn -0.7985 0.5512 -0.2422
vn -0.1266 -0.9906 -0.0524
vn -0.9230 -0.0437 -0.3823
vn -0.4872 -0.8497 -0.2018
vn -0.8297 -0.4399 -0.3437
vn -0.1209 0.9914 -0.0501
vn -0.9023 0.2148 -0.3737
vn -0.4461 0.8757 -0.1848
vn -0.7709 0.5512 -0.3193
vn -0.1208 -0.9906 -0.0646
vn -0.8811 -0.0437 -0.4709
vn -0.4651 -0.8497 -0.2486
vn -0.7920 -0.4399 -0.4233
vn -0.1154 0.9914 -0.0617
vn -0.8613 0.2148 -0.4604
vn -0.4258 0.8757 -0.2276
vn -0.7359 0.5512 -0.3933
vn -0.1139 -0.9906 -0.0761
vn -0.8307 -0.0437 -0.5550
vn -0.4385 -0.8497 -0.2930
vn -0.7467 -0.4399 -0.4989
vn -0.1088 0.9914 -0.0727
vn -0.8121 0.2148 -0.5426
vn -0.4015 0.8757 -0.2682
vn -0.6938 0.5512 -0.4636
vn -0.1059 -0.9906 -0.0869
vn -0.7723 -0.0437 -0.6338
vn -0.4076 -0.8497 -0.3345
vn -0.6942 -0.4399 -0.5697
vn -0.1012 0.9914 -0.0830
vn -0.7550 0.2148 -0.6196
vn -0.3732 0.8757 -0.3063
vn -0.6450 0.5512 -0.5293
vn -0.0969 -0.9906 -0.0969
vn -0.7064 -0.0437 -0.7064
vn -0.3729 -0.8497 -0.3729
vn -0.6350 -0.4399 -0.6350
vn -0.0926 0.9914 -0.0926
vn -0.6906 0.2148 -0.6906
vn -0.3414 0.8757 -0.3414
vn -0.5900 0.5512 -0.5900
vn -0.0869 -0.9906 -0.1059
vn -0.6338 -0.0437 -0.7723
vn -0.3345 -0.8497 -0.4076
vn -0.5697 -0.4399 -0.6942
vn -0.0830 0.9914 -0.1012
vn -0.6196 0.2148 -0.7550
vn -0.3063 0.8757 -0.3732
vn -0.5293 0.5512 -0.6450
vn -0.0761 -0.9906 -0.1139
vn -0.5550 -0.0437 -0.8307
vn -0.2930 -0.8497 -0.4385
vn -0.4989 -0.4399 -0.7467
vn -0.0727 0.9914 -0.1088
vn -0.5426 0.2148 -0.8121
vn -0.2682 0.8757 -0.4014
vn -0.4636 0.5512 -0.6938
vn -0.0646 -0.9906 -0.1208
vn -0.4709 -0.0437 -0.8811
vn -0.2486 -0.8497 -0.4651
vn -0.4233 -0.4399 -0.7920
vn -0.0617 0.9914 -0.1154
vn -0.4604 0.2148 -0.8613
vn -0.2276 0.8757 -0.4258
vn -0.3933 0.5512 -0.7359
vn -0.0524 -0.9906 -0.1266
vn -0.3823 -0.0437 -0.9230
vn -0.2018 -0.8497 -0.4872
vn -0.3437 -0.4399 -0.8297
vn -0.0501 0.9914 -0.1209
vn -0.3737 0.2148 -0.9023
vn -0.1848 0.8757 -0.4461
vn -0.3193 0.5512 -0.7709
vn -0.0398 -0.9906 -0.1311
vn -0.2900 -0.0437 -0.9560
vn -0.1531 -0.8497 -0.5046
vn -0.2607 -0.4399 -0.8594
vn -0.0380 0.9914 -0.1252
vn -0.2835 0.2148 -0.9346
vn -0.1402 0.8757 -0.4620
vn -0.2422 0.5512 -0.7985
vn -0.0267 -0.9906 -0.1343
vn -0.1949 -0.0437 -0.9799
vn -0.1029 -0.8497 -0.5172
vn -0.1752 -0.4399 -0.8808
vn -0.0255 0.9914 -0.1284
vn -0.1905 0.2148 -0.9579
vn -0.0942 0.8757 -0.4736
vn -0.1628 0.5512 -0.8184
vn -0.0134 -0.9906 -0.1363
vn -0.0979 -0.0437 -0.9942
vn -0.0517 -0.8497 -0.5248
vn -0.0880 -0.4399 -0.8937
vn -0.0128 0.9914 -0.1303
vn -0.0957 0.2148 -0.9719
vn -0.0473 0.8757 -0.4805
vn -0.0818 0.5512 -0.8304
vt 0.984375 0.512450
vt 0.999860 0.500000
vt 1.000000 0.512450
vt 0.773523 0.488834
vt 0.750000 0.477697
vt 0.750000 0.489990
vt 0.772318 0.476601
vt 0.750000 0.465971
vt 1.000000 0.987550
vt 0.984375 1.000000
vt 0.984375 0.987550
vt 0.250000 0.489992
vt 0.271728 0.470610
vt 0.273523 0.488836
vt 0.250000 0.471677
vt 0.269844 0.451480
vt 0.968750 0.512450
vt 0.984375 0.500000
vt 0.794421 0.473322
vt 0.771169 0.464931
vt 0.968750 1.000000
vt 0.968750 0.987550
vt 0.293247 0.467418
vt 0.296820 0.485381
vt 0.289497 0.448565
vt 0.953125 0.500000
vt 0.968750 0.500000
vt 0.819665 0.479656
vt 0.796820 0.485378
vt 0.812693 0.456671
vt 0.792134 0.461821
vt 0.953125 0.987550
vt 0.953125 1.000000
vt 0.319666 0.479658
vt 0.314350 0.462132
vt 0.308770 0.443737
vt 0.937500 0.512450
vt 0.953125 0.512450
vt 0.841840 0.471722
vt 0.816097 0.467893
vt 0.837136 0.460365
vt 0.937500 0.987550
vt 0.937500 1.000000
vt 0.341841 0.471724
vt 0.334832 0.454804
vt 0.327476 0.437044
vt 0.921875 0.512450
vt 0.937500 0.500000
vt 0.863130 0.461652
vt 0.857336 0.450811
vt 0.832649 0.449531
vt 0.921875 1.000000
vt 0.921875 0.987550
vt 0.354498 0.445502
vt 0.363131 0.461654
vt 0.345437 0.428549
vt 0.906250 0.500000
vt 0.921875 0.500000
vt 0.876502 0.439324
vt 0.869987 0.429573
vt 0.851808 0.440469
vt 0.906250 1.000000
vt 0.906250 0.987550
vt 0.373158 0.434318
vt 0.383332 0.449546
vt 0.362478 0.418335
vt 0.890625 0.512450
vt 0.906250 0.512450
vt 0.902248 0.435515
vt 0.883331 0.449544
vt 0.887011 0.416948
vt 0.890625 1.000000
vt 0.890625 0.987550
vt 0.390631 0.421359
vt 0.402249 0.435516
vt 0.378436 0.406500
vt 0.875000 0.512450
vt 0.890625 0.500000
vt 0.919698 0.419698
vt 0.894450 0.426012
vt 0.911007 0.411006
vt 0.875000 1.000000
vt 0.875000 0.987550
vt 0.406750 0.406750
vt 0.419700 0.419700
vt 0.393157 0.393157
vt 0.859375 0.500000
vt 0.875000 0.500000
vt 0.926012 0.394450
vt 0.916948 0.387011
vt 0.902715 0.402715
vt 0.859375 0.987550
vt 0.859375 1.000000
vt 0.435516 0.402249
vt 0.421359 0.390631
vt 0.406500 0.378436
vt 0.843750 0.512450
vt 0.859375 0.512450
vt 0.949544 0.383331
vt 0.935514 0.402248
vt 0.939323 0.376502
vt 0.843750 0.987550
vt 0.843750 1.000000
vt 0.449546 0.383332
vt 0.434318 0.373158
vt 0.418335 0.362478
vt 0.828125 0.512450
vt 0.843750 0.500000
vt 0.961652 0.363130
vt 0.950811 0.357336
vt 0.929574 0.369987
vt 0.828125 1.000000
vt 0.828125 0.987550
vt 0.445502 0.354498
vt 0.461654 0.363131
vt 0.428549 0.345437
vt 0.812500 0.500000
vt 0.828125 0.500000
vt 0.960365 0.337136
vt 0.949531 0.332649
vt 0.940470 0.351808
vt 0.812500 0.987550
vt 0.812500 1.000000
vt 0.471724 0.341841
vt 0.454804 0.334832
vt 0.437044 0.327476
vt 0.812500 0.512450
vt 0.796875 0.500000
vt 0.971722 0.341840
vt 0.967893 0.316097
vt 0.956672 0.312693
vt 0.796875 1.000000
vt 0.796875 0.987550
vt 0.462132 0.314350
vt 0.479658 0.319666
vt 0.443737 0.308770
vt 0.781250 0.512450
vt 0.796875 0.512450
vt 0.985378 0.296820
vt 0.979656 0.319665
vt 0.973322 0.294421
vt 0.781250 1.000000
vt 0.781250 0.987550
vt 0.467418 0.293247
vt 0.485381 0.296820
vt 0.448565 0.289497
vt 0.765625 0.512450
vt 0.781250 0.500000
vt 0.988834 0.273523
vt 0.964931 0.271169
vt 0.961821 0.292134
vt 0.765625 0.987550
vt 0.765625 1.000000
vt 0.488836 0.273523
vt 0.470610 0.271728
vt 0.451480 0.269844
vt 0.750000 0.512450
vt 0.765625 0.500000
vt 0.989990 0.250000
vt 0.976601 0.272318
vt 0.977697 0.250000
vt 0.750000 0.987550
vt 0.750000 1.000000
vt 0.489992 0.250000
vt 0.471678 0.250000
vt 0.452455 0.250000
vt 0.734375 0.512450
vt 0.750000 0.500000
vt 0.988834 0.226477
vt 0.976601 0.227682
vt 0.965971 0.250000
vt 0.734375 1.000000
vt 0.734375 0.987550
vt 0.470610 0.228272
vt 0.488836 0.226477
vt 0.451480 0.230156
vt 0.718750 0.512450
vt 0.734375 0.500000
vt 0.973322 0.205578
vt 0.964931 0.228831
vt 0.718750 1.000000
vt 0.718750 0.987550
vt 0.467418 0.206753
vt 0.485381 0.203180
vt 0.448565 0.210503
vt 0.703125 0.500000
vt 0.718750 0.500000
vt 0.979656 0.180335
vt 0.985378 0.203180
vt 0.956672 0.187307
vt 0.961821 0.207866
vt 0.703125 0.987550
vt 0.703125 1.000000
vt 0.479658 0.180334
vt 0.462132 0.185650
vt 0.443737 0.191230
vt 0.687500 0.512450
vt 0.703125 0.512450
vt 0.971722 0.158160
vt 0.967893 0.183903
vt 0.960365 0.162864
vt 0.687500 0.987550
vt 0.687500 1.000000
vt 0.471724 0.158159
vt 0.454803 0.165168
vt 0.437044 0.172524
vt 0.671875 0.512450
vt 0.687500 0.500000
vt 0.961652 0.136870
vt 0.950811 0.142664
vt 0.949531 0.167351
vt 0.671875 1.000000
vt 0.671875 0.987550
vt 0.445502 0.145502
vt 0.461654 0.136869
vt 0.428549 0.154563
vt 0.656250 0.500000
vt 0.671875 0.500000
vt 0.939324 0.123498
vt 0.929574 0.130013
vt 0.940470 0.148192
vt 0.656250 1.000000
vt 0.656250 0.987550
vt 0.434318 0.126842
vt 0.449546 0.116668
vt 0.418335 0.137522
vt 0.640625 0.512450
vt 0.656250 0.512450
vt 0.935514 0.097752
vt 0.949544 0.116669
vt 0.916948 0.112989
vt 0.640625 1.000000
vt 0.640625 0.987550
vt 0.421359 0.109369
vt 0.435516 0.097751
vt 0.406500 0.121564
vt 0.625000 0.512450
vt 0.640625 0.500000
vt 0.919698 0.080302
vt 0.926012 0.105550
vt 0.911007 0.088994
vt 0.625000 1.000000
vt 0.625000 0.987550
vt 0.406750 0.093250
vt 0.419700 0.080300
vt 0.393157 0.106843
vt 0.609375 0.500000
vt 0.625000 0.500000
vt 0.894450 0.073988
vt 0.887011 0.083052
vt 0.902715 0.097285
vt 0.609375 0.987550
vt 0.609375 1.000000
vt 0.402249 0.064484
vt 0.390631 0.078641
vt 0.378436 0.093500
vt 0.593750 0.512450
vt 0.609375 0.512450
vt 0.883331 0.050456
vt 0.902248 0.064485
vt 0.876502 0.060677
vt 0.593750 0.987550
vt 0.593750 1.000000
vt 0.383332 0.050454
vt 0.373157 0.065682
vt 0.362478 0.081665
vt 0.578125 0.512450
vt 0.593750 0.500000
vt 0.863130 0.038348
vt 0.857336 0.049189
vt 0.869987 0.070427
vt 0.578125 1.000000
vt 0.578125 0.987550
vt 0.354498 0.054498
vt 0.363131 0.038346
vt 0.345437 0.071451
vt 0.562500 0.500000
vt 0.578125 0.500000
vt 0.837136 0.039635
vt 0.832649 0.050469
vt 0.851808 0.059531
vt 0.562500 0.987550
vt 0.562500 1.000000
vt 0.341841 0.028276
vt 0.334832 0.045196
vt 0.327476 0.062956
vt 0.562500 0.512450
vt 0.546875 0.500000
vt 0.841840 0.028278
vt 0.816097 0.032107
vt 0.812693 0.043329
vt 0.546875 1.000000
vt 0.546875 0.987550
vt 0.314350 0.037868
vt 0.319666 0.020342
vt 0.308770 0.056263
vt 0.531250 0.512450
vt 0.546875 0.512450
vt 0.796820 0.014622
vt 0.819665 0.020344
vt 0.794422 0.026678
vt 0.531250 1.000000
vt 0.531250 0.987550
vt 0.293247 0.032582
vt 0.296820 0.014619
vt 0.289497 0.051435
vt 0.515625 0.512450
vt 0.531250 0.500000
vt 0.773523 0.011166
vt 0.771169 0.035069
vt 0.792134 0.038179
vt 0.515625 0.987550
vt 0.515625 1.000000
vt 0.273523 0.011164
vt 0.271728 0.029390
vt 0.269844 0.048520
vt 0.500000 0.512450
vt 0.515625 0.500000
vt 0.750000 0.010010
vt 0.772318 0.023399
vt 0.750000 0.022303
vt 0.500000 0.987550
vt 0.500000 1.000000
vt 0.250000 0.010008
vt 0.250000 0.028322
vt 0.250000 0.047545
vt 0.484375 0.512450
vt 0.500000 0.500000
vt 0.726477 0.011166
vt 0.727682 0.023399
vt 0.750000 0.034029
vt 0.484375 1.000000
vt 0.484375 0.987550
vt 0.228272 0.029390
vt 0.226477 0.011164
vt 0.230156 0.048520
vt 0.468750 0.512450
vt 0.484375 0.500000
vt 0.705579 0.026678
vt 0.728831 0.035069
vt 0.468750 1.000000
vt 0.468750 0.987550
vt 0.206753 0.032582
vt 0.203180 0.014619
vt 0.210503 0.051435
vt 0.453125 0.500000
vt 0.468750 0.500000
vt 0.680335 0.020344
vt 0.703180 0.014622
vt 0.687307 0.043329
vt 0.707866 0.038179
vt 0.453125 0.987550
vt 0.453125 1.000000
vt 0.180334 0.020342
vt 0.185650 0.037868
vt 0.191230 0.056263
vt 0.437500 0.512450
vt 0.453125 0.512450
vt 0.658160 0.028278
vt 0.683903 0.032107
vt 0.662864 0.039635
vt 0.437500 0.987550
vt 0.437500 1.000000
vt 0.158159 0.028276
vt 0.165168 0.045196
vt 0.172524 0.062956
vt 0.421875 0.512450
vt 0.437500 0.500000
vt 0.636870 0.038348
vt 0.642664 0.049189
vt 0.667351 0.050469
vt 0.421875 1.000000
vt 0.421875 0.987550
vt 0.145502 0.054498
vt 0.136869 0.038346
vt 0.154563 0.071451
vt 0.406250 0.500000
vt 0.421875 0.500000
vt 0.623498 0.060677
vt 0.630013 0.070427
vt 0.648192 0.059531
vt 0.406250 1.000000
vt 0.406250 0.987550
vt 0.126842 0.065682
vt 0.116668 0.050454
vt 0.137522 0.081665
vt 0.390625 0.512450
vt 0.406250 0.512450
vt 0.597752 0.064486
vt 0.616669 0.050456
vt 0.612989 0.083052
vt 0.390625 1.000000
vt 0.390625 0.987550
vt 0.109369 0.078641
vt 0.097751 0.064484
vt 0.121564 0.093500
vt 0.375000 0.512450
vt 0.390625 0.500000
vt 0.580302 0.080302
vt 0.605550 0.073988
vt 0.588994 0.088994
vt 0.375000 1.000000
vt 0.375000 0.987550
vt 0.093250 0.093250
vt 0.080300 0.080300
vt 0.106843 0.106843
vt 0.359375 0.500000
vt 0.375000 0.500000
vt 0.573988 0.105550
vt 0.583052 0.112989
vt 0.597285 0.097285
vt 0.359375 0.987550
vt 0.359375 1.000000
vt 0.064484 0.097751
vt 0.078641 0.109369
vt 0.093500 0.121564
vt 0.343750 0.512450
vt 0.359375 0.512450
vt 0.550456 0.116669
vt 0.564486 0.097752
vt 0.560677 0.123498
vt 0.343750 0.987550
vt 0.343750 1.000000
vt 0.050454 0.116668
vt 0.065682 0.126842
vt 0.081665 0.137522
vt 0.328125 0.512450
vt 0.343750 0.500000
vt 0.538348 0.136870
vt 0.549189 0.142664
vt 0.570427 0.130013
vt 0.328125 1.000000
vt 0.328125 0.987550
vt 0.054498 0.145502
vt 0.038346 0.136869
vt 0.071451 0.154563
vt 0.312500 0.500000
vt 0.328125 0.500000
vt 0.539635 0.162864
vt 0.550469 0.167351
vt 0.559530 0.148192
vt 0.312500 0.987550
vt 0.312500 1.000000
vt 0.028276 0.158159
vt 0.045196 0.165168
vt 0.062956 0.172524
vt 0.312500 0.512450
vt 0.296875 0.500000
vt 0.528278 0.158160
vt 0.532107 0.183903
vt 0.543329 0.187307
vt 0.296875 1.000000
vt 0.296875 0.987550
vt 0.037868 0.185650
vt 0.020342 0.180334
vt 0.056263 0.191230
vt 0.281250 0.512450
vt 0.296875 0.512450
vt 0.514622 0.203180
vt 0.520344 0.180335
vt 0.526678 0.205578
vt 0.281250 1.000000
vt 0.281250 0.987550
vt 0.032582 0.206753
vt 0.014619 0.203180
vt 0.051435 0.210503
vt 0.265625 0.512450
vt 0.281250 0.500000
vt 0.511166 0.226477
vt 0.535069 0.228831
vt 0.538179 0.207866
vt 0.265625 0.987550
vt 0.265625 1.000000
vt 0.011164 0.226477
vt 0.029390 0.228272
vt 0.048520 0.230156
vt 0.250000 0.512450
vt 0.265625 0.500000
vt 0.510010 0.250000
vt 0.523399 0.227682
vt 0.522303 0.250000
vt 0.250000 0.987550
vt 0.250000 1.000000
vt 0.010008 0.250000
vt 0.028322 0.250000
vt 0.047545 0.250000
vt 0.234375 0.512450
vt 0.250000 0.500000
vt 0.511166 0.273523
vt 0.523399 0.272318
vt 0.534029 0.250000
vt 0.234375 1.000000
vt 0.234375 0.987550
vt 0.029390 0.271728
vt 0.011164 0.273523
vt 0.048520 0.269844
vt 0.218750 0.512450
vt 0.234375 0.500000
vt 0.526678 0.294422
vt 0.535069 0.271169
vt 0.218750 1.000000
vt 0.218750 0.987550
vt 0.032582 0.293247
vt 0.014619 0.296820
vt 0.051435 0.289497
vt 0.203125 0.500000
vt 0.218750 0.500000
vt 0.520344 0.319665
vt 0.514622 0.296820
vt 0.543329 0.312693
vt 0.538179 0.292134
vt 0.203125 0.987550
vt 0.203125 1.000000
vt 0.020342 0.319666
vt 0.037868 0.314349
vt 0.056263 0.308770
vt 0.187500 0.512450
vt 0.203125 0.512450
vt 0.528278 0.341840
vt 0.532107 0.316097
vt 0.539635 0.337136
vt 0.187500 0.987550
vt 0.187500 1.000000
vt 0.028276 0.341841
vt 0.045196 0.334832
vt 0.062956 0.327476
vt 0.171875 0.512450
vt 0.187500 0.500000
vt 0.538348 0.363130
vt 0.549189 0.357336
vt 0.550469 0.332649
vt 0.171875 1.000000
vt 0.171875 0.987550
vt 0.054498 0.354498
vt 0.038346 0.363131
vt 0.071451 0.345437
vt 0.156250 0.500000
vt 0.171875 0.500000
vt 0.560677 0.376502
vt 0.570427 0.369987
vt 0.559531 0.351808
vt 0.156250 1.000000
vt 0.156250 0.987550
vt 0.065682 0.373157
vt 0.050454 0.383332
vt 0.081665 0.362478
vt 0.140625 0.512450
vt 0.156250 0.512450
vt 0.564485 0.402248
vt 0.550456 0.383331
vt 0.583052 0.387011
vt 0.140625 1.000000
vt 0.140625 0.987550
vt 0.078641 0.390631
vt 0.064484 0.402249
vt 0.093500 0.378436
vt 0.125000 0.512450
vt 0.140625 0.500000
vt 0.580302 0.419698
vt 0.573988 0.394450
vt 0.588994 0.411006
vt 0.125000 1.000000
vt 0.125000 0.987550
vt 0.093250 0.406749
vt 0.080300 0.419700
vt 0.106843 0.393157
vt 0.109375 0.500000
vt 0.125000 0.500000
vt 0.605550 0.426012
vt 0.612989 0.416948
vt 0.597286 0.402715
vt 0.109375 0.987550
vt 0.109375 1.000000
vt 0.097751 0.435516
vt 0.109369 0.421359
vt 0.121564 0.406500
vt 0.093750 0.512450
vt 0.109375 0.512450
vt 0.616669 0.449544
vt 0.597752 0.435515
vt 0.623498 0.439323
vt 0.093750 0.987550
vt 0.093750 1.000000
vt 0.116668 0.449546
vt 0.126842 0.434318
vt 0.137522 0.418335
vt 0.078125 0.512450
vt 0.093750 0.500000
vt 0.636870 0.461652
vt 0.642664 0.450811
vt 0.630013 0.429573
vt 0.078125 1.000000
vt 0.078125 0.987550
vt 0.145502 0.445502
vt 0.136869 0.461654
vt 0.154563 0.428549
vt 0.062500 0.500000
vt 0.078125 0.500000
vt 0.662864 0.460365
vt 0.667351 0.449531
vt 0.648192 0.440469
vt 0.062500 0.987550
vt 0.062500 1.000000
vt 0.158159 0.471724
vt 0.165167 0.454803
vt 0.172524 0.437044
vt 0.062500 0.512450
vt 0.046875 0.500000
vt 0.658160 0.471722
vt 0.683903 0.467893
vt 0.687307 0.456671
vt 0.046875 1.000000
vt 0.046875 0.987550
vt 0.185650 0.462132
vt 0.180334 0.479658
vt 0.191231 0.443737
vt 0.031250 0.512450
vt 0.046875 0.512450
vt 0.703180 0.485378
vt 0.680335 0.479656
vt 0.705578 0.473322
vt 0.031250 1.000000
vt 0.031250 0.987550
vt 0.206753 0.467418
vt 0.203180 0.485381
vt 0.210503 0.448565
vt 0.015625 0.512450
vt 0.031250 0.500000
vt 0.726477 0.488834
vt 0.728831 0.464931
vt 0.707866 0.461821
vt 0.015625 0.987550
vt 0.015625 1.000000
vt 0.226477 0.488836
vt 0.228272 0.470610
vt 0.230156 0.451480
vt 0.000000 0.512450
vt 0.015625 0.500000
vt 0.727682 0.476601
vt 0.000000 0.987550
vt 0.000109 1.000000
vt 0.250000 0.452455
vt 0.999891 1.000000
vt 0.000140 0.500000
s 1
usemtl HoleWell_Body
f 10/1/10 4/2/4 2/3/2
f 12/4/12 3/5/3 4/6/4
f 11/7/11 1/8/1 3/5/3
f 6/9/6 16/10/16 14/11/14
f 8/12/8 15/13/15 16/14/16
f 7/15/7 13/16/13 15/13/15
f 18/17/18 12/18/12 10/1/10
f 12/4/12 19/19/19 11/7/11
f 19/19/19 9/20/9 11/7/11
f 14/11/14 24/21/24 22/22/22
f 16/14/16 23/23/23 24/24/24
f 15/13/15 21/25/21 23/23/23
f 18/17/18 28/26/28 20/27/20
f 28/28/28 19/19/19 20/29/20
f 19/19/19 25/30/25 17/31/17
f 30/32/30 24/21/24 32/33/32
f 32/34/32 23/23/23 31/35/31
f 31/35/31 21/25/21 29/36/29
f 34/37/34 28/26/28 26/38/26
f 36/39/36 27/40/27 28/28/28
f 35/41/35 25/30/25 27/40/27
f 38/42/38 32/33/32 40/43/40
f 40/44/40 31/35/31 39/45/39
f 31/35/31 37/46/37 39/45/39
f 42/47/42 36/48/36 34/37/34
f 44/49/44 35/41/35 36/39/36
f 43/50/43 33/51/33 35/41/35
f 38/42/38 48/52/48 46/53/46
f 40/44/40 47/54/47 48/55/48
f 39/45/39 45/56/45 47/54/47
f 42/47/42 52/57/52 44/58/44
f 44/49/44 51/59/51 43/50/43
f 43/50/43 49/60/49 41/61/41
f 46/53/46 56/62/56 54/63/54
f 48/55/48 55/64/55 56/65/56
f 47/54/47 53/66/53 55/64/55
f 58/67/58 52/57/52 50/68/50
f 60/69/60 51/59/51 52/70/52
f 51/59/51 57/71/57 49/60/49
f 54/63/54 64/72/64 62/73/62
f 56/65/56 63/74/63 64/75/64
f 55/64/55 61/76/61 63/74/63
f 66/77/66 60/78/60 58/67/58
f 68/79/68 59/80/59 60/69/60
f 67/81/67 57/71/57 59/80/59
f 62/73/62 72/82/72 70/83/70
f 64/75/64 71/84/71 72/85/72
f 63/74/63 69/86/69 71/84/71
f 66/77/66 76/87/76 68/88/68
f 68/79/68 75/89/75 67/81/67
f 67/81/67 73/90/73 65/91/65
f 78/92/78 72/82/72 80/93/80
f 80/94/80 71/84/71 79/95/79
f 79/95/79 69/86/69 77/96/77
f 82/97/82 76/87/76 74/98/74
f 84/99/84 75/89/75 76/100/76
f 83/101/83 73/90/73 75/89/75
f 86/102/86 80/93/80 88/103/88
f 88/104/88 79/95/79 87/105/87
f 87/105/87 77/96/77 85/106/85
f 90/107/90 84/108/84 82/97/82
f 92/109/92 83/101/83 84/99/84
f 91/110/91 81/111/81 83/101/83
f 86/102/86 96/112/96 94/113/94
f 88/104/88 95/114/95 96/115/96
f 95/114/95 85/106/85 93/116/93
f 90/107/90 100/117/100 92/118/92
f 92/109/92 99/119/99 91/110/91
f 91/110/91 97/120/97 89/121/89
f 102/122/102 96/112/96 104/123/104
f 104/124/104 95/114/95 103/125/103
f 103/125/103 93/116/93 101/126/101
f 98/127/98 108/128/108 100/117/100
f 100/129/100 107/130/107 99/119/99
f 99/119/99 105/131/105 97/120/97
f 102/122/102 112/132/112 110/133/110
f 104/124/104 111/134/111 112/135/112
f 111/134/111 101/126/101 109/136/109
f 114/137/114 108/128/108 106/138/106
f 116/139/116 107/130/107 108/140/108
f 115/141/115 105/131/105 107/130/107
f 110/133/110 120/142/120 118/143/118
f 112/135/112 119/144/119 120/145/120
f 111/134/111 117/146/117 119/144/119
f 122/147/122 116/148/116 114/137/114
f 124/149/124 115/141/115 116/139/116
f 115/141/115 121/150/121 113/151/113
f 126/152/126 120/142/120 128/153/128
f 128/154/128 119/144/119 127/155/127
f 127/155/127 117/146/117 125/156/125
f 130/157/130 124/158/124 122/147/122
f 132/159/132 123/160/123 124/149/124
f 131/161/131 121/150/121 123/160/123
f 134/162/134 128/153/128 136/163/136
f 136/164/136 127/155/127 135/165/135
f 135/165/135 125/156/125 133/166/133
f 138/167/138 132/168/132 130/157/130
f 140/169/140 131/161/131 132/159/132
f 139/170/139 129/171/129 131/161/131
f 134/162/134 144/172/144 142/173/142
f 136/164/136 143/174/143 144/175/144
f 135/165/135 141/176/141 143/174/143
f 146/177/146 140/178/140 138/167/138
f 140/169/140 147/179/147 139/170/139
f 147/179/147 137/180/137 139/170/139
f 142/173/142 152/181/152 150/182/150
f 144/175/144 151/183/151 152/184/152
f 143/174/143 149/185/149 151/183/151
f 146/177/146 156/186/156 148/187/148
f 156/188/156 147/179/147 148/189/148
f 147/179/147 153/190/153 145/191/145
f 158/192/158 152/181/152 160/193/160
f 160/194/160 151/183/151 159/195/159
f 159/195/159 149/185/149 157/196/157
f 162/197/162 156/186/156 154/198/154
f 164/199/164 155/200/155 156/188/156
f 163/201/163 153/190/153 155/200/155
f 166/202/166 160/193/160 168/203/168
f 168/204/168 159/195/159 167/205/167
f 159/195/159 165/206/165 167/205/167
f 170/207/170 164/208/164 162/197/162
f 172/209/172 163/201/163 164/199/164
f 171/210/171 161/211/161 163/201/163
f 166/202/166 176/212/176 174/213/174
f 168/204/168 175/214/175 176/215/176
f 167/205/167 173/216/173 175/214/175
f 170/207/170 180/217/180 172/218/172
f 172/209/172 179/219/179 171/210/171
f 171/210/171 177/220/177 169/221/169
f 174/213/174 184/222/184 182/223/182
f 176/215/176 183/224/183 184/225/184
f 175/214/175 181/226/181 183/224/183
f 186/227/186 180/217/180 178/228/178
f 188/229/188 179/219/179 180/230/180
f 179/219/179 185/231/185 177/220/177
f 182/223/182 192/232/192 190/233/190
f 184/225/184 191/234/191 192/235/192
f 183/224/183 189/236/189 191/234/191
f 194/237/194 188/238/188 186/227/186
f 196/239/196 187/240/187 188/229/188
f 195/241/195 185/231/185 187/240/187
f 190/233/190 200/242/200 198/243/198
f 192/235/192 199/244/199 200/245/200
f 191/234/191 197/246/197 199/244/199
f 194/237/194 204/247/204 196/248/196
f 196/239/196 203/249/203 195/241/195
f 195/241/195 201/250/201 193/251/193
f 206/252/206 200/242/200 208/253/208
f 208/254/208 199/244/199 207/255/207
f 207/255/207 197/246/197 205/256/205
f 210/257/210 204/247/204 202/258/202
f 212/259/212 203/249/203 204/260/204
f 211/261/211 201/250/201 203/249/203
f 214/262/214 208/253/208 216/263/216
f 216/264/216 207/255/207 215/265/215
f 215/265/215 205/256/205 213/266/213
f 218/267/218 212/268/212 210/257/210
f 220/269/220 211/261/211 212/259/212
f 219/270/219 209/271/209 211/261/211
f 214/262/214 224/272/224 222/273/222
f 216/264/216 223/274/223 224/275/224
f 223/274/223 213/266/213 221/276/221
f 218/267/218 228/277/228 220/278/220
f 220/269/220 227/279/227 219/270/219
f 219/270/219 225/280/225 217/281/217
f 230/282/230 224/272/224 232/283/232
f 232/284/232 223/274/223 231/285/231
f 231/285/231 221/276/221 229/286/229
f 226/287/226 236/288/236 228/277/228
f 228/289/228 235/290/235 227/279/227
f 227/279/227 233/291/233 225/280/225
f 230/282/230 240/292/240 238/293/238
f 232/284/232 239/294/239 240/295/240
f 239/294/239 229/286/229 237/296/237
f 242/297/242 236/288/236 234/298/234
f 244/299/244 235/290/235 236/300/236
f 243/301/243 233/291/233 235/290/235
f 238/293/238 248/302/248 246/303/246
f 240/295/240 247/304/247 248/305/248
f 239/294/239 245/306/245 247/304/247
f 250/307/250 244/308/244 242/297/242
f 252/309/252 243/301/243 244/299/244
f 243/301/243 249/310/249 241/311/241
f 254/312/254 248/302/248 256/313/256
f 256/314/256 247/304/247 255/315/255
f 255/315/255 245/306/245 253/316/253
f 258/317/258 252/318/252 250/307/250
f 260/319/260 251/320/251 252/309/252
f 259/321/259 249/310/249 251/320/251
f 262/322/262 256/313/256 264/323/264
f 264/324/264 255/315/255 263/325/263
f 263/325/263 253/316/253 261/326/261
f 266/327/266 260/328/260 258/317/258
f 268/329/268 259/321/259 260/319/260
f 267/330/267 257/331/257 259/321/259
f 262/322/262 272/332/272 270/333/270
f 264/324/264 271/334/271 272/335/272
f 263/325/263 269/336/269 271/334/271
f 274/337/274 268/338/268 266/327/266
f 268/329/268 275/339/275 267/330/267
f 275/339/275 265/340/265 267/330/267
f 270/333/270 280/341/280 278/342/278
f 272/335/272 279/343/279 280/344/280
f 271/334/271 277/345/277 279/343/279
f 274/337/274 284/346/284 276/347/276
f 284/348/284 275/339/275 276/349/276
f 275/339/275 281/350/281 273/351/273
f 286/352/286 280/341/280 288/353/288
f 288/354/288 279/343/279 287/355/287
f 287/355/287 277/345/277 285/356/285
f 290/357/290 284/346/284 282/358/282
f 292/359/292 283/360/283 284/348/284
f 291/361/291 281/350/281 283/360/283
f 294/362/294 288/353/288 296/363/296
f 296/364/296 287/355/287 295/365/295
f 287/355/287 293/366/293 295/365/295
f 298/367/298 292/368/292 290/357/290
f 300/369/300 291/361/291 292/359/292
f 299/370/299 289/371/289 291/361/291
f 294/362/294 304/372/304 302/373/302
f 296/364/296 303/374/303 304/375/304
f 295/365/295 301/376/301 303/374/303
f 298/367/298 308/377/308 300/378/300
f 300/369/300 307/379/307 299/370/299
f 299/370/299 305/380/305 297/381/297
f 302/373/302 312/382/312 310/383/310
f 304/375/304 311/384/311 312/385/312
f 303/374/303 309/386/309 311/384/311
f 314/387/314 308/377/308 306/388/306
f 316/389/316 307/379/307 308/390/308
f 307/379/307 313/391/313 305/380/305
f 310/383/310 320/392/320 318/393/318
f 312/385/312 319/394/319 320/395/320
f 311/384/311 317/396/317 319/394/319
f 322/397/322 316/398/316 314/387/314
f 324/399/324 315/400/315 316/389/316
f 323/401/323 313/391/313 315/400/315
f 318/393/318 328/402/328 326/403/326
f 320/395/320 327/404/327 328/405/328
f 319/394/319 325/406/325 327/404/327
f 322/397/322 332/407/332 324/408/324
f 324/399/324 331/409/331 323/401/323
f 323/401/323 329/410/329 321/411/321
f 334/412/334 328/402/328 336/413/336
f 336/414/336 327/404/327 335/415/335
f 335/415/335 325/406/325 333/416/333
f 338/417/338 332/407/332 330/418/330
f 340/419/340 331/409/331 332/420/332
f 339/421/339 329/410/329 331/409/331
f 342/422/342 336/413/336 344/423/344
f 344/424/344 335/415/335 343/425/343
f 343/425/343 333/416/333 341/426/341
f 346/427/346 340/428/340 338/417/338
f 348/429/348 339/421/339 340/419/340
f 347/430/347 337/431/337 339/421/339
f 342/422/342 352/432/352 350/433/350
f 344/424/344 351/434/351 352/435/352
f 351/434/351 341/426/341 349/436/349
f 346/427/346 356/437/356 348/438/348
f 348/429/348 355/439/355 347/430/347
f 347/430/347 353/440/353 345/441/345
f 358/442/358 352/432/352 360/443/360
f 360/444/360 351/434/351 359/445/359
f 359/445/359 349/436/349 357/446/357
f 354/447/354 364/448/364 356/437/356
f 356/449/356 363/450/363 355/439/355
f 355/439/355 361/451/361 353/440/353
f 358/442/358 368/452/368 366/453/366
f 360/444/360 367/454/367 368/455/368
f 367/454/367 357/446/357 365/456/365
f 370/457/370 364/448/364 362/458/362
f 372/459/372 363/450/363 364/460/364
f 371/461/371 361/451/361 363/450/363
f 366/453/366 376/462/376 374/463/374
f 368/455/368 375/464/375 376/465/376
f 367/454/367 373/466/373 375/464/375
f 378/467/378 372/468/372 370/457/370
f 380/469/380 371/461/371 372/459/372
f 371/461/371 377/470/377 369/471/369
f 382/472/382 376/462/376 384/473/384
f 384/474/384 375/464/375 383/475/383
f 383/475/383 373/466/373 381/476/381
f 386/477/386 380/478/380 378/467/378
f 388/479/388 379/480/379 380/469/380
f 387/481/387 377/470/377 379/480/379
f 390/482/390 384/473/384 392/483/392
f 392/484/392 383/475/383 391/485/391
f 391/485/391 381/476/381 389/486/389
f 394/487/394 388/488/388 386/477/386
f 396/489/396 387/481/387 388/479/388
f 395/490/395 385/491/385 387/481/387
f 390/482/390 400/492/400 398/493/398
f 392/484/392 399/494/399 400/495/400
f 391/485/391 397/496/397 399/494/399
f 402/497/402 396/498/396 394/487/394
f 396/489/396 403/499/403 395/490/395
f 403/499/403 393/500/393 395/490/395
f 398/493/398 408/501/408 406/502/406
f 400/495/400 407/503/407 408/504/408
f 399/494/399 405/505/405 407/503/407
f 402/497/402 412/506/412 404/507/404
f 412/508/412 403/499/403 404/509/404
f 403/499/403 409/510/409 401/511/401
f 414/512/414 408/501/408 416/513/416
f 416/514/416 407/503/407 415/515/415
f 415/515/415 405/505/405 413/516/413
f 418/517/418 412/506/412 410/518/410
f 420/519/420 411/520/411 412/508/412
f 419/521/419 409/510/409 411/520/411
f 422/522/422 416/513/416 424/523/424
f 424/524/424 415/515/415 423/525/423
f 415/515/415 421/526/421 423/525/423
f 426/527/426 420/528/420 418/517/418
f 428/529/428 419/521/419 420/519/420
f 427/530/427 417/531/417 419/521/419
f 422/522/422 432/532/432 430/533/430
f 424/524/424 431/534/431 432/535/432
f 423/525/423 429/536/429 431/534/431
f 426/527/426 436/537/436 428/538/428
f 428/529/428 435/539/435 427/530/427
f 427/530/427 433/540/433 425/541/425
f 430/533/430 440/542/440 438/543/438
f 432/535/432 439/544/439 440/545/440
f 431/534/431 437/546/437 439/544/439
f 442/547/442 436/537/436 434/548/434
f 444/549/444 435/539/435 436/550/436
f 435/539/435 441/551/441 433/540/433
f 438/543/438 448/552/448 446/553/446
f 440/545/440 447/554/447 448/555/448
f 439/544/439 445/556/445 447/554/447
f 450/557/450 444/558/444 442/547/442
f 452/559/452 443/560/443 444/549/444
f 451/561/451 441/551/441 443/560/443
f 446/553/446 456/562/456 454/563/454
f 448/555/448 455/564/455 456/565/456
f 447/554/447 453/566/453 455/564/455
f 450/557/450 460/567/460 452/568/452
f 452/559/452 459/569/459 451/561/451
f 451/561/451 457/570/457 449/571/449
f 462/572/462 456/562/456 464/573/464
f 464/574/464 455/564/455 463/575/463
f 463/575/463 453/566/453 461/576/461
f 466/577/466 460/567/460 458/578/458
f 468/579/468 459/569/459 460/580/460
f 467/581/467 457/570/457 459/569/459
f 470/582/470 464/573/464 472/583/472
f 472/584/472 463/575/463 471/585/471
f 471/585/471 461/576/461 469/586/469
f 474/587/474 468/588/468 466/577/466
f 476/589/476 467/581/467 468/579/468
f 475/590/475 465/591/465 467/581/467
f 470/582/470 480/592/480 478/593/478
f 472/584/472 479/594/479 480/595/480
f 479/594/479 469/586/469 477/596/477
f 474/587/474 484/597/484 476/598/476
f 476/589/476 483/599/483 475/590/475
f 475/590/475 481/600/481 473/601/473
f 486/602/486 480/592/480 488/603/488
f 488/604/488 479/594/479 487/605/487
f 487/605/487 477/596/477 485/606/485
f 482/607/482 492/608/492 484/597/484
f 484/609/484 491/610/491 483/599/483
f 483/599/483 489/611/489 481/600/481
f 486/602/486 496/612/496 494/613/494
f 488/604/488 495/614/495 496/615/496
f 495/614/495 485/606/485 493/616/493
f 498/617/498 492/608/492 490/618/490
f 500/619/500 491/610/491 492/620/492
f 499/621/499 489/611/489 491/610/491
f 494/613/494 504/622/504 502/623/502
f 496/615/496 503/624/503 504/625/504
f 495/614/495 501/626/501 503/624/503
f 506/627/506 500/628/500 498/617/498
f 508/629/508 499/621/499 500/619/500
f 499/621/499 505/630/505 497/631/497
f 510/632/510 504/622/504 512/633/512
f 512/634/512 503/624/503 511/635/511
f 511/635/511 501/626/501 509/636/509
f 2/637/2 508/638/508 506/627/506
f 4/6/4 507/639/507 508/629/508
f 3/5/3 505/630/505 507/639/507
f 6/640/6 512/633/512 8/641/8
f 8/12/8 511/635/511 7/15/7
f 7/15/7 509/636/509 5/642/5
f 249/310/249 377/470/377 505/630/505
f 6/9/6 10/1/10 2/3/2
f 510/632/510 2/637/2 506/627/506
f 277/345/277 149/185/149 21/25/21
f 14/11/14 18/17/18 10/1/10
f 22/22/22 26/38/26 18/17/18
f 26/38/26 38/42/38 34/37/34
f 38/42/38 42/47/42 34/37/34
f 46/53/46 50/68/50 42/47/42
f 54/63/54 58/67/58 50/68/50
f 62/73/62 66/77/66 58/67/58
f 66/77/66 78/92/78 74/98/74
f 78/92/78 82/97/82 74/98/74
f 86/102/86 90/107/90 82/97/82
f 94/113/94 98/127/98 90/107/90
f 102/122/102 106/138/106 98/127/98
f 110/133/110 114/137/114 106/138/106
f 114/137/114 126/152/126 122/147/122
f 126/152/126 130/157/130 122/147/122
f 134/162/134 138/167/138 130/157/130
f 142/173/142 146/177/146 138/167/138
f 150/182/150 154/198/154 146/177/146
f 154/198/154 166/202/166 162/197/162
f 166/202/166 170/207/170 162/197/162
f 174/213/174 178/228/178 170/207/170
f 182/223/182 186/227/186 178/228/178
f 190/233/190 194/237/194 186/227/186
f 194/237/194 206/252/206 202/258/202
f 206/252/206 210/257/210 202/258/202
f 214/262/214 218/267/218 210/257/210
f 222/273/222 226/287/226 218/267/218
f 230/282/230 234/298/234 226/287/226
f 238/293/238 242/297/242 234/298/234
f 242/297/242 254/312/254 250/307/250
f 254/312/254 258/317/258 250/307/250
f 262/322/262 266/327/266 258/317/258
f 270/333/270 274/337/274 266/327/266
f 278/342/278 282/358/282 274/337/274
f 282/358/282 294/362/294 290/357/290
f 294/362/294 298/367/298 290/357/290
f 302/373/302 306/388/306 298/367/298
f 310/383/310 314/387/314 306/388/306
f 318/393/318 322/397/322 314/387/314
f 322/397/322 334/412/334 330/418/330
f 334/412/334 338/417/338 330/418/330
f 342/422/342 346/427/346 338/417/338
f 350/433/350 354/447/354 346/427/346
f 358/442/358 362/458/362 354/447/354
f 366/453/366 370/457/370 362/458/362
f 370/457/370 382/472/382 378/467/378
f 382/472/382 386/477/386 378/467/378
f 390/482/390 394/487/394 386/477/386
f 398/493/398 402/497/402 394/487/394
f 406/502/406 410/518/410 402/497/402
f 410/518/410 422/522/422 418/517/418
f 422/522/422 426/527/426 418/517/418
f 430/533/430 434/548/434 426/527/426
f 438/543/438 442/547/442 434/548/434
f 446/553/446 450/557/450 442/547/442
f 450/557/450 462/572/462 458/578/458
f 462/572/462 466/577/466 458/578/458
f 470/582/470 474/587/474 466/577/466
f 478/593/478 482/607/482 474/587/474
f 486/602/486 490/618/490 482/607/482
f 494/613/494 498/617/498 490/618/490
f 498/617/498 510/632/510 506/627/506
f 10/1/10 12/18/12 4/2/4
f 12/4/12 11/7/11 3/5/3
f 11/7/11 9/20/9 1/8/1
f 6/9/6 8/643/8 16/10/16
f 8/12/8 7/15/7 15/13/15
f 7/15/7 5/642/5 13/16/13
f 18/17/18 20/27/20 12/18/12
f 12/4/12 20/29/20 19/19/19
f 19/19/19 17/31/17 9/20/9
f 14/11/14 16/10/16 24/21/24
f 16/14/16 15/13/15 23/23/23
f 15/13/15 13/16/13 21/25/21
f 18/17/18 26/38/26 28/26/28
f 28/28/28 27/40/27 19/19/19
f 19/19/19 27/40/27 25/30/25
f 30/32/30 22/22/22 24/21/24
f 32/34/32 24/24/24 23/23/23
f 31/35/31 23/23/23 21/25/21
f 34/37/34 36/48/36 28/26/28
f 36/39/36 35/41/35 27/40/27
f 35/41/35 33/51/33 25/30/25
f 38/42/38 30/32/30 32/33/32
f 40/44/40 32/34/32 31/35/31
f 31/35/31 29/36/29 37/46/37
f 42/47/42 44/58/44 36/48/36
f 44/49/44 43/50/43 35/41/35
f 43/50/43 41/61/41 33/51/33
f 38/42/38 40/43/40 48/52/48
f 40/44/40 39/45/39 47/54/47
f 39/45/39 37/46/37 45/56/45
f 42/47/42 50/68/50 52/57/52
f 44/49/44 52/70/52 51/59/51
f 43/50/43 51/59/51 49/60/49
f 46/53/46 48/52/48 56/62/56
f 48/55/48 47/54/47 55/64/55
f 47/54/47 45/56/45 53/66/53
f 58/67/58 60/78/60 52/57/52
f 60/69/60 59/80/59 51/59/51
f 51/59/51 59/80/59 57/71/57
f 54/63/54 56/62/56 64/72/64
f 56/65/56 55/64/55 63/74/63
f 55/64/55 53/66/53 61/76/61
f 66/77/66 68/88/68 60/78/60
f 68/79/68 67/81/67 59/80/59
f 67/81/67 65/91/65 57/71/57
f 62/73/62 64/72/64 72/82/72
f 64/75/64 63/74/63 71/84/71
f 63/74/63 61/76/61 69/86/69
f 66/77/66 74/98/74 76/87/76
f 68/79/68 76/100/76 75/89/75
f 67/81/67 75/89/75 73/90/73
f 78/92/78 70/83/70 72/82/72
f 80/94/80 72/85/72 71/84/71
f 79/95/79 71/84/71 69/86/69
f 82/97/82 84/108/84 76/87/76
f 84/99/84 83/101/83 75/89/75
f 83/101/83 81/111/81 73/90/73
f 86/102/86 78/92/78 80/93/80
f 88/104/88 80/94/80 79/95/79
f 87/105/87 79/95/79 77/96/77
f 90/107/90 92/118/92 84/108/84
f 92/109/92 91/110/91 83/101/83
f 91/110/91 89/121/89 81/111/81
f 86/102/86 88/103/88 96/112/96
f 88/104/88 87/105/87 95/114/95
f 95/114/95 87/105/87 85/106/85
f 90/107/90 98/127/98 100/117/100
f 92/109/92 100/129/100 99/119/99
f 91/110/91 99/119/99 97/120/97
f 102/122/102 94/113/94 96/112/96
f 104/124/104 96/115/96 95/114/95
f 103/125/103 95/114/95 93/116/93
f 98/127/98 106/138/106 108/128/108
f 100/129/100 108/140/108 107/130/107
f 99/119/99 107/130/107 105/131/105
f 102/122/102 104/123/104 112/132/112
f 104/124/104 103/125/103 111/134/111
f 111/134/111 103/125/103 101/126/101
f 114/137/114 116/148/116 108/128/108
f 116/139/116 115/141/115 107/130/107
f 115/141/115 113/151/113 105/131/105
f 110/133/110 112/132/112 120/142/120
f 112/135/112 111/134/111 119/144/119
f 111/134/111 109/136/109 117/146/117
f 122/147/122 124/158/124 116/148/116
f 124/149/124 123/160/123 115/141/115
f 115/141/115 123/160/123 121/150/121
f 126/152/126 118/143/118 120/142/120
f 128/154/128 120/145/120 119/144/119
f 127/155/127 119/144/119 117/146/117
f 130/157/130 132/168/132 124/158/124
f 132/159/132 131/161/131 123/160/123
f 131/161/131 129/171/129 121/150/121
f 134/162/134 126/152/126 128/153/128
f 136/164/136 128/154/128 127/155/127
f 135/165/135 127/155/127 125/156/125
f 138/167/138 140/178/140 132/168/132
f 140/169/140 139/170/139 131/161/131
f 139/170/139 137/180/137 129/171/129
f 134/162/134 136/163/136 144/172/144
f 136/164/136 135/165/135 143/174/143
f 135/165/135 133/166/133 141/176/141
f 146/177/146 148/187/148 140/178/140
f 140/169/140 148/189/148 147/179/147
f 147/179/147 145/191/145 137/180/137
f 142/173/142 144/172/144 152/181/152
f 144/175/144 143/174/143 151/183/151
f 143/174/143 141/176/141 149/185/149
f 146/177/146 154/198/154 156/186/156
f 156/188/156 155/200/155 147/179/147
f 147/179/147 155/200/155 153/190/153
f 158/192/158 150/182/150 152/181/152
f 160/194/160 152/184/152 151/183/151
f 159/195/159 151/183/151 149/185/149
f 162/197/162 164/208/164 156/186/156
f 164/199/164 163/201/163 155/200/155
f 163/201/163 161/211/161 153/190/153
f 166/202/166 158/192/158 160/193/160
f 168/204/168 160/194/160 159/195/159
f 159/195/159 157/196/157 165/206/165
f 170/207/170 172/218/172 164/208/164
f 172/209/172 171/210/171 163/201/163
f 171/210/171 169/221/169 161/211/161
f 166/202/166 168/203/168 176/212/176
f 168/204/168 167/205/167 175/214/175
f 167/205/167 165/206/165 173/216/173
f 170/207/170 178/228/178 180/217/180
f 172/209/172 180/230/180 179/219/179
f 171/210/171 179/219/179 177/220/177
f 174/213/174 176/212/176 184/222/184
f 176/215/176 175/214/175 183/224/183
f 175/214/175 173/216/173 181/226/181
f 186/227/186 188/238/188 180/217/180
f 188/229/188 187/240/187 179/219/179
f 179/219/179 187/240/187 185/231/185
f 182/223/182 184/222/184 192/232/192
f 184/225/184 183/224/183 191/234/191
f 183/224/183 181/226/181 189/236/189
f 194/237/194 196/248/196 188/238/188
f 196/239/196 195/241/195 187/240/187
f 195/241/195 193/251/193 185/231/185
f 190/233/190 192/232/192 200/242/200
f 192/235/192 191/234/191 199/244/199
f 191/234/191 189/236/189 197/246/197
f 194/237/194 202/258/202 204/247/204
f 196/239/196 204/260/204 203/249/203
f 195/241/195 203/249/203 201/250/201
f 206/252/206 198/243/198 200/242/200
f 208/254/208 200/245/200 199/244/199
f 207/255/207 199/244/199 197/246/197
f 210/257/210 212/268/212 204/247/204
f 212/259/212 211/261/211 203/249/203
f 211/261/211 209/271/209 201/250/201
f 214/262/214 206/252/206 208/253/208
f 216/264/216 208/254/208 207/255/207
f 215/265/215 207/255/207 205/256/205
f 218/267/218 220/278/220 212/268/212
f 220/269/220 219/270/219 211/261/211
f 219/270/219 217/281/217 209/271/209
f 214/262/214 216/263/216 224/272/224
f 216/264/216 215/265/215 223/274/223
f 223/274/223 215/265/215 213/266/213
f 218/267/218 226/287/226 228/277/228
f 220/269/220 228/289/228 227/279/227
f 219/270/219 227/279/227 225/280/225
f 230/282/230 222/273/222 224/272/224
f 232/284/232 224/275/224 223/274/223
f 231/285/231 223/274/223 221/276/221
f 226/287/226 234/298/234 236/288/236
f 228/289/228 236/300/236 235/290/235
f 227/279/227 235/290/235 233/291/233
f 230/282/230 232/283/232 240/292/240
f 232/284/232 231/285/231 239/294/239
f 239/294/239 231/285/231 229/286/229
f 242/297/242 244/308/244 236/288/236
f 244/299/244 243/301/243 235/290/235
f 243/301/243 241/311/241 233/291/233
f 238/293/238 240/292/240 248/302/248
f 240/295/240 239/294/239 247/304/247
f 239/294/239 237/296/237 245/306/245
f 250/307/250 252/318/252 244/308/244
f 252/309/252 251/320/251 243/301/243
f 243/301/243 251/320/251 249/310/249
f 254/312/254 246/303/246 248/302/248
f 256/314/256 248/305/248 247/304/247
f 255/315/255 247/304/247 245/306/245
f 258/317/258 260/328/260 252/318/252
f 260/319/260 259/321/259 251/320/251
f 259/321/259 257/331/257 249/310/249
f 262/322/262 254/312/254 256/313/256
f 264/324/264 256/314/256 255/315/255
f 263/325/263 255/315/255 253/316/253
f 266/327/266 268/338/268 260/328/260
f 268/329/268 267/330/267 259/321/259
f 267/330/267 265/340/265 257/331/257
f 262/322/262 264/323/264 272/332/272
f 264/324/264 263/325/263 271/334/271
f 263/325/263 261/326/261 269/336/269
f 274/337/274 276/347/276 268/338/268
f 268/329/268 276/349/276 275/339/275
f 275/339/275 273/351/273 265/340/265
f 270/333/270 272/332/272 280/341/280
f 272/335/272 271/334/271 279/343/279
f 271/334/271 269/336/269 277/345/277
f 274/337/274 282/358/282 284/346/284
f 284/348/284 283/360/283 275/339/275
f 275/339/275 283/360/283 281/350/281
f 286/352/286 278/342/278 280/341/280
f 288/354/288 280/344/280 279/343/279
f 287/355/287 279/343/279 277/345/277
f 290/357/290 292/368/292 284/346/284
f 292/359/292 291/361/291 283/360/283
f 291/361/291 289/371/289 281/350/281
f 294/362/294 286/352/286 288/353/288
f 296/364/296 288/354/288 287/355/287
f 287/355/287 285/356/285 293/366/293
f 298/367/298 300/378/300 292/368/292
f 300/369/300 299/370/299 291/361/291
f 299/370/299 297/381/297 289/371/289
f 294/362/294 296/363/296 304/372/304
f 296/364/296 295/365/295 303/374/303
f 295/365/295 293/366/293 301/376/301
f 298/367/298 306/388/306 308/377/308
f 300/369/300 308/390/308 307/379/307
f 299/370/299 307/379/307 305/380/305
f 302/373/302 304/372/304 312/382/312
f 304/375/304 303/374/303 311/384/311
f 303/374/303 301/376/301 309/386/309
f 314/387/314 316/398/316 308/377/308
f 316/389/316 315/400/315 307/379/307
f 307/379/307 315/400/315 313/391/313
f 310/383/310 312/382/312 320/392/320
f 312/385/312 311/384/311 319/394/319
f 311/384/311 309/386/309 317/396/317
f 322/397/322 324/408/324 316/398/316
f 324/399/324 323/401/323 315/400/315
f 323/401/323 321/411/321 313/391/313
f 318/393/318 320/392/320 328/402/328
f 320/395/320 319/394/319 327/404/327
f 319/394/319 317/396/317 325/406/325
f 322/397/322 330/418/330 332/407/332
f 324/399/324 332/420/332 331/409/331
f 323/401/323 331/409/331 329/410/329
f 334/412/334 326/403/326 328/402/328
f 336/414/336 328/405/328 327/404/327
f 335/415/335 327/404/327 325/406/325
f 338/417/338 340/428/340 332/407/332
f 340/419/340 339/421/339 331/409/331
f 339/421/339 337/431/337 329/410/329
f 342/422/342 334/412/334 336/413/336
f 344/424/344 336/414/336 335/415/335
f 343/425/343 335/415/335 333/416/333
f 346/427/346 348/438/348 340/428/340
f 348/429/348 347/430/347 339/421/339
f 347/430/347 345/441/345 337/431/337
f 342/422/342 344/423/344 352/432/352
f 344/424/344 343/425/343 351/434/351
f 351/434/351 343/425/343 341/426/341
f 346/427/346 354/447/354 356/437/356
f 348/429/348 356/449/356 355/439/355
f 347/430/347 355/439/355 353/440/353
f 358/442/358 350/433/350 352/432/352
f 360/444/360 352/435/352 351/434/351
f 359/445/359 351/434/351 349/436/349
f 354/447/354 362/458/362 364/448/364
f 356/449/356 364/460/364 363/450/363
f 355/439/355 363/450/363 361/451/361
f 358/442/358 360/443/360 368/452/368
f 360/444/360 359/445/359 367/454/367
f 367/454/367 359/445/359 357/446/357
f 370/457/370 372/468/372 364/448/364
f 372/459/372 371/461/371 363/450/363
f 371/461/371 369/471/369 361/451/361
f 366/453/366 368/452/368 376/462/376
f 368/455/368 367/454/367 375/464/375
f 367/454/367 365/456/365 373/466/373
f 378/467/378 380/478/380 372/468/372
f 380/469/380 379/480/379 371/461/371
f 371/461/371 379/480/379 377/470/377
f 382/472/382 374/463/374 376/462/376
f 384/474/384 376/465/376 375/464/375
f 383/475/383 375/464/375 373/466/373
f 386/477/386 388/488/388 380/478/380
f 388/479/388 387/481/387 379/480/379
f 387/481/387 385/491/385 377/470/377
f 390/482/390 382/472/382 384/473/384
f 392/484/392 384/474/384 383/475/383
f 391/485/391 383/475/383 381/476/381
f 394/487/394 396/498/396 388/488/388
f 396/489/396 395/490/395 387/481/387
f 395/490/395 393/500/393 385/491/385
f 390/482/390 392/483/392 400/492/400
f 392/484/392 391/485/391 399/494/399
f 391/485/391 389/486/389 397/496/397
f 402/497/402 404/507/404 396/498/396
f 396/489/396 404/509/404 403/499/403
f 403/499/403 401/511/401 393/500/393
f 398/493/398 400/492/400 408/501/408
f 400/495/400 399/494/399 407/503/407
f 399/494/399 397/496/397 405/505/405
f 402/497/402 410/518/410 412/506/412
f 412/508/412 411/520/411 403/499/403
f 403/499/403 411/520/411 409/510/409
f 414/512/414 406/502/406 408/501/408
f 416/514/416 408/504/408 407/503/407
f 415/515/415 407/503/407 405/505/405
f 418/517/418 420/528/420 412/506/412
f 420/519/420 419/521/419 411/520/411
f 419/521/419 417/531/417 409/510/409
f 422/522/422 414/512/414 416/513/416
f 424/524/424 416/514/416 415/515/415
f 415/515/415 413/516/413 421/526/421
f 426/527/426 428/538/428 420/528/420
f 428/529/428 427/530/427 419/521/419
f 427/530/427 425/541/425 417/531/417
f 422/522/422 424/523/424 432/532/432
f 424/524/424 423/525/423 431/534/431
f 423/525/423 421/526/421 429/536/429
f 426/527/426 434/548/434 436/537/436
f 428/529/428 436/550/436 435/539/435
f 427/530/427 435/539/435 433/540/433
f 430/533/430 432/532/432 440/542/440
f 432/535/432 431/534/431 439/544/439
f 431/534/431 429/536/429 437/546/437
f 442/547/442 444/558/444 436/537/436
f 444/549/444 443/560/443 435/539/435
f 435/539/435 443/560/443 441/551/441
f 438/543/438 440/542/440 448/552/448
f 440/545/440 439/544/439 447/554/447
f 439/544/439 437/546/437 445/556/445
f 450/557/450 452/568/452 444/558/444
f 452/559/452 451/561/451 443/560/443
f 451/561/451 449/571/449 441/551/441
f 446/553/446 448/552/448 456/562/456
f 448/555/448 447/554/447 455/564/455
f 447/554/447 445/556/445 453/566/453
f 450/557/450 458/578/458 460/567/460
f 452/559/452 460/580/460 459/569/459
f 451/561/451 459/569/459 457/570/457
f 462/572/462 454/563/454 456/562/456
f 464/574/464 456/565/456 455/564/455
f 463/575/463 455/564/455 453/566/453
f 466/577/466 468/588/468 460/567/460
f 468/579/468 467/581/467 459/569/459
f 467/581/467 465/591/465 457/570/457
f 470/582/470 462/572/462 464/573/464
f 472/584/472 464/574/464 463/575/463
f 471/585/471 463/575/463 461/576/461
f 474/587/474 476/598/476 468/588/468
f 476/589/476 475/590/475 467/581/467
f 475/590/475 473/601/473 465/591/465
f 470/582/470 472/583/472 480/592/480
f 472/584/472 471/585/471 479/594/479
f 479/594/479 471/585/471 469/586/469
f 474/587/474 482/607/482 484/597/484
f 476/589/476 484/609/484 483/599/483
f 475/590/475 483/599/483 481/600/481
f 486/602/486 478/593/478 480/592/480
f 488/604/488 480/595/480 479/594/479
f 487/605/487 479/594/479 477/596/477
f 482/607/482 490/618/490 492/608/492
f 484/609/484 492/620/492 491/610/491
f 483/599/483 491/610/491 489/611/489
f 486/602/486 488/603/488 496/612/496
f 488/604/488 487/605/487 495/614/495
f 495/614/495 487/605/487 485/606/485
f 498/617/498 500/628/500 492/608/492
f 500/619/500 499/621/499 491/610/491
f 499/621/499 497/631/497 489/611/489
f 494/613/494 496/612/496 504/622/504
f 496/615/496 495/614/495 503/624/503
f 495/614/495 493/616/493 501/626/501
f 506/627/506 508/638/508 500/628/500
f 508/629/508 507/639/507 499/621/499
f 499/621/499 507/639/507 505/630/505
f 510/632/510 502/623/502 504/622/504
f 512/634/512 504/625/504 503/624/503
f 511/635/511 503/624/503 501/626/501
f 2/637/2 4/644/4 508/638/508
f 4/6/4 3/5/3 507/639/507
f 3/5/3 1/8/1 505/630/505
f 6/640/6 510/632/510 512/633/512
f 8/12/8 512/634/512 511/635/511
f 7/15/7 511/635/511 509/636/509
f 505/630/505 1/8/1 9/20/9
f 9/20/9 17/31/17 25/30/25
f 25/30/25 33/51/33 41/61/41
f 41/61/41 49/60/49 57/71/57
f 57/71/57 65/91/65 73/90/73
f 73/90/73 81/111/81 89/121/89
f 89/121/89 97/120/97 105/131/105
f 105/131/105 113/151/113 121/150/121
f 121/150/121 129/171/129 137/180/137
f 137/180/137 145/191/145 153/190/153
f 153/190/153 161/211/161 169/221/169
f 169/221/169 177/220/177 185/231/185
f 185/231/185 193/251/193 201/250/201
f 201/250/201 209/271/209 217/281/217
f 217/281/217 225/280/225 233/291/233
f 233/291/233 241/311/241 249/310/249
f 249/310/249 257/331/257 265/340/265
f 265/340/265 273/351/273 281/350/281
f 281/350/281 289/371/289 297/381/297
f 297/381/297 305/380/305 313/391/313
f 313/391/313 321/411/321 329/410/329
f 329/410/329 337/431/337 345/441/345
f 345/441/345 353/440/353 361/451/361
f 361/451/361 369/471/369 377/470/377
f 377/470/377 385/491/385 393/500/393
f 393/500/393 401/511/401 409/510/409
f 409/510/409 417/531/417 425/541/425
f 425/541/425 433/540/433 441/551/441
f 441/551/441 449/571/449 457/570/457
f 457/570/457 465/591/465 473/601/473
f 473/601/473 481/600/481 489/611/489
f 489/611/489 497/631/497 505/630/505
f 505/630/505 9/20/9 25/30/25
f 25/30/25 41/61/41 57/71/57
f 57/71/57 73/90/73 89/121/89
f 89/121/89 105/131/105 121/150/121
f 121/150/121 137/180/137 153/190/153
f 153/190/153 169/221/169 185/231/185
f 185/231/185 201/250/201 217/281/217
f 217/281/217 233/291/233 249/310/249
f 249/310/249 265/340/265 281/350/281
f 281/350/281 297/381/297 313/391/313
f 313/391/313 329/410/329 345/441/345
f 345/441/345 361/451/361 377/470/377
f 377/470/377 393/500/393 409/510/409
f 409/510/409 425/541/425 441/551/441
f 441/551/441 457/570/457 473/601/473
f 473/601/473 489/611/489 505/630/505
f 505/630/505 25/30/25 57/71/57
f 57/71/57 89/121/89 121/150/121
f 121/150/121 153/190/153 185/231/185
f 185/231/185 217/281/217 249/310/249
f 249/310/249 281/350/281 313/391/313
f 313/391/313 345/441/345 377/470/377
f 377/470/377 409/510/409 441/551/441
f 441/551/441 473/601/473 505/630/505
f 505/630/505 57/71/57 121/150/121
f 121/150/121 185/231/185 249/310/249
f 249/310/249 313/391/313 377/470/377
f 377/470/377 441/551/441 505/630/505
f 505/630/505 121/150/121 249/310/249
f 6/9/6 14/11/14 10/1/10
f 510/632/510 6/640/6 2/637/2
f 21/25/21 13/16/13 5/642/5
f 5/642/5 509/636/509 501/626/501
f 501/626/501 493/616/493 485/606/485
f 485/606/485 477/596/477 469/586/469
f 469/586/469 461/576/461 453/566/453
f 453/566/453 445/556/445 437/546/437
f 437/546/437 429/536/429 421/526/421
f 421/526/421 413/516/413 405/505/405
f 405/505/405 397/496/397 389/486/389
f 389/486/389 381/476/381 373/466/373
f 373/466/373 365/456/365 357/446/357
f 357/446/357 349/436/349 341/426/341
f 341/426/341 333/416/333 325/406/325
f 325/406/325 317/396/317 309/386/309
f 309/386/309 301/376/301 293/366/293
f 293/366/293 285/356/285 277/345/277
f 277/345/277 269/336/269 261/326/261
f 261/326/261 253/316/253 245/306/245
f 245/306/245 237/296/237 229/286/229
f 229/286/229 221/276/221 213/266/213
f 213/266/213 205/256/205 197/246/197
f 197/246/197 189/236/189 181/226/181
f 181/226/181 173/216/173 165/206/165
f 165/206/165 157/196/157 149/185/149
f 149/185/149 141/176/141 133/166/133
f 133/166/133 125/156/125 117/146/117
f 117/146/117 109/136/109 101/126/101
f 101/126/101 93/116/93 85/106/85
f 85/106/85 77/96/77 69/86/69
f 69/86/69 61/76/61 53/66/53
f 53/66/53 45/56/45 37/46/37
f 37/46/37 29/36/29 21/25/21
f 21/25/21 5/642/5 501/626/501
f 501/626/501 485/606/485 469/586/469
f 469/586/469 453/566/453 437/546/437
f 437/546/437 421/526/421 405/505/405
f 405/505/405 389/486/389 373/466/373
f 373/466/373 357/446/357 341/426/341
f 341/426/341 325/406/325 309/386/309
f 309/386/309 293/366/293 277/345/277
f 277/345/277 261/326/261 245/306/245
f 245/306/245 229/286/229 213/266/213
f 213/266/213 197/246/197 181/226/181
f 181/226/181 165/206/165 149/185/149
f 149/185/149 133/166/133 117/146/117
f 117/146/117 101/126/101 85/106/85
f 85/106/85 69/86/69 53/66/53
f 53/66/53 37/46/37 21/25/21
f 21/25/21 501/626/501 469/586/469
f 469/586/469 437/546/437 405/505/405
f 405/505/405 373/466/373 341/426/341
f 341/426/341 309/386/309 277/345/277
f 277/345/277 245/306/245 213/266/213
f 213/266/213 181/226/181 149/185/149
f 149/185/149 117/146/117 85/106/85
f 85/106/85 53/66/53 21/25/21
f 21/25/21 469/586/469 405/505/405
f 405/505/405 341/426/341 277/345/277
f 277/345/277 213/266/213 149/185/149
f 149/185/149 85/106/85 21/25/21
f 21/25/21 405/505/405 277/345/277
f 14/11/14 22/22/22 18/17/18
f 22/22/22 30/32/30 26/38/26
f 26/38/26 30/32/30 38/42/38
f 38/42/38 46/53/46 42/47/42
f 46/53/46 54/63/54 50/68/50
f 54/63/54 62/73/62 58/67/58
f 62/73/62 70/83/70 66/77/66
f 66/77/66 70/83/70 78/92/78
f 78/92/78 86/102/86 82/97/82
f 86/102/86 94/113/94 90/107/90
f 94/113/94 102/122/102 98/127/98
f 102/122/102 110/133/110 106/138/106
f 110/133/110 118/143/118 114/137/114
f 114/137/114 118/143/118 126/152/126
f 126/152/126 134/162/134 130/157/130
f 134/162/134 142/173/142 138/167/138
f 142/173/142 150/182/150 146/177/146
f 150/182/150 158/192/158 154/198/154
f 154/198/154 158/192/158 166/202/166
f 166/202/166 174/213/174 170/207/170
f 174/213/174 182/223/182 178/228/178
f 182/223/182 190/233/190 186/227/186
f 190/233/190 198/243/198 194/237/194
f 194/237/194 198/243/198 206/252/206
f 206/252/206 214/262/214 210/257/210
f 214/262/214 222/273/222 218/267/218
f 222/273/222 230/282/230 226/287/226
f 230/282/230 238/293/238 234/298/234
f 238/293/238 246/303/246 242/297/242
f 242/297/242 246/303/246 254/312/254
f 254/312/254 262/322/262 258/317/258
f 262/322/262 270/333/270 266/327/266
f 270/333/270 278/342/278 274/337/274
f 278/342/278 286/352/286 282/358/282
f 282/358/282 286/352/286 294/362/294
f 294/362/294 302/373/302 298/367/298
f 302/373/302 310/383/310 306/388/306
f 310/383/310 318/393/318 314/387/314
f 318/393/318 326/403/326 322/397/322
f 322/397/322 326/403/326 334/412/334
f 334/412/334 342/422/342 338/417/338
f 342/422/342 350/433/350 346/427/346
f 350/433/350 358/442/358 354/447/354
f 358/442/358 366/453/366 362/458/362
f 366/453/366 374/463/374 370/457/370
f 370/457/370 374/463/374 382/472/382
f 382/472/382 390/482/390 386/477/386
f 390/482/390 398/493/398 394/487/394
f 398/493/398 406/502/406 402/497/402
f 406/502/406 414/512/414 410/518/410
f 410/518/410 414/512/414 422/522/422
f 422/522/422 430/533/430 426/527/426
f 430/533/430 438/543/438 434/548/434
f 438/543/438 446/553/446 442/547/442
f 446/553/446 454/563/454 450/557/450
f 450/557/450 454/563/454 462/572/462
f 462/572/462 470/582/470 466/577/466
f 470/582/470 478/593/478 474/587/474
f 478/593/478 486/602/486 482/607/482
f 486/602/486 494/613/494 490/618/490
f 494/613/494 502/623/502 498/617/498
f 498/617/498 502/623/502 510/632/510
