# Blender 5.1.2
# www.blender.org
mtllib Pickup.mtl
o Pickup
v 0.000000 0.000000 -0.420000
v 0.363731 0.000000 -0.210000
v 0.363731 0.000000 0.210000
v 0.000000 0.000000 0.420000
v -0.363731 0.000000 0.210000
v -0.363731 0.000000 -0.210000
v 0.000000 0.620000 0.000000
v 0.000000 -0.000000 0.420000
v 0.363731 -0.000000 0.210000
v 0.363731 0.000000 -0.210000
v 0.000000 0.000000 -0.420000
v -0.363731 0.000000 -0.210000
v -0.363731 -0.000000 0.210000
v 0.000000 -0.620000 -0.000000
vn 0.4313 0.5060 -0.7470
vn 0.8625 0.5060 -0.0000
vn 0.4313 0.5060 0.7470
vn -0.4313 0.5060 0.7470
vn -0.8625 0.5060 -0.0000
vn -0.4313 0.5060 -0.7470
vn 0.4313 -0.5060 0.7470
vn 0.8625 -0.5060 -0.0000
vn 0.4313 -0.5060 -0.7470
vn -0.4313 -0.5060 -0.7470
vn -0.8625 -0.5060 -0.0000
vn -0.4313 -0.5060 0.7470
vt 0.500000 1.000000
vt 0.500000 0.500000
vt 0.933013 0.750000
vt 0.933013 0.250000
vt 0.500000 0.000000
vt 0.066987 0.250000
vt 0.066987 0.750000
s 0
usemtl Gem_Body
f 1/1/1 7/2/1 2/3/1
f 2/3/2 7/2/2 3/4/2
f 3/4/3 7/2/3 4/5/3
f 4/5/4 7/2/4 5/6/4
f 5/6/5 7/2/5 6/7/5
f 6/7/6 7/2/6 1/1/6
f 8/1/7 14/2/7 9/3/7
f 9/3/8 14/2/8 10/4/8
f 10/4/9 14/2/9 11/5/9
f 11/5/10 14/2/10 12/6/10
f 12/6/11 14/2/11 13/7/11
f 13/7/12 14/2/12 8/1/12
