# Blender 5.1.2
# www.blender.org
mtllib SpeedBoost.mtl
o SpeedBoost
v -0.340000 -0.500000 0.340000
v -0.340000 -0.340000 0.500000
v -0.500000 -0.340000 0.340000
v -0.340000 -0.487821 0.401229
v -0.340000 -0.453137 0.453137
v -0.401229 -0.487821 0.340000
v -0.402764 -0.473122 0.402764
v -0.399579 -0.445001 0.445001
v -0.432376 -0.432376 0.432376
v -0.401229 -0.340000 0.487821
v -0.453137 -0.340000 0.453137
v -0.340000 -0.401229 0.487821
v -0.402764 -0.402764 0.473122
v -0.445001 -0.399579 0.445001
v -0.487821 -0.401229 0.340000
v -0.453137 -0.453137 0.340000
v -0.487821 -0.340000 0.401229
v -0.473122 -0.402764 0.402764
v -0.445001 -0.445001 0.399579
v -0.340000 0.340000 0.500000
v -0.340000 0.500000 0.340000
v -0.500000 0.340000 0.340000
v -0.340000 0.401229 0.487821
v -0.340000 0.453137 0.453137
v -0.401229 0.340000 0.487821
v -0.402764 0.402764 0.473122
v -0.399579 0.445001 0.445001
v -0.432376 0.432376 0.432376
v -0.401229 0.487821 0.340000
v -0.453137 0.453137 0.340000
v -0.340000 0.487821 0.401229
v -0.402764 0.473122 0.402764
v -0.445001 0.445001 0.399579
v -0.487821 0.340000 0.401229
v -0.453137 0.340000 0.453137
v -0.487821 0.401229 0.340000
v -0.473122 0.402764 0.402764
v -0.445001 0.399579 0.445001
v -0.340000 -0.500000 -0.340000
v -0.500000 -0.340000 -0.340000
v -0.340000 -0.340000 -0.500000
v -0.401229 -0.487821 -0.340000
v -0.453137 -0.453137 -0.340000
v -0.340000 -0.487821 -0.401229
v -0.402764 -0.473122 -0.402764
v -0.445001 -0.445001 -0.399579
v -0.432376 -0.432376 -0.432376
v -0.487821 -0.340000 -0.401229
v -0.453137 -0.340000 -0.453137
v -0.487821 -0.401229 -0.340000
v -0.473122 -0.402764 -0.402764
v -0.445001 -0.399579 -0.445001
v -0.340000 -0.401229 -0.487821
v -0.340000 -0.453137 -0.453137
v -0.401229 -0.340000 -0.487821
v -0.402764 -0.402764 -0.473122
v -0.399579 -0.445001 -0.445001
v -0.340000 0.500000 -0.340000
v -0.340000 0.340000 -0.500000
v -0.500000 0.340000 -0.340000
v -0.340000 0.487821 -0.401229
v -0.340000 0.453137 -0.453137
v -0.401229 0.487821 -0.340000
v -0.402764 0.473122 -0.402764
v -0.399579 0.445001 -0.445001
v -0.432376 0.432376 -0.432376
v -0.401229 0.340000 -0.487821
v -0.453137 0.340000 -0.453137
v -0.340000 0.401229 -0.487821
v -0.402764 0.402764 -0.473122
v -0.445001 0.399579 -0.445001
v -0.487821 0.401229 -0.340000
v -0.453137 0.453137 -0.340000
v -0.487821 0.340000 -0.401229
v -0.473122 0.402764 -0.402764
v -0.445001 0.445001 -0.399579
v 0.340000 -0.500000 0.340000
v 0.500000 -0.340000 0.340000
v 0.340000 -0.340000 0.500000
v 0.401229 -0.487821 0.340000
v 0.453137 -0.453137 0.340000
v 0.340000 -0.487821 0.401229
v 0.402764 -0.473122 0.402764
v 0.445001 -0.445001 0.399579
v 0.432376 -0.432376 0.432376
v 0.487821 -0.340000 0.401229
v 0.453137 -0.340000 0.453137
v 0.487821 -0.401229 0.340000
v 0.473122 -0.402764 0.402764
v 0.445001 -0.399579 0.445001
v 0.340000 -0.401229 0.487821
v 0.340000 -0.453137 0.453137
v 0.401229 -0.340000 0.487821
v 0.402764 -0.402764 0.473122
v 0.399579 -0.445001 0.445001
v 0.340000 0.500000 0.340000
v 0.340000 0.340000 0.500000
v 0.500000 0.340000 0.340000
v 0.340000 0.487821 0.401229
v 0.340000 0.453137 0.453137
v 0.401229 0.487821 0.340000
v 0.402764 0.473122 0.402764
v 0.399579 0.445001 0.445001
v 0.432376 0.432376 0.432376
v 0.401229 0.340000 0.487821
v 0.453137 0.340000 0.453137
v 0.340000 0.401229 0.487821
v 0.402764 0.402764 0.473122
v 0.445001 0.399579 0.445001
v 0.487821 0.401229 0.340000
v 0.453137 0.453137 0.340000
v 0.487821 0.340000 0.401229
v 0.473122 0.402764 0.402764
v 0.445001 0.445001 0.399579
v 0.340000 -0.500000 -0.340000
v 0.340000 -0.340000 -0.500000
v 0.500000 -0.340000 -0.340000
v 0.340000 -0.487821 -0.401229
v 0.340000 -0.453137 -0.453137
v 0.401229 -0.487821 -0.340000
v 0.402764 -0.473122 -0.402764
v 0.399579 -0.445001 -0.445001
v 0.432376 -0.432376 -0.432376
v 0.401229 -0.340000 -0.487821
v 0.453137 -0.340000 -0.453137
v 0.340000 -0.401229 -0.487821
v 0.402764 -0.402764 -0.473122
v 0.445001 -0.399579 -0.445001
v 0.487821 -0.401229 -0.340000
v 0.453137 -0.453137 -0.340000
v 0.487821 -0.340000 -0.401229
v 0.473122 -0.402764 -0.402764
v 0.445001 -0.445001 -0.399579
v 0.340000 0.500000 -0.340000
v 0.500000 0.340000 -0.340000
v 0.340000 0.340000 -0.500000
v 0.401229 0.487821 -0.340000
v 0.453137 0.453137 -0.340000
v 0.340000 0.487821 -0.401229
v 0.402764 0.473122 -0.402764
v 0.445001 0.445001 -0.399579
v 0.432376 0.432376 -0.432376
v 0.487821 0.340000 -0.401229
v 0.453137 0.340000 -0.453137
v 0.487821 0.401229 -0.340000
v 0.473122 0.402764 -0.402764
v 0.445001 0.399579 -0.445001
v 0.340000 0.401229 -0.487821
v 0.340000 0.453137 -0.453137
v 0.401229 0.340000 -0.487821
v 0.402764 0.402764 -0.473122
v 0.399579 0.445001 -0.445001
vn -0.0970 -0.9905 0.0970
vn -0.0970 -0.0970 0.9905
vn -0.9905 -0.0970 0.0970
vn -0.0972 -0.9206 0.3783
vn -0.0919 -0.7041 0.7041
vn -0.3783 -0.9206 0.0972
vn -0.3703 -0.8519 0.3703
vn -0.3266 -0.6683 0.6683
vn -0.5774 -0.5774 0.5774
vn -0.3783 -0.0972 0.9206
vn -0.7041 -0.0919 0.7041
vn -0.0972 -0.3783 0.9206
vn -0.3703 -0.3703 0.8519
vn -0.6683 -0.3266 0.6683
vn -0.9206 -0.3783 0.0972
vn -0.7041 -0.7041 0.0919
vn -0.9206 -0.0972 0.3783
vn -0.8519 -0.3703 0.3703
vn -0.6683 -0.6683 0.3266
vn -0.0970 0.0970 0.9905
vn -0.0970 0.9905 0.0970
vn -0.9905 0.0970 0.0970
vn -0.0972 0.3783 0.9206
vn -0.0919 0.7041 0.7041
vn -0.3783 0.0972 0.9206
vn -0.3703 0.3703 0.8519
vn -0.3266 0.6683 0.6683
vn -0.5774 0.5774 0.5774
vn -0.3783 0.9206 0.0972
vn -0.7041 0.7041 0.0919
vn -0.0972 0.9206 0.3783
vn -0.3703 0.8519 0.3703
vn -0.6683 0.6683 0.3266
vn -0.9206 0.0972 0.3783
vn -0.7041 0.0919 0.7041
vn -0.9206 0.3783 0.0972
vn -0.8519 0.3703 0.3703
vn -0.6683 0.3266 0.6683
vn -0.0970 -0.9905 -0.0970
vn -0.9905 -0.0970 -0.0970
vn -0.0970 -0.0970 -0.9905
vn -0.3783 -0.9206 -0.0972
vn -0.7041 -0.7041 -0.0919
vn -0.0972 -0.9206 -0.3783
vn -0.3703 -0.8519 -0.3703
vn -0.6683 -0.6683 -0.3266
vn -0.5774 -0.5774 -0.5774
vn -0.9206 -0.0972 -0.3783
vn -0.7041 -0.0919 -0.7041
vn -0.9206 -0.3783 -0.0972
vn -0.8519 -0.3703 -0.3703
vn -0.6683 -0.3266 -0.6683
vn -0.0972 -0.3783 -0.9206
vn -0.0919 -0.7041 -0.7041
vn -0.3783 -0.0972 -0.9206
vn -0.3703 -0.3703 -0.8519
vn -0.3266 -0.6683 -0.6683
vn -0.0970 0.9905 -0.0970
vn -0.0970 0.0970 -0.9905
vn -0.9905 0.0970 -0.0970
vn -0.0972 0.9206 -0.3783
vn -0.0919 0.7041 -0.7041
vn -0.3783 0.9206 -0.0972
vn -0.3703 0.8519 -0.3703
vn -0.3266 0.6683 -0.6683
vn -0.5774 0.5774 -0.5774
vn -0.3783 0.0972 -0.9206
vn -0.7041 0.0919 -0.7041
vn -0.0972 0.3783 -0.9206
vn -0.3703 0.3703 -0.8519
vn -0.6683 0.3266 -0.6683
vn -0.9206 0.3783 -0.0972
vn -0.7041 0.7041 -0.0919
vn -0.9206 0.0972 -0.3783
vn -0.8519 0.3703 -0.3703
vn -0.6683 0.6683 -0.3266
vn 0.0970 -0.9905 0.0970
vn 0.9905 -0.0970 0.0970
vn 0.0970 -0.0970 0.9905
vn 0.3783 -0.9206 0.0972
vn 0.7041 -0.7041 0.0919
vn 0.0972 -0.9206 0.3783
vn 0.3703 -0.8519 0.3703
vn 0.6683 -0.6683 0.3266
vn 0.5774 -0.5774 0.5774
vn 0.9206 -0.0972 0.3783
vn 0.7041 -0.0919 0.7041
vn 0.9206 -0.3783 0.0972
vn 0.8519 -0.3703 0.3703
vn 0.6683 -0.3266 0.6683
vn 0.0972 -0.3783 0.9206
vn 0.0919 -0.7041 0.7041
vn 0.3783 -0.0972 0.9206
vn 0.3703 -0.3703 0.8519
vn 0.3266 -0.6683 0.6683
vn 0.0970 0.9905 0.0970
vn 0.0970 0.0970 0.9905
vn 0.9905 0.0970 0.0970
vn 0.0972 0.9206 0.3783
vn 0.0919 0.7041 0.7041
vn 0.3783 0.9206 0.0972
vn 0.3703 0.8519 0.3703
vn 0.3266 0.6683 0.6683
vn 0.5774 0.5774 0.5774
vn 0.3783 0.0972 0.9206
vn 0.7041 0.0919 0.7041
vn 0.0972 0.3783 0.9206
vn 0.3703 0.3703 0.8519
vn 0.6683 0.3266 0.6683
vn 0.9206 0.3783 0.0972
vn 0.7041 0.7041 0.0919
vn 0.9206 0.0972 0.3783
vn 0.8519 0.3703 0.3703
vn 0.6683 0.6683 0.3266
vn 0.0970 -0.9905 -0.0970
vn 0.0970 -0.0970 -0.9905
vn 0.9905 -0.0970 -0.0970
vn 0.0972 -0.9206 -0.3783
vn 0.0919 -0.7041 -0.7041
vn 0.3783 -0.9206 -0.0972
vn 0.3703 -0.8519 -0.3703
vn 0.3266 -0.6683 -0.6683
vn 0.5774 -0.5774 -0.5774
vn 0.3783 -0.0972 -0.9206
vn 0.7041 -0.0919 -0.7041
vn 0.0972 -0.3783 -0.9206
vn 0.3703 -0.3703 -0.8519
vn 0.6683 -0.3266 -0.6683
vn 0.9206 -0.3783 -0.0972
vn 0.7041 -0.7041 -0.0919
vn 0.9206 -0.0972 -0.3783
vn 0.8519 -0.3703 -0.3703
vn 0.6683 -0.6683 -0.3266
vn 0.0970 0.9905 -0.0970
vn 0.9905 0.0970 -0.0970
vn 0.0970 0.0970 -0.9905
vn 0.3783 0.9206 -0.0972
vn 0.7041 0.7041 -0.0919
vn 0.0972 0.9206 -0.3783
vn 0.3703 0.8519 -0.3703
vn 0.6683 0.6683 -0.3266
vn 0.5774 0.5774 -0.5774
vn 0.9206 0.0972 -0.3783
vn 0.7041 0.0919 -0.7041
vn 0.9206 0.3783 -0.0972
vn 0.8519 0.3703 -0.3703
vn 0.6683 0.3266 -0.6683
vn 0.0972 0.3783 -0.9206
vn 0.0919 0.7041 -0.7041
vn 0.3783 0.0972 -0.9206
vn 0.3703 0.3703 -0.8519
vn 0.3266 0.6683 -0.6683
vt 0.165000 0.725307
vt 0.149693 0.710000
vt 0.165000 0.710000
vt 0.165000 0.750000
vt 0.149309 0.725691
vt 0.125000 0.710000
vt 0.141906 0.750000
vt 0.125000 0.724895
vt 0.415000 0.975307
vt 0.399693 0.960000
vt 0.415000 0.960000
vt 0.415000 1.000000
vt 0.399309 0.975691
vt 0.375000 0.960000
vt 0.391906 1.000000
vt 0.375000 0.974895
vt 0.399693 0.040000
vt 0.415000 0.024693
vt 0.415000 0.040000
vt 0.375000 0.040000
vt 0.399309 0.024309
vt 0.415000 0.000000
vt 0.375000 0.016906
vt 0.400105 0.000000
vt 0.600307 0.960000
vt 0.585000 0.975307
vt 0.585000 0.960000
vt 0.625000 0.960000
vt 0.600691 0.975691
vt 0.585000 1.000000
vt 0.625000 0.983094
vt 0.599895 1.000000
vt 0.850307 0.710000
vt 0.835000 0.725307
vt 0.835000 0.710000
vt 0.875000 0.710000
vt 0.850691 0.725691
vt 0.835000 0.750000
vt 0.875000 0.733094
vt 0.849895 0.750000
vt 0.585000 0.024693
vt 0.600307 0.040000
vt 0.585000 0.040000
vt 0.585000 0.000000
vt 0.600691 0.024309
vt 0.625000 0.040000
vt 0.608094 0.000000
vt 0.625000 0.025105
vt 0.149693 0.540000
vt 0.165000 0.524693
vt 0.165000 0.540000
vt 0.125000 0.540000
vt 0.149309 0.524309
vt 0.165000 0.500000
vt 0.125000 0.516906
vt 0.150105 0.500000
vt 0.415000 0.225307
vt 0.399693 0.210000
vt 0.415000 0.210000
vt 0.415000 0.250000
vt 0.399309 0.225691
vt 0.375000 0.210000
vt 0.383453 0.258453
vt 0.375000 0.224895
vt 0.399693 0.290000
vt 0.415000 0.274693
vt 0.415000 0.290000
vt 0.375000 0.290000
vt 0.399309 0.274309
vt 0.400105 0.250000
vt 0.835000 0.524693
vt 0.850307 0.540000
vt 0.835000 0.540000
vt 0.835000 0.500000
vt 0.850691 0.524309
vt 0.875000 0.540000
vt 0.858094 0.500000
vt 0.875000 0.525105
vt 0.585000 0.274693
vt 0.600307 0.290000
vt 0.585000 0.290000
vt 0.585000 0.250000
vt 0.600691 0.274309
vt 0.625000 0.290000
vt 0.616547 0.241547
vt 0.625000 0.275105
vt 0.600307 0.210000
vt 0.585000 0.225307
vt 0.585000 0.210000
vt 0.625000 0.210000
vt 0.600691 0.225691
vt 0.599895 0.250000
vt 0.350307 0.710000
vt 0.335000 0.725307
vt 0.335000 0.710000
vt 0.375000 0.710000
vt 0.350691 0.725691
vt 0.355000 0.770000
vt 0.380635 0.750000
vt 0.362447 0.762553
vt 0.415000 0.725307
vt 0.399693 0.710000
vt 0.415000 0.710000
vt 0.415000 0.750000
vt 0.399309 0.725691
vt 0.375000 0.724895
vt 0.399693 0.790000
vt 0.415000 0.774693
vt 0.415000 0.790000
vt 0.399309 0.774309
vt 0.400105 0.750000
vt 0.665000 0.725307
vt 0.649693 0.710000
vt 0.665000 0.710000
vt 0.645000 0.770000
vt 0.649309 0.725691
vt 0.625000 0.710000
vt 0.625000 0.744365
vt 0.625000 0.724895
vt 0.585000 0.774693
vt 0.600307 0.790000
vt 0.585000 0.790000
vt 0.585000 0.750000
vt 0.600691 0.774309
vt 0.637553 0.762552
vt 0.600307 0.710000
vt 0.585000 0.725307
vt 0.585000 0.710000
vt 0.600691 0.725691
vt 0.599895 0.750000
vt 0.335000 0.524693
vt 0.350307 0.540000
vt 0.335000 0.540000
vt 0.355000 0.480000
vt 0.350691 0.524309
vt 0.375000 0.540000
vt 0.375000 0.505635
vt 0.375000 0.525105
vt 0.415000 0.475307
vt 0.399693 0.460000
vt 0.415000 0.460000
vt 0.415000 0.500000
vt 0.399309 0.475691
vt 0.362447 0.487447
vt 0.399693 0.540000
vt 0.415000 0.524693
vt 0.415000 0.540000
vt 0.399309 0.524309
vt 0.400105 0.500000
vt 0.649693 0.540000
vt 0.665000 0.524693
vt 0.665000 0.540000
vt 0.625000 0.540000
vt 0.649309 0.524309
vt 0.645000 0.480000
vt 0.619365 0.500000
vt 0.637553 0.487447
vt 0.585000 0.524693
vt 0.600307 0.540000
vt 0.585000 0.540000
vt 0.585000 0.500000
vt 0.600691 0.524309
vt 0.625000 0.525105
vt 0.600307 0.460000
vt 0.585000 0.475307
vt 0.585000 0.460000
vt 0.600691 0.475691
vt 0.599895 0.500000
vt 0.150105 0.750000
vt 0.400105 1.000000
vt 0.375000 0.025105
vt 0.625000 0.974895
vt 0.875000 0.724895
vt 0.599895 0.000000
vt 0.125000 0.525105
vt 0.375000 0.275105
vt 0.849895 0.500000
vt 0.625000 0.224895
s 1
usemtl Boost_Body
f 4/1/4 6/2/6 1/3/1
f 5/4/5 7/5/7 4/1/4
f 7/5/7 16/6/16 6/2/6
f 7/5/7 9/7/9 19/8/19
f 10/9/10 12/10/12 2/11/2
f 11/12/11 13/13/13 10/9/10
f 13/13/13 5/14/5 12/10/12
f 13/13/13 9/15/9 8/16/8
f 15/17/15 17/18/17 3/19/3
f 16/20/16 18/21/18 15/17/15
f 18/21/18 11/22/11 17/18/17
f 18/21/18 9/23/9 14/24/14
f 23/25/23 25/26/25 20/27/20
f 24/28/24 26/29/26 23/25/23
f 26/29/26 35/30/35 25/26/25
f 26/29/26 28/31/28 38/32/38
f 29/33/29 31/34/31 21/35/21
f 30/36/30 32/37/32 29/33/29
f 32/37/32 24/38/24 31/34/31
f 32/37/32 28/39/28 27/40/27
f 34/41/34 36/42/36 22/43/22
f 35/44/35 37/45/37 34/41/34
f 37/45/37 30/46/30 36/42/36
f 37/45/37 28/47/28 33/48/33
f 42/49/42 44/50/44 39/51/39
f 43/52/43 45/53/45 42/49/42
f 45/53/45 54/54/54 44/50/44
f 45/53/45 47/55/47 57/56/57
f 48/57/48 50/58/50 40/59/40
f 49/60/49 51/61/51 48/57/48
f 51/61/51 43/62/43 50/58/50
f 51/61/51 47/63/47 46/64/46
f 53/65/53 55/66/55 41/67/41
f 54/68/54 56/69/56 53/65/53
f 56/69/56 49/60/49 55/66/55
f 56/69/56 47/63/47 52/70/52
f 61/71/61 63/72/63 58/73/58
f 62/74/62 64/75/64 61/71/61
f 64/75/64 73/76/73 63/72/63
f 64/75/64 66/77/66 76/78/76
f 67/79/67 69/80/69 59/81/59
f 68/82/68 70/83/70 67/79/67
f 70/83/70 62/84/62 69/80/69
f 70/83/70 66/85/66 65/86/65
f 72/87/72 74/88/74 60/89/60
f 73/90/73 75/91/75 72/87/72
f 75/91/75 68/82/68 74/88/74
f 75/91/75 66/85/66 71/92/71
f 80/93/80 82/94/82 77/95/77
f 81/96/81 83/97/83 80/93/80
f 83/97/83 92/98/92 82/94/82
f 83/97/83 85/99/85 95/100/95
f 86/101/86 88/102/88 78/103/78
f 87/104/87 89/105/89 86/101/86
f 89/105/89 81/96/81 88/102/88
f 89/105/89 85/99/85 84/106/84
f 91/107/91 93/108/93 79/109/79
f 92/98/92 94/110/94 91/107/91
f 94/110/94 87/104/87 93/108/93
f 94/110/94 85/99/85 90/111/90
f 99/112/99 101/113/101 96/114/96
f 100/115/100 102/116/102 99/112/99
f 102/116/102 111/117/111 101/113/101
f 102/116/102 104/118/104 114/119/114
f 105/120/105 107/121/107 97/122/97
f 106/123/106 108/124/108 105/120/105
f 108/124/108 100/115/100 107/121/107
f 108/124/108 104/118/104 103/125/103
f 110/126/110 112/127/112 98/128/98
f 111/117/111 113/129/113 110/126/110
f 113/129/113 106/123/106 112/127/112
f 113/129/113 104/118/104 109/130/109
f 118/131/118 120/132/120 115/133/115
f 119/134/119 121/135/121 118/131/118
f 121/135/121 130/136/130 120/132/120
f 121/135/121 123/137/123 133/138/133
f 124/139/124 126/140/126 116/141/116
f 125/142/125 127/143/127 124/139/124
f 127/143/127 119/134/119 126/140/126
f 127/143/127 123/137/123 122/144/122
f 129/145/129 131/146/131 117/147/117
f 130/136/130 132/148/132 129/145/129
f 132/148/132 125/142/125 131/146/131
f 132/148/132 123/137/123 128/149/128
f 137/150/137 139/151/139 134/152/134
f 138/153/138 140/154/140 137/150/137
f 140/154/140 149/155/149 139/151/139
f 140/154/140 142/156/142 152/157/152
f 143/158/143 145/159/145 135/160/135
f 144/161/144 146/162/146 143/158/143
f 146/162/146 138/153/138 145/159/145
f 146/162/146 142/156/142 141/163/141
f 148/164/148 150/165/150 136/166/136
f 149/155/149 151/167/151 148/164/148
f 151/167/151 144/161/144 150/165/150
f 151/167/151 142/156/142 147/168/147
f 1/3/1 42/49/42 39/51/39
f 6/2/6 43/52/43 42/49/42
f 16/20/16 50/58/50 43/62/43
f 15/17/15 40/59/40 50/58/50
f 20/27/20 10/9/10 2/11/2
f 25/26/25 11/12/11 10/9/10
f 35/44/35 17/18/17 11/22/11
f 34/41/34 3/19/3 17/18/17
f 58/73/58 29/33/29 21/35/21
f 63/72/63 30/36/30 29/33/29
f 73/90/73 36/42/36 30/46/30
f 72/87/72 22/43/22 36/42/36
f 41/67/41 67/79/67 59/81/59
f 55/66/55 68/82/68 67/79/67
f 49/60/49 74/88/74 68/82/68
f 48/57/48 60/89/60 74/88/74
f 39/51/39 118/131/118 115/133/115
f 44/50/44 119/134/119 118/131/118
f 54/68/54 126/140/126 119/134/119
f 53/65/53 116/141/116 126/140/126
f 134/152/134 61/71/61 58/73/58
f 139/151/139 62/74/62 61/71/61
f 149/155/149 69/80/69 62/84/62
f 148/164/148 59/81/59 69/80/69
f 117/147/117 143/158/143 135/160/135
f 131/146/131 144/161/144 143/158/143
f 125/142/125 150/165/150 144/161/144
f 124/139/124 136/166/136 150/165/150
f 115/133/115 80/93/80 77/95/77
f 120/132/120 81/96/81 80/93/80
f 130/136/130 88/102/88 81/96/81
f 129/145/129 78/103/78 88/102/88
f 96/114/96 137/150/137 134/152/134
f 101/113/101 138/153/138 137/150/137
f 111/117/111 145/159/145 138/153/138
f 110/126/110 135/160/135 145/159/145
f 79/109/79 105/120/105 97/122/97
f 93/108/93 106/123/106 105/120/105
f 87/104/87 112/127/112 106/123/106
f 86/101/86 98/128/98 112/127/112
f 77/95/77 4/1/4 1/3/1
f 82/94/82 5/4/5 4/1/4
f 92/98/92 12/10/12 5/14/5
f 91/107/91 2/11/2 12/10/12
f 21/35/21 99/112/99 96/114/96
f 31/34/31 100/115/100 99/112/99
f 24/28/24 107/121/107 100/115/100
f 23/25/23 97/122/97 107/121/107
f 115/133/115 1/3/1 39/51/39
f 22/43/22 40/59/40 3/19/3
f 97/122/97 2/11/2 79/109/79
f 58/73/58 96/114/96 134/152/134
f 59/81/59 116/141/116 41/67/41
f 135/160/135 78/103/78 117/147/117
f 4/1/4 7/5/7 6/2/6
f 5/4/5 8/169/8 7/5/7
f 7/5/7 19/8/19 16/6/16
f 7/5/7 8/169/8 9/7/9
f 10/9/10 13/13/13 12/10/12
f 11/12/11 14/170/14 13/13/13
f 13/13/13 8/16/8 5/14/5
f 13/13/13 14/170/14 9/15/9
f 15/17/15 18/21/18 17/18/17
f 16/20/16 19/171/19 18/21/18
f 18/21/18 14/24/14 11/22/11
f 18/21/18 19/171/19 9/23/9
f 23/25/23 26/29/26 25/26/25
f 24/28/24 27/172/27 26/29/26
f 26/29/26 38/32/38 35/30/35
f 26/29/26 27/172/27 28/31/28
f 29/33/29 32/37/32 31/34/31
f 30/36/30 33/173/33 32/37/32
f 32/37/32 27/40/27 24/38/24
f 32/37/32 33/173/33 28/39/28
f 34/41/34 37/45/37 36/42/36
f 35/44/35 38/174/38 37/45/37
f 37/45/37 33/48/33 30/46/30
f 37/45/37 38/174/38 28/47/28
f 42/49/42 45/53/45 44/50/44
f 43/52/43 46/175/46 45/53/45
f 45/53/45 57/56/57 54/54/54
f 45/53/45 46/175/46 47/55/47
f 48/57/48 51/61/51 50/58/50
f 49/60/49 52/70/52 51/61/51
f 51/61/51 46/64/46 43/62/43
f 51/61/51 52/70/52 47/63/47
f 53/65/53 56/69/56 55/66/55
f 54/68/54 57/176/57 56/69/56
f 56/69/56 52/70/52 49/60/49
f 56/69/56 57/176/57 47/63/47
f 61/71/61 64/75/64 63/72/63
f 62/74/62 65/177/65 64/75/64
f 64/75/64 76/78/76 73/76/73
f 64/75/64 65/177/65 66/77/66
f 67/79/67 70/83/70 69/80/69
f 68/82/68 71/92/71 70/83/70
f 70/83/70 65/86/65 62/84/62
f 70/83/70 71/92/71 66/85/66
f 72/87/72 75/91/75 74/88/74
f 73/90/73 76/178/76 75/91/75
f 75/91/75 71/92/71 68/82/68
f 75/91/75 76/178/76 66/85/66
f 80/93/80 83/97/83 82/94/82
f 81/96/81 84/106/84 83/97/83
f 83/97/83 95/100/95 92/98/92
f 83/97/83 84/106/84 85/99/85
f 86/101/86 89/105/89 88/102/88
f 87/104/87 90/111/90 89/105/89
f 89/105/89 84/106/84 81/96/81
f 89/105/89 90/111/90 85/99/85
f 91/107/91 94/110/94 93/108/93
f 92/98/92 95/100/95 94/110/94
f 94/110/94 90/111/90 87/104/87
f 94/110/94 95/100/95 85/99/85
f 99/112/99 102/116/102 101/113/101
f 100/115/100 103/125/103 102/116/102
f 102/116/102 114/119/114 111/117/111
f 102/116/102 103/125/103 104/118/104
f 105/120/105 108/124/108 107/121/107
f 106/123/106 109/130/109 108/124/108
f 108/124/108 103/125/103 100/115/100
f 108/124/108 109/130/109 104/118/104
f 110/126/110 113/129/113 112/127/112
f 111/117/111 114/119/114 113/129/113
f 113/129/113 109/130/109 106/123/106
f 113/129/113 114/119/114 104/118/104
f 118/131/118 121/135/121 120/132/120
f 119/134/119 122/144/122 121/135/121
f 121/135/121 133/138/133 130/136/130
f 121/135/121 122/144/122 123/137/123
f 124/139/124 127/143/127 126/140/126
f 125/142/125 128/149/128 127/143/127
f 127/143/127 122/144/122 119/134/119
f 127/143/127 128/149/128 123/137/123
f 129/145/129 132/148/132 131/146/131
f 130/136/130 133/138/133 132/148/132
f 132/148/132 128/149/128 125/142/125
f 132/148/132 133/138/133 123/137/123
f 137/150/137 140/154/140 139/151/139
f 138/153/138 141/163/141 140/154/140
f 140/154/140 152/157/152 149/155/149
f 140/154/140 141/163/141 142/156/142
f 143/158/143 146/162/146 145/159/145
f 144/161/144 147/168/147 146/162/146
f 146/162/146 141/163/141 138/153/138
f 146/162/146 147/168/147 142/156/142
f 148/164/148 151/167/151 150/165/150
f 149/155/149 152/157/152 151/167/151
f 151/167/151 147/168/147 144/161/144
f 151/167/151 152/157/152 142/156/142
f 1/3/1 6/2/6 42/49/42
f 6/2/6 16/6/16 43/52/43
f 16/20/16 15/17/15 50/58/50
f 15/17/15 3/19/3 40/59/40
f 20/27/20 25/26/25 10/9/10
f 25/26/25 35/30/35 11/12/11
f 35/44/35 34/41/34 17/18/17
f 34/41/34 22/43/22 3/19/3
f 58/73/58 63/72/63 29/33/29
f 63/72/63 73/76/73 30/36/30
f 73/90/73 72/87/72 36/42/36
f 72/87/72 60/89/60 22/43/22
f 41/67/41 55/66/55 67/79/67
f 55/66/55 49/60/49 68/82/68
f 49/60/49 48/57/48 74/88/74
f 48/57/48 40/59/40 60/89/60
f 39/51/39 44/50/44 118/131/118
f 44/50/44 54/54/54 119/134/119
f 54/68/54 53/65/53 126/140/126
f 53/65/53 41/67/41 116/141/116
f 134/152/134 139/151/139 61/71/61
f 139/151/139 149/155/149 62/74/62
f 149/155/149 148/164/148 69/80/69
f 148/164/148 136/166/136 59/81/59
f 117/147/117 131/146/131 143/158/143
f 131/146/131 125/142/125 144/161/144
f 125/142/125 124/139/124 150/165/150
f 124/139/124 116/141/116 136/166/136
f 115/133/115 120/132/120 80/93/80
f 120/132/120 130/136/130 81/96/81
f 130/136/130 129/145/129 88/102/88
f 129/145/129 117/147/117 78/103/78
f 96/114/96 101/113/101 137/150/137
f 101/113/101 111/117/111 138/153/138
f 111/117/111 110/126/110 145/159/145
f 110/126/110 98/128/98 135/160/135
f 79/109/79 93/108/93 105/120/105
f 93/108/93 87/104/87 106/123/106
f 87/104/87 86/101/86 112/127/112
f 86/101/86 78/103/78 98/128/98
f 77/95/77 82/94/82 4/1/4
f 82/94/82 92/98/92 5/4/5
f 92/98/92 91/107/91 12/10/12
f 91/107/91 79/109/79 2/11/2
f 21/35/21 31/34/31 99/112/99
f 31/34/31 24/38/24 100/115/100
f 24/28/24 23/25/23 107/121/107
f 23/25/23 20/27/20 97/122/97
f 115/133/115 77/95/77 1/3/1
f 22/43/22 60/89/60 40/59/40
f 97/122/97 20/27/20 2/11/2
f 58/73/58 21/35/21 96/114/96
f 59/81/59 136/166/136 116/141/116
f 135/160/135 98/128/98 78/103/78
