# Blender 5.1.2
# www.blender.org
mtllib TableBevel.mtl
o TableBevel
v -0.400000 -0.500000 0.400000
v -0.400000 -0.400000 0.500000
v -0.500000 -0.400000 0.400000
v -0.400000 -0.486640 0.449934
v -0.449934 -0.486640 0.400000
v -0.447821 -0.473663 0.447821
v -0.449934 -0.400000 0.486640
v -0.400000 -0.449934 0.486640
v -0.447821 -0.447821 0.473663
v -0.486640 -0.449934 0.400000
v -0.486640 -0.400000 0.449934
v -0.473663 -0.447821 0.447821
v -0.400000 0.400000 0.500000
v -0.400000 0.500000 0.400000
v -0.500000 0.400000 0.400000
v -0.400000 0.449934 0.486640
v -0.449934 0.400000 0.486640
v -0.447821 0.447821 0.473663
v -0.449934 0.486640 0.400000
v -0.400000 0.486640 0.449934
v -0.447821 0.473663 0.447821
v -0.486640 0.400000 0.449934
v -0.486640 0.449934 0.400000
v -0.473663 0.447821 0.447821
v -0.400000 -0.500000 -0.400000
v -0.500000 -0.400000 -0.400000
v -0.400000 -0.400000 -0.500000
v -0.449934 -0.486640 -0.400000
v -0.400000 -0.486640 -0.449934
v -0.447821 -0.473663 -0.447821
v -0.486640 -0.400000 -0.449934
v -0.486640 -0.449934 -0.400000
v -0.473663 -0.447821 -0.447821
v -0.400000 -0.449934 -0.486640
v -0.449934 -0.400000 -0.486640
v -0.447821 -0.447821 -0.473663
v -0.400000 0.500000 -0.400000
v -0.400000 0.400000 -0.500000
v -0.500000 0.400000 -0.400000
v -0.400000 0.486640 -0.449934
v -0.449934 0.486640 -0.400000
v -0.447821 0.473663 -0.447821
v -0.449934 0.400000 -0.486640
v -0.400000 0.449934 -0.486640
v -0.447821 0.447821 -0.473663
v -0.486640 0.449934 -0.400000
v -0.486640 0.400000 -0.449934
v -0.473663 0.447821 -0.447821
v 0.400000 -0.500000 0.400000
v 0.500000 -0.400000 0.400000
v 0.400000 -0.400000 0.500000
v 0.449934 -0.486640 0.400000
v 0.400000 -0.486640 0.449934
v 0.447821 -0.473663 0.447821
v 0.486640 -0.400000 0.449934
v 0.486640 -0.449934 0.400000
v 0.473663 -0.447821 0.447821
v 0.400000 -0.449934 0.486640
v 0.449934 -0.400000 0.486640
v 0.447821 -0.447821 0.473663
v 0.400000 0.500000 0.400000
v 0.400000 0.400000 0.500000
v 0.500000 0.400000 0.400000
v 0.400000 0.486640 0.449934
v 0.449934 0.486640 0.400000
v 0.447821 0.473663 0.447821
v 0.449934 0.400000 0.486640
v 0.400000 0.449934 0.486640
v 0.447821 0.447821 0.473663
v 0.486640 0.449934 0.400000
v 0.486640 0.400000 0.449934
v 0.473663 0.447821 0.447821
v 0.400000 -0.500000 -0.400000
v 0.400000 -0.400000 -0.500000
v 0.500000 -0.400000 -0.400000
v 0.400000 -0.486640 -0.449934
v 0.449934 -0.486640 -0.400000
v 0.447821 -0.473663 -0.447821
v 0.449934 -0.400000 -0.486640
v 0.400000 -0.449934 -0.486640
v 0.447821 -0.447821 -0.473663
v 0.486640 -0.449934 -0.400000
v 0.486640 -0.400000 -0.449934
v 0.473663 -0.447821 -0.447821
v 0.400000 0.500000 -0.400000
v 0.500000 0.400000 -0.400000
v 0.400000 0.400000 -0.500000
v 0.449934 0.486640 -0.400000
v 0.400000 0.486640 -0.449934
v 0.447821 0.473663 -0.447821
v 0.486640 0.400000 -0.449934
v 0.486640 0.449934 -0.400000
v 0.473663 0.447821 -0.447821
v 0.400000 0.449934 -0.486640
v 0.449934 0.400000 -0.486640
v 0.447821 0.447821 -0.473663
vn -0.1280 -0.9835 0.1280
vn -0.1280 -0.1280 0.9835
vn -0.9835 -0.1280 0.1280
vn -0.1216 -0.8623 0.4916
vn -0.4916 -0.8623 0.1216
vn -0.4488 -0.7727 0.4488
vn -0.4916 -0.1216 0.8623
vn -0.1216 -0.4916 0.8623
vn -0.4488 -0.4488 0.7727
vn -0.8623 -0.4916 0.1216
vn -0.8623 -0.1216 0.4916
vn -0.7727 -0.4488 0.4488
vn -0.1280 0.1280 0.9835
vn -0.1280 0.9835 0.1280
vn -0.9835 0.1280 0.1280
vn -0.1216 0.4916 0.8623
vn -0.4916 0.1216 0.8623
vn -0.4488 0.4488 0.7727
vn -0.4916 0.8623 0.1216
vn -0.1216 0.8623 0.4916
vn -0.4488 0.7727 0.4488
vn -0.8623 0.1216 0.4916
vn -0.8623 0.4916 0.1216
vn -0.7727 0.4488 0.4488
vn -0.1280 -0.9835 -0.1280
vn -0.9835 -0.1280 -0.1280
vn -0.1280 -0.1280 -0.9835
vn -0.4916 -0.8623 -0.1216
vn -0.1216 -0.8623 -0.4916
vn -0.4488 -0.7727 -0.4488
vn -0.8623 -0.1216 -0.4916
vn -0.8623 -0.4916 -0.1216
vn -0.7727 -0.4488 -0.4488
vn -0.1216 -0.4916 -0.8623
vn -0.4916 -0.1216 -0.8623
vn -0.4488 -0.4488 -0.7727
vn -0.1280 0.9835 -0.1280
vn -0.1280 0.1280 -0.9835
vn -0.9835 0.1280 -0.1280
vn -0.1216 0.8623 -0.4916
vn -0.4916 0.8623 -0.1216
vn -0.4488 0.7727 -0.4488
vn -0.4916 0.1216 -0.8623
vn -0.1216 0.4916 -0.8623
vn -0.4488 0.4488 -0.7727
vn -0.8623 0.4916 -0.1216
vn -0.8623 0.1216 -0.4916
vn -0.7727 0.4488 -0.4488
vn 0.1280 -0.9835 0.1280
vn 0.9835 -0.1280 0.1280
vn 0.1280 -0.1280 0.9835
vn 0.4916 -0.8623 0.1216
vn 0.1216 -0.8623 0.4916
vn 0.4488 -0.7727 0.4488
vn 0.8623 -0.1216 0.4916
vn 0.8623 -0.4916 0.1216
vn 0.7727 -0.4488 0.4488
vn 0.1216 -0.4916 0.8623
vn 0.4916 -0.1216 0.8623
vn 0.4488 -0.4488 0.7727
vn 0.1280 0.9835 0.1280
vn 0.1280 0.1280 0.9835
vn 0.9835 0.1280 0.1280
vn 0.1216 0.8623 0.4916
vn 0.4916 0.8623 0.1216
vn 0.4488 0.7727 0.4488
vn 0.4916 0.1216 0.8623
vn 0.1216 0.4916 0.8623
vn 0.4488 0.4488 0.7727
vn 0.8623 0.4916 0.1216
vn 0.8623 0.1216 0.4916
vn 0.7727 0.4488 0.4488
vn 0.1280 -0.9835 -0.1280
vn 0.1280 -0.1280 -0.9835
vn 0.9835 -0.1280 -0.1280
vn 0.1216 -0.8623 -0.4916
vn 0.4916 -0.8623 -0.1216
vn 0.4488 -0.7727 -0.4488
vn 0.4916 -0.1216 -0.8623
vn 0.1216 -0.4916 -0.8623
vn 0.4488 -0.4488 -0.7727
vn 0.8623 -0.4916 -0.1216
vn 0.8623 -0.1216 -0.4916
vn 0.7727 -0.4488 -0.4488
vn 0.1280 0.9835 -0.1280
vn 0.9835 0.1280 -0.1280
vn 0.1280 0.1280 -0.9835
vn 0.4916 0.8623 -0.1216
vn 0.1216 0.8623 -0.4916
vn 0.4488 0.7727 -0.4488
vn 0.8623 0.1216 -0.4916
vn 0.8623 0.4916 -0.1216
vn 0.7727 0.4488 -0.4488
vn 0.1216 0.4916 -0.8623
vn 0.4916 0.1216 -0.8623
vn 0.4488 0.4488 -0.7727
vt 0.150000 0.737484
vt 0.137516 0.725000
vt 0.150000 0.725000
vt 0.150000 0.750000
vt 0.138045 0.736955
vt 0.400000 1.000000
vt 0.375000 0.975000
vt 0.400000 0.975000
vt 0.400000 0.012516
vt 0.375000 0.000000
vt 0.400000 0.000000
vt 0.375000 0.025000
vt 0.400000 0.025000
vt 0.125000 0.736955
vt 0.125000 0.725000
vt 0.138045 0.750000
vt 0.612484 0.975000
vt 0.600000 1.000000
vt 0.600000 0.975000
vt 0.625000 0.975000
vt 0.611955 1.000000
vt 0.875000 0.725000
vt 0.850000 0.750000
vt 0.850000 0.725000
vt 0.612484 0.025000
vt 0.625000 0.013045
vt 0.625000 0.025000
vt 0.600000 0.012516
vt 0.600000 0.025000
vt 0.600000 0.000000
vt 0.611955 0.013045
vt 0.611955 0.000000
vt 0.137516 0.525000
vt 0.150000 0.512516
vt 0.150000 0.525000
vt 0.125000 0.525000
vt 0.138045 0.513045
vt 0.400000 0.237484
vt 0.375000 0.225000
vt 0.400000 0.225000
vt 0.400000 0.262516
vt 0.375000 0.236955
vt 0.375000 0.275000
vt 0.400000 0.275000
vt 0.138045 0.500000
vt 0.150000 0.500000
vt 0.125000 0.513045
vt 0.850000 0.500000
vt 0.875000 0.525000
vt 0.850000 0.525000
vt 0.612484 0.275000
vt 0.625000 0.241304
vt 0.625000 0.275000
vt 0.600000 0.262516
vt 0.600000 0.275000
vt 0.600000 0.237484
vt 0.611955 0.258137
vt 0.612484 0.225000
vt 0.600000 0.225000
vt 0.625000 0.225000
vt 0.611955 0.236955
vt 0.362484 0.725000
vt 0.350000 0.737484
vt 0.350000 0.725000
vt 0.387516 0.725000
vt 0.361955 0.736955
vt 0.400000 0.737484
vt 0.400000 0.725000
vt 0.400000 0.762516
vt 0.383137 0.736955
vt 0.362500 0.762500
vt 0.400000 0.775000
vt 0.368478 0.756522
vt 0.637500 0.762500
vt 0.637516 0.725000
vt 0.650000 0.725000
vt 0.612484 0.775000
vt 0.631522 0.756522
vt 0.600000 0.762516
vt 0.600000 0.775000
vt 0.600000 0.737484
vt 0.611955 0.763045
vt 0.612484 0.725000
vt 0.600000 0.725000
vt 0.611955 0.741863
vt 0.350000 0.512516
vt 0.362484 0.525000
vt 0.350000 0.525000
vt 0.362500 0.487500
vt 0.361955 0.513045
vt 0.400000 0.487484
vt 0.400000 0.475000
vt 0.400000 0.512516
vt 0.368478 0.493478
vt 0.387516 0.525000
vt 0.400000 0.525000
vt 0.383137 0.513045
vt 0.637516 0.525000
vt 0.637500 0.487500
vt 0.650000 0.525000
vt 0.612484 0.525000
vt 0.631522 0.493478
vt 0.600000 0.512516
vt 0.600000 0.525000
vt 0.600000 0.487484
vt 0.611955 0.508137
vt 0.612484 0.475000
vt 0.600000 0.475000
vt 0.611955 0.486955
vt 0.375000 0.986955
vt 0.375000 0.013045
vt 0.625000 1.000000
vt 0.875000 0.736955
vt 0.375000 0.263045
vt 0.875000 0.513045
s 1
f 4/1/4 5/2/5 1/3/1
f 8/4/8 6/5/6 4/1/4
f 7/6/7 8/7/8 2/8/2
f 11/9/11 9/10/9 7/11/7
f 10/12/10 11/9/11 3/13/3
f 5/2/5 12/14/12 10/15/10
f 6/5/6 9/16/9 12/14/12
f 16/17/16 17/18/17 13/19/13
f 20/20/20 18/21/18 16/17/16
f 19/22/19 20/23/20 14/24/14
f 23/25/23 21/26/21 19/27/19
f 22/28/22 23/25/23 15/29/15
f 17/30/17 24/31/24 22/28/22
f 18/32/18 21/26/21 24/31/24
f 28/33/28 29/34/29 25/35/25
f 32/36/32 30/37/30 28/33/28
f 31/38/31 32/39/32 26/40/26
f 35/41/35 33/42/33 31/38/31
f 34/43/34 35/41/35 27/44/27
f 29/34/29 36/45/36 34/46/34
f 30/37/30 33/47/33 36/45/36
f 40/48/40 41/49/41 37/50/37
f 44/51/44 42/52/42 40/53/40
f 43/54/43 44/51/44 38/55/38
f 47/56/47 45/57/45 43/54/43
f 46/58/46 47/56/47 39/59/39
f 41/60/41 48/61/48 46/58/46
f 42/52/42 45/57/45 48/61/48
f 52/62/52 53/63/53 49/64/49
f 56/65/56 54/66/54 52/62/52
f 55/67/55 56/65/56 50/68/50
f 59/69/59 57/70/57 55/67/55
f 58/71/58 59/69/59 51/72/51
f 53/63/53 60/73/60 58/71/58
f 54/66/54 57/70/57 60/73/60
f 64/74/64 65/75/65 61/76/61
f 68/77/68 66/78/66 64/74/64
f 67/79/67 68/77/68 62/80/62
f 71/81/71 69/82/69 67/79/67
f 70/83/70 71/81/71 63/84/63
f 65/75/65 72/85/72 70/83/70
f 66/78/66 69/82/69 72/85/72
f 76/86/76 77/87/77 73/88/73
f 80/89/80 78/90/78 76/86/76
f 79/91/79 80/89/80 74/92/74
f 83/93/83 81/94/81 79/91/79
f 82/95/82 83/93/83 75/96/75
f 77/87/77 84/97/84 82/95/82
f 78/90/78 81/94/81 84/97/84
f 88/98/88 89/99/89 85/100/85
f 92/101/92 90/102/90 88/98/88
f 91/103/91 92/101/92 86/104/86
f 95/105/95 93/106/93 91/103/91
f 94/107/94 95/105/95 87/108/87
f 89/99/89 96/109/96 94/107/94
f 90/102/90 93/106/93 96/109/96
f 1/3/1 28/33/28 25/35/25
f 5/2/5 32/36/32 28/33/28
f 10/12/10 26/40/26 32/39/32
f 13/19/13 7/6/7 2/8/2
f 17/30/17 11/9/11 7/11/7
f 22/28/22 3/13/3 11/9/11
f 37/50/37 19/22/19 14/24/14
f 41/60/41 23/25/23 19/27/19
f 46/58/46 15/29/15 23/25/23
f 27/44/27 43/54/43 38/55/38
f 35/41/35 47/56/47 43/54/43
f 31/38/31 39/59/39 47/56/47
f 25/35/25 76/86/76 73/88/73
f 29/34/29 80/89/80 76/86/76
f 34/43/34 74/92/74 80/89/80
f 85/100/85 40/48/40 37/50/37
f 89/99/89 44/51/44 40/53/40
f 94/107/94 38/55/38 44/51/44
f 75/96/75 91/103/91 86/104/86
f 83/93/83 95/105/95 91/103/91
f 79/91/79 87/108/87 95/105/95
f 73/88/73 52/62/52 49/64/49
f 77/87/77 56/65/56 52/62/52
f 82/95/82 50/68/50 56/65/56
f 61/76/61 88/98/88 85/100/85
f 65/75/65 92/101/92 88/98/88
f 70/83/70 86/104/86 92/101/92
f 51/72/51 67/79/67 62/80/62
f 59/69/59 71/81/71 67/79/67
f 55/67/55 63/84/63 71/81/71
f 49/64/49 4/1/4 1/3/1
f 53/63/53 8/4/8 4/1/4
f 58/71/58 2/8/2 8/7/8
f 14/24/14 64/74/64 61/76/61
f 20/20/20 68/77/68 64/74/64
f 16/17/16 62/80/62 68/77/68
f 73/88/73 1/3/1 25/35/25
f 15/29/15 26/40/26 3/13/3
f 62/80/62 2/8/2 51/72/51
f 37/50/37 61/76/61 85/100/85
f 38/55/38 74/92/74 27/44/27
f 86/104/86 50/68/50 75/96/75
f 4/1/4 6/5/6 5/2/5
f 8/4/8 9/16/9 6/5/6
f 7/6/7 9/110/9 8/7/8
f 11/9/11 12/111/12 9/10/9
f 10/12/10 12/111/12 11/9/11
f 5/2/5 6/5/6 12/14/12
f 16/17/16 18/21/18 17/18/17
f 20/20/20 21/112/21 18/21/18
f 19/22/19 21/113/21 20/23/20
f 23/25/23 24/31/24 21/26/21
f 22/28/22 24/31/24 23/25/23
f 17/30/17 18/32/18 24/31/24
f 28/33/28 30/37/30 29/34/29
f 32/36/32 33/47/33 30/37/30
f 31/38/31 33/42/33 32/39/32
f 35/41/35 36/114/36 33/42/33
f 34/43/34 36/114/36 35/41/35
f 29/34/29 30/37/30 36/45/36
f 40/48/40 42/115/42 41/49/41
f 44/51/44 45/57/45 42/52/42
f 43/54/43 45/57/45 44/51/44
f 47/56/47 48/61/48 45/57/45
f 46/58/46 48/61/48 47/56/47
f 41/60/41 42/52/42 48/61/48
f 52/62/52 54/66/54 53/63/53
f 56/65/56 57/70/57 54/66/54
f 55/67/55 57/70/57 56/65/56
f 59/69/59 60/73/60 57/70/57
f 58/71/58 60/73/60 59/69/59
f 53/63/53 54/66/54 60/73/60
f 64/74/64 66/78/66 65/75/65
f 68/77/68 69/82/69 66/78/66
f 67/79/67 69/82/69 68/77/68
f 71/81/71 72/85/72 69/82/69
f 70/83/70 72/85/72 71/81/71
f 65/75/65 66/78/66 72/85/72
f 76/86/76 78/90/78 77/87/77
f 80/89/80 81/94/81 78/90/78
f 79/91/79 81/94/81 80/89/80
f 83/93/83 84/97/84 81/94/81
f 82/95/82 84/97/84 83/93/83
f 77/87/77 78/90/78 84/97/84
f 88/98/88 90/102/90 89/99/89
f 92/101/92 93/106/93 90/102/90
f 91/103/91 93/106/93 92/101/92
f 95/105/95 96/109/96 93/106/93
f 94/107/94 96/109/96 95/105/95
f 89/99/89 90/102/90 96/109/96
f 1/3/1 5/2/5 28/33/28
f 5/2/5 10/15/10 32/36/32
f 10/12/10 3/13/3 26/40/26
f 13/19/13 17/18/17 7/6/7
f 17/30/17 22/28/22 11/9/11
f 22/28/22 15/29/15 3/13/3
f 37/50/37 41/49/41 19/22/19
f 41/60/41 46/58/46 23/25/23
f 46/58/46 39/59/39 15/29/15
f 27/44/27 35/41/35 43/54/43
f 35/41/35 31/38/31 47/56/47
f 31/38/31 26/40/26 39/59/39
f 25/35/25 29/34/29 76/86/76
f 29/34/29 34/46/34 80/89/80
f 34/43/34 27/44/27 74/92/74
f 85/100/85 89/99/89 40/48/40
f 89/99/89 94/107/94 44/51/44
f 94/107/94 87/108/87 38/55/38
f 75/96/75 83/93/83 91/103/91
f 83/93/83 79/91/79 95/105/95
f 79/91/79 74/92/74 87/108/87
f 73/88/73 77/87/77 52/62/52
f 77/87/77 82/95/82 56/65/56
f 82/95/82 75/96/75 50/68/50
f 61/76/61 65/75/65 88/98/88
f 65/75/65 70/83/70 92/101/92
f 70/83/70 63/84/63 86/104/86
f 51/72/51 59/69/59 67/79/67
f 59/69/59 55/67/55 71/81/71
f 55/67/55 50/68/50 63/84/63
f 49/64/49 53/63/53 4/1/4
f 53/63/53 58/71/58 8/4/8
f 58/71/58 51/72/51 2/8/2
f 14/24/14 20/23/20 64/74/64
f 20/20/20 16/17/16 68/77/68
f 16/17/16 13/19/13 62/80/62
f 73/88/73 49/64/49 1/3/1
f 15/29/15 39/59/39 26/40/26
f 62/80/62 13/19/13 2/8/2
f 37/50/37 14/24/14 61/76/61
f 38/55/38 87/108/87 74/92/74
f 86/104/86 63/84/63 50/68/50
