# Blender 5.1.2
# www.blender.org
mtllib Teleporter.mtl
o Teleporter
v -0.000000 -1.000000 -0.399879
v 0.000000 -0.900000 -0.500000
v -0.000000 -0.992388 -0.438194
v -0.000000 -0.970711 -0.470675
v -0.000000 -0.938268 -0.492379
v 0.000000 1.000000 -0.399879
v 0.000000 0.900000 -0.500000
v 0.000000 0.992388 -0.438194
v 0.000000 0.970711 -0.470675
v 0.000000 0.938268 -0.492379
v 0.039195 -1.000000 -0.397954
v 0.049009 -0.900000 -0.497592
v 0.042950 -0.992388 -0.436084
v 0.046134 -0.970711 -0.468409
v 0.048262 -0.938268 -0.490008
v 0.039195 1.000000 -0.397954
v 0.049009 0.900000 -0.497592
v 0.042950 0.992388 -0.436084
v 0.046134 0.970711 -0.468409
v 0.048262 0.938268 -0.490008
v 0.078013 -1.000000 -0.392196
v 0.097545 -0.900000 -0.490393
v 0.085488 -0.992388 -0.429774
v 0.091824 -0.970711 -0.461631
v 0.096058 -0.938268 -0.482918
v 0.078013 1.000000 -0.392196
v 0.097545 0.900000 -0.490393
v 0.085488 0.992388 -0.429774
v 0.091824 0.970711 -0.461631
v 0.096058 0.938268 -0.482918
v 0.116079 -1.000000 -0.382661
v 0.145142 -0.900000 -0.478470
v 0.127201 -0.992388 -0.419325
v 0.136630 -0.970711 -0.450408
v 0.142930 -0.938268 -0.471177
v 0.116079 1.000000 -0.382661
v 0.145142 0.900000 -0.478470
v 0.127201 0.992388 -0.419325
v 0.136630 0.970711 -0.450408
v 0.142930 0.938268 -0.471177
v 0.153028 -1.000000 -0.369440
v 0.191342 -0.900000 -0.461940
v 0.167690 -0.992388 -0.404838
v 0.180120 -0.970711 -0.434847
v 0.188425 -0.938268 -0.454899
v 0.153028 1.000000 -0.369440
v 0.191342 0.900000 -0.461940
v 0.167690 0.992388 -0.404838
v 0.180120 0.970711 -0.434847
v 0.188425 0.938268 -0.454899
v 0.188502 -1.000000 -0.352662
v 0.235698 -0.900000 -0.440961
v 0.206563 -0.992388 -0.386452
v 0.221875 -0.970711 -0.415099
v 0.232106 -0.938268 -0.434239
v 0.188502 1.000000 -0.352662
v 0.235698 0.900000 -0.440961
v 0.206563 0.992388 -0.386452
v 0.221875 0.970711 -0.415099
v 0.232106 0.938268 -0.434239
v 0.222161 -1.000000 -0.332488
v 0.277785 -0.900000 -0.415735
v 0.243447 -0.992388 -0.364345
v 0.261493 -0.970711 -0.391352
v 0.273551 -0.938268 -0.409398
v 0.222161 1.000000 -0.332488
v 0.277785 0.900000 -0.415735
v 0.243447 0.992388 -0.364345
v 0.261493 0.970711 -0.391352
v 0.273551 0.938268 -0.409398
v 0.253681 -1.000000 -0.309111
v 0.317197 -0.900000 -0.386505
v 0.277987 -0.992388 -0.338728
v 0.298593 -0.970711 -0.363837
v 0.312362 -0.938268 -0.380614
v 0.253681 1.000000 -0.309111
v 0.317197 0.900000 -0.386505
v 0.277987 0.992388 -0.338728
v 0.298593 0.970711 -0.363837
v 0.312362 0.938268 -0.380614
v 0.282757 -1.000000 -0.282757
v 0.353553 -0.900000 -0.353553
v 0.309850 -0.992388 -0.309850
v 0.332818 -0.970711 -0.332818
v 0.348164 -0.938268 -0.348164
v 0.282757 1.000000 -0.282757
v 0.353553 0.900000 -0.353553
v 0.309850 0.992388 -0.309850
v 0.332818 0.970711 -0.332818
v 0.348164 0.938268 -0.348164
v 0.309111 -1.000000 -0.253681
v 0.386505 -0.900000 -0.317197
v 0.338728 -0.992388 -0.277987
v 0.363837 -0.970711 -0.298593
v 0.380614 -0.938268 -0.312362
v 0.309111 1.000000 -0.253681
v 0.386505 0.900000 -0.317197
v 0.338728 0.992388 -0.277987
v 0.363837 0.970711 -0.298593
v 0.380614 0.938268 -0.312362
v 0.332488 -1.000000 -0.222161
v 0.415735 -0.900000 -0.277785
v 0.364345 -0.992388 -0.243447
v 0.391352 -0.970711 -0.261493
v 0.409398 -0.938268 -0.273551
v 0.332488 1.000000 -0.222161
v 0.415735 0.900000 -0.277785
v 0.364345 0.992388 -0.243447
v 0.391352 0.970711 -0.261493
v 0.409398 0.938268 -0.273551
v 0.352662 -1.000000 -0.188502
v 0.440961 -0.900000 -0.235698
v 0.386452 -0.992388 -0.206563
v 0.415099 -0.970711 -0.221875
v 0.434239 -0.938268 -0.232106
v 0.352662 1.000000 -0.188502
v 0.440961 0.900000 -0.235698
v 0.386452 0.992388 -0.206563
v 0.415099 0.970711 -0.221875
v 0.434239 0.938268 -0.232106
v 0.369440 -1.000000 -0.153028
v 0.461940 -0.900000 -0.191342
v 0.404838 -0.992388 -0.167690
v 0.434847 -0.970711 -0.180120
v 0.454899 -0.938268 -0.188425
v 0.369440 1.000000 -0.153028
v 0.461940 0.900000 -0.191342
v 0.404838 0.992388 -0.167690
v 0.434847 0.970711 -0.180120
v 0.454899 0.938268 -0.188425
v 0.382661 -1.000000 -0.116079
v 0.478470 -0.900000 -0.145142
v 0.419325 -0.992388 -0.127201
v 0.450408 -0.970711 -0.136630
v 0.471177 -0.938268 -0.142930
v 0.382661 1.000000 -0.116079
v 0.478470 0.900000 -0.145142
v 0.419325 0.992388 -0.127201
v 0.450408 0.970711 -0.136630
v 0.471177 0.938268 -0.142930
v 0.392196 -1.000000 -0.078013
v 0.490393 -0.900000 -0.097545
v 0.429774 -0.992388 -0.085488
v 0.461631 -0.970711 -0.091824
v 0.482918 -0.938268 -0.096058
v 0.392196 1.000000 -0.078013
v 0.490393 0.900000 -0.097545
v 0.429774 0.992388 -0.085488
v 0.461631 0.970711 -0.091824
v 0.482918 0.938268 -0.096058
v 0.397954 -1.000000 -0.039195
v 0.497592 -0.900000 -0.049009
v 0.436084 -0.992388 -0.042950
v 0.468409 -0.970711 -0.046134
v 0.490008 -0.938268 -0.048262
v 0.397954 1.000000 -0.039195
v 0.497592 0.900000 -0.049009
v 0.436084 0.992388 -0.042950
v 0.468409 0.970711 -0.046134
v 0.490008 0.938268 -0.048262
v 0.399879 -1.000000 -0.000000
v 0.500000 -0.900000 0.000000
v 0.438194 -0.992388 -0.000000
v 0.470675 -0.970711 -0.000000
v 0.492379 -0.938268 -0.000000
v 0.399879 1.000000 0.000000
v 0.500000 0.900000 0.000000
v 0.438194 0.992388 0.000000
v 0.470675 0.970711 0.000000
v 0.492379 0.938268 0.000000
v 0.397954 -1.000000 0.039195
v 0.497592 -0.900000 0.049009
v 0.436084 -0.992388 0.042950
v 0.468409 -0.970711 0.046134
v 0.490008 -0.938268 0.048262
v 0.397954 1.000000 0.039195
v 0.497592 0.900000 0.049009
v 0.436084 0.992388 0.042950
v 0.468409 0.970711 0.046134
v 0.490008 0.938268 0.048262
v 0.392196 -1.000000 0.078013
v 0.490393 -0.900000 0.097545
v 0.429774 -0.992388 0.085488
v 0.461631 -0.970711 0.091824
v 0.482918 -0.938268 0.096058
v 0.392196 1.000000 0.078013
v 0.490393 0.900000 0.097545
v 0.429774 0.992388 0.085488
v 0.461631 0.970711 0.091824
v 0.482918 0.938268 0.096058
v 0.382661 -1.000000 0.116079
v 0.478470 -0.900000 0.145142
v 0.419325 -0.992388 0.127201
v 0.450408 -0.970711 0.136630
v 0.471177 -0.938268 0.142930
v 0.382661 1.000000 0.116079
v 0.478470 0.900000 0.145142
v 0.419325 0.992388 0.127201
v 0.450408 0.970711 0.136630
v 0.471177 0.938268 0.142930
v 0.369440 -1.000000 0.153028
v 0.461940 -0.900000 0.191342
v 0.404838 -0.992388 0.167690
v 0.434847 -0.970711 0.180120
v 0.454899 -0.938268 0.188425
v 0.369440 1.000000 0.153028
v 0.461940 0.900000 0.191342
v 0.404838 0.992388 0.167690
v 0.434847 0.970711 0.180120
v 0.454899 0.938268 0.188425
v 0.352662 -1.000000 0.188502
v 0.440961 -0.900000 0.235698
v 0.386452 -0.992388 0.206563
v 0.415099 -0.970711 0.221875
v 0.434239 -0.938268 0.232106
v 0.352662 1.000000 0.188502
v 0.440961 0.900000 0.235698
v 0.386452 0.992388 0.206563
v 0.415099 0.970711 0.221875
v 0.434239 0.938268 0.232106
v 0.332488 -1.000000 0.222161
v 0.415735 -0.900000 0.277785
v 0.364345 -0.992388 0.243447
v 0.391352 -0.970711 0.261493
v 0.409398 -0.938268 0.273551
v 0.332488 1.000000 0.222161
v 0.415735 0.900000 0.277785
v 0.364345 0.992388 0.243447
v 0.391352 0.970711 0.261493
v 0.409398 0.938268 0.273551
v 0.309111 -1.000000 0.253681
v 0.386505 -0.900000 0.317197
v 0.338728 -0.992388 0.277987
v 0.363837 -0.970711 0.298593
v 0.380614 -0.938268 0.312362
v 0.309111 1.000000 0.253681
v 0.386505 0.900000 0.317197
v 0.338728 0.992388 0.277987
v 0.363837 0.970711 0.298593
v 0.380614 0.938268 0.312362
v 0.282757 -1.000000 0.282757
v 0.353553 -0.900000 0.353553
v 0.309850 -0.992388 0.309850
v 0.332818 -0.970711 0.332818
v 0.348164 -0.938268 0.348164
v 0.282757 1.000000 0.282757
v 0.353553 0.900000 0.353553
v 0.309850 0.992388 0.309850
v 0.332818 0.970711 0.332818
v 0.348164 0.938268 0.348164
v 0.253681 -1.000000 0.309111
v 0.317197 -0.900000 0.386505
v 0.277987 -0.992388 0.338728
v 0.298593 -0.970711 0.363837
v 0.312362 -0.938268 0.380614
v 0.253681 1.000000 0.309111
v 0.317197 0.900000 0.386505
v 0.277987 0.992388 0.338728
v 0.298593 0.970711 0.363837
v 0.312362 0.938268 0.380614
v 0.222161 -1.000000 0.332488
v 0.277785 -0.900000 0.415735
v 0.243447 -0.992388 0.364345
v 0.261493 -0.970711 0.391352
v 0.273551 -0.938268 0.409398
v 0.222161 1.000000 0.332488
v 0.277785 0.900000 0.415735
v 0.243447 0.992388 0.364345
v 0.261493 0.970711 0.391352
v 0.273551 0.938268 0.409398
v 0.188502 -1.000000 0.352662
v 0.235698 -0.900000 0.440961
v 0.206563 -0.992388 0.386452
v 0.221875 -0.970711 0.415099
v 0.232106 -0.938268 0.434239
v 0.188502 1.000000 0.352662
v 0.235698 0.900000 0.440961
v 0.206563 0.992388 0.386452
v 0.221875 0.970711 0.415099
v 0.232106 0.938268 0.434239
v 0.153028 -1.000000 0.369440
v 0.191342 -0.900000 0.461940
v 0.167690 -0.992388 0.404838
v 0.180120 -0.970711 0.434847
v 0.188425 -0.938268 0.454899
v 0.153028 1.000000 0.369440
v 0.191342 0.900000 0.461940
v 0.167690 0.992388 0.404838
v 0.180120 0.970711 0.434847
v 0.188425 0.938268 0.454899
v 0.116079 -1.000000 0.382661
v 0.145142 -0.900000 0.478470
v 0.127201 -0.992388 0.419325
v 0.136630 -0.970711 0.450408
v 0.142930 -0.938268 0.471177
v 0.116079 1.000000 0.382661
v 0.145142 0.900000 0.478470
v 0.127201 0.992388 0.419325
v 0.136630 0.970711 0.450408
v 0.142930 0.938268 0.471177
v 0.078013 -1.000000 0.392196
v 0.097545 -0.900000 0.490393
v 0.085488 -0.992388 0.429774
v 0.091824 -0.970711 0.461631
v 0.096058 -0.938268 0.482918
v 0.078013 1.000000 0.392196
v 0.097545 0.900000 0.490393
v 0.085488 0.992388 0.429774
v 0.091824 0.970711 0.461631
v 0.096058 0.938268 0.482918
v 0.039195 -1.000000 0.397954
v 0.049009 -0.900000 0.497592
v 0.042950 -0.992388 0.436084
v 0.046134 -0.970711 0.468409
v 0.048262 -0.938268 0.490008
v 0.039195 1.000000 0.397954
v 0.049009 0.900000 0.497592
v 0.042950 0.992388 0.436084
v 0.046134 0.970711 0.468409
v 0.048262 0.938268 0.490008
v 0.000000 -1.000000 0.399879
v 0.000000 -0.900000 0.500000
v 0.000000 -0.992388 0.438194
v 0.000000 -0.970711 0.470675
v 0.000000 -0.938268 0.492379
v -0.000000 1.000000 0.399879
v 0.000000 0.900000 0.500000
v -0.000000 0.992388 0.438194
v -0.000000 0.970711 0.470675
v -0.000000 0.938268 0.492379
v -0.039195 -1.000000 0.397954
v -0.049009 -0.900000 0.497592
v -0.042950 -0.992388 0.436084
v -0.046134 -0.970711 0.468409
v -0.048262 -0.938268 0.490008
v -0.039195 1.000000 0.397954
v -0.049009 0.900000 0.497592
v -0.042950 0.992388 0.436084
v -0.046134 0.970711 0.468409
v -0.048262 0.938268 0.490008
v -0.078013 -1.000000 0.392196
v -0.097545 -0.900000 0.490393
v -0.085488 -0.992388 0.429774
v -0.091824 -0.970711 0.461631
v -0.096058 -0.938268 0.482918
v -0.078013 1.000000 0.392196
v -0.097545 0.900000 0.490393
v -0.085488 0.992388 0.429774
v -0.091824 0.970711 0.461631
v -0.096058 0.938268 0.482918
v -0.116079 -1.000000 0.382661
v -0.145142 -0.900000 0.478470
v -0.127201 -0.992388 0.419325
v -0.136630 -0.970711 0.450408
v -0.142930 -0.938268 0.471177
v -0.116079 1.000000 0.382661
v -0.145142 0.900000 0.478470
v -0.127201 0.992388 0.419325
v -0.136630 0.970711 0.450408
v -0.142930 0.938268 0.471177
v -0.153028 -1.000000 0.369440
v -0.191342 -0.900000 0.461940
v -0.167690 -0.992388 0.404838
v -0.180120 -0.970711 0.434847
v -0.188425 -0.938268 0.454899
v -0.153028 1.000000 0.369440
v -0.191342 0.900000 0.461940
v -0.167690 0.992388 0.404838
v -0.180120 0.970711 0.434847
v -0.188425 0.938268 0.454899
v -0.188502 -1.000000 0.352662
v -0.235698 -0.900000 0.440961
v -0.206563 -0.992388 0.386452
v -0.221875 -0.970711 0.415099
v -0.232106 -0.938268 0.434239
v -0.188502 1.000000 0.352662
v -0.235698 0.900000 0.440961
v -0.206563 0.992388 0.386452
v -0.221875 0.970711 0.415099
v -0.232106 0.938268 0.434239
v -0.222161 -1.000000 0.332488
v -0.277785 -0.900000 0.415735
v -0.243447 -0.992388 0.364345
v -0.261493 -0.970711 0.391352
v -0.273551 -0.938268 0.409398
v -0.222161 1.000000 0.332488
v -0.277785 0.900000 0.415735
v -0.243447 0.992388 0.364345
v -0.261493 0.970711 0.391352
v -0.273551 0.938268 0.409398
v -0.253681 -1.000000 0.309111
v -0.317197 -0.900000 0.386505
v -0.277987 -0.992388 0.338728
v -0.298593 -0.970711 0.363837
v -0.312362 -0.938268 0.380614
v -0.253681 1.000000 0.309111
v -0.317197 0.900000 0.386505
v -0.277987 0.992388 0.338728
v -0.298593 0.970711 0.363837
v -0.312362 0.938268 0.380614
v -0.282757 -1.000000 0.282757
v -0.353553 -0.900000 0.353553
v -0.309850 -0.992388 0.309850
v -0.332818 -0.970711 0.332818
v -0.348164 -0.938268 0.348164
v -0.282757 1.000000 0.282757
v -0.353553 0.900000 0.353553
v -0.309850 0.992388 0.309850
v -0.332818 0.970711 0.332818
v -0.348164 0.938268 0.348164
v -0.309111 -1.000000 0.253681
v -0.386505 -0.900000 0.317197
v -0.338728 -0.992388 0.277987
v -0.363837 -0.970711 0.298593
v -0.380614 -0.938268 0.312362
v -0.309111 1.000000 0.253681
v -0.386505 0.900000 0.317197
v -0.338728 0.992388 0.277987
v -0.363837 0.970711 0.298593
v -0.380614 0.938268 0.312362
v -0.332488 -1.000000 0.222161
v -0.415735 -0.900000 0.277785
v -0.364345 -0.992388 0.243447
v -0.391352 -0.970711 0.261493
v -0.409398 -0.938268 0.273551
v -0.332488 1.000000 0.222161
v -0.415735 0.900000 0.277785
v -0.364345 0.992388 0.243447
v -0.391352 0.970711 0.261493
v -0.409398 0.938268 0.273551
v -0.352662 -1.000000 0.188502
v -0.440961 -0.900000 0.235698
v -0.386452 -0.992388 0.206563
v -0.415099 -0.970711 0.221875
v -0.434239 -0.938268 0.232106
v -0.352662 1.000000 0.188502
v -0.440961 0.900000 0.235698
v -0.386452 0.992388 0.206563
v -0.415099 0.970711 0.221875
v -0.434239 0.938268 0.232106
v -0.369440 -1.000000 0.153028
v -0.461940 -0.900000 0.191342
v -0.404838 -0.992388 0.167690
v -0.434847 -0.970711 0.180120
v -0.454899 -0.938268 0.188425
v -0.369440 1.000000 0.153028
v -0.461940 0.900000 0.191342
v -0.404838 0.992388 0.167690
v -0.434847 0.970711 0.180120
v -0.454899 0.938268 0.188425
v -0.382661 -1.000000 0.116079
v -0.478470 -0.900000 0.145142
v -0.419325 -0.992388 0.127201
v -0.450408 -0.970711 0.136630
v -0.471177 -0.938268 0.142930
v -0.382661 1.000000 0.116079
v -0.478470 0.900000 0.145142
v -0.419325 0.992388 0.127201
v -0.450408 0.970711 0.136630
v -0.471177 0.938268 0.142930
v -0.392196 -1.000000 0.078013
v -0.490393 -0.900000 0.097545
v -0.429774 -0.992388 0.085488
v -0.461631 -0.970711 0.091824
v -0.482918 -0.938268 0.096058
v -0.392196 1.000000 0.078013
v -0.490393 0.900000 0.097545
v -0.429774 0.992388 0.085488
v -0.461631 0.970711 0.091824
v -0.482918 0.938268 0.096058
v -0.397954 -1.000000 0.039195
v -0.497592 -0.900000 0.049009
v -0.436084 -0.992388 0.042950
v -0.468409 -0.970711 0.046134
v -0.490008 -0.938268 0.048262
v -0.397954 1.000000 0.039195
v -0.497592 0.900000 0.049009
v -0.436084 0.992388 0.042950
v -0.468409 0.970711 0.046134
v -0.490008 0.938268 0.048262
v -0.399879 -1.000000 0.000000
v -0.500000 -0.900000 0.000000
v -0.438194 -0.992388 0.000000
v -0.470675 -0.970711 0.000000
v -0.492379 -0.938268 0.000000
v -0.399879 1.000000 -0.000000
v -0.500000 0.900000 0.000000
v -0.438194 0.992388 -0.000000
v -0.470675 0.970711 -0.000000
v -0.492379 0.938268 -0.000000
v -0.397954 -1.000000 -0.039195
v -0.497592 -0.900000 -0.049009
v -0.436084 -0.992388 -0.042950
v -0.468409 -0.970711 -0.046134
v -0.490008 -0.938268 -0.048262
v -0.397954 1.000000 -0.039195
v -0.497592 0.900000 -0.049009
v -0.436084 0.992388 -0.042950
v -0.468409 0.970711 -0.046134
v -0.490008 0.938268 -0.048262
v -0.392196 -1.000000 -0.078013
v -0.490393 -0.900000 -0.097545
v -0.429774 -0.992388 -0.085488
v -0.461631 -0.970711 -0.091824
v -0.482918 -0.938268 -0.096058
v -0.392196 1.000000 -0.078013
v -0.490393 0.900000 -0.097545
v -0.429774 0.992388 -0.085488
v -0.461631 0.970711 -0.091824
v -0.482918 0.938268 -0.096058
v -0.382661 -1.000000 -0.116079
v -0.478470 -0.900000 -0.145142
v -0.419325 -0.992388 -0.127201
v -0.450408 -0.970711 -0.136630
v -0.471177 -0.938268 -0.142930
v -0.382661 1.000000 -0.116079
v -0.478470 0.900000 -0.145142
v -0.419325 0.992388 -0.127201
v -0.450408 0.970711 -0.136630
v -0.471177 0.938268 -0.142930
v -0.369440 -1.000000 -0.153028
v -0.461940 -0.900000 -0.191342
v -0.404838 -0.992388 -0.167690
v -0.434847 -0.970711 -0.180120
v -0.454899 -0.938268 -0.188425
v -0.369440 1.000000 -0.153028
v -0.461940 0.900000 -0.191342
v -0.404838 0.992388 -0.167690
v -0.434847 0.970711 -0.180120
v -0.454899 0.938268 -0.188425
v -0.352662 -1.000000 -0.188502
v -0.440961 -0.900000 -0.235698
v -0.386452 -0.992388 -0.206563
v -0.415099 -0.970711 -0.221875
v -0.434239 -0.938268 -0.232106
v -0.352662 1.000000 -0.188502
v -0.440961 0.900000 -0.235698
v -0.386452 0.992388 -0.206563
v -0.415099 0.970711 -0.221875
v -0.434239 0.938268 -0.232106
v -0.332488 -1.000000 -0.222161
v -0.415735 -0.900000 -0.277785
v -0.364345 -0.992388 -0.243447
v -0.391352 -0.970711 -0.261493
v -0.409398 -0.938268 -0.273551
v -0.332488 1.000000 -0.222161
v -0.415735 0.900000 -0.277785
v -0.364345 0.992388 -0.243447
v -0.391352 0.970711 -0.261493
v -0.409398 0.938268 -0.273551
v -0.309111 -1.000000 -0.253681
v -0.386505 -0.900000 -0.317197
v -0.338728 -0.992388 -0.277987
v -0.363837 -0.970711 -0.298593
v -0.380614 -0.938268 -0.312362
v -0.309111 1.000000 -0.253681
v -0.386505 0.900000 -0.317197
v -0.338728 0.992388 -0.277987
v -0.363837 0.970711 -0.298593
v -0.380614 0.938268 -0.312362
v -0.282757 -1.000000 -0.282757
v -0.353553 -0.900000 -0.353553
v -0.309850 -0.992388 -0.309850
v -0.332818 -0.970711 -0.332818
v -0.348164 -0.938268 -0.348164
v -0.282757 1.000000 -0.282757
v -0.353553 0.900000 -0.353553
v -0.309850 0.992388 -0.309850
v -0.332818 0.970711 -0.332818
v -0.348164 0.938268 -0.348164
v -0.253681 -1.000000 -0.309111
v -0.317197 -0.900000 -0.386505
v -0.277987 -0.992388 -0.338728
v -0.298593 -0.970711 -0.363837
v -0.312362 -0.938268 -0.380614
v -0.253681 1.000000 -0.309111
v -0.317197 0.900000 -0.386505
v -0.277987 0.992388 -0.338728
v -0.298593 0.970711 -0.363837
v -0.312362 0.938268 -0.380614
v -0.222161 -1.000000 -0.332488
v -0.277785 -0.900000 -0.415735
v -0.243447 -0.992388 -0.364345
v -0.261493 -0.970711 -0.391352
v -0.273551 -0.938268 -0.409398
v -0.222161 1.000000 -0.332488
v -0.277785 0.900000 -0.415735
v -0.243447 0.992388 -0.364345
v -0.261493 0.970711 -0.391352
v -0.273551 0.938268 -0.409398
v -0.188502 -1.000000 -0.352662
v -0.235698 -0.900000 -0.440961
v -0.206563 -0.992388 -0.386452
v -0.221875 -0.970711 -0.415099
v -0.232106 -0.938268 -0.434239
v -0.188502 1.000000 -0.352662
v -0.235698 0.900000 -0.440961
v -0.206563 0.992388 -0.386452
v -0.221875 0.970711 -0.415099
v -0.232106 0.938268 -0.434239
v -0.153028 -1.000000 -0.369440
v -0.191342 -0.900000 -0.461940
v -0.167690 -0.992388 -0.404838
v -0.180120 -0.970711 -0.434847
v -0.188425 -0.938268 -0.454899
v -0.153028 1.000000 -0.369440
v -0.191342 0.900000 -0.461940
v -0.167690 0.992388 -0.404838
v -0.180120 0.970711 -0.434847
v -0.188425 0.938268 -0.454899
v -0.116079 -1.000000 -0.382661
v -0.145142 -0.900000 -0.478470
v -0.127201 -0.992388 -0.419325
v -0.136630 -0.970711 -0.450408
v -0.142930 -0.938268 -0.471177
v -0.116079 1.000000 -0.382661
v -0.145142 0.900000 -0.478470
v -0.127201 0.992388 -0.419325
v -0.136630 0.970711 -0.450408
v -0.142930 0.938268 -0.471177
v -0.078013 -1.000000 -0.392196
v -0.097545 -0.900000 -0.490393
v -0.085488 -0.992388 -0.429774
v -0.091824 -0.970711 -0.461631
v -0.096058 -0.938268 -0.482918
v -0.078013 1.000000 -0.392196
v -0.097545 0.900000 -0.490393
v -0.085488 0.992388 -0.429774
v -0.091824 0.970711 -0.461631
v -0.096058 0.938268 -0.482918
v -0.039195 -1.000000 -0.397954
v -0.049009 -0.900000 -0.497592
v -0.042950 -0.992388 -0.436084
v -0.046134 -0.970711 -0.468409
v -0.048262 -0.938268 -0.490008
v -0.039195 1.000000 -0.397954
v -0.049009 0.900000 -0.497592
v -0.042950 0.992388 -0.436084
v -0.046134 0.970711 -0.468409
v -0.048262 0.938268 -0.490008
vn -0.0000 -0.9949 -0.1009
vn -0.0000 -0.0978 -0.9952
vn -0.0000 -0.9219 -0.3875
vn -0.0000 -0.7045 -0.7097
vn -0.0000 -0.3809 -0.9246
vn -0.0000 0.9949 -0.1009
vn -0.0000 0.0978 -0.9952
vn -0.0000 0.9219 -0.3875
vn -0.0000 0.7045 -0.7097
vn -0.0000 0.3809 -0.9246
vn 0.0099 -0.9949 -0.1004
vn 0.0975 -0.0978 -0.9904
vn 0.0380 -0.9219 -0.3856
vn 0.0696 -0.7045 -0.7063
vn 0.0906 -0.3809 -0.9202
vn 0.0099 0.9949 -0.1004
vn 0.0975 0.0978 -0.9904
vn 0.0380 0.9219 -0.3856
vn 0.0696 0.7045 -0.7063
vn 0.0906 0.3809 -0.9202
vn 0.0197 -0.9949 -0.0990
vn 0.1942 -0.0978 -0.9761
vn 0.0756 -0.9219 -0.3801
vn 0.1385 -0.7045 -0.6961
vn 0.1804 -0.3809 -0.9068
vn 0.0197 0.9949 -0.0990
vn 0.1942 0.0978 -0.9761
vn 0.0756 0.9219 -0.3801
vn 0.1385 0.7045 -0.6961
vn 0.1804 0.3809 -0.9068
vn 0.0293 -0.9949 -0.0966
vn 0.2889 -0.0978 -0.9523
vn 0.1125 -0.9219 -0.3708
vn 0.2060 -0.7045 -0.6792
vn 0.2684 -0.3809 -0.8848
vn 0.0293 0.9949 -0.0966
vn 0.2889 0.0978 -0.9523
vn 0.1125 0.9219 -0.3708
vn 0.2060 0.7045 -0.6792
vn 0.2684 0.3809 -0.8848
vn 0.0386 -0.9949 -0.0932
vn 0.3808 -0.0978 -0.9194
vn 0.1483 -0.9219 -0.3580
vn 0.2716 -0.7045 -0.6557
vn 0.3538 -0.3809 -0.8542
vn 0.0386 0.9949 -0.0932
vn 0.3808 0.0978 -0.9194
vn 0.1483 0.9219 -0.3580
vn 0.2716 0.7045 -0.6557
vn 0.3538 0.3809 -0.8542
vn 0.0476 -0.9949 -0.0890
vn 0.4691 -0.0978 -0.8777
vn 0.1827 -0.9219 -0.3417
vn 0.3346 -0.7045 -0.6259
vn 0.4359 -0.3809 -0.8154
vn 0.0476 0.9949 -0.0890
vn 0.4691 0.0978 -0.8777
vn 0.1827 0.9219 -0.3417
vn 0.3346 0.7045 -0.6259
vn 0.4359 0.3809 -0.8154
vn 0.0561 -0.9949 -0.0839
vn 0.5529 -0.0978 -0.8275
vn 0.2153 -0.9219 -0.3222
vn 0.3943 -0.7045 -0.5901
vn 0.5137 -0.3809 -0.7688
vn 0.0561 0.9949 -0.0839
vn 0.5529 0.0978 -0.8275
vn 0.2153 0.9219 -0.3222
vn 0.3943 0.7045 -0.5901
vn 0.5137 0.3809 -0.7688
vn 0.0640 -0.9949 -0.0780
vn 0.6313 -0.0978 -0.7693
vn 0.2458 -0.9219 -0.2995
vn 0.4503 -0.7045 -0.5486
vn 0.5866 -0.3809 -0.7147
vn 0.0640 0.9949 -0.0780
vn 0.6313 0.0978 -0.7693
vn 0.2458 0.9219 -0.2995
vn 0.4503 0.7045 -0.5486
vn 0.5866 0.3809 -0.7147
vn 0.0714 -0.9949 -0.0714
vn 0.7037 -0.0978 -0.7037
vn 0.2740 -0.9219 -0.2740
vn 0.5019 -0.7045 -0.5019
vn 0.6538 -0.3809 -0.6538
vn 0.0714 0.9949 -0.0714
vn 0.7037 0.0978 -0.7037
vn 0.2740 0.9219 -0.2740
vn 0.5019 0.7045 -0.5019
vn 0.6538 0.3809 -0.6538
vn 0.0780 -0.9949 -0.0640
vn 0.7693 -0.0978 -0.6314
vn 0.2995 -0.9219 -0.2458
vn 0.5486 -0.7045 -0.4503
vn 0.7147 -0.3809 -0.5866
vn 0.0780 0.9949 -0.0640
vn 0.7693 0.0978 -0.6313
vn 0.2995 0.9219 -0.2458
vn 0.5486 0.7045 -0.4503
vn 0.7147 0.3809 -0.5866
vn 0.0839 -0.9949 -0.0561
vn 0.8275 -0.0978 -0.5529
vn 0.3222 -0.9219 -0.2153
vn 0.5901 -0.7045 -0.3943
vn 0.7688 -0.3809 -0.5137
vn 0.0839 0.9949 -0.0561
vn 0.8275 0.0978 -0.5529
vn 0.3222 0.9219 -0.2153
vn 0.5901 0.7045 -0.3943
vn 0.7688 0.3809 -0.5137
vn 0.0890 -0.9949 -0.0476
vn 0.8777 -0.0978 -0.4691
vn 0.3417 -0.9219 -0.1827
vn 0.6259 -0.7045 -0.3346
vn 0.8154 -0.3809 -0.4359
vn 0.0890 0.9949 -0.0476
vn 0.8777 0.0978 -0.4691
vn 0.3417 0.9219 -0.1827
vn 0.6259 0.7045 -0.3346
vn 0.8154 0.3809 -0.4359
vn 0.0932 -0.9949 -0.0386
vn 0.9194 -0.0978 -0.3808
vn 0.3580 -0.9219 -0.1483
vn 0.6557 -0.7045 -0.2716
vn 0.8542 -0.3809 -0.3538
vn 0.0932 0.9949 -0.0386
vn 0.9194 0.0978 -0.3808
vn 0.3580 0.9219 -0.1483
vn 0.6557 0.7045 -0.2716
vn 0.8542 0.3809 -0.3538
vn 0.0966 -0.9949 -0.0293
vn 0.9523 -0.0978 -0.2889
vn 0.3708 -0.9219 -0.1125
vn 0.6792 -0.7045 -0.2060
vn 0.8848 -0.3809 -0.2684
vn 0.0966 0.9949 -0.0293
vn 0.9523 0.0978 -0.2889
vn 0.3708 0.9219 -0.1125
vn 0.6792 0.7045 -0.2060
vn 0.8848 0.3809 -0.2684
vn 0.0990 -0.9949 -0.0197
vn 0.9761 -0.0978 -0.1942
vn 0.3801 -0.9219 -0.0756
vn 0.6961 -0.7045 -0.1385
vn 0.9068 -0.3809 -0.1804
vn 0.0990 0.9949 -0.0197
vn 0.9761 0.0978 -0.1942
vn 0.3801 0.9219 -0.0756
vn 0.6961 0.7045 -0.1385
vn 0.9068 0.3809 -0.1804
vn 0.1004 -0.9949 -0.0099
vn 0.9904 -0.0978 -0.0975
vn 0.3856 -0.9219 -0.0380
vn 0.7063 -0.7045 -0.0696
vn 0.9202 -0.3809 -0.0906
vn 0.1004 0.9949 -0.0099
vn 0.9904 0.0978 -0.0975
vn 0.3856 0.9219 -0.0380
vn 0.7063 0.7045 -0.0696
vn 0.9202 0.3809 -0.0906
vn 0.1009 -0.9949 -0.0000
vn 0.9952 -0.0978 -0.0000
vn 0.3875 -0.9219 -0.0000
vn 0.7097 -0.7045 -0.0000
vn 0.9246 -0.3809 -0.0000
vn 0.1009 0.9949 -0.0000
vn 0.9952 0.0978 -0.0000
vn 0.3875 0.9219 -0.0000
vn 0.7097 0.7045 -0.0000
vn 0.9246 0.3809 -0.0000
vn 0.1004 -0.9949 0.0099
vn 0.9904 -0.0978 0.0975
vn 0.3856 -0.9219 0.0380
vn 0.7063 -0.7045 0.0696
vn 0.9202 -0.3809 0.0906
vn 0.1004 0.9949 0.0099
vn 0.9904 0.0978 0.0975
vn 0.3856 0.9219 0.0380
vn 0.7063 0.7045 0.0696
vn 0.9202 0.3809 0.0906
vn 0.0990 -0.9949 0.0197
vn 0.9761 -0.0978 0.1942
vn 0.3801 -0.9219 0.0756
vn 0.6961 -0.7045 0.1385
vn 0.9068 -0.3809 0.1804
vn 0.0990 0.9949 0.0197
vn 0.9761 0.0978 0.1942
vn 0.3801 0.9219 0.0756
vn 0.6961 0.7045 0.1385
vn 0.9068 0.3809 0.1804
vn 0.0966 -0.9949 0.0293
vn 0.9523 -0.0978 0.2889
vn 0.3708 -0.9219 0.1125
vn 0.6792 -0.7045 0.2060
vn 0.8848 -0.3809 0.2684
vn 0.0966 0.9949 0.0293
vn 0.9523 0.0978 0.2889
vn 0.3708 0.9219 0.1125
vn 0.6792 0.7045 0.2060
vn 0.8848 0.3809 0.2684
vn 0.0932 -0.9949 0.0386
vn 0.9194 -0.0978 0.3808
vn 0.3580 -0.9219 0.1483
vn 0.6557 -0.7045 0.2716
vn 0.8542 -0.3809 0.3538
vn 0.0932 0.9949 0.0386
vn 0.9194 0.0978 0.3808
vn 0.3580 0.9219 0.1483
vn 0.6557 0.7045 0.2716
vn 0.8542 0.3809 0.3538
vn 0.0890 -0.9949 0.0476
vn 0.8777 -0.0978 0.4691
vn 0.3417 -0.9219 0.1827
vn 0.6259 -0.7045 0.3346
vn 0.8154 -0.3809 0.4359
vn 0.0890 0.9949 0.0476
vn 0.8777 0.0978 0.4691
vn 0.3417 0.9219 0.1827
vn 0.6259 0.7045 0.3346
vn 0.8154 0.3809 0.4359
vn 0.0839 -0.9949 0.0561
vn 0.8275 -0.0978 0.5529
vn 0.3222 -0.9219 0.2153
vn 0.5901 -0.7045 0.3943
vn 0.7688 -0.3809 0.5137
vn 0.0839 0.9949 0.0561
vn 0.8275 0.0978 0.5529
vn 0.3222 0.9219 0.2153
vn 0.5901 0.7045 0.3943
vn 0.7688 0.3809 0.5137
vn 0.0780 -0.9949 0.0640
vn 0.7693 -0.0978 0.6313
vn 0.2995 -0.9219 0.2458
vn 0.5486 -0.7045 0.4503
vn 0.7147 -0.3809 0.5866
vn 0.0780 0.9949 0.0640
vn 0.7693 0.0978 0.6314
vn 0.2995 0.9219 0.2458
vn 0.5486 0.7045 0.4503
vn 0.7147 0.3809 0.5866
vn 0.0714 -0.9949 0.0714
vn 0.7037 -0.0978 0.7037
vn 0.2740 -0.9219 0.2740
vn 0.5019 -0.7045 0.5019
vn 0.6538 -0.3809 0.6538
vn 0.0714 0.9949 0.0714
vn 0.7037 0.0978 0.7037
vn 0.2740 0.9219 0.2740
vn 0.5019 0.7045 0.5019
vn 0.6538 0.3809 0.6538
vn 0.0640 -0.9949 0.0780
vn 0.6313 -0.0978 0.7693
vn 0.2458 -0.9219 0.2995
vn 0.4503 -0.7045 0.5486
vn 0.5866 -0.3809 0.7147
vn 0.0640 0.9949 0.0780
vn 0.6313 0.0978 0.7693
vn 0.2458 0.9219 0.2995
vn 0.4503 0.7045 0.5486
vn 0.5866 0.3809 0.7147
vn 0.0561 -0.9949 0.0839
vn 0.5529 -0.0978 0.8275
vn 0.2153 -0.9219 0.3222
vn 0.3943 -0.7045 0.5901
vn 0.5137 -0.3809 0.7688
vn 0.0561 0.9949 0.0839
vn 0.5529 0.0978 0.8275
vn 0.2153 0.9219 0.3222
vn 0.3943 0.7045 0.5901
vn 0.5137 0.3809 0.7688
vn 0.0476 -0.9949 0.0890
vn 0.4691 -0.0978 0.8777
vn 0.1827 -0.9219 0.3417
vn 0.3346 -0.7045 0.6259
vn 0.4359 -0.3809 0.8154
vn 0.0476 0.9949 0.0890
vn 0.4691 0.0978 0.8777
vn 0.1827 0.9219 0.3417
vn 0.3346 0.7045 0.6259
vn 0.4359 0.3809 0.8154
vn 0.0386 -0.9949 0.0932
vn 0.3808 -0.0978 0.9194
vn 0.1483 -0.9219 0.3580
vn 0.2716 -0.7045 0.6557
vn 0.3538 -0.3809 0.8542
vn 0.0386 0.9949 0.0932
vn 0.3808 0.0978 0.9194
vn 0.1483 0.9219 0.3580
vn 0.2716 0.7045 0.6557
vn 0.3538 0.3809 0.8542
vn 0.0293 -0.9949 0.0966
vn 0.2889 -0.0978 0.9523
vn 0.1125 -0.9219 0.3708
vn 0.2060 -0.7045 0.6792
vn 0.2684 -0.3809 0.8848
vn 0.0293 0.9949 0.0966
vn 0.2889 0.0978 0.9523
vn 0.1125 0.9219 0.3708
vn 0.2060 0.7045 0.6792
vn 0.2684 0.3809 0.8848
vn 0.0197 -0.9949 0.0990
vn 0.1942 -0.0978 0.9761
vn 0.0756 -0.9219 0.3801
vn 0.1385 -0.7045 0.6961
vn 0.1804 -0.3809 0.9068
vn 0.0197 0.9949 0.0990
vn 0.1942 0.0978 0.9761
vn 0.0756 0.9219 0.3801
vn 0.1385 0.7045 0.6961
vn 0.1804 0.3809 0.9068
vn 0.0099 -0.9949 0.1004
vn 0.0975 -0.0978 0.9904
vn 0.0380 -0.9219 0.3856
vn 0.0696 -0.7045 0.7063
vn 0.0906 -0.3809 0.9202
vn 0.0099 0.9949 0.1004
vn 0.0975 0.0978 0.9904
vn 0.0380 0.9219 0.3856
vn 0.0696 0.7045 0.7063
vn 0.0906 0.3809 0.9202
vn -0.0000 -0.9949 0.1009
vn -0.0000 -0.0978 0.9952
vn -0.0000 -0.9219 0.3875
vn -0.0000 -0.7045 0.7097
vn -0.0000 -0.3809 0.9246
vn -0.0000 0.9949 0.1009
vn -0.0000 0.0978 0.9952
vn -0.0000 0.9219 0.3875
vn -0.0000 0.7045 0.7097
vn -0.0000 0.3809 0.9246
vn -0.0099 -0.9949 0.1004
vn -0.0975 -0.0978 0.9904
vn -0.0380 -0.9219 0.3856
vn -0.0696 -0.7045 0.7063
vn -0.0906 -0.3809 0.9202
vn -0.0099 0.9949 0.1004
vn -0.0975 0.0978 0.9904
vn -0.0380 0.9219 0.3856
vn -0.0696 0.7045 0.7063
vn -0.0906 0.3809 0.9202
vn -0.0197 -0.9949 0.0990
vn -0.1942 -0.0978 0.9761
vn -0.0756 -0.9219 0.3801
vn -0.1385 -0.7045 0.6961
vn -0.1804 -0.3809 0.9068
vn -0.0197 0.9949 0.0990
vn -0.1942 0.0978 0.9761
vn -0.0756 0.9219 0.3801
vn -0.1385 0.7045 0.6961
vn -0.1804 0.3809 0.9068
vn -0.0293 -0.9949 0.0966
vn -0.2889 -0.0978 0.9523
vn -0.1125 -0.9219 0.3708
vn -0.2060 -0.7045 0.6792
vn -0.2684 -0.3809 0.8848
vn -0.0293 0.9949 0.0966
vn -0.2889 0.0978 0.9523
vn -0.1125 0.9219 0.3708
vn -0.2060 0.7045 0.6792
vn -0.2684 0.3809 0.8848
vn -0.0386 -0.9949 0.0932
vn -0.3808 -0.0978 0.9194
vn -0.1483 -0.9219 0.3580
vn -0.2716 -0.7045 0.6557
vn -0.3538 -0.3809 0.8542
vn -0.0386 0.9949 0.0932
vn -0.3808 0.0978 0.9194
vn -0.1483 0.9219 0.3580
vn -0.2716 0.7045 0.6557
vn -0.3538 0.3809 0.8542
vn -0.0476 -0.9949 0.0890
vn -0.4691 -0.0978 0.8777
vn -0.1827 -0.9219 0.3417
vn -0.3346 -0.7045 0.6259
vn -0.4359 -0.3809 0.8154
vn -0.0476 0.9949 0.0890
vn -0.4691 0.0978 0.8777
vn -0.1827 0.9219 0.3417
vn -0.3346 0.7045 0.6259
vn -0.4359 0.3809 0.8154
vn -0.0561 -0.9949 0.0839
vn -0.5529 -0.0978 0.8275
vn -0.2153 -0.9219 0.3222
vn -0.3943 -0.7045 0.5901
vn -0.5137 -0.3809 0.7688
vn -0.0561 0.9949 0.0839
vn -0.5529 0.0978 0.8275
vn -0.2153 0.9219 0.3222
vn -0.3943 0.7045 0.5901
vn -0.5137 0.3809 0.7688
vn -0.0640 -0.9949 0.0780
vn -0.6313 -0.0978 0.7693
vn -0.2458 -0.9219 0.2995
vn -0.4503 -0.7045 0.5486
vn -0.5866 -0.3809 0.7147
vn -0.0640 0.9949 0.0780
vn -0.6313 0.0978 0.7693
vn -0.2458 0.9219 0.2995
vn -0.4503 0.7045 0.5486
vn -0.5866 0.3809 0.7147
vn -0.0714 -0.9949 0.0714
vn -0.7037 -0.0978 0.7037
vn -0.2740 -0.9219 0.2740
vn -0.5019 -0.7045 0.5019
vn -0.6538 -0.3809 0.6538
vn -0.0714 0.9949 0.0714
vn -0.7037 0.0978 0.7037
vn -0.2740 0.9219 0.2740
vn -0.5019 0.7045 0.5019
vn -0.6538 0.3809 0.6538
vn -0.0780 -0.9949 0.0640
vn -0.7693 -0.0978 0.6314
vn -0.2995 -0.9219 0.2458
vn -0.5486 -0.7045 0.4503
vn -0.7147 -0.3809 0.5866
vn -0.0780 0.9949 0.0640
vn -0.7693 0.0978 0.6313
vn -0.2995 0.9219 0.2458
vn -0.5486 0.7045 0.4503
vn -0.7147 0.3809 0.5866
vn -0.0839 -0.9949 0.0561
vn -0.8275 -0.0978 0.5529
vn -0.3222 -0.9219 0.2153
vn -0.5901 -0.7045 0.3943
vn -0.7688 -0.3809 0.5137
vn -0.0839 0.9949 0.0561
vn -0.8275 0.0978 0.5529
vn -0.3222 0.9219 0.2153
vn -0.5901 0.7045 0.3943
vn -0.7688 0.3809 0.5137
vn -0.0890 -0.9949 0.0476
vn -0.8777 -0.0978 0.4691
vn -0.3417 -0.9219 0.1827
vn -0.6259 -0.7045 0.3346
vn -0.8154 -0.3809 0.4359
vn -0.0890 0.9949 0.0476
vn -0.8777 0.0978 0.4691
vn -0.3417 0.9219 0.1827
vn -0.6259 0.7045 0.3346
vn -0.8154 0.3809 0.4359
vn -0.0932 -0.9949 0.0386
vn -0.9194 -0.0978 0.3808
vn -0.3580 -0.9219 0.1483
vn -0.6557 -0.7045 0.2716
vn -0.8542 -0.3809 0.3538
vn -0.0932 0.9949 0.0386
vn -0.9194 0.0978 0.3808
vn -0.3580 0.9219 0.1483
vn -0.6557 0.7045 0.2716
vn -0.8542 0.3809 0.3538
vn -0.0966 -0.9949 0.0293
vn -0.9523 -0.0978 0.2889
vn -0.3708 -0.9219 0.1125
vn -0.6792 -0.7045 0.2060
vn -0.8848 -0.3809 0.2684
vn -0.0966 0.9949 0.0293
vn -0.9523 0.0978 0.2889
vn -0.3708 0.9219 0.1125
vn -0.6792 0.7045 0.2060
vn -0.8848 0.3809 0.2684
vn -0.0990 -0.9949 0.0197
vn -0.9761 -0.0978 0.1942
vn -0.3801 -0.9219 0.0756
vn -0.6961 -0.7045 0.1385
vn -0.9068 -0.3809 0.1804
vn -0.0990 0.9949 0.0197
vn -0.9761 0.0978 0.1942
vn -0.3801 0.9219 0.0756
vn -0.6961 0.7045 0.1385
vn -0.9068 0.3809 0.1804
vn -0.1004 -0.9949 0.0099
vn -0.9904 -0.0978 0.0975
vn -0.3856 -0.9219 0.0380
vn -0.7063 -0.7045 0.0696
vn -0.9202 -0.3809 0.0906
vn -0.1004 0.9949 0.0099
vn -0.9904 0.0978 0.0975
vn -0.3856 0.9219 0.0380
vn -0.7063 0.7045 0.0696
vn -0.9202 0.3809 0.0906
vn -0.1009 -0.9949 -0.0000
vn -0.9952 -0.0978 -0.0000
vn -0.3875 -0.9219 -0.0000
vn -0.7097 -0.7045 -0.0000
vn -0.9246 -0.3809 -0.0000
vn -0.1009 0.9949 -0.0000
vn -0.9952 0.0978 -0.0000
vn -0.3875 0.9219 -0.0000
vn -0.7097 0.7045 -0.0000
vn -0.9246 0.3809 -0.0000
vn -0.1004 -0.9949 -0.0099
vn -0.9904 -0.0978 -0.0975
vn -0.3856 -0.9219 -0.0380
vn -0.7063 -0.7045 -0.0696
vn -0.9202 -0.3809 -0.0906
vn -0.1004 0.9949 -0.0099
vn -0.9904 0.0978 -0.0975
vn -0.3856 0.9219 -0.0380
vn -0.7063 0.7045 -0.0696
vn -0.9202 0.3809 -0.0906
vn -0.0990 -0.9949 -0.0197
vn -0.9761 -0.0978 -0.1942
vn -0.3801 -0.9219 -0.0756
vn -0.6961 -0.7045 -0.1385
vn -0.9068 -0.3809 -0.1804
vn -0.0990 0.9949 -0.0197
vn -0.9761 0.0978 -0.1942
vn -0.3801 0.9219 -0.0756
vn -0.6961 0.7045 -0.1385
vn -0.9068 0.3809 -0.1804
vn -0.0966 -0.9949 -0.0293
vn -0.9523 -0.0978 -0.2889
vn -0.3708 -0.9219 -0.1125
vn -0.6792 -0.7045 -0.2060
vn -0.8848 -0.3809 -0.2684
vn -0.0966 0.9949 -0.0293
vn -0.9523 0.0978 -0.2889
vn -0.3708 0.9219 -0.1125
vn -0.6792 0.7045 -0.2060
vn -0.8848 0.3809 -0.2684
vn -0.0932 -0.9949 -0.0386
vn -0.9194 -0.0978 -0.3808
vn -0.3580 -0.9219 -0.1483
vn -0.6557 -0.7045 -0.2716
vn -0.8542 -0.3809 -0.3538
vn -0.0932 0.9949 -0.0386
vn -0.9194 0.0978 -0.3808
vn -0.3580 0.9219 -0.1483
vn -0.6557 0.7045 -0.2716
vn -0.8542 0.3809 -0.3538
vn -0.0890 -0.9949 -0.0476
vn -0.8777 -0.0978 -0.4691
vn -0.3417 -0.9219 -0.1827
vn -0.6259 -0.7045 -0.3346
vn -0.8154 -0.3809 -0.4359
vn -0.0890 0.9949 -0.0476
vn -0.8777 0.0978 -0.4691
vn -0.3417 0.9219 -0.1827
vn -0.6259 0.7045 -0.3346
vn -0.8154 0.3809 -0.4359
vn -0.0839 -0.9949 -0.0561
vn -0.8275 -0.0978 -0.5529
vn -0.3222 -0.9219 -0.2153
vn -0.5901 -0.7045 -0.3943
vn -0.7688 -0.3809 -0.5137
vn -0.0839 0.9949 -0.0561
vn -0.8275 0.0978 -0.5529
vn -0.3222 0.9219 -0.2153
vn -0.5901 0.7045 -0.3943
vn -0.7688 0.3809 -0.5137
vn -0.0780 -0.9949 -0.0640
vn -0.7693 -0.0978 -0.6313
vn -0.2995 -0.9219 -0.2458
vn -0.5486 -0.7045 -0.4503
vn -0.7147 -0.3809 -0.5866
vn -0.0780 0.9949 -0.0640
vn -0.7693 0.0978 -0.6314
vn -0.2995 0.9219 -0.2458
vn -0.5486 0.7045 -0.4503
vn -0.7147 0.3809 -0.5866
vn -0.0714 -0.9949 -0.0714
vn -0.7037 -0.0978 -0.7037
vn -0.2740 -0.9219 -0.2740
vn -0.5019 -0.7045 -0.5019
vn -0.6538 -0.3809 -0.6538
vn -0.0714 0.9949 -0.0714
vn -0.7037 0.0978 -0.7037
vn -0.2740 0.9219 -0.2740
vn -0.5019 0.7045 -0.5019
vn -0.6538 0.3809 -0.6538
vn -0.0640 -0.9949 -0.0780
vn -0.6313 -0.0978 -0.7693
vn -0.2458 -0.9219 -0.2995
vn -0.4503 -0.7045 -0.5486
vn -0.5866 -0.3809 -0.7147
vn -0.0640 0.9949 -0.0780
vn -0.6313 0.0978 -0.7693
vn -0.2458 0.9219 -0.2995
vn -0.4503 0.7045 -0.5486
vn -0.5866 0.3809 -0.7147
vn -0.0561 -0.9949 -0.0839
vn -0.5529 -0.0978 -0.8275
vn -0.2153 -0.9219 -0.3222
vn -0.3943 -0.7045 -0.5901
vn -0.5137 -0.3809 -0.7688
vn -0.0561 0.9949 -0.0839
vn -0.5529 0.0978 -0.8275
vn -0.2153 0.9219 -0.3222
vn -0.3943 0.7045 -0.5901
vn -0.5137 0.3809 -0.7688
vn -0.0476 -0.9949 -0.0890
vn -0.4691 -0.0978 -0.8777
vn -0.1827 -0.9219 -0.3417
vn -0.3346 -0.7045 -0.6259
vn -0.4359 -0.3809 -0.8154
vn -0.0476 0.9949 -0.0890
vn -0.4691 0.0978 -0.8777
vn -0.1827 0.9219 -0.3417
vn -0.3346 0.7045 -0.6259
vn -0.4359 0.3809 -0.8154
vn -0.0386 -0.9949 -0.0932
vn -0.3808 -0.0978 -0.9194
vn -0.1483 -0.9219 -0.3580
vn -0.2716 -0.7045 -0.6557
vn -0.3538 -0.3809 -0.8542
vn -0.0386 0.9949 -0.0932
vn -0.3808 0.0978 -0.9194
vn -0.1483 0.9219 -0.3580
vn -0.2716 0.7045 -0.6557
vn -0.3538 0.3809 -0.8542
vn -0.0293 -0.9949 -0.0966
vn -0.2889 -0.0978 -0.9523
vn -0.1125 -0.9219 -0.3708
vn -0.2060 -0.7045 -0.6792
vn -0.2684 -0.3809 -0.8848
vn -0.0293 0.9949 -0.0966
vn -0.2889 0.0978 -0.9523
vn -0.1125 0.9219 -0.3708
vn -0.2060 0.7045 -0.6792
vn -0.2684 0.3809 -0.8848
vn -0.0197 -0.9949 -0.0990
vn -0.1942 -0.0978 -0.9761
vn -0.0756 -0.9219 -0.3801
vn -0.1385 -0.7045 -0.6961
vn -0.1804 -0.3809 -0.9068
vn -0.0197 0.9949 -0.0990
vn -0.1942 0.0978 -0.9761
vn -0.0756 0.9219 -0.3801
vn -0.1385 0.7045 -0.6961
vn -0.1804 0.3809 -0.9068
vn -0.0099 -0.9949 -0.1004
vn -0.0975 -0.0978 -0.9904
vn -0.0380 -0.9219 -0.3856
vn -0.0696 -0.7045 -0.7063
vn -0.0906 -0.3809 -0.9202
vn -0.0099 0.9949 -0.1004
vn -0.0975 0.0978 -0.9904
vn -0.0380 0.9219 -0.3856
vn -0.0696 0.7045 -0.7063
vn -0.0906 0.3809 -0.9202
vt 1.000000 0.525000
vt 0.984375 0.515433
vt 0.999881 0.515433
vt 0.984375 0.500000
vt 0.999542 0.500000
vt 0.750000 0.489966
vt 0.770616 0.459320
vt 0.750000 0.460333
vt 0.768813 0.441018
vt 0.750000 0.441942
vt 1.000000 0.975000
vt 0.984375 0.984567
vt 0.984375 0.975000
vt 0.999881 0.984567
vt 0.984375 1.000000
vt 0.250000 0.489966
vt 0.270616 0.459320
vt 0.273521 0.488811
vt 0.250000 0.460333
vt 0.268813 0.441018
vt 0.968750 0.525000
vt 0.984375 0.525000
vt 0.968750 0.515433
vt 0.773521 0.488811
vt 0.791034 0.456292
vt 0.787446 0.438254
vt 0.968750 0.984567
vt 0.968750 0.975000
vt 0.968750 1.000000
vt 0.291034 0.456292
vt 0.296815 0.485355
vt 0.287446 0.438254
vt 0.953125 0.525000
vt 0.953125 0.515433
vt 0.968750 0.500000
vt 0.819658 0.479633
vt 0.796815 0.485355
vt 0.805718 0.433677
vt 0.953125 0.984567
vt 0.953125 0.975000
vt 0.953125 1.000000
vt 0.319659 0.479633
vt 0.311056 0.451276
vt 0.305718 0.433677
vt 0.937500 0.525000
vt 0.937500 0.515433
vt 0.953125 0.500000
vt 0.841831 0.471700
vt 0.811056 0.451276
vt 0.830491 0.444322
vt 0.937500 0.975000
vt 0.937500 0.984567
vt 0.937500 1.000000
vt 0.341831 0.471700
vt 0.330491 0.444322
vt 0.323453 0.427331
vt 0.921875 0.525000
vt 0.921875 0.515433
vt 0.937500 0.500000
vt 0.863119 0.461631
vt 0.849150 0.435497
vt 0.823453 0.427331
vt 0.921875 0.975000
vt 0.921875 0.984567
vt 0.921875 1.000000
vt 0.363119 0.461631
vt 0.349150 0.435497
vt 0.340481 0.419278
vt 0.906250 0.525000
vt 0.906250 0.515433
vt 0.921875 0.500000
vt 0.883318 0.449525
vt 0.866855 0.424886
vt 0.840481 0.419278
vt 0.906250 0.975000
vt 0.906250 0.984567
vt 0.906250 1.000000
vt 0.383318 0.449525
vt 0.366855 0.424886
vt 0.356637 0.409594
vt 0.890625 0.515433
vt 0.890625 0.500000
vt 0.906250 0.500000
vt 0.883434 0.412590
vt 0.871767 0.398373
vt 0.856637 0.409594
vt 0.890625 0.975000
vt 0.890625 0.984567
vt 0.890625 1.000000
vt 0.383434 0.412590
vt 0.402233 0.435496
vt 0.371767 0.398373
vt 0.875000 0.525000
vt 0.890625 0.525000
vt 0.875000 0.515433
vt 0.919682 0.419682
vt 0.902233 0.435496
vt 0.885724 0.385724
vt 0.875000 0.975000
vt 0.875000 0.984567
vt 0.875000 1.000000
vt 0.398728 0.398728
vt 0.419682 0.419682
vt 0.385724 0.385724
vt 0.859375 0.515433
vt 0.875000 0.500000
vt 0.935496 0.402233
vt 0.898728 0.398728
vt 0.912589 0.383434
vt 0.859375 0.984567
vt 0.859375 0.975000
vt 0.859375 1.000000
vt 0.412590 0.383434
vt 0.435496 0.402233
vt 0.398373 0.371767
vt 0.859375 0.525000
vt 0.843750 0.515433
vt 0.859375 0.500000
vt 0.949525 0.383318
vt 0.924885 0.366855
vt 0.898373 0.371767
vt 0.843750 0.975000
vt 0.843750 0.984567
vt 0.843750 1.000000
vt 0.449525 0.383318
vt 0.424886 0.366855
vt 0.409594 0.356637
vt 0.843750 0.525000
vt 0.828125 0.515433
vt 0.843750 0.500000
vt 0.935497 0.349150
vt 0.919278 0.340481
vt 0.909594 0.356637
vt 0.828125 0.984567
vt 0.828125 0.975000
vt 0.828125 1.000000
vt 0.435497 0.349150
vt 0.461631 0.363119
vt 0.419278 0.340481
vt 0.828125 0.525000
vt 0.812500 0.515433
vt 0.812500 0.500000
vt 0.828125 0.500000
vt 0.961631 0.363119
vt 0.944322 0.330491
vt 0.927331 0.323453
vt 0.812500 0.984567
vt 0.812500 0.975000
vt 0.812500 1.000000
vt 0.444322 0.330491
vt 0.471700 0.341831
vt 0.427331 0.323453
vt 0.812500 0.525000
vt 0.796875 0.515433
vt 0.796875 0.500000
vt 0.971700 0.341831
vt 0.951276 0.311056
vt 0.933677 0.305718
vt 0.796875 0.984567
vt 0.796875 0.975000
vt 0.796875 1.000000
vt 0.451276 0.311056
vt 0.479633 0.319658
vt 0.433677 0.305718
vt 0.781250 0.525000
vt 0.796875 0.525000
vt 0.781250 0.500000
vt 0.979633 0.319659
vt 0.956291 0.291034
vt 0.781250 0.984567
vt 0.781250 0.975000
vt 0.781250 1.000000
vt 0.456292 0.291034
vt 0.485355 0.296815
vt 0.438254 0.287446
vt 0.765625 0.525000
vt 0.781250 0.515433
vt 0.765625 0.500000
vt 0.988811 0.273521
vt 0.985355 0.296815
vt 0.959320 0.270616
vt 0.938254 0.287446
vt 0.765625 0.984567
vt 0.765625 0.975000
vt 0.765625 1.000000
vt 0.488811 0.273521
vt 0.459320 0.270616
vt 0.441018 0.268813
vt 0.750000 0.525000
vt 0.765625 0.515433
vt 0.750000 0.515433
vt 0.989966 0.250000
vt 0.960333 0.250000
vt 0.941018 0.268814
vt 0.750000 0.975000
vt 0.750000 0.984567
vt 0.750000 1.000000
vt 0.489966 0.250000
vt 0.460333 0.250000
vt 0.441942 0.250000
vt 0.734375 0.515433
vt 0.734375 0.500000
vt 0.750000 0.500000
vt 0.959320 0.229384
vt 0.941018 0.231186
vt 0.941942 0.250000
vt 0.734375 0.984567
vt 0.734375 0.975000
vt 0.734375 1.000000
vt 0.459320 0.229384
vt 0.488811 0.226479
vt 0.441018 0.231187
vt 0.718750 0.525000
vt 0.734375 0.525000
vt 0.718750 0.515433
vt 0.988811 0.226479
vt 0.956291 0.208966
vt 0.938254 0.212554
vt 0.718750 0.984567
vt 0.718750 0.975000
vt 0.718750 1.000000
vt 0.456292 0.208966
vt 0.485355 0.203185
vt 0.438254 0.212554
vt 0.703125 0.525000
vt 0.703125 0.515433
vt 0.718750 0.500000
vt 0.979633 0.180342
vt 0.985355 0.203185
vt 0.933677 0.194282
vt 0.703125 0.984567
vt 0.703125 0.975000
vt 0.703125 1.000000
vt 0.479633 0.180342
vt 0.451276 0.188944
vt 0.433677 0.194282
vt 0.687500 0.525000
vt 0.687500 0.515433
vt 0.703125 0.500000
vt 0.971700 0.158169
vt 0.951276 0.188944
vt 0.944322 0.169509
vt 0.687500 0.975000
vt 0.687500 0.984567
vt 0.687500 1.000000
vt 0.471700 0.158169
vt 0.444322 0.169509
vt 0.427331 0.176547
vt 0.671875 0.525000
vt 0.671875 0.515433
vt 0.687500 0.500000
vt 0.961631 0.136881
vt 0.935497 0.150850
vt 0.927331 0.176547
vt 0.671875 0.975000
vt 0.671875 0.984567
vt 0.671875 1.000000
vt 0.461631 0.136881
vt 0.435497 0.150850
vt 0.419278 0.159519
vt 0.656250 0.525000
vt 0.656250 0.515433
vt 0.671875 0.500000
vt 0.949525 0.116682
vt 0.924885 0.133145
vt 0.919278 0.159519
vt 0.656250 0.975000
vt 0.656250 0.984567
vt 0.656250 1.000000
vt 0.449525 0.116682
vt 0.424886 0.133145
vt 0.409594 0.143363
vt 0.640625 0.515433
vt 0.640625 0.500000
vt 0.656250 0.500000
vt 0.912590 0.116566
vt 0.898373 0.128233
vt 0.909594 0.143363
vt 0.640625 0.975000
vt 0.640625 0.984567
vt 0.640625 1.000000
vt 0.412590 0.116566
vt 0.435496 0.097767
vt 0.398373 0.128233
vt 0.625000 0.525000
vt 0.640625 0.525000
vt 0.625000 0.515433
vt 0.919682 0.080318
vt 0.935496 0.097767
vt 0.885723 0.114276
vt 0.625000 0.975000
vt 0.625000 0.984567
vt 0.625000 1.000000
vt 0.398728 0.101272
vt 0.419682 0.080318
vt 0.385724 0.114276
vt 0.609375 0.515433
vt 0.625000 0.500000
vt 0.902233 0.064504
vt 0.898728 0.101272
vt 0.883434 0.087410
vt 0.609375 0.984567
vt 0.609375 0.975000
vt 0.609375 1.000000
vt 0.383434 0.087410
vt 0.402233 0.064504
vt 0.371767 0.101627
vt 0.609375 0.525000
vt 0.593750 0.515433
vt 0.609375 0.500000
vt 0.883318 0.050475
vt 0.866855 0.075114
vt 0.871767 0.101627
vt 0.593750 0.975000
vt 0.593750 0.984567
vt 0.593750 1.000000
vt 0.383318 0.050475
vt 0.366855 0.075114
vt 0.356637 0.090406
vt 0.593750 0.525000
vt 0.578125 0.515433
vt 0.593750 0.500000
vt 0.849150 0.064503
vt 0.840481 0.080722
vt 0.856637 0.090406
vt 0.578125 0.984567
vt 0.578125 0.975000
vt 0.578125 1.000000
vt 0.349150 0.064503
vt 0.363119 0.038369
vt 0.340481 0.080722
vt 0.578125 0.525000
vt 0.562500 0.515433
vt 0.562500 0.500000
vt 0.578125 0.500000
vt 0.863119 0.038369
vt 0.830491 0.055678
vt 0.823453 0.072669
vt 0.562500 0.984567
vt 0.562500 0.975000
vt 0.562500 1.000000
vt 0.330491 0.055678
vt 0.341831 0.028300
vt 0.323453 0.072669
vt 0.562500 0.525000
vt 0.546875 0.515433
vt 0.546875 0.500000
vt 0.841831 0.028300
vt 0.811056 0.048724
vt 0.805718 0.066323
vt 0.546875 0.984567
vt 0.546875 0.975000
vt 0.546875 1.000000
vt 0.311056 0.048724
vt 0.319658 0.020367
vt 0.305718 0.066323
vt 0.531250 0.525000
vt 0.546875 0.525000
vt 0.531250 0.500000
vt 0.819658 0.020367
vt 0.791034 0.043708
vt 0.531250 0.984567
vt 0.531250 0.975000
vt 0.531250 1.000000
vt 0.291034 0.043708
vt 0.296815 0.014645
vt 0.287446 0.061746
vt 0.515625 0.525000
vt 0.531250 0.515433
vt 0.515625 0.500000
vt 0.773521 0.011189
vt 0.796815 0.014645
vt 0.770616 0.040680
vt 0.787446 0.061746
vt 0.515625 0.984567
vt 0.515625 0.975000
vt 0.515625 1.000000
vt 0.273521 0.011189
vt 0.270616 0.040680
vt 0.268814 0.058982
vt 0.500000 0.525000
vt 0.515625 0.515433
vt 0.500000 0.515433
vt 0.750000 0.010034
vt 0.750000 0.039667
vt 0.768813 0.058982
vt 0.500000 0.975000
vt 0.500000 0.984567
vt 0.500000 1.000000
vt 0.250000 0.010034
vt 0.250000 0.039667
vt 0.250000 0.058058
vt 0.484375 0.515433
vt 0.484375 0.500000
vt 0.500000 0.500000
vt 0.729384 0.040680
vt 0.731187 0.058982
vt 0.750000 0.058058
vt 0.484375 0.984567
vt 0.484375 0.975000
vt 0.484375 1.000000
vt 0.229384 0.040680
vt 0.226479 0.011189
vt 0.231186 0.058982
vt 0.468750 0.525000
vt 0.484375 0.525000
vt 0.468750 0.515433
vt 0.726479 0.011189
vt 0.708966 0.043708
vt 0.712554 0.061746
vt 0.468750 0.984567
vt 0.468750 0.975000
vt 0.468750 1.000000
vt 0.208966 0.043708
vt 0.203185 0.014645
vt 0.212554 0.061746
vt 0.453125 0.525000
vt 0.453125 0.515433
vt 0.468750 0.500000
vt 0.680341 0.020367
vt 0.703185 0.014645
vt 0.694282 0.066323
vt 0.453125 0.984567
vt 0.453125 0.975000
vt 0.453125 1.000000
vt 0.180342 0.020367
vt 0.188943 0.048724
vt 0.194282 0.066323
vt 0.437500 0.525000
vt 0.437500 0.515433
vt 0.453125 0.500000
vt 0.658169 0.028300
vt 0.688944 0.048724
vt 0.669509 0.055678
vt 0.437500 0.975000
vt 0.437500 0.984567
vt 0.437500 1.000000
vt 0.158169 0.028300
vt 0.169509 0.055678
vt 0.176547 0.072669
vt 0.421875 0.525000
vt 0.421875 0.515433
vt 0.437500 0.500000
vt 0.636881 0.038369
vt 0.650850 0.064503
vt 0.676547 0.072669
vt 0.421875 0.975000
vt 0.421875 0.984567
vt 0.421875 1.000000
vt 0.136881 0.038369
vt 0.150850 0.064503
vt 0.159519 0.080722
vt 0.406250 0.525000
vt 0.406250 0.515433
vt 0.421875 0.500000
vt 0.616682 0.050475
vt 0.633145 0.075114
vt 0.659519 0.080722
vt 0.406250 0.975000
vt 0.406250 0.984567
vt 0.406250 1.000000
vt 0.116682 0.050475
vt 0.133145 0.075114
vt 0.143363 0.090406
vt 0.390625 0.515433
vt 0.390625 0.500000
vt 0.406250 0.500000
vt 0.616566 0.087410
vt 0.628233 0.101627
vt 0.643362 0.090406
vt 0.390625 0.975000
vt 0.390625 0.984567
vt 0.390625 1.000000
vt 0.116566 0.087410
vt 0.097767 0.064504
vt 0.128233 0.101627
vt 0.375000 0.525000
vt 0.390625 0.525000
vt 0.375000 0.515433
vt 0.580318 0.080318
vt 0.597767 0.064504
vt 0.614276 0.114276
vt 0.375000 0.975000
vt 0.375000 0.984567
vt 0.375000 1.000000
vt 0.101272 0.101272
vt 0.080318 0.080318
vt 0.114276 0.114276
vt 0.359375 0.515433
vt 0.375000 0.500000
vt 0.564504 0.097767
vt 0.601272 0.101272
vt 0.587410 0.116566
vt 0.359375 0.984567
vt 0.359375 0.975000
vt 0.359375 1.000000
vt 0.087410 0.116566
vt 0.064504 0.097767
vt 0.101627 0.128233
vt 0.359375 0.525000
vt 0.343750 0.515433
vt 0.359375 0.500000
vt 0.550475 0.116682
vt 0.575114 0.133145
vt 0.601627 0.128233
vt 0.343750 0.975000
vt 0.343750 0.984567
vt 0.343750 1.000000
vt 0.050475 0.116682
vt 0.075114 0.133145
vt 0.090406 0.143363
vt 0.343750 0.525000
vt 0.328125 0.515433
vt 0.343750 0.500000
vt 0.564503 0.150850
vt 0.580722 0.159519
vt 0.590406 0.143363
vt 0.328125 0.984567
vt 0.328125 0.975000
vt 0.328125 1.000000
vt 0.064503 0.150850
vt 0.038369 0.136881
vt 0.080722 0.159519
vt 0.328125 0.525000
vt 0.312500 0.515433
vt 0.312500 0.500000
vt 0.328125 0.500000
vt 0.538369 0.136881
vt 0.555677 0.169509
vt 0.572669 0.176547
vt 0.312500 0.984567
vt 0.312500 0.975000
vt 0.312500 1.000000
vt 0.055678 0.169509
vt 0.028300 0.158169
vt 0.072669 0.176547
vt 0.312500 0.525000
vt 0.296875 0.515433
vt 0.296875 0.500000
vt 0.528300 0.158169
vt 0.548724 0.188943
vt 0.566323 0.194282
vt 0.296875 0.984567
vt 0.296875 0.975000
vt 0.296875 1.000000
vt 0.048724 0.188944
vt 0.020367 0.180342
vt 0.066323 0.194282
vt 0.281250 0.525000
vt 0.296875 0.525000
vt 0.281250 0.500000
vt 0.520367 0.180342
vt 0.543708 0.208966
vt 0.281250 0.984567
vt 0.281250 0.975000
vt 0.281250 1.000000
vt 0.043708 0.208966
vt 0.014645 0.203185
vt 0.061746 0.212554
vt 0.265625 0.525000
vt 0.281250 0.515433
vt 0.265625 0.500000
vt 0.511189 0.226479
vt 0.514645 0.203185
vt 0.540680 0.229384
vt 0.561746 0.212554
vt 0.265625 0.984567
vt 0.265625 0.975000
vt 0.265625 1.000000
vt 0.011189 0.226479
vt 0.040680 0.229384
vt 0.058982 0.231186
vt 0.250000 0.525000
vt 0.265625 0.515433
vt 0.250000 0.515433
vt 0.510034 0.250000
vt 0.539667 0.250000
vt 0.558982 0.231187
vt 0.250000 0.975000
vt 0.250000 0.984567
vt 0.250000 1.000000
vt 0.010034 0.250000
vt 0.039667 0.250000
vt 0.058058 0.250000
vt 0.234375 0.515433
vt 0.234375 0.500000
vt 0.250000 0.500000
vt 0.540680 0.270616
vt 0.558982 0.268813
vt 0.558058 0.250000
vt 0.234375 0.984567
vt 0.234375 0.975000
vt 0.234375 1.000000
vt 0.040680 0.270616
vt 0.011189 0.273521
vt 0.058982 0.268814
vt 0.218750 0.525000
vt 0.234375 0.525000
vt 0.218750 0.515433
vt 0.511189 0.273521
vt 0.543709 0.291034
vt 0.561746 0.287446
vt 0.218750 0.984567
vt 0.218750 0.975000
vt 0.218750 1.000000
vt 0.043708 0.291034
vt 0.014645 0.296815
vt 0.061746 0.287446
vt 0.203125 0.525000
vt 0.203125 0.515433
vt 0.218750 0.500000
vt 0.520367 0.319658
vt 0.514645 0.296815
vt 0.566323 0.305718
vt 0.203125 0.984567
vt 0.203125 0.975000
vt 0.203125 1.000000
vt 0.020367 0.319659
vt 0.048724 0.311056
vt 0.066323 0.305718
vt 0.187500 0.525000
vt 0.187500 0.515433
vt 0.203125 0.500000
vt 0.528300 0.341831
vt 0.548724 0.311056
vt 0.555678 0.330491
vt 0.187500 0.975000
vt 0.187500 0.984567
vt 0.187500 1.000000
vt 0.028300 0.341831
vt 0.055678 0.330491
vt 0.072669 0.323453
vt 0.171875 0.525000
vt 0.171875 0.515433
vt 0.187500 0.500000
vt 0.538369 0.363119
vt 0.564503 0.349150
vt 0.572669 0.323453
vt 0.171875 0.975000
vt 0.171875 0.984567
vt 0.171875 1.000000
vt 0.038369 0.363119
vt 0.064503 0.349150
vt 0.080722 0.340481
vt 0.156250 0.525000
vt 0.156250 0.515433
vt 0.171875 0.500000
vt 0.550475 0.383318
vt 0.575114 0.366855
vt 0.580722 0.340481
vt 0.156250 0.975000
vt 0.156250 0.984567
vt 0.156250 1.000000
vt 0.050475 0.383318
vt 0.075114 0.366855
vt 0.090406 0.356637
vt 0.140625 0.515433
vt 0.140625 0.500000
vt 0.156250 0.500000
vt 0.587410 0.383434
vt 0.601627 0.371767
vt 0.590406 0.356637
vt 0.140625 0.975000
vt 0.140625 0.984567
vt 0.140625 1.000000
vt 0.087410 0.383434
vt 0.064504 0.402233
vt 0.101627 0.371767
vt 0.125000 0.525000
vt 0.140625 0.525000
vt 0.125000 0.515433
vt 0.580318 0.419682
vt 0.564504 0.402233
vt 0.614276 0.385724
vt 0.125000 0.975000
vt 0.125000 0.984567
vt 0.125000 1.000000
vt 0.101272 0.398728
vt 0.080318 0.419682
vt 0.114276 0.385724
vt 0.109375 0.515433
vt 0.125000 0.500000
vt 0.597767 0.435496
vt 0.601272 0.398728
vt 0.616566 0.412590
vt 0.109375 0.984567
vt 0.109375 0.975000
vt 0.109375 1.000000
vt 0.116566 0.412590
vt 0.097767 0.435496
vt 0.128233 0.398373
vt 0.109375 0.525000
vt 0.093750 0.515433
vt 0.109375 0.500000
vt 0.616682 0.449525
vt 0.633145 0.424886
vt 0.628233 0.398373
vt 0.093750 0.975000
vt 0.093750 0.984567
vt 0.093750 1.000000
vt 0.116682 0.449525
vt 0.133145 0.424886
vt 0.143363 0.409594
vt 0.093750 0.525000
vt 0.078125 0.515433
vt 0.093750 0.500000
vt 0.650850 0.435497
vt 0.659519 0.419278
vt 0.643363 0.409594
vt 0.078125 0.984567
vt 0.078125 0.975000
vt 0.078125 1.000000
vt 0.150850 0.435497
vt 0.136881 0.461631
vt 0.159519 0.419278
vt 0.078125 0.525000
vt 0.062500 0.515433
vt 0.062500 0.500000
vt 0.078125 0.500000
vt 0.636881 0.461631
vt 0.669509 0.444322
vt 0.676547 0.427331
vt 0.062500 0.984567
vt 0.062500 0.975000
vt 0.062500 1.000000
vt 0.169509 0.444322
vt 0.158169 0.471700
vt 0.176547 0.427331
vt 0.062500 0.525000
vt 0.046875 0.515433
vt 0.046875 0.500000
vt 0.658169 0.471700
vt 0.688944 0.451276
vt 0.694282 0.433677
vt 0.046875 0.984567
vt 0.046875 0.975000
vt 0.046875 1.000000
vt 0.188944 0.451276
vt 0.180342 0.479633
vt 0.194282 0.433677
vt 0.031250 0.525000
vt 0.046875 0.525000
vt 0.031250 0.500000
vt 0.680342 0.479633
vt 0.708966 0.456292
vt 0.031250 0.984567
vt 0.031250 0.975000
vt 0.031250 1.000000
vt 0.208966 0.456292
vt 0.203185 0.485355
vt 0.212554 0.438254
vt 0.015625 0.525000
vt 0.031250 0.515433
vt 0.015625 0.500000
vt 0.726479 0.488811
vt 0.703185 0.485355
vt 0.729384 0.459320
vt 0.712554 0.438254
vt 0.015625 0.984567
vt 0.015625 0.975000
vt 0.015625 1.000000
vt 0.226479 0.488811
vt 0.229384 0.459320
vt 0.231186 0.441018
vt 0.000000 0.525000
vt 0.015625 0.515433
vt 0.000119 0.515433
vt 0.731187 0.441018
vt 0.000000 0.975000
vt 0.000119 0.984567
vt 0.000458 1.000000
vt 0.250000 0.441942
vt 0.999542 1.000000
vt 0.000458 0.500000
s 1
f 2/1/2 15/2/15 5/3/5
f 5/3/5 14/4/14 4/5/4
f 4/6/4 13/7/13 3/8/3
f 3/8/3 11/9/11 1/10/1
f 7/11/7 20/12/20 17/13/17
f 10/14/10 19/15/19 20/12/20
f 9/16/9 18/17/18 19/18/19
f 8/19/8 16/20/16 18/17/18
f 22/21/22 15/2/15 12/22/12
f 25/23/25 14/4/14 15/2/15
f 14/24/14 23/25/23 13/7/13
f 13/7/13 21/26/21 11/9/11
f 17/13/17 30/27/30 27/28/27
f 30/27/30 19/15/19 29/29/29
f 19/18/19 28/30/28 29/31/29
f 18/17/18 26/32/26 28/30/28
f 32/33/32 25/23/25 22/21/22
f 35/34/35 24/35/24 25/23/25
f 34/36/34 23/25/23 24/37/24
f 23/25/23 31/38/31 21/26/21
f 27/28/27 40/39/40 37/40/37
f 40/39/40 29/29/29 39/41/39
f 39/42/39 28/30/28 38/43/38
f 28/30/28 36/44/36 38/43/38
f 42/45/42 35/34/35 32/33/32
f 45/46/45 34/47/34 35/34/35
f 44/48/44 33/49/33 34/36/34
f 43/50/43 31/38/31 33/49/33
f 47/51/47 40/39/40 50/52/50
f 50/52/50 39/41/39 49/53/49
f 49/54/49 38/43/38 48/55/48
f 48/55/48 36/44/36 46/56/46
f 52/57/52 45/46/45 42/45/42
f 55/58/55 44/59/44 45/46/45
f 54/60/54 43/50/43 44/48/44
f 53/61/53 41/62/41 43/50/43
f 57/63/57 50/52/50 60/64/60
f 60/64/60 49/53/49 59/65/59
f 59/66/59 48/55/48 58/67/58
f 58/67/58 46/56/46 56/68/56
f 62/69/62 55/58/55 52/57/52
f 65/70/65 54/71/54 55/58/55
f 64/72/64 53/61/53 54/60/54
f 63/73/63 51/74/51 53/61/53
f 67/75/67 60/64/60 70/76/70
f 60/64/60 69/77/69 70/76/70
f 69/78/69 58/67/58 68/79/68
f 68/79/68 56/68/56 66/80/66
f 62/69/62 75/81/75 65/70/65
f 65/70/65 74/82/74 64/83/64
f 64/72/64 73/84/73 63/73/63
f 63/73/63 71/85/71 61/86/61
f 77/87/77 70/76/70 80/88/80
f 70/76/70 79/89/79 80/88/80
f 69/78/69 78/90/78 79/91/79
f 68/79/68 76/92/76 78/90/78
f 82/93/82 75/81/75 72/94/72
f 85/95/85 74/82/74 75/81/75
f 84/96/84 73/84/73 74/97/74
f 73/84/73 81/98/81 71/85/71
f 87/99/87 80/88/80 90/100/90
f 80/88/80 89/101/89 90/100/90
f 79/91/79 88/102/88 89/103/89
f 78/90/78 86/104/86 88/102/88
f 82/93/82 95/105/95 85/95/85
f 95/105/95 84/106/84 85/95/85
f 94/107/94 83/108/83 84/96/84
f 93/109/93 81/98/81 83/108/83
f 87/99/87 100/110/100 97/111/97
f 90/100/90 99/112/99 100/110/100
f 89/103/89 98/113/98 99/114/99
f 98/113/98 86/104/86 96/115/96
f 92/116/92 105/117/105 95/105/95
f 105/117/105 94/118/94 95/105/95
f 104/119/104 93/109/93 94/107/94
f 103/120/103 91/121/91 93/109/93
f 107/122/107 100/110/100 110/123/110
f 110/123/110 99/112/99 109/124/109
f 109/125/109 98/113/98 108/126/108
f 108/126/108 96/115/96 106/127/106
f 102/128/102 115/129/115 105/117/105
f 115/129/115 104/130/104 105/117/105
f 104/119/104 113/131/113 103/120/103
f 103/120/103 111/132/111 101/133/101
f 107/122/107 120/134/120 117/135/117
f 110/123/110 119/136/119 120/134/120
f 109/125/109 118/137/118 119/138/119
f 108/126/108 116/139/116 118/137/118
f 112/140/112 125/141/125 115/129/115
f 115/129/115 124/142/124 114/143/114
f 114/144/114 123/145/123 113/131/113
f 113/131/113 121/146/121 111/132/111
f 117/135/117 130/147/130 127/148/127
f 120/134/120 129/149/129 130/147/130
f 119/138/119 128/150/128 129/151/129
f 118/137/118 126/152/126 128/150/128
f 122/153/122 135/154/135 125/141/125
f 125/141/125 134/155/134 124/142/124
f 124/156/124 133/157/133 123/145/123
f 123/145/123 131/158/131 121/146/121
f 127/148/127 140/159/140 137/160/137
f 130/147/130 139/161/139 140/159/140
f 129/151/129 138/162/138 139/163/139
f 128/150/128 136/164/136 138/162/138
f 142/165/142 135/154/135 132/166/132
f 135/154/135 144/167/144 134/155/134
f 134/168/134 143/169/143 133/157/133
f 143/169/143 131/158/131 133/157/133
f 137/160/137 150/170/150 147/171/147
f 140/159/140 149/172/149 150/170/150
f 139/163/139 148/173/148 149/174/149
f 148/173/148 136/164/136 146/175/146
f 152/176/152 145/177/145 142/165/142
f 145/177/145 154/178/154 144/167/144
f 154/179/154 143/169/143 144/180/144
f 153/181/153 141/182/141 143/169/143
f 147/171/147 160/183/160 157/184/157
f 150/170/150 159/185/159 160/183/160
f 159/186/159 148/173/148 158/187/158
f 158/187/158 146/175/146 156/188/156
f 162/189/162 155/190/155 152/176/152
f 165/191/165 154/178/154 155/190/155
f 164/192/164 153/181/153 154/179/154
f 163/193/163 151/194/151 153/181/153
f 167/195/167 160/183/160 170/196/170
f 170/196/170 159/185/159 169/197/169
f 169/198/169 158/187/158 168/199/168
f 168/199/168 156/188/156 166/200/166
f 162/189/162 175/201/175 165/191/165
f 165/191/165 174/202/174 164/203/164
f 164/192/164 173/204/173 163/193/163
f 163/193/163 171/205/171 161/206/161
f 167/195/167 180/207/180 177/208/177
f 170/196/170 179/209/179 180/207/180
f 169/198/169 178/210/178 179/211/179
f 168/199/168 176/212/176 178/210/178
f 182/213/182 175/201/175 172/214/172
f 185/215/185 174/202/174 175/201/175
f 174/216/174 183/217/183 173/204/173
f 173/204/173 181/218/181 171/205/171
f 177/208/177 190/219/190 187/220/187
f 190/219/190 179/209/179 189/221/189
f 179/211/179 188/222/188 189/223/189
f 178/210/178 186/224/186 188/222/188
f 192/225/192 185/215/185 182/213/182
f 195/226/195 184/227/184 185/215/185
f 194/228/194 183/217/183 184/229/184
f 183/217/183 191/230/191 181/218/181
f 187/220/187 200/231/200 197/232/197
f 200/231/200 189/221/189 199/233/199
f 199/234/199 188/222/188 198/235/198
f 188/222/188 196/236/196 198/235/198
f 202/237/202 195/226/195 192/225/192
f 205/238/205 194/239/194 195/226/195
f 204/240/204 193/241/193 194/228/194
f 203/242/203 191/230/191 193/241/193
f 207/243/207 200/231/200 210/244/210
f 210/244/210 199/233/199 209/245/209
f 209/246/209 198/235/198 208/247/208
f 208/247/208 196/236/196 206/248/206
f 212/249/212 205/238/205 202/237/202
f 215/250/215 204/251/204 205/238/205
f 214/252/214 203/242/203 204/240/204
f 213/253/213 201/254/201 203/242/203
f 217/255/217 210/244/210 220/256/220
f 220/256/220 209/245/209 219/257/219
f 219/258/219 208/247/208 218/259/218
f 218/259/218 206/248/206 216/260/216
f 222/261/222 215/250/215 212/249/212
f 225/262/225 214/263/214 215/250/215
f 224/264/224 213/253/213 214/252/214
f 223/265/223 211/266/211 213/253/213
f 227/267/227 220/256/220 230/268/230
f 220/256/220 229/269/229 230/268/230
f 229/270/229 218/259/218 228/271/228
f 228/271/228 216/260/216 226/272/226
f 222/261/222 235/273/235 225/262/225
f 225/262/225 234/274/234 224/275/224
f 224/264/224 233/276/233 223/265/223
f 223/265/223 231/277/231 221/278/221
f 237/279/237 230/268/230 240/280/240
f 230/268/230 239/281/239 240/280/240
f 229/270/229 238/282/238 239/283/239
f 228/271/228 236/284/236 238/282/238
f 242/285/242 235/273/235 232/286/232
f 245/287/245 234/274/234 235/273/235
f 244/288/244 233/276/233 234/289/234
f 233/276/233 241/290/241 231/277/231
f 247/291/247 240/280/240 250/292/250
f 240/280/240 249/293/249 250/292/250
f 239/283/239 248/294/248 249/295/249
f 238/282/238 246/296/246 248/294/248
f 242/285/242 255/297/255 245/287/245
f 255/297/255 244/298/244 245/287/245
f 254/299/254 243/300/243 244/288/244
f 253/301/253 241/290/241 243/300/243
f 247/291/247 260/302/260 257/303/257
f 250/292/250 259/304/259 260/302/260
f 249/295/249 258/305/258 259/306/259
f 258/305/258 246/296/246 256/307/256
f 252/308/252 265/309/265 255/297/255
f 265/309/265 254/310/254 255/297/255
f 264/311/264 253/301/253 254/299/254
f 263/312/263 251/313/251 253/301/253
f 267/314/267 260/302/260 270/315/270
f 270/315/270 259/304/259 269/316/269
f 269/317/269 258/305/258 268/318/268
f 268/318/268 256/307/256 266/319/266
f 262/320/262 275/321/275 265/309/265
f 275/321/275 264/322/264 265/309/265
f 264/311/264 273/323/273 263/312/263
f 263/312/263 271/324/271 261/325/261
f 267/314/267 280/326/280 277/327/277
f 270/315/270 279/328/279 280/326/280
f 269/317/269 278/329/278 279/330/279
f 268/318/268 276/331/276 278/329/278
f 272/332/272 285/333/285 275/321/275
f 275/321/275 284/334/284 274/335/274
f 274/336/274 283/337/283 273/323/273
f 273/323/273 281/338/281 271/324/271
f 277/327/277 290/339/290 287/340/287
f 280/326/280 289/341/289 290/339/290
f 279/330/279 288/342/288 289/343/289
f 278/329/278 286/344/286 288/342/288
f 282/345/282 295/346/295 285/333/285
f 285/333/285 294/347/294 284/334/284
f 284/348/284 293/349/293 283/337/283
f 283/337/283 291/350/291 281/338/281
f 287/340/287 300/351/300 297/352/297
f 290/339/290 299/353/299 300/351/300
f 289/343/289 298/354/298 299/355/299
f 288/342/288 296/356/296 298/354/298
f 302/357/302 295/346/295 292/358/292
f 295/346/295 304/359/304 294/347/294
f 294/360/294 303/361/303 293/349/293
f 303/361/303 291/350/291 293/349/293
f 297/352/297 310/362/310 307/363/307
f 300/351/300 309/364/309 310/362/310
f 299/355/299 308/365/308 309/366/309
f 308/365/308 296/356/296 306/367/306
f 312/368/312 305/369/305 302/357/302
f 305/369/305 314/370/314 304/359/304
f 314/371/314 303/361/303 304/372/304
f 313/373/313 301/374/301 303/361/303
f 307/363/307 320/375/320 317/376/317
f 310/362/310 319/377/319 320/375/320
f 319/378/319 308/365/308 318/379/318
f 318/379/318 306/367/306 316/380/316
f 322/381/322 315/382/315 312/368/312
f 325/383/325 314/370/314 315/382/315
f 324/384/324 313/373/313 314/371/314
f 323/385/323 311/386/311 313/373/313
f 327/387/327 320/375/320 330/388/330
f 330/388/330 319/377/319 329/389/329
f 329/390/329 318/379/318 328/391/328
f 328/391/328 316/380/316 326/392/326
f 322/381/322 335/393/335 325/383/325
f 325/383/325 334/394/334 324/395/324
f 324/384/324 333/396/333 323/385/323
f 323/385/323 331/397/331 321/398/321
f 327/387/327 340/399/340 337/400/337
f 330/388/330 339/401/339 340/399/340
f 329/390/329 338/402/338 339/403/339
f 328/391/328 336/404/336 338/402/338
f 342/405/342 335/393/335 332/406/332
f 345/407/345 334/394/334 335/393/335
f 334/408/334 343/409/343 333/396/333
f 333/396/333 341/410/341 331/397/331
f 337/400/337 350/411/350 347/412/347
f 350/411/350 339/401/339 349/413/349
f 339/403/339 348/414/348 349/415/349
f 338/402/338 346/416/346 348/414/348
f 352/417/352 345/407/345 342/405/342
f 355/418/355 344/419/344 345/407/345
f 354/420/354 343/409/343 344/421/344
f 343/409/343 351/422/351 341/410/341
f 347/412/347 360/423/360 357/424/357
f 360/423/360 349/413/349 359/425/359
f 359/426/359 348/414/348 358/427/358
f 348/414/348 356/428/356 358/427/358
f 362/429/362 355/418/355 352/417/352
f 365/430/365 354/431/354 355/418/355
f 364/432/364 353/433/353 354/420/354
f 363/434/363 351/422/351 353/433/353
f 367/435/367 360/423/360 370/436/370
f 370/436/370 359/425/359 369/437/369
f 369/438/369 358/427/358 368/439/368
f 368/439/368 356/428/356 366/440/366
f 372/441/372 365/430/365 362/429/362
f 375/442/375 364/443/364 365/430/365
f 374/444/374 363/434/363 364/432/364
f 373/445/373 361/446/361 363/434/363
f 377/447/377 370/436/370 380/448/380
f 380/448/380 369/437/369 379/449/379
f 379/450/379 368/439/368 378/451/378
f 378/451/378 366/440/366 376/452/376
f 382/453/382 375/442/375 372/441/372
f 385/454/385 374/455/374 375/442/375
f 384/456/384 373/445/373 374/444/374
f 383/457/383 371/458/371 373/445/373
f 387/459/387 380/448/380 390/460/390
f 380/448/380 389/461/389 390/460/390
f 389/462/389 378/451/378 388/463/388
f 388/463/388 376/452/376 386/464/386
f 382/453/382 395/465/395 385/454/385
f 385/454/385 394/466/394 384/467/384
f 384/456/384 393/468/393 383/457/383
f 383/457/383 391/469/391 381/470/381
f 397/471/397 390/460/390 400/472/400
f 390/460/390 399/473/399 400/472/400
f 389/462/389 398/474/398 399/475/399
f 388/463/388 396/476/396 398/474/398
f 402/477/402 395/465/395 392/478/392
f 405/479/405 394/466/394 395/465/395
f 404/480/404 393/468/393 394/481/394
f 393/468/393 401/482/401 391/469/391
f 407/483/407 400/472/400 410/484/410
f 400/472/400 409/485/409 410/484/410
f 399/475/399 408/486/408 409/487/409
f 398/474/398 406/488/406 408/486/408
f 402/477/402 415/489/415 405/479/405
f 415/489/415 404/490/404 405/479/405
f 414/491/414 403/492/403 404/480/404
f 413/493/413 401/482/401 403/492/403
f 407/483/407 420/494/420 417/495/417
f 410/484/410 419/496/419 420/494/420
f 409/487/409 418/497/418 419/498/419
f 418/497/418 406/488/406 416/499/416
f 412/500/412 425/501/425 415/489/415
f 425/501/425 414/502/414 415/489/415
f 424/503/424 413/493/413 414/491/414
f 423/504/423 411/505/411 413/493/413
f 427/506/427 420/494/420 430/507/430
f 430/507/430 419/496/419 429/508/429
f 429/509/429 418/497/418 428/510/428
f 428/510/428 416/499/416 426/511/426
f 422/512/422 435/513/435 425/501/425
f 435/513/435 424/514/424 425/501/425
f 424/503/424 433/515/433 423/504/423
f 423/504/423 431/516/431 421/517/421
f 427/506/427 440/518/440 437/519/437
f 430/507/430 439/520/439 440/518/440
f 429/509/429 438/521/438 439/522/439
f 428/510/428 436/523/436 438/521/438
f 432/524/432 445/525/445 435/513/435
f 435/513/435 444/526/444 434/527/434
f 434/528/434 443/529/443 433/515/433
f 433/515/433 441/530/441 431/516/431
f 437/519/437 450/531/450 447/532/447
f 440/518/440 449/533/449 450/531/450
f 439/522/439 448/534/448 449/535/449
f 438/521/438 446/536/446 448/534/448
f 442/537/442 455/538/455 445/525/445
f 445/525/445 454/539/454 444/526/444
f 444/540/444 453/541/453 443/529/443
f 443/529/443 451/542/451 441/530/441
f 447/532/447 460/543/460 457/544/457
f 450/531/450 459/545/459 460/543/460
f 449/535/449 458/546/458 459/547/459
f 448/534/448 456/548/456 458/546/458
f 462/549/462 455/538/455 452/550/452
f 455/538/455 464/551/464 454/539/454
f 454/552/454 463/553/463 453/541/453
f 463/553/463 451/542/451 453/541/453
f 457/544/457 470/554/470 467/555/467
f 460/543/460 469/556/469 470/554/470
f 459/547/459 468/557/468 469/558/469
f 468/557/468 456/548/456 466/559/466
f 472/560/472 465/561/465 462/549/462
f 465/561/465 474/562/474 464/551/464
f 474/563/474 463/553/463 464/564/464
f 473/565/473 461/566/461 463/553/463
f 467/555/467 480/567/480 477/568/477
f 470/554/470 479/569/479 480/567/480
f 479/570/479 468/557/468 478/571/478
f 478/571/478 466/559/466 476/572/476
f 482/573/482 475/574/475 472/560/472
f 485/575/485 474/562/474 475/574/475
f 484/576/484 473/565/473 474/563/474
f 483/577/483 471/578/471 473/565/473
f 487/579/487 480/567/480 490/580/490
f 490/580/490 479/569/479 489/581/489
f 489/582/489 478/571/478 488/583/488
f 488/583/488 476/572/476 486/584/486
f 482/573/482 495/585/495 485/575/485
f 485/575/485 494/586/494 484/587/484
f 484/576/484 493/588/493 483/577/483
f 483/577/483 491/589/491 481/590/481
f 487/579/487 500/591/500 497/592/497
f 490/580/490 499/593/499 500/591/500
f 489/582/489 498/594/498 499/595/499
f 488/583/488 496/596/496 498/594/498
f 502/597/502 495/585/495 492/598/492
f 505/599/505 494/586/494 495/585/495
f 494/600/494 503/601/503 493/588/493
f 493/588/493 501/602/501 491/589/491
f 497/592/497 510/603/510 507/604/507
f 510/603/510 499/593/499 509/605/509
f 499/595/499 508/606/508 509/607/509
f 498/594/498 506/608/506 508/606/508
f 512/609/512 505/599/505 502/597/502
f 515/610/515 504/611/504 505/599/505
f 514/612/514 503/601/503 504/613/504
f 503/601/503 511/614/511 501/602/501
f 507/604/507 520/615/520 517/616/517
f 520/615/520 509/605/509 519/617/519
f 519/618/519 508/606/508 518/619/518
f 508/606/508 516/620/516 518/619/518
f 522/621/522 515/610/515 512/609/512
f 525/622/525 514/623/514 515/610/515
f 524/624/524 513/625/513 514/612/514
f 523/626/523 511/614/511 513/625/513
f 527/627/527 520/615/520 530/628/530
f 530/628/530 519/617/519 529/629/529
f 529/630/529 518/619/518 528/631/528
f 528/631/528 516/620/516 526/632/526
f 532/633/532 525/622/525 522/621/522
f 535/634/535 524/635/524 525/622/525
f 534/636/534 523/626/523 524/624/524
f 533/637/533 521/638/521 523/626/523
f 537/639/537 530/628/530 540/640/540
f 540/640/540 529/629/529 539/641/539
f 539/642/539 528/631/528 538/643/538
f 538/643/538 526/632/526 536/644/536
f 542/645/542 535/634/535 532/633/532
f 545/646/545 534/647/534 535/634/535
f 544/648/544 533/637/533 534/636/534
f 543/649/543 531/650/531 533/637/533
f 547/651/547 540/640/540 550/652/550
f 540/640/540 549/653/549 550/652/550
f 549/654/549 538/643/538 548/655/548
f 548/655/548 536/644/536 546/656/546
f 542/645/542 555/657/555 545/646/545
f 545/646/545 554/658/554 544/659/544
f 544/648/544 553/660/553 543/649/543
f 543/649/543 551/661/551 541/662/541
f 557/663/557 550/652/550 560/664/560
f 550/652/550 559/665/559 560/664/560
f 549/654/549 558/666/558 559/667/559
f 548/655/548 556/668/556 558/666/558
f 562/669/562 555/657/555 552/670/552
f 565/671/565 554/658/554 555/657/555
f 564/672/564 553/660/553 554/673/554
f 553/660/553 561/674/561 551/661/551
f 567/675/567 560/664/560 570/676/570
f 560/664/560 569/677/569 570/676/570
f 559/667/559 568/678/568 569/679/569
f 558/666/558 566/680/566 568/678/568
f 562/669/562 575/681/575 565/671/565
f 575/681/575 564/682/564 565/671/565
f 574/683/574 563/684/563 564/672/564
f 573/685/573 561/674/561 563/684/563
f 567/675/567 580/686/580 577/687/577
f 570/676/570 579/688/579 580/686/580
f 569/679/569 578/689/578 579/690/579
f 578/689/578 566/680/566 576/691/576
f 572/692/572 585/693/585 575/681/575
f 585/693/585 574/694/574 575/681/575
f 584/695/584 573/685/573 574/683/574
f 583/696/583 571/697/571 573/685/573
f 587/698/587 580/686/580 590/699/590
f 590/699/590 579/688/579 589/700/589
f 589/701/589 578/689/578 588/702/588
f 588/702/588 576/691/576 586/703/586
f 582/704/582 595/705/595 585/693/585
f 595/705/595 584/706/584 585/693/585
f 584/695/584 593/707/593 583/696/583
f 583/696/583 591/708/591 581/709/581
f 587/698/587 600/710/600 597/711/597
f 590/699/590 599/712/599 600/710/600
f 589/701/589 598/713/598 599/714/599
f 588/702/588 596/715/596 598/713/598
f 592/716/592 605/717/605 595/705/595
f 595/705/595 604/718/604 594/719/594
f 594/720/594 603/721/603 593/707/593
f 593/707/593 601/722/601 591/708/591
f 597/711/597 610/723/610 607/724/607
f 600/710/600 609/725/609 610/723/610
f 599/714/599 608/726/608 609/727/609
f 598/713/598 606/728/606 608/726/608
f 602/729/602 615/730/615 605/717/605
f 605/717/605 614/731/614 604/718/604
f 604/732/604 613/733/613 603/721/603
f 603/721/603 611/734/611 601/722/601
f 607/724/607 620/735/620 617/736/617
f 610/723/610 619/737/619 620/735/620
f 609/727/609 618/738/618 619/739/619
f 608/726/608 616/740/616 618/738/618
f 622/741/622 615/730/615 612/742/612
f 615/730/615 624/743/624 614/731/614
f 614/744/614 623/745/623 613/733/613
f 623/745/623 611/734/611 613/733/613
f 617/736/617 630/746/630 627/747/627
f 620/735/620 629/748/629 630/746/630
f 619/739/619 628/749/628 629/750/629
f 628/749/628 616/740/616 626/751/626
f 632/752/632 625/753/625 622/741/622
f 625/753/625 634/754/634 624/743/624
f 634/755/634 623/745/623 624/756/624
f 633/757/633 621/758/621 623/745/623
f 627/747/627 640/759/640 637/760/637
f 630/746/630 639/761/639 640/759/640
f 639/762/639 628/749/628 638/763/638
f 638/763/638 626/751/626 636/764/636
f 2/765/2 635/766/635 632/752/632
f 5/767/5 634/754/634 635/766/635
f 4/6/4 633/757/633 634/755/634
f 3/8/3 631/768/631 633/757/633
f 7/769/7 640/759/640 10/770/10
f 10/770/10 639/761/639 9/771/9
f 9/16/9 638/763/638 8/19/8
f 8/19/8 636/764/636 6/772/6
f 311/386/311 471/578/471 631/768/631
f 7/11/7 12/22/12 2/1/2
f 637/760/637 2/765/2 632/752/632
f 346/416/346 186/224/186 26/32/26
f 17/13/17 22/21/22 12/22/12
f 27/28/27 32/33/32 22/21/22
f 37/40/37 42/45/42 32/33/32
f 47/51/47 52/57/52 42/45/42
f 57/63/57 62/69/62 52/57/52
f 67/75/67 72/94/72 62/69/62
f 77/87/77 82/93/82 72/94/72
f 87/99/87 92/116/92 82/93/82
f 97/111/97 102/128/102 92/116/92
f 107/122/107 112/140/112 102/128/102
f 117/135/117 122/153/122 112/140/112
f 127/148/127 132/166/132 122/153/122
f 137/160/137 142/165/142 132/166/132
f 147/171/147 152/176/152 142/165/142
f 157/184/157 162/189/162 152/176/152
f 167/195/167 172/214/172 162/189/162
f 177/208/177 182/213/182 172/214/172
f 187/220/187 192/225/192 182/213/182
f 197/232/197 202/237/202 192/225/192
f 207/243/207 212/249/212 202/237/202
f 217/255/217 222/261/222 212/249/212
f 227/267/227 232/286/232 222/261/222
f 237/279/237 242/285/242 232/286/232
f 247/291/247 252/308/252 242/285/242
f 257/303/257 262/320/262 252/308/252
f 267/314/267 272/332/272 262/320/262
f 277/327/277 282/345/282 272/332/272
f 287/340/287 292/358/292 282/345/282
f 297/352/297 302/357/302 292/358/292
f 307/363/307 312/368/312 302/357/302
f 317/376/317 322/381/322 312/368/312
f 327/387/327 332/406/332 322/381/322
f 337/400/337 342/405/342 332/406/332
f 347/412/347 352/417/352 342/405/342
f 357/424/357 362/429/362 352/417/352
f 367/435/367 372/441/372 362/429/362
f 377/447/377 382/453/382 372/441/372
f 387/459/387 392/478/392 382/453/382
f 397/471/397 402/477/402 392/478/392
f 407/483/407 412/500/412 402/477/402
f 417/495/417 422/512/422 412/500/412
f 427/506/427 432/524/432 422/512/422
f 437/519/437 442/537/442 432/524/432
f 447/532/447 452/550/452 442/537/442
f 457/544/457 462/549/462 452/550/452
f 467/555/467 472/560/472 462/549/462
f 477/568/477 482/573/482 472/560/472
f 487/579/487 492/598/492 482/573/482
f 497/592/497 502/597/502 492/598/492
f 507/604/507 512/609/512 502/597/502
f 517/616/517 522/621/522 512/609/512
f 527/627/527 532/633/532 522/621/522
f 537/639/537 542/645/542 532/633/532
f 547/651/547 552/670/552 542/645/542
f 557/663/557 562/669/562 552/670/552
f 567/675/567 572/692/572 562/669/562
f 577/687/577 582/704/582 572/692/572
f 587/698/587 592/716/592 582/704/582
f 597/711/597 602/729/602 592/716/592
f 607/724/607 612/742/612 602/729/602
f 617/736/617 622/741/622 612/742/612
f 627/747/627 632/752/632 622/741/622
f 2/1/2 12/22/12 15/2/15
f 5/3/5 15/2/15 14/4/14
f 4/6/4 14/24/14 13/7/13
f 3/8/3 13/7/13 11/9/11
f 7/11/7 10/14/10 20/12/20
f 10/14/10 9/773/9 19/15/19
f 9/16/9 8/19/8 18/17/18
f 8/19/8 6/772/6 16/20/16
f 22/21/22 25/23/25 15/2/15
f 25/23/25 24/35/24 14/4/14
f 14/24/14 24/37/24 23/25/23
f 13/7/13 23/25/23 21/26/21
f 17/13/17 20/12/20 30/27/30
f 30/27/30 20/12/20 19/15/19
f 19/18/19 18/17/18 28/30/28
f 18/17/18 16/20/16 26/32/26
f 32/33/32 35/34/35 25/23/25
f 35/34/35 34/47/34 24/35/24
f 34/36/34 33/49/33 23/25/23
f 23/25/23 33/49/33 31/38/31
f 27/28/27 30/27/30 40/39/40
f 40/39/40 30/27/30 29/29/29
f 39/42/39 29/31/29 28/30/28
f 28/30/28 26/32/26 36/44/36
f 42/45/42 45/46/45 35/34/35
f 45/46/45 44/59/44 34/47/34
f 44/48/44 43/50/43 33/49/33
f 43/50/43 41/62/41 31/38/31
f 47/51/47 37/40/37 40/39/40
f 50/52/50 40/39/40 39/41/39
f 49/54/49 39/42/39 38/43/38
f 48/55/48 38/43/38 36/44/36
f 52/57/52 55/58/55 45/46/45
f 55/58/55 54/71/54 44/59/44
f 54/60/54 53/61/53 43/50/43
f 53/61/53 51/74/51 41/62/41
f 57/63/57 47/51/47 50/52/50
f 60/64/60 50/52/50 49/53/49
f 59/66/59 49/54/49 48/55/48
f 58/67/58 48/55/48 46/56/46
f 62/69/62 65/70/65 55/58/55
f 65/70/65 64/83/64 54/71/54
f 64/72/64 63/73/63 53/61/53
f 63/73/63 61/86/61 51/74/51
f 67/75/67 57/63/57 60/64/60
f 60/64/60 59/65/59 69/77/69
f 69/78/69 59/66/59 58/67/58
f 68/79/68 58/67/58 56/68/56
f 62/69/62 72/94/72 75/81/75
f 65/70/65 75/81/75 74/82/74
f 64/72/64 74/97/74 73/84/73
f 63/73/63 73/84/73 71/85/71
f 77/87/77 67/75/67 70/76/70
f 70/76/70 69/77/69 79/89/79
f 69/78/69 68/79/68 78/90/78
f 68/79/68 66/80/66 76/92/76
f 82/93/82 85/95/85 75/81/75
f 85/95/85 84/106/84 74/82/74
f 84/96/84 83/108/83 73/84/73
f 73/84/73 83/108/83 81/98/81
f 87/99/87 77/87/77 80/88/80
f 80/88/80 79/89/79 89/101/89
f 79/91/79 78/90/78 88/102/88
f 78/90/78 76/92/76 86/104/86
f 82/93/82 92/116/92 95/105/95
f 95/105/95 94/118/94 84/106/84
f 94/107/94 93/109/93 83/108/83
f 93/109/93 91/121/91 81/98/81
f 87/99/87 90/100/90 100/110/100
f 90/100/90 89/101/89 99/112/99
f 89/103/89 88/102/88 98/113/98
f 98/113/98 88/102/88 86/104/86
f 92/116/92 102/128/102 105/117/105
f 105/117/105 104/130/104 94/118/94
f 104/119/104 103/120/103 93/109/93
f 103/120/103 101/133/101 91/121/91
f 107/122/107 97/111/97 100/110/100
f 110/123/110 100/110/100 99/112/99
f 109/125/109 99/114/99 98/113/98
f 108/126/108 98/113/98 96/115/96
f 102/128/102 112/140/112 115/129/115
f 115/129/115 114/143/114 104/130/104
f 104/119/104 114/144/114 113/131/113
f 103/120/103 113/131/113 111/132/111
f 107/122/107 110/123/110 120/134/120
f 110/123/110 109/124/109 119/136/119
f 109/125/109 108/126/108 118/137/118
f 108/126/108 106/127/106 116/139/116
f 112/140/112 122/153/122 125/141/125
f 115/129/115 125/141/125 124/142/124
f 114/144/114 124/156/124 123/145/123
f 113/131/113 123/145/123 121/146/121
f 117/135/117 120/134/120 130/147/130
f 120/134/120 119/136/119 129/149/129
f 119/138/119 118/137/118 128/150/128
f 118/137/118 116/139/116 126/152/126
f 122/153/122 132/166/132 135/154/135
f 125/141/125 135/154/135 134/155/134
f 124/156/124 134/168/134 133/157/133
f 123/145/123 133/157/133 131/158/131
f 127/148/127 130/147/130 140/159/140
f 130/147/130 129/149/129 139/161/139
f 129/151/129 128/150/128 138/162/138
f 128/150/128 126/152/126 136/164/136
f 142/165/142 145/177/145 135/154/135
f 135/154/135 145/177/145 144/167/144
f 134/168/134 144/180/144 143/169/143
f 143/169/143 141/182/141 131/158/131
f 137/160/137 140/159/140 150/170/150
f 140/159/140 139/161/139 149/172/149
f 139/163/139 138/162/138 148/173/148
f 148/173/148 138/162/138 136/164/136
f 152/176/152 155/190/155 145/177/145
f 145/177/145 155/190/155 154/178/154
f 154/179/154 153/181/153 143/169/143
f 153/181/153 151/194/151 141/182/141
f 147/171/147 150/170/150 160/183/160
f 150/170/150 149/172/149 159/185/159
f 159/186/159 149/174/149 148/173/148
f 158/187/158 148/173/148 146/175/146
f 162/189/162 165/191/165 155/190/155
f 165/191/165 164/203/164 154/178/154
f 164/192/164 163/193/163 153/181/153
f 163/193/163 161/206/161 151/194/151
f 167/195/167 157/184/157 160/183/160
f 170/196/170 160/183/160 159/185/159
f 169/198/169 159/186/159 158/187/158
f 168/199/168 158/187/158 156/188/156
f 162/189/162 172/214/172 175/201/175
f 165/191/165 175/201/175 174/202/174
f 164/192/164 174/216/174 173/204/173
f 163/193/163 173/204/173 171/205/171
f 167/195/167 170/196/170 180/207/180
f 170/196/170 169/197/169 179/209/179
f 169/198/169 168/199/168 178/210/178
f 168/199/168 166/200/166 176/212/176
f 182/213/182 185/215/185 175/201/175
f 185/215/185 184/227/184 174/202/174
f 174/216/174 184/229/184 183/217/183
f 173/204/173 183/217/183 181/218/181
f 177/208/177 180/207/180 190/219/190
f 190/219/190 180/207/180 179/209/179
f 179/211/179 178/210/178 188/222/188
f 178/210/178 176/212/176 186/224/186
f 192/225/192 195/226/195 185/215/185
f 195/226/195 194/239/194 184/227/184
f 194/228/194 193/241/193 183/217/183
f 183/217/183 193/241/193 191/230/191
f 187/220/187 190/219/190 200/231/200
f 200/231/200 190/219/190 189/221/189
f 199/234/199 189/223/189 188/222/188
f 188/222/188 186/224/186 196/236/196
f 202/237/202 205/238/205 195/226/195
f 205/238/205 204/251/204 194/239/194
f 204/240/204 203/242/203 193/241/193
f 203/242/203 201/254/201 191/230/191
f 207/243/207 197/232/197 200/231/200
f 210/244/210 200/231/200 199/233/199
f 209/246/209 199/234/199 198/235/198
f 208/247/208 198/235/198 196/236/196
f 212/249/212 215/250/215 205/238/205
f 215/250/215 214/263/214 204/251/204
f 214/252/214 213/253/213 203/242/203
f 213/253/213 211/266/211 201/254/201
f 217/255/217 207/243/207 210/244/210
f 220/256/220 210/244/210 209/245/209
f 219/258/219 209/246/209 208/247/208
f 218/259/218 208/247/208 206/248/206
f 222/261/222 225/262/225 215/250/215
f 225/262/225 224/275/224 214/263/214
f 224/264/224 223/265/223 213/253/213
f 223/265/223 221/278/221 211/266/211
f 227/267/227 217/255/217 220/256/220
f 220/256/220 219/257/219 229/269/229
f 229/270/229 219/258/219 218/259/218
f 228/271/228 218/259/218 216/260/216
f 222/261/222 232/286/232 235/273/235
f 225/262/225 235/273/235 234/274/234
f 224/264/224 234/289/234 233/276/233
f 223/265/223 233/276/233 231/277/231
f 237/279/237 227/267/227 230/268/230
f 230/268/230 229/269/229 239/281/239
f 229/270/229 228/271/228 238/282/238
f 228/271/228 226/272/226 236/284/236
f 242/285/242 245/287/245 235/273/235
f 245/287/245 244/298/244 234/274/234
f 244/288/244 243/300/243 233/276/233
f 233/276/233 243/300/243 241/290/241
f 247/291/247 237/279/237 240/280/240
f 240/280/240 239/281/239 249/293/249
f 239/283/239 238/282/238 248/294/248
f 238/282/238 236/284/236 246/296/246
f 242/285/242 252/308/252 255/297/255
f 255/297/255 254/310/254 244/298/244
f 254/299/254 253/301/253 243/300/243
f 253/301/253 251/313/251 241/290/241
f 247/291/247 250/292/250 260/302/260
f 250/292/250 249/293/249 259/304/259
f 249/295/249 248/294/248 258/305/258
f 258/305/258 248/294/248 246/296/246
f 252/308/252 262/320/262 265/309/265
f 265/309/265 264/322/264 254/310/254
f 264/311/264 263/312/263 253/301/253
f 263/312/263 261/325/261 251/313/251
f 267/314/267 257/303/257 260/302/260
f 270/315/270 260/302/260 259/304/259
f 269/317/269 259/306/259 258/305/258
f 268/318/268 258/305/258 256/307/256
f 262/320/262 272/332/272 275/321/275
f 275/321/275 274/335/274 264/322/264
f 264/311/264 274/336/274 273/323/273
f 263/312/263 273/323/273 271/324/271
f 267/314/267 270/315/270 280/326/280
f 270/315/270 269/316/269 279/328/279
f 269/317/269 268/318/268 278/329/278
f 268/318/268 266/319/266 276/331/276
f 272/332/272 282/345/282 285/333/285
f 275/321/275 285/333/285 284/334/284
f 274/336/274 284/348/284 283/337/283
f 273/323/273 283/337/283 281/338/281
f 277/327/277 280/326/280 290/339/290
f 280/326/280 279/328/279 289/341/289
f 279/330/279 278/329/278 288/342/288
f 278/329/278 276/331/276 286/344/286
f 282/345/282 292/358/292 295/346/295
f 285/333/285 295/346/295 294/347/294
f 284/348/284 294/360/294 293/349/293
f 283/337/283 293/349/293 291/350/291
f 287/340/287 290/339/290 300/351/300
f 290/339/290 289/341/289 299/353/299
f 289/343/289 288/342/288 298/354/298
f 288/342/288 286/344/286 296/356/296
f 302/357/302 305/369/305 295/346/295
f 295/346/295 305/369/305 304/359/304
f 294/360/294 304/372/304 303/361/303
f 303/361/303 301/374/301 291/350/291
f 297/352/297 300/351/300 310/362/310
f 300/351/300 299/353/299 309/364/309
f 299/355/299 298/354/298 308/365/308
f 308/365/308 298/354/298 296/356/296
f 312/368/312 315/382/315 305/369/305
f 305/369/305 315/382/315 314/370/314
f 314/371/314 313/373/313 303/361/303
f 313/373/313 311/386/311 301/374/301
f 307/363/307 310/362/310 320/375/320
f 310/362/310 309/364/309 319/377/319
f 319/378/319 309/366/309 308/365/308
f 318/379/318 308/365/308 306/367/306
f 322/381/322 325/383/325 315/382/315
f 325/383/325 324/395/324 314/370/314
f 324/384/324 323/385/323 313/373/313
f 323/385/323 321/398/321 311/386/311
f 327/387/327 317/376/317 320/375/320
f 330/388/330 320/375/320 319/377/319
f 329/390/329 319/378/319 318/379/318
f 328/391/328 318/379/318 316/380/316
f 322/381/322 332/406/332 335/393/335
f 325/383/325 335/393/335 334/394/334
f 324/384/324 334/408/334 333/396/333
f 323/385/323 333/396/333 331/397/331
f 327/387/327 330/388/330 340/399/340
f 330/388/330 329/389/329 339/401/339
f 329/390/329 328/391/328 338/402/338
f 328/391/328 326/392/326 336/404/336
f 342/405/342 345/407/345 335/393/335
f 345/407/345 344/419/344 334/394/334
f 334/408/334 344/421/344 343/409/343
f 333/396/333 343/409/343 341/410/341
f 337/400/337 340/399/340 350/411/350
f 350/411/350 340/399/340 339/401/339
f 339/403/339 338/402/338 348/414/348
f 338/402/338 336/404/336 346/416/346
f 352/417/352 355/418/355 345/407/345
f 355/418/355 354/431/354 344/419/344
f 354/420/354 353/433/353 343/409/343
f 343/409/343 353/433/353 351/422/351
f 347/412/347 350/411/350 360/423/360
f 360/423/360 350/411/350 349/413/349
f 359/426/359 349/415/349 348/414/348
f 348/414/348 346/416/346 356/428/356
f 362/429/362 365/430/365 355/418/355
f 365/430/365 364/443/364 354/431/354
f 364/432/364 363/434/363 353/433/353
f 363/434/363 361/446/361 351/422/351
f 367/435/367 357/424/357 360/423/360
f 370/436/370 360/423/360 359/425/359
f 369/438/369 359/426/359 358/427/358
f 368/439/368 358/427/358 356/428/356
f 372/441/372 375/442/375 365/430/365
f 375/442/375 374/455/374 364/443/364
f 374/444/374 373/445/373 363/434/363
f 373/445/373 371/458/371 361/446/361
f 377/447/377 367/435/367 370/436/370
f 380/448/380 370/436/370 369/437/369
f 379/450/379 369/438/369 368/439/368
f 378/451/378 368/439/368 366/440/366
f 382/453/382 385/454/385 375/442/375
f 385/454/385 384/467/384 374/455/374
f 384/456/384 383/457/383 373/445/373
f 383/457/383 381/470/381 371/458/371
f 387/459/387 377/447/377 380/448/380
f 380/448/380 379/449/379 389/461/389
f 389/462/389 379/450/379 378/451/378
f 388/463/388 378/451/378 376/452/376
f 382/453/382 392/478/392 395/465/395
f 385/454/385 395/465/395 394/466/394
f 384/456/384 394/481/394 393/468/393
f 383/457/383 393/468/393 391/469/391
f 397/471/397 387/459/387 390/460/390
f 390/460/390 389/461/389 399/473/399
f 389/462/389 388/463/388 398/474/398
f 388/463/388 386/464/386 396/476/396
f 402/477/402 405/479/405 395/465/395
f 405/479/405 404/490/404 394/466/394
f 404/480/404 403/492/403 393/468/393
f 393/468/393 403/492/403 401/482/401
f 407/483/407 397/471/397 400/472/400
f 400/472/400 399/473/399 409/485/409
f 399/475/399 398/474/398 408/486/408
f 398/474/398 396/476/396 406/488/406
f 402/477/402 412/500/412 415/489/415
f 415/489/415 414/502/414 404/490/404
f 414/491/414 413/493/413 403/492/403
f 413/493/413 411/505/411 401/482/401
f 407/483/407 410/484/410 420/494/420
f 410/484/410 409/485/409 419/496/419
f 409/487/409 408/486/408 418/497/418
f 418/497/418 408/486/408 406/488/406
f 412/500/412 422/512/422 425/501/425
f 425/501/425 424/514/424 414/502/414
f 424/503/424 423/504/423 413/493/413
f 423/504/423 421/517/421 411/505/411
f 427/506/427 417/495/417 420/494/420
f 430/507/430 420/494/420 419/496/419
f 429/509/429 419/498/419 418/497/418
f 428/510/428 418/497/418 416/499/416
f 422/512/422 432/524/432 435/513/435
f 435/513/435 434/527/434 424/514/424
f 424/503/424 434/528/434 433/515/433
f 423/504/423 433/515/433 431/516/431
f 427/506/427 430/507/430 440/518/440
f 430/507/430 429/508/429 439/520/439
f 429/509/429 428/510/428 438/521/438
f 428/510/428 426/511/426 436/523/436
f 432/524/432 442/537/442 445/525/445
f 435/513/435 445/525/445 444/526/444
f 434/528/434 444/540/444 443/529/443
f 433/515/433 443/529/443 441/530/441
f 437/519/437 440/518/440 450/531/450
f 440/518/440 439/520/439 449/533/449
f 439/522/439 438/521/438 448/534/448
f 438/521/438 436/523/436 446/536/446
f 442/537/442 452/550/452 455/538/455
f 445/525/445 455/538/455 454/539/454
f 444/540/444 454/552/454 453/541/453
f 443/529/443 453/541/453 451/542/451
f 447/532/447 450/531/450 460/543/460
f 450/531/450 449/533/449 459/545/459
f 449/535/449 448/534/448 458/546/458
f 448/534/448 446/536/446 456/548/456
f 462/549/462 465/561/465 455/538/455
f 455/538/455 465/561/465 464/551/464
f 454/552/454 464/564/464 463/553/463
f 463/553/463 461/566/461 451/542/451
f 457/544/457 460/543/460 470/554/470
f 460/543/460 459/545/459 469/556/469
f 459/547/459 458/546/458 468/557/468
f 468/557/468 458/546/458 456/548/456
f 472/560/472 475/574/475 465/561/465
f 465/561/465 475/574/475 474/562/474
f 474/563/474 473/565/473 463/553/463
f 473/565/473 471/578/471 461/566/461
f 467/555/467 470/554/470 480/567/480
f 470/554/470 469/556/469 479/569/479
f 479/570/479 469/558/469 468/557/468
f 478/571/478 468/557/468 466/559/466
f 482/573/482 485/575/485 475/574/475
f 485/575/485 484/587/484 474/562/474
f 484/576/484 483/577/483 473/565/473
f 483/577/483 481/590/481 471/578/471
f 487/579/487 477/568/477 480/567/480
f 490/580/490 480/567/480 479/569/479
f 489/582/489 479/570/479 478/571/478
f 488/583/488 478/571/478 476/572/476
f 482/573/482 492/598/492 495/585/495
f 485/575/485 495/585/495 494/586/494
f 484/576/484 494/600/494 493/588/493
f 483/577/483 493/588/493 491/589/491
f 487/579/487 490/580/490 500/591/500
f 490/580/490 489/581/489 499/593/499
f 489/582/489 488/583/488 498/594/498
f 488/583/488 486/584/486 496/596/496
f 502/597/502 505/599/505 495/585/495
f 505/599/505 504/611/504 494/586/494
f 494/600/494 504/613/504 503/601/503
f 493/588/493 503/601/503 501/602/501
f 497/592/497 500/591/500 510/603/510
f 510/603/510 500/591/500 499/593/499
f 499/595/499 498/594/498 508/606/508
f 498/594/498 496/596/496 506/608/506
f 512/609/512 515/610/515 505/599/505
f 515/610/515 514/623/514 504/611/504
f 514/612/514 513/625/513 503/601/503
f 503/601/503 513/625/513 511/614/511
f 507/604/507 510/603/510 520/615/520
f 520/615/520 510/603/510 509/605/509
f 519/618/519 509/607/509 508/606/508
f 508/606/508 506/608/506 516/620/516
f 522/621/522 525/622/525 515/610/515
f 525/622/525 524/635/524 514/623/514
f 524/624/524 523/626/523 513/625/513
f 523/626/523 521/638/521 511/614/511
f 527/627/527 517/616/517 520/615/520
f 530/628/530 520/615/520 519/617/519
f 529/630/529 519/618/519 518/619/518
f 528/631/528 518/619/518 516/620/516
f 532/633/532 535/634/535 525/622/525
f 535/634/535 534/647/534 524/635/524
f 534/636/534 533/637/533 523/626/523
f 533/637/533 531/650/531 521/638/521
f 537/639/537 527/627/527 530/628/530
f 540/640/540 530/628/530 529/629/529
f 539/642/539 529/630/529 528/631/528
f 538/643/538 528/631/528 526/632/526
f 542/645/542 545/646/545 535/634/535
f 545/646/545 544/659/544 534/647/534
f 544/648/544 543/649/543 533/637/533
f 543/649/543 541/662/541 531/650/531
f 547/651/547 537/639/537 540/640/540
f 540/640/540 539/641/539 549/653/549
f 549/654/549 539/642/539 538/643/538
f 548/655/548 538/643/538 536/644/536
f 542/645/542 552/670/552 555/657/555
f 545/646/545 555/657/555 554/658/554
f 544/648/544 554/673/554 553/660/553
f 543/649/543 553/660/553 551/661/551
f 557/663/557 547/651/547 550/652/550
f 550/652/550 549/653/549 559/665/559
f 549/654/549 548/655/548 558/666/558
f 548/655/548 546/656/546 556/668/556
f 562/669/562 565/671/565 555/657/555
f 565/671/565 564/682/564 554/658/554
f 564/672/564 563/684/563 553/660/553
f 553/660/553 563/684/563 561/674/561
f 567/675/567 557/663/557 560/664/560
f 560/664/560 559/665/559 569/677/569
f 559/667/559 558/666/558 568/678/568
f 558/666/558 556/668/556 566/680/566
f 562/669/562 572/692/572 575/681/575
f 575/681/575 574/694/574 564/682/564
f 574/683/574 573/685/573 563/684/563
f 573/685/573 571/697/571 561/674/561
f 567/675/567 570/676/570 580/686/580
f 570/676/570 569/677/569 579/688/579
f 569/679/569 568/678/568 578/689/578
f 578/689/578 568/678/568 566/680/566
f 572/692/572 582/704/582 585/693/585
f 585/693/585 584/706/584 574/694/574
f 584/695/584 583/696/583 573/685/573
f 583/696/583 581/709/581 571/697/571
f 587/698/587 577/687/577 580/686/580
f 590/699/590 580/686/580 579/688/579
f 589/701/589 579/690/579 578/689/578
f 588/702/588 578/689/578 576/691/576
f 582/704/582 592/716/592 595/705/595
f 595/705/595 594/719/594 584/706/584
f 584/695/584 594/720/594 593/707/593
f 583/696/583 593/707/593 591/708/591
f 587/698/587 590/699/590 600/710/600
f 590/699/590 589/700/589 599/712/599
f 589/701/589 588/702/588 598/713/598
f 588/702/588 586/703/586 596/715/596
f 592/716/592 602/729/602 605/717/605
f 595/705/595 605/717/605 604/718/604
f 594/720/594 604/732/604 603/721/603
f 593/707/593 603/721/603 601/722/601
f 597/711/597 600/710/600 610/723/610
f 600/710/600 599/712/599 609/725/609
f 599/714/599 598/713/598 608/726/608
f 598/713/598 596/715/596 606/728/606
f 602/729/602 612/742/612 615/730/615
f 605/717/605 615/730/615 614/731/614
f 604/732/604 614/744/614 613/733/613
f 603/721/603 613/733/613 611/734/611
f 607/724/607 610/723/610 620/735/620
f 610/723/610 609/725/609 619/737/619
f 609/727/609 608/726/608 618/738/618
f 608/726/608 606/728/606 616/740/616
f 622/741/622 625/753/625 615/730/615
f 615/730/615 625/753/625 624/743/624
f 614/744/614 624/756/624 623/745/623
f 623/745/623 621/758/621 611/734/611
f 617/736/617 620/735/620 630/746/630
f 620/735/620 619/737/619 629/748/629
f 619/739/619 618/738/618 628/749/628
f 628/749/628 618/738/618 616/740/616
f 632/752/632 635/766/635 625/753/625
f 625/753/625 635/766/635 634/754/634
f 634/755/634 633/757/633 623/745/623
f 633/757/633 631/768/631 621/758/621
f 627/747/627 630/746/630 640/759/640
f 630/746/630 629/748/629 639/761/639
f 639/762/639 629/750/629 628/749/628
f 638/763/638 628/749/628 626/751/626
f 2/765/2 5/767/5 635/766/635
f 5/767/5 4/774/4 634/754/634
f 4/6/4 3/8/3 633/757/633
f 3/8/3 1/10/1 631/768/631
f 7/769/7 637/760/637 640/759/640
f 10/770/10 640/759/640 639/761/639
f 9/16/9 639/762/639 638/763/638
f 8/19/8 638/763/638 636/764/636
f 631/768/631 1/10/1 11/9/11
f 11/9/11 21/26/21 31/38/31
f 31/38/31 41/62/41 51/74/51
f 51/74/51 61/86/61 71/85/71
f 71/85/71 81/98/81 91/121/91
f 91/121/91 101/133/101 111/132/111
f 111/132/111 121/146/121 131/158/131
f 131/158/131 141/182/141 151/194/151
f 151/194/151 161/206/161 171/205/171
f 171/205/171 181/218/181 191/230/191
f 191/230/191 201/254/201 211/266/211
f 211/266/211 221/278/221 231/277/231
f 231/277/231 241/290/241 251/313/251
f 251/313/251 261/325/261 271/324/271
f 271/324/271 281/338/281 291/350/291
f 291/350/291 301/374/301 311/386/311
f 311/386/311 321/398/321 331/397/331
f 331/397/331 341/410/341 351/422/351
f 351/422/351 361/446/361 371/458/371
f 371/458/371 381/470/381 391/469/391
f 391/469/391 401/482/401 411/505/411
f 411/505/411 421/517/421 431/516/431
f 431/516/431 441/530/441 451/542/451
f 451/542/451 461/566/461 471/578/471
f 471/578/471 481/590/481 491/589/491
f 491/589/491 501/602/501 511/614/511
f 511/614/511 521/638/521 531/650/531
f 531/650/531 541/662/541 551/661/551
f 551/661/551 561/674/561 571/697/571
f 571/697/571 581/709/581 591/708/591
f 591/708/591 601/722/601 611/734/611
f 611/734/611 621/758/621 631/768/631
f 631/768/631 11/9/11 31/38/31
f 31/38/31 51/74/51 71/85/71
f 71/85/71 91/121/91 111/132/111
f 111/132/111 131/158/131 151/194/151
f 151/194/151 171/205/171 191/230/191
f 191/230/191 211/266/211 231/277/231
f 231/277/231 251/313/251 271/324/271
f 271/324/271 291/350/291 311/386/311
f 311/386/311 331/397/331 351/422/351
f 351/422/351 371/458/371 391/469/391
f 391/469/391 411/505/411 431/516/431
f 431/516/431 451/542/451 471/578/471
f 471/578/471 491/589/491 511/614/511
f 511/614/511 531/650/531 551/661/551
f 551/661/551 571/697/571 591/708/591
f 591/708/591 611/734/611 631/768/631
f 631/768/631 31/38/31 71/85/71
f 71/85/71 111/132/111 151/194/151
f 151/194/151 191/230/191 231/277/231
f 231/277/231 271/324/271 311/386/311
f 311/386/311 351/422/351 391/469/391
f 391/469/391 431/516/431 471/578/471
f 471/578/471 511/614/511 551/661/551
f 551/661/551 591/708/591 631/768/631
f 631/768/631 71/85/71 151/194/151
f 151/194/151 231/277/231 311/386/311
f 311/386/311 391/469/391 471/578/471
f 471/578/471 551/661/551 631/768/631
f 631/768/631 151/194/151 311/386/311
f 7/11/7 17/13/17 12/22/12
f 637/760/637 7/769/7 2/765/2
f 26/32/26 16/20/16 6/772/6
f 6/772/6 636/764/636 626/751/626
f 626/751/626 616/740/616 606/728/606
f 606/728/606 596/715/596 586/703/586
f 586/703/586 576/691/576 566/680/566
f 566/680/566 556/668/556 546/656/546
f 546/656/546 536/644/536 526/632/526
f 526/632/526 516/620/516 506/608/506
f 506/608/506 496/596/496 486/584/486
f 486/584/486 476/572/476 466/559/466
f 466/559/466 456/548/456 446/536/446
f 446/536/446 436/523/436 426/511/426
f 426/511/426 416/499/416 406/488/406
f 406/488/406 396/476/396 386/464/386
f 386/464/386 376/452/376 366/440/366
f 366/440/366 356/428/356 346/416/346
f 346/416/346 336/404/336 326/392/326
f 326/392/326 316/380/316 306/367/306
f 306/367/306 296/356/296 286/344/286
f 286/344/286 276/331/276 266/319/266
f 266/319/266 256/307/256 246/296/246
f 246/296/246 236/284/236 226/272/226
f 226/272/226 216/260/216 206/248/206
f 206/248/206 196/236/196 186/224/186
f 186/224/186 176/212/176 166/200/166
f 166/200/166 156/188/156 146/175/146
f 146/175/146 136/164/136 126/152/126
f 126/152/126 116/139/116 106/127/106
f 106/127/106 96/115/96 86/104/86
f 86/104/86 76/92/76 66/80/66
f 66/80/66 56/68/56 46/56/46
f 46/56/46 36/44/36 26/32/26
f 26/32/26 6/772/6 626/751/626
f 626/751/626 606/728/606 586/703/586
f 586/703/586 566/680/566 546/656/546
f 546/656/546 526/632/526 506/608/506
f 506/608/506 486/584/486 466/559/466
f 466/559/466 446/536/446 426/511/426
f 426/511/426 406/488/406 386/464/386
f 386/464/386 366/440/366 346/416/346
f 346/416/346 326/392/326 306/367/306
f 306/367/306 286/344/286 266/319/266
f 266/319/266 246/296/246 226/272/226
f 226/272/226 206/248/206 186/224/186
f 186/224/186 166/200/166 146/175/146
f 146/175/146 126/152/126 106/127/106
f 106/127/106 86/104/86 66/80/66
f 66/80/66 46/56/46 26/32/26
f 26/32/26 626/751/626 586/703/586
f 586/703/586 546/656/546 506/608/506
f 506/608/506 466/559/466 426/511/426
f 426/511/426 386/464/386 346/416/346
f 346/416/346 306/367/306 266/319/266
f 266/319/266 226/272/226 186/224/186
f 186/224/186 146/175/146 106/127/106
f 106/127/106 66/80/66 26/32/26
f 26/32/26 586/703/586 506/608/506
f 506/608/506 426/511/426 346/416/346
f 346/416/346 266/319/266 186/224/186
f 186/224/186 106/127/106 26/32/26
f 26/32/26 506/608/506 346/416/346
f 17/13/17 27/28/27 22/21/22
f 27/28/27 37/40/37 32/33/32
f 37/40/37 47/51/47 42/45/42
f 47/51/47 57/63/57 52/57/52
f 57/63/57 67/75/67 62/69/62
f 67/75/67 77/87/77 72/94/72
f 77/87/77 87/99/87 82/93/82
f 87/99/87 97/111/97 92/116/92
f 97/111/97 107/122/107 102/128/102
f 107/122/107 117/135/117 112/140/112
f 117/135/117 127/148/127 122/153/122
f 127/148/127 137/160/137 132/166/132
f 137/160/137 147/171/147 142/165/142
f 147/171/147 157/184/157 152/176/152
f 157/184/157 167/195/167 162/189/162
f 167/195/167 177/208/177 172/214/172
f 177/208/177 187/220/187 182/213/182
f 187/220/187 197/232/197 192/225/192
f 197/232/197 207/243/207 202/237/202
f 207/243/207 217/255/217 212/249/212
f 217/255/217 227/267/227 222/261/222
f 227/267/227 237/279/237 232/286/232
f 237/279/237 247/291/247 242/285/242
f 247/291/247 257/303/257 252/308/252
f 257/303/257 267/314/267 262/320/262
f 267/314/267 277/327/277 272/332/272
f 277/327/277 287/340/287 282/345/282
f 287/340/287 297/352/297 292/358/292
f 297/352/297 307/363/307 302/357/302
f 307/363/307 317/376/317 312/368/312
f 317/376/317 327/387/327 322/381/322
f 327/387/327 337/400/337 332/406/332
f 337/400/337 347/412/347 342/405/342
f 347/412/347 357/424/357 352/417/352
f 357/424/357 367/435/367 362/429/362
f 367/435/367 377/447/377 372/441/372
f 377/447/377 387/459/387 382/453/382
f 387/459/387 397/471/397 392/478/392
f 397/471/397 407/483/407 402/477/402
f 407/483/407 417/495/417 412/500/412
f 417/495/417 427/506/427 422/512/422
f 427/506/427 437/519/437 432/524/432
f 437/519/437 447/532/447 442/537/442
f 447/532/447 457/544/457 452/550/452
f 457/544/457 467/555/467 462/549/462
f 467/555/467 477/568/477 472/560/472
f 477/568/477 487/579/487 482/573/482
f 487/579/487 497/592/497 492/598/492
f 497/592/497 507/604/507 502/597/502
f 507/604/507 517/616/517 512/609/512
f 517/616/517 527/627/527 522/621/522
f 527/627/527 537/639/537 532/633/532
f 537/639/537 547/651/547 542/645/542
f 547/651/547 557/663/557 552/670/552
f 557/663/557 567/675/567 562/669/562
f 567/675/567 577/687/577 572/692/572
f 577/687/577 587/698/587 582/704/582
f 587/698/587 597/711/597 592/716/592
f 597/711/597 607/724/607 602/729/602
f 607/724/607 617/736/617 612/742/612
f 617/736/617 627/747/627 622/741/622
f 627/747/627 637/760/637 632/752/632
