# Blender 5.1.2
# www.blender.org
mtllib Wall.mtl
o Wall
v -0.010000 -1.000000 0.010000
v -0.010000 -0.510000 0.500000
v -0.500000 -0.510000 0.010000
v -0.010000 -0.990585 0.105594
v -0.010000 -0.962701 0.197515
v -0.010000 -0.917420 0.282229
v -0.010000 -0.856482 0.356482
v -0.105594 -0.990585 0.010000
v -0.108523 -0.979513 0.109751
v -0.108674 -0.949701 0.202423
v -0.107814 -0.905277 0.282559
v -0.107325 -0.849788 0.349370
v -0.197515 -0.962701 0.010000
v -0.202147 -0.949572 0.109779
v -0.199692 -0.919833 0.200142
v -0.193956 -0.879827 0.273607
v -0.190664 -0.832123 0.332021
v -0.282229 -0.917420 0.010000
v -0.283030 -0.904803 0.108413
v -0.273686 -0.879641 0.194215
v -0.260360 -0.848733 0.260360
v -0.253251 -0.810773 0.310773
v -0.292902 -0.792902 0.292902
v -0.105594 -0.510000 0.490585
v -0.197515 -0.510000 0.462701
v -0.282229 -0.510000 0.417420
v -0.356482 -0.510000 0.356482
v -0.010000 -0.605594 0.490585
v -0.109751 -0.608523 0.479513
v -0.202423 -0.608674 0.449701
v -0.282559 -0.607814 0.405277
v -0.349370 -0.607325 0.349788
v -0.010000 -0.697515 0.462701
v -0.109779 -0.702147 0.449572
v -0.200142 -0.699692 0.419833
v -0.273607 -0.693956 0.379827
v -0.332021 -0.690664 0.332123
v -0.010000 -0.782229 0.417420
v -0.108413 -0.783030 0.404803
v -0.194215 -0.773686 0.379641
v -0.260360 -0.760360 0.348733
v -0.310773 -0.753251 0.310773
v -0.490585 -0.605594 0.010000
v -0.462701 -0.697515 0.010000
v -0.417420 -0.782229 0.010000
v -0.356482 -0.856482 0.010000
v -0.490585 -0.510000 0.105594
v -0.479513 -0.609751 0.108523
v -0.449701 -0.702423 0.108674
v -0.405277 -0.782559 0.107814
v -0.349788 -0.849370 0.107325
v -0.462701 -0.510000 0.197515
v -0.449572 -0.609779 0.202147
v -0.419833 -0.700142 0.199692
v -0.379827 -0.773607 0.193956
v -0.332123 -0.832021 0.190664
v -0.417420 -0.510000 0.282229
v -0.404803 -0.608413 0.283030
v -0.379641 -0.694215 0.273686
v -0.348733 -0.760360 0.260360
v -0.310773 -0.810773 0.253251
v -0.010000 0.510000 0.500000
v -0.010000 1.000000 0.010000
v -0.500000 0.510000 0.010000
v -0.010000 0.605594 0.490585
v -0.010000 0.697515 0.462701
v -0.010000 0.782229 0.417420
v -0.010000 0.856482 0.356482
v -0.105594 0.510000 0.490585
v -0.108523 0.609751 0.479513
v -0.108674 0.702423 0.449701
v -0.107814 0.782559 0.405277
v -0.107325 0.849370 0.349788
v -0.197515 0.510000 0.462701
v -0.202147 0.609779 0.449572
v -0.199692 0.700142 0.419833
v -0.193956 0.773607 0.379827
v -0.190664 0.832021 0.332123
v -0.282229 0.510000 0.417420
v -0.283030 0.608413 0.404803
v -0.273686 0.694215 0.379641
v -0.260360 0.760360 0.348733
v -0.253251 0.810773 0.310773
v -0.292902 0.792902 0.292902
v -0.105594 0.990585 0.010000
v -0.197515 0.962701 0.010000
v -0.282229 0.917420 0.010000
v -0.356482 0.856482 0.010000
v -0.010000 0.990585 0.105594
v -0.109751 0.979513 0.108523
v -0.202423 0.949701 0.108674
v -0.282559 0.905277 0.107814
v -0.349370 0.849788 0.107325
v -0.010000 0.962701 0.197515
v -0.109779 0.949572 0.202147
v -0.200142 0.919833 0.199692
v -0.273607 0.879827 0.193956
v -0.332021 0.832123 0.190664
v -0.010000 0.917420 0.282229
v -0.108413 0.904803 0.283030
v -0.194215 0.879641 0.273686
v -0.260360 0.848733 0.260360
v -0.310773 0.810773 0.253251
v -0.490585 0.510000 0.105594
v -0.462701 0.510000 0.197515
v -0.417420 0.510000 0.282229
v -0.356482 0.510000 0.356482
v -0.490585 0.605594 0.010000
v -0.479513 0.608523 0.109751
v -0.449701 0.608674 0.202423
v -0.405277 0.607814 0.282559
v -0.349788 0.607325 0.349370
v -0.462701 0.697515 0.010000
v -0.449572 0.702147 0.109779
v -0.419833 0.699692 0.200142
v -0.379827 0.693956 0.273607
v -0.332123 0.690664 0.332021
v -0.417420 0.782229 0.010000
v -0.404803 0.783030 0.108413
v -0.379641 0.773686 0.194215
v -0.348733 0.760360 0.260360
v -0.310773 0.753251 0.310773
v -0.010000 -1.000000 -0.010000
v -0.500000 -0.510000 -0.010000
v -0.010000 -0.510000 -0.500000
v -0.105594 -0.990585 -0.010000
v -0.197515 -0.962701 -0.010000
v -0.282229 -0.917420 -0.010000
v -0.356482 -0.856482 -0.010000
v -0.010000 -0.990585 -0.105594
v -0.109751 -0.979513 -0.108523
v -0.202423 -0.949701 -0.108674
v -0.282559 -0.905277 -0.107814
v -0.349370 -0.849788 -0.107325
v -0.010000 -0.962701 -0.197515
v -0.109779 -0.949572 -0.202147
v -0.200142 -0.919833 -0.199692
v -0.273607 -0.879827 -0.193956
v -0.332021 -0.832123 -0.190664
v -0.010000 -0.917420 -0.282229
v -0.108413 -0.904803 -0.283030
v -0.194215 -0.879641 -0.273686
v -0.260360 -0.848733 -0.260360
v -0.310773 -0.810773 -0.253251
v -0.292902 -0.792902 -0.292902
v -0.490585 -0.510000 -0.105594
v -0.462701 -0.510000 -0.197515
v -0.417420 -0.510000 -0.282229
v -0.356482 -0.510000 -0.356482
v -0.490585 -0.605594 -0.010000
v -0.479513 -0.608523 -0.109751
v -0.449701 -0.608674 -0.202423
v -0.405277 -0.607814 -0.282559
v -0.349788 -0.607325 -0.349370
v -0.462701 -0.697515 -0.010000
v -0.449572 -0.702147 -0.109779
v -0.419833 -0.699692 -0.200142
v -0.379827 -0.693956 -0.273607
v -0.332123 -0.690664 -0.332021
v -0.417420 -0.782229 -0.010000
v -0.404803 -0.783030 -0.108413
v -0.379641 -0.773686 -0.194215
v -0.348733 -0.760360 -0.260360
v -0.310773 -0.753251 -0.310773
v -0.010000 -0.605594 -0.490585
v -0.010000 -0.697515 -0.462701
v -0.010000 -0.782229 -0.417420
v -0.010000 -0.856482 -0.356482
v -0.105594 -0.510000 -0.490585
v -0.108523 -0.609751 -0.479513
v -0.108674 -0.702423 -0.449701
v -0.107814 -0.782559 -0.405277
v -0.107325 -0.849370 -0.349788
v -0.197515 -0.510000 -0.462701
v -0.202147 -0.609779 -0.449572
v -0.199692 -0.700142 -0.419833
v -0.193956 -0.773607 -0.379827
v -0.190664 -0.832021 -0.332123
v -0.282229 -0.510000 -0.417420
v -0.283030 -0.608413 -0.404803
v -0.273686 -0.694215 -0.379641
v -0.260360 -0.760360 -0.348733
v -0.253251 -0.810773 -0.310773
v -0.010000 1.000000 -0.010000
v -0.010000 0.510000 -0.500000
v -0.500000 0.510000 -0.010000
v -0.010000 0.990585 -0.105594
v -0.010000 0.962701 -0.197515
v -0.010000 0.917420 -0.282229
v -0.010000 0.856482 -0.356482
v -0.105594 0.990585 -0.010000
v -0.108523 0.979513 -0.109751
v -0.108674 0.949701 -0.202423
v -0.107814 0.905277 -0.282559
v -0.107325 0.849788 -0.349370
v -0.197515 0.962701 -0.010000
v -0.202147 0.949572 -0.109779
v -0.199692 0.919833 -0.200142
v -0.193956 0.879827 -0.273607
v -0.190664 0.832123 -0.332021
v -0.282229 0.917420 -0.010000
v -0.283030 0.904803 -0.108413
v -0.273686 0.879641 -0.194215
v -0.260360 0.848733 -0.260360
v -0.253251 0.810773 -0.310773
v -0.292902 0.792902 -0.292902
v -0.105594 0.510000 -0.490585
v -0.197515 0.510000 -0.462701
v -0.282229 0.510000 -0.417420
v -0.356482 0.510000 -0.356482
v -0.010000 0.605594 -0.490585
v -0.109751 0.608523 -0.479513
v -0.202423 0.608674 -0.449701
v -0.282559 0.607814 -0.405277
v -0.349370 0.607325 -0.349788
v -0.010000 0.697515 -0.462701
v -0.109779 0.702147 -0.449572
v -0.200142 0.699692 -0.419833
v -0.273607 0.693956 -0.379827
v -0.332021 0.690664 -0.332123
v -0.010000 0.782229 -0.417420
v -0.108413 0.783030 -0.404803
v -0.194215 0.773686 -0.379641
v -0.260360 0.760360 -0.348733
v -0.310773 0.753251 -0.310773
v -0.490585 0.605594 -0.010000
v -0.462701 0.697515 -0.010000
v -0.417420 0.782229 -0.010000
v -0.356482 0.856482 -0.010000
v -0.490585 0.510000 -0.105594
v -0.479513 0.609751 -0.108523
v -0.449701 0.702423 -0.108674
v -0.405277 0.782559 -0.107814
v -0.349788 0.849370 -0.107325
v -0.462701 0.510000 -0.197515
v -0.449572 0.609779 -0.202147
v -0.419833 0.700142 -0.199692
v -0.379827 0.773607 -0.193956
v -0.332123 0.832021 -0.190664
v -0.417420 0.510000 -0.282229
v -0.404803 0.608413 -0.283030
v -0.379641 0.694215 -0.273686
v -0.348733 0.760360 -0.260360
v -0.310773 0.810773 -0.253251
v 0.010000 -1.000000 0.010000
v 0.500000 -0.510000 0.010000
v 0.010000 -0.510000 0.500000
v 0.105594 -0.990585 0.010000
v 0.197515 -0.962701 0.010000
v 0.282229 -0.917420 0.010000
v 0.356482 -0.856482 0.010000
v 0.010000 -0.990585 0.105594
v 0.109751 -0.979513 0.108523
v 0.202423 -0.949701 0.108674
v 0.282559 -0.905277 0.107814
v 0.349370 -0.849788 0.107325
v 0.010000 -0.962701 0.197515
v 0.109779 -0.949572 0.202147
v 0.200142 -0.919833 0.199692
v 0.273607 -0.879827 0.193956
v 0.332021 -0.832123 0.190664
v 0.010000 -0.917420 0.282229
v 0.108413 -0.904803 0.283030
v 0.194215 -0.879641 0.273686
v 0.260360 -0.848733 0.260360
v 0.310773 -0.810773 0.253251
v 0.292902 -0.792902 0.292902
v 0.490585 -0.510000 0.105594
v 0.462701 -0.510000 0.197515
v 0.417420 -0.510000 0.282229
v 0.356482 -0.510000 0.356482
v 0.490585 -0.605594 0.010000
v 0.479513 -0.608523 0.109751
v 0.449701 -0.608674 0.202423
v 0.405277 -0.607814 0.282559
v 0.349788 -0.607325 0.349370
v 0.462701 -0.697515 0.010000
v 0.449572 -0.702147 0.109779
v 0.419833 -0.699692 0.200142
v 0.379827 -0.693956 0.273607
v 0.332123 -0.690664 0.332021
v 0.417420 -0.782229 0.010000
v 0.404803 -0.783030 0.108413
v 0.379641 -0.773686 0.194215
v 0.348733 -0.760360 0.260360
v 0.310773 -0.753251 0.310773
v 0.010000 -0.605594 0.490585
v 0.010000 -0.697515 0.462701
v 0.010000 -0.782229 0.417420
v 0.010000 -0.856482 0.356482
v 0.105594 -0.510000 0.490585
v 0.108523 -0.609751 0.479513
v 0.108674 -0.702423 0.449701
v 0.107814 -0.782559 0.405277
v 0.107325 -0.849370 0.349788
v 0.197515 -0.510000 0.462701
v 0.202147 -0.609779 0.449572
v 0.199692 -0.700142 0.419833
v 0.193956 -0.773607 0.379827
v 0.190664 -0.832021 0.332123
v 0.282229 -0.510000 0.417420
v 0.283030 -0.608413 0.404803
v 0.273686 -0.694215 0.379641
v 0.260360 -0.760360 0.348733
v 0.253251 -0.810773 0.310773
v 0.010000 1.000000 0.010000
v 0.010000 0.510000 0.500000
v 0.500000 0.510000 0.010000
v 0.010000 0.990585 0.105594
v 0.010000 0.962701 0.197515
v 0.010000 0.917420 0.282229
v 0.010000 0.856482 0.356482
v 0.105594 0.990585 0.010000
v 0.108523 0.979513 0.109751
v 0.108674 0.949701 0.202423
v 0.107814 0.905277 0.282559
v 0.107325 0.849788 0.349370
v 0.197515 0.962701 0.010000
v 0.202147 0.949572 0.109779
v 0.199692 0.919833 0.200142
v 0.193956 0.879827 0.273607
v 0.190664 0.832123 0.332021
v 0.282229 0.917420 0.010000
v 0.283030 0.904803 0.108413
v 0.273686 0.879641 0.194215
v 0.260360 0.848733 0.260360
v 0.253251 0.810773 0.310773
v 0.292902 0.792902 0.292902
v 0.105594 0.510000 0.490585
v 0.197515 0.510000 0.462701
v 0.282229 0.510000 0.417420
v 0.356482 0.510000 0.356482
v 0.010000 0.605594 0.490585
v 0.109751 0.608523 0.479513
v 0.202423 0.608674 0.449701
v 0.282559 0.607814 0.405277
v 0.349370 0.607325 0.349788
v 0.010000 0.697515 0.462701
v 0.109779 0.702147 0.449572
v 0.200142 0.699692 0.419833
v 0.273607 0.693956 0.379827
v 0.332021 0.690664 0.332123
v 0.010000 0.782229 0.417420
v 0.108413 0.783030 0.404803
v 0.194215 0.773686 0.379641
v 0.260360 0.760360 0.348733
v 0.310773 0.753251 0.310773
v 0.490585 0.605594 0.010000
v 0.462701 0.697515 0.010000
v 0.417420 0.782229 0.010000
v 0.356482 0.856482 0.010000
v 0.490585 0.510000 0.105594
v 0.479513 0.609751 0.108523
v 0.449701 0.702423 0.108674
v 0.405277 0.782559 0.107814
v 0.349788 0.849370 0.107325
v 0.462701 0.510000 0.197515
v 0.449572 0.609779 0.202147
v 0.419833 0.700142 0.199692
v 0.379827 0.773607 0.193956
v 0.332123 0.832021 0.190664
v 0.417420 0.510000 0.282229
v 0.404803 0.608413 0.283030
v 0.379641 0.694215 0.273686
v 0.348733 0.760360 0.260360
v 0.310773 0.810773 0.253251
v 0.010000 -1.000000 -0.010000
v 0.010000 -0.510000 -0.500000
v 0.500000 -0.510000 -0.010000
v 0.010000 -0.990585 -0.105594
v 0.010000 -0.962701 -0.197515
v 0.010000 -0.917420 -0.282229
v 0.010000 -0.856482 -0.356482
v 0.105594 -0.990585 -0.010000
v 0.108523 -0.979513 -0.109751
v 0.108674 -0.949701 -0.202423
v 0.107814 -0.905277 -0.282559
v 0.107325 -0.849788 -0.349370
v 0.197515 -0.962701 -0.010000
v 0.202147 -0.949572 -0.109779
v 0.199692 -0.919833 -0.200142
v 0.193956 -0.879827 -0.273607
v 0.190664 -0.832123 -0.332021
v 0.282229 -0.917420 -0.010000
v 0.283030 -0.904803 -0.108413
v 0.273686 -0.879641 -0.194215
v 0.260360 -0.848733 -0.260360
v 0.253251 -0.810773 -0.310773
v 0.292902 -0.792902 -0.292902
v 0.105594 -0.510000 -0.490585
v 0.197515 -0.510000 -0.462701
v 0.282229 -0.510000 -0.417420
v 0.356482 -0.510000 -0.356482
v 0.010000 -0.605594 -0.490585
v 0.109751 -0.608523 -0.479513
v 0.202423 -0.608674 -0.449701
v 0.282559 -0.607814 -0.405277
v 0.349370 -0.607325 -0.349788
v 0.010000 -0.697515 -0.462701
v 0.109779 -0.702147 -0.449572
v 0.200142 -0.699692 -0.419833
v 0.273607 -0.693956 -0.379827
v 0.332021 -0.690664 -0.332123
v 0.010000 -0.782229 -0.417420
v 0.108413 -0.783030 -0.404803
v 0.194215 -0.773686 -0.379641
v 0.260360 -0.760360 -0.348733
v 0.310773 -0.753251 -0.310773
v 0.490585 -0.605594 -0.010000
v 0.462701 -0.697515 -0.010000
v 0.417420 -0.782229 -0.010000
v 0.356482 -0.856482 -0.010000
v 0.490585 -0.510000 -0.105594
v 0.479513 -0.609751 -0.108523
v 0.449701 -0.702423 -0.108674
v 0.405277 -0.782559 -0.107814
v 0.349788 -0.849370 -0.107325
v 0.462701 -0.510000 -0.197515
v 0.449572 -0.609779 -0.202147
v 0.419833 -0.700142 -0.199692
v 0.379827 -0.773607 -0.193956
v 0.332123 -0.832021 -0.190664
v 0.417420 -0.510000 -0.282229
v 0.404803 -0.608413 -0.283030
v 0.379641 -0.694215 -0.273686
v 0.348733 -0.760360 -0.260360
v 0.310773 -0.810773 -0.253251
v 0.010000 1.000000 -0.010000
v 0.500000 0.510000 -0.010000
v 0.010000 0.510000 -0.500000
v 0.105594 0.990585 -0.010000
v 0.197515 0.962701 -0.010000
v 0.282229 0.917420 -0.010000
v 0.356482 0.856482 -0.010000
v 0.010000 0.990585 -0.105594
v 0.109751 0.979513 -0.108523
v 0.202423 0.949701 -0.108674
v 0.282559 0.905277 -0.107814
v 0.349370 0.849788 -0.107325
v 0.010000 0.962701 -0.197515
v 0.109779 0.949572 -0.202147
v 0.200142 0.919833 -0.199692
v 0.273607 0.879827 -0.193956
v 0.332021 0.832123 -0.190664
v 0.010000 0.917420 -0.282229
v 0.108413 0.904803 -0.283030
v 0.194215 0.879641 -0.273686
v 0.260360 0.848733 -0.260360
v 0.310773 0.810773 -0.253251
v 0.292902 0.792902 -0.292902
v 0.490585 0.510000 -0.105594
v 0.462701 0.510000 -0.197515
v 0.417420 0.510000 -0.282229
v 0.356482 0.510000 -0.356482
v 0.490585 0.605594 -0.010000
v 0.479513 0.608523 -0.109751
v 0.449701 0.608674 -0.202423
v 0.405277 0.607814 -0.282559
v 0.349788 0.607325 -0.349370
v 0.462701 0.697515 -0.010000
v 0.449572 0.702147 -0.109779
v 0.419833 0.699692 -0.200142
v 0.379827 0.693956 -0.273607
v 0.332123 0.690664 -0.332021
v 0.417420 0.782229 -0.010000
v 0.404803 0.783030 -0.108413
v 0.379641 0.773686 -0.194215
v 0.348733 0.760360 -0.260360
v 0.310773 0.753251 -0.310773
v 0.010000 0.605594 -0.490585
v 0.010000 0.697515 -0.462701
v 0.010000 0.782229 -0.417420
v 0.010000 0.856482 -0.356482
v 0.105594 0.510000 -0.490585
v 0.108523 0.609751 -0.479513
v 0.108674 0.702423 -0.449701
v 0.107814 0.782559 -0.405277
v 0.107325 0.849370 -0.349788
v 0.197515 0.510000 -0.462701
v 0.202147 0.609779 -0.449572
v 0.199692 0.700142 -0.419833
v 0.193956 0.773607 -0.379827
v 0.190664 0.832021 -0.332123
v 0.282229 0.510000 -0.417420
v 0.283030 0.608413 -0.404803
v 0.273686 0.694215 -0.379641
v 0.260360 0.760360 -0.348733
v 0.253251 0.810773 -0.310773
vn -0.0489 -0.9976 0.0489
vn -0.0489 -0.0489 0.9976
vn -0.9976 -0.0489 0.0489
vn -0.0495 -0.9797 0.1941
vn -0.0489 -0.9231 0.3815
vn -0.0483 -0.8306 0.5548
vn -0.0482 -0.7063 0.7063
vn -0.1945 -0.9796 0.0500
vn -0.2005 -0.9586 0.2020
vn -0.1991 -0.8990 0.3900
vn -0.1940 -0.8088 0.5552
vn -0.1912 -0.6945 0.6937
vn -0.3814 -0.9231 0.0497
vn -0.3894 -0.8990 0.2006
vn -0.3816 -0.8415 0.3824
vn -0.3659 -0.7613 0.5352
vn -0.3567 -0.6606 0.6606
vn -0.5546 -0.8307 0.0487
vn -0.5558 -0.8081 0.1950
vn -0.5352 -0.7612 0.3663
vn -0.5037 -0.7017 0.5039
vn -0.4824 -0.6194 0.6193
vn -0.5774 -0.5774 0.5774
vn -0.1941 -0.0495 0.9797
vn -0.3815 -0.0489 0.9231
vn -0.5548 -0.0483 0.8306
vn -0.7063 -0.0482 0.7063
vn -0.0500 -0.1945 0.9796
vn -0.2020 -0.2005 0.9586
vn -0.3900 -0.1991 0.8990
vn -0.5552 -0.1940 0.8088
vn -0.6937 -0.1912 0.6945
vn -0.0497 -0.3814 0.9231
vn -0.2006 -0.3894 0.8990
vn -0.3824 -0.3816 0.8415
vn -0.5352 -0.3659 0.7613
vn -0.6606 -0.3567 0.6606
vn -0.0487 -0.5546 0.8307
vn -0.1950 -0.5558 0.8081
vn -0.3663 -0.5352 0.7612
vn -0.5039 -0.5037 0.7017
vn -0.6193 -0.4824 0.6194
vn -0.9797 -0.1941 0.0495
vn -0.9231 -0.3815 0.0489
vn -0.8306 -0.5548 0.0483
vn -0.7063 -0.7063 0.0482
vn -0.9796 -0.0500 0.1945
vn -0.9586 -0.2020 0.2005
vn -0.8990 -0.3900 0.1991
vn -0.8088 -0.5552 0.1940
vn -0.6945 -0.6937 0.1912
vn -0.9231 -0.0497 0.3814
vn -0.8990 -0.2006 0.3894
vn -0.8415 -0.3824 0.3816
vn -0.7613 -0.5352 0.3659
vn -0.6606 -0.6606 0.3567
vn -0.8307 -0.0487 0.5546
vn -0.8081 -0.1950 0.5558
vn -0.7612 -0.3663 0.5352
vn -0.7017 -0.5039 0.5037
vn -0.6194 -0.6193 0.4824
vn -0.0489 0.0489 0.9976
vn -0.0489 0.9976 0.0489
vn -0.9976 0.0489 0.0489
vn -0.0495 0.1941 0.9797
vn -0.0489 0.3815 0.9231
vn -0.0483 0.5548 0.8306
vn -0.0482 0.7063 0.7063
vn -0.1945 0.0500 0.9796
vn -0.2005 0.2020 0.9586
vn -0.1991 0.3900 0.8990
vn -0.1940 0.5552 0.8088
vn -0.1912 0.6937 0.6945
vn -0.3814 0.0497 0.9231
vn -0.3894 0.2006 0.8990
vn -0.3816 0.3824 0.8415
vn -0.3659 0.5352 0.7613
vn -0.3567 0.6606 0.6606
vn -0.5546 0.0487 0.8307
vn -0.5558 0.1950 0.8081
vn -0.5352 0.3663 0.7612
vn -0.5037 0.5039 0.7017
vn -0.4824 0.6193 0.6194
vn -0.5774 0.5774 0.5774
vn -0.1941 0.9797 0.0495
vn -0.3815 0.9231 0.0489
vn -0.5548 0.8306 0.0483
vn -0.7063 0.7063 0.0482
vn -0.0500 0.9796 0.1945
vn -0.2020 0.9586 0.2005
vn -0.3900 0.8990 0.1991
vn -0.5552 0.8088 0.1940
vn -0.6937 0.6945 0.1912
vn -0.0497 0.9231 0.3814
vn -0.2006 0.8990 0.3894
vn -0.3824 0.8415 0.3816
vn -0.5352 0.7613 0.3659
vn -0.6606 0.6606 0.3567
vn -0.0487 0.8307 0.5546
vn -0.1950 0.8081 0.5558
vn -0.3663 0.7612 0.5352
vn -0.5039 0.7017 0.5037
vn -0.6193 0.6194 0.4824
vn -0.9797 0.0495 0.1941
vn -0.9231 0.0489 0.3815
vn -0.8306 0.0483 0.5548
vn -0.7063 0.0482 0.7063
vn -0.9796 0.1945 0.0500
vn -0.9586 0.2005 0.2020
vn -0.8990 0.1991 0.3900
vn -0.8088 0.1940 0.5552
vn -0.6945 0.1912 0.6937
vn -0.9231 0.3814 0.0497
vn -0.8990 0.3894 0.2006
vn -0.8415 0.3816 0.3824
vn -0.7613 0.3659 0.5352
vn -0.6606 0.3567 0.6606
vn -0.8307 0.5546 0.0487
vn -0.8081 0.5558 0.1950
vn -0.7612 0.5352 0.3663
vn -0.7017 0.5037 0.5039
vn -0.6194 0.4824 0.6193
vn -0.0489 -0.9976 -0.0489
vn -0.9976 -0.0489 -0.0489
vn -0.0489 -0.0489 -0.9976
vn -0.1941 -0.9797 -0.0495
vn -0.3815 -0.9231 -0.0489
vn -0.5548 -0.8306 -0.0483
vn -0.7063 -0.7063 -0.0482
vn -0.0500 -0.9796 -0.1945
vn -0.2020 -0.9586 -0.2005
vn -0.3900 -0.8990 -0.1991
vn -0.5552 -0.8088 -0.1940
vn -0.6937 -0.6945 -0.1912
vn -0.0497 -0.9231 -0.3814
vn -0.2006 -0.8990 -0.3894
vn -0.3824 -0.8415 -0.3816
vn -0.5352 -0.7613 -0.3659
vn -0.6606 -0.6606 -0.3567
vn -0.0487 -0.8307 -0.5546
vn -0.1950 -0.8081 -0.5558
vn -0.3663 -0.7612 -0.5352
vn -0.5039 -0.7017 -0.5037
vn -0.6193 -0.6194 -0.4824
vn -0.5774 -0.5774 -0.5774
vn -0.9797 -0.0495 -0.1941
vn -0.9231 -0.0489 -0.3815
vn -0.8306 -0.0483 -0.5548
vn -0.7063 -0.0482 -0.7063
vn -0.9796 -0.1945 -0.0500
vn -0.9586 -0.2005 -0.2020
vn -0.8990 -0.1991 -0.3900
vn -0.8088 -0.1940 -0.5552
vn -0.6945 -0.1912 -0.6937
vn -0.9231 -0.3814 -0.0497
vn -0.8990 -0.3894 -0.2006
vn -0.8415 -0.3816 -0.3824
vn -0.7613 -0.3659 -0.5352
vn -0.6606 -0.3567 -0.6606
vn -0.8307 -0.5546 -0.0487
vn -0.8081 -0.5558 -0.1950
vn -0.7612 -0.5352 -0.3663
vn -0.7017 -0.5037 -0.5039
vn -0.6194 -0.4824 -0.6193
vn -0.0495 -0.1941 -0.9797
vn -0.0489 -0.3815 -0.9231
vn -0.0483 -0.5548 -0.8306
vn -0.0482 -0.7063 -0.7063
vn -0.1945 -0.0500 -0.9796
vn -0.2005 -0.2020 -0.9586
vn -0.1991 -0.3900 -0.8990
vn -0.1940 -0.5552 -0.8088
vn -0.1912 -0.6937 -0.6945
vn -0.3814 -0.0497 -0.9231
vn -0.3894 -0.2006 -0.8990
vn -0.3816 -0.3824 -0.8415
vn -0.3659 -0.5352 -0.7613
vn -0.3567 -0.6606 -0.6606
vn -0.5546 -0.0487 -0.8307
vn -0.5558 -0.1950 -0.8081
vn -0.5352 -0.3663 -0.7612
vn -0.5037 -0.5039 -0.7017
vn -0.4824 -0.6193 -0.6194
vn -0.0489 0.9976 -0.0489
vn -0.0489 0.0489 -0.9976
vn -0.9976 0.0489 -0.0489
vn -0.0495 0.9797 -0.1941
vn -0.0489 0.9231 -0.3815
vn -0.0483 0.8306 -0.5548
vn -0.0482 0.7063 -0.7063
vn -0.1945 0.9796 -0.0500
vn -0.2005 0.9586 -0.2020
vn -0.1991 0.8990 -0.3900
vn -0.1940 0.8088 -0.5552
vn -0.1912 0.6945 -0.6937
vn -0.3814 0.9231 -0.0497
vn -0.3894 0.8990 -0.2006
vn -0.3816 0.8415 -0.3824
vn -0.3659 0.7613 -0.5352
vn -0.3567 0.6606 -0.6606
vn -0.5546 0.8307 -0.0487
vn -0.5558 0.8081 -0.1950
vn -0.5352 0.7612 -0.3663
vn -0.5037 0.7017 -0.5039
vn -0.4824 0.6194 -0.6193
vn -0.5774 0.5774 -0.5774
vn -0.1941 0.0495 -0.9797
vn -0.3815 0.0489 -0.9231
vn -0.5548 0.0483 -0.8306
vn -0.7063 0.0482 -0.7063
vn -0.0500 0.1945 -0.9796
vn -0.2020 0.2005 -0.9586
vn -0.3900 0.1991 -0.8990
vn -0.5552 0.1940 -0.8088
vn -0.6937 0.1912 -0.6945
vn -0.0497 0.3814 -0.9231
vn -0.2006 0.3894 -0.8990
vn -0.3824 0.3816 -0.8415
vn -0.5352 0.3659 -0.7613
vn -0.6606 0.3567 -0.6606
vn -0.0487 0.5546 -0.8307
vn -0.1950 0.5558 -0.8081
vn -0.3663 0.5352 -0.7612
vn -0.5039 0.5037 -0.7017
vn -0.6193 0.4824 -0.6194
vn -0.9797 0.1941 -0.0495
vn -0.9231 0.3815 -0.0489
vn -0.8306 0.5548 -0.0483
vn -0.7063 0.7063 -0.0482
vn -0.9796 0.0500 -0.1945
vn -0.9586 0.2020 -0.2005
vn -0.8990 0.3900 -0.1991
vn -0.8088 0.5552 -0.1940
vn -0.6945 0.6937 -0.1912
vn -0.9231 0.0497 -0.3814
vn -0.8990 0.2006 -0.3894
vn -0.8415 0.3824 -0.3816
vn -0.7613 0.5352 -0.3659
vn -0.6606 0.6606 -0.3567
vn -0.8307 0.0487 -0.5546
vn -0.8081 0.1950 -0.5558
vn -0.7612 0.3663 -0.5352
vn -0.7017 0.5039 -0.5037
vn -0.6194 0.6193 -0.4824
vn 0.0489 -0.9976 0.0489
vn 0.9976 -0.0489 0.0489
vn 0.0489 -0.0489 0.9976
vn 0.1941 -0.9797 0.0495
vn 0.3815 -0.9231 0.0489
vn 0.5548 -0.8306 0.0483
vn 0.7063 -0.7063 0.0482
vn 0.0500 -0.9796 0.1945
vn 0.2020 -0.9586 0.2005
vn 0.3900 -0.8990 0.1991
vn 0.5552 -0.8088 0.1940
vn 0.6937 -0.6945 0.1912
vn 0.0497 -0.9231 0.3814
vn 0.2006 -0.8990 0.3894
vn 0.3824 -0.8415 0.3816
vn 0.5352 -0.7613 0.3659
vn 0.6606 -0.6606 0.3567
vn 0.0487 -0.8307 0.5546
vn 0.1950 -0.8081 0.5558
vn 0.3663 -0.7612 0.5352
vn 0.5039 -0.7017 0.5037
vn 0.6193 -0.6194 0.4824
vn 0.5774 -0.5774 0.5774
vn 0.9797 -0.0495 0.1941
vn 0.9231 -0.0489 0.3815
vn 0.8306 -0.0483 0.5548
vn 0.7063 -0.0482 0.7063
vn 0.9796 -0.1945 0.0500
vn 0.9586 -0.2005 0.2020
vn 0.8990 -0.1991 0.3900
vn 0.8088 -0.1940 0.5552
vn 0.6945 -0.1912 0.6937
vn 0.9231 -0.3814 0.0497
vn 0.8990 -0.3894 0.2006
vn 0.8415 -0.3816 0.3824
vn 0.7613 -0.3659 0.5352
vn 0.6606 -0.3567 0.6606
vn 0.8307 -0.5546 0.0487
vn 0.8081 -0.5558 0.1950
vn 0.7612 -0.5352 0.3663
vn 0.7017 -0.5037 0.5039
vn 0.6194 -0.4824 0.6193
vn 0.0495 -0.1941 0.9797
vn 0.0489 -0.3815 0.9231
vn 0.0483 -0.5548 0.8306
vn 0.0482 -0.7063 0.7063
vn 0.1945 -0.0500 0.9796
vn 0.2005 -0.2020 0.9586
vn 0.1991 -0.3900 0.8990
vn 0.1940 -0.5552 0.8088
vn 0.1912 -0.6937 0.6945
vn 0.3814 -0.0497 0.9231
vn 0.3894 -0.2006 0.8990
vn 0.3816 -0.3824 0.8415
vn 0.3659 -0.5352 0.7613
vn 0.3567 -0.6606 0.6606
vn 0.5546 -0.0487 0.8307
vn 0.5558 -0.1950 0.8081
vn 0.5352 -0.3663 0.7612
vn 0.5037 -0.5039 0.7017
vn 0.4824 -0.6193 0.6194
vn 0.0489 0.9976 0.0489
vn 0.0489 0.0489 0.9976
vn 0.9976 0.0489 0.0489
vn 0.0495 0.9797 0.1941
vn 0.0489 0.9231 0.3815
vn 0.0483 0.8306 0.5548
vn 0.0482 0.7063 0.7063
vn 0.1945 0.9796 0.0500
vn 0.2005 0.9586 0.2020
vn 0.1991 0.8990 0.3900
vn 0.1940 0.8088 0.5552
vn 0.1912 0.6945 0.6937
vn 0.3814 0.9231 0.0497
vn 0.3894 0.8990 0.2006
vn 0.3816 0.8415 0.3824
vn 0.3659 0.7613 0.5352
vn 0.3567 0.6606 0.6606
vn 0.5546 0.8307 0.0487
vn 0.5558 0.8081 0.1950
vn 0.5352 0.7612 0.3663
vn 0.5037 0.7017 0.5039
vn 0.4824 0.6194 0.6193
vn 0.5774 0.5774 0.5774
vn 0.1941 0.0495 0.9797
vn 0.3815 0.0489 0.9231
vn 0.5548 0.0483 0.8306
vn 0.7063 0.0482 0.7063
vn 0.0500 0.1945 0.9796
vn 0.2020 0.2005 0.9586
vn 0.3900 0.1991 0.8990
vn 0.5552 0.1940 0.8088
vn 0.6937 0.1912 0.6945
vn 0.0497 0.3814 0.9231
vn 0.2006 0.3894 0.8990
vn 0.3824 0.3816 0.8415
vn 0.5352 0.3659 0.7613
vn 0.6606 0.3567 0.6606
vn 0.0487 0.5546 0.8307
vn 0.1950 0.5558 0.8081
vn 0.3663 0.5352 0.7612
vn 0.5039 0.5037 0.7017
vn 0.6193 0.4824 0.6194
vn 0.9797 0.1941 0.0495
vn 0.9231 0.3815 0.0489
vn 0.8306 0.5548 0.0483
vn 0.7063 0.7063 0.0482
vn 0.9796 0.0500 0.1945
vn 0.9586 0.2020 0.2005
vn 0.8990 0.3900 0.1991
vn 0.8088 0.5552 0.1940
vn 0.6945 0.6937 0.1912
vn 0.9231 0.0497 0.3814
vn 0.8990 0.2006 0.3894
vn 0.8415 0.3824 0.3816
vn 0.7613 0.5352 0.3659
vn 0.6606 0.6606 0.3567
vn 0.8307 0.0487 0.5546
vn 0.8081 0.1950 0.5558
vn 0.7612 0.3663 0.5352
vn 0.7017 0.5039 0.5037
vn 0.6194 0.6193 0.4824
vn 0.0489 -0.9976 -0.0489
vn 0.0489 -0.0489 -0.9976
vn 0.9976 -0.0489 -0.0489
vn 0.0495 -0.9797 -0.1941
vn 0.0489 -0.9231 -0.3815
vn 0.0483 -0.8306 -0.5548
vn 0.0482 -0.7063 -0.7063
vn 0.1945 -0.9796 -0.0500
vn 0.2005 -0.9586 -0.2020
vn 0.1991 -0.8990 -0.3900
vn 0.1940 -0.8088 -0.5552
vn 0.1912 -0.6945 -0.6937
vn 0.3814 -0.9231 -0.0497
vn 0.3894 -0.8990 -0.2006
vn 0.3816 -0.8415 -0.3824
vn 0.3659 -0.7613 -0.5352
vn 0.3567 -0.6606 -0.6606
vn 0.5546 -0.8307 -0.0487
vn 0.5558 -0.8081 -0.1950
vn 0.5352 -0.7612 -0.3663
vn 0.5037 -0.7017 -0.5039
vn 0.4824 -0.6194 -0.6193
vn 0.5774 -0.5774 -0.5774
vn 0.1941 -0.0495 -0.9797
vn 0.3815 -0.0489 -0.9231
vn 0.5548 -0.0483 -0.8306
vn 0.7063 -0.0482 -0.7063
vn 0.0500 -0.1945 -0.9796
vn 0.2020 -0.2005 -0.9586
vn 0.3900 -0.1991 -0.8990
vn 0.5552 -0.1940 -0.8088
vn 0.6937 -0.1912 -0.6945
vn 0.0497 -0.3814 -0.9231
vn 0.2006 -0.3894 -0.8990
vn 0.3824 -0.3816 -0.8415
vn 0.5352 -0.3659 -0.7613
vn 0.6606 -0.3567 -0.6606
vn 0.0487 -0.5546 -0.8307
vn 0.1950 -0.5558 -0.8081
vn 0.3663 -0.5352 -0.7612
vn 0.5039 -0.5037 -0.7017
vn 0.6193 -0.4824 -0.6194
vn 0.9797 -0.1941 -0.0495
vn 0.9231 -0.3815 -0.0489
vn 0.8306 -0.5548 -0.0483
vn 0.7063 -0.7063 -0.0482
vn 0.9796 -0.0500 -0.1945
vn 0.9586 -0.2020 -0.2005
vn 0.8990 -0.3900 -0.1991
vn 0.8088 -0.5552 -0.1940
vn 0.6945 -0.6937 -0.1912
vn 0.9231 -0.0497 -0.3814
vn 0.8990 -0.2006 -0.3894
vn 0.8415 -0.3824 -0.3816
vn 0.7613 -0.5352 -0.3659
vn 0.6606 -0.6606 -0.3567
vn 0.8307 -0.0487 -0.5546
vn 0.8081 -0.1950 -0.5558
vn 0.7612 -0.3663 -0.5352
vn 0.7017 -0.5039 -0.5037
vn 0.6194 -0.6193 -0.4824
vn 0.0489 0.9976 -0.0489
vn 0.9976 0.0489 -0.0489
vn 0.0489 0.0489 -0.9976
vn 0.1941 0.9797 -0.0495
vn 0.3815 0.9231 -0.0489
vn 0.5548 0.8306 -0.0483
vn 0.7063 0.7063 -0.0482
vn 0.0500 0.9796 -0.1945
vn 0.2020 0.9586 -0.2005
vn 0.3900 0.8990 -0.1991
vn 0.5552 0.8088 -0.1940
vn 0.6937 0.6945 -0.1912
vn 0.0497 0.9231 -0.3814
vn 0.2006 0.8990 -0.3894
vn 0.3824 0.8415 -0.3816
vn 0.5352 0.7613 -0.3659
vn 0.6606 0.6606 -0.3567
vn 0.0487 0.8307 -0.5546
vn 0.1950 0.8081 -0.5558
vn 0.3663 0.7612 -0.5352
vn 0.5039 0.7017 -0.5037
vn 0.6193 0.6194 -0.4824
vn 0.5774 0.5774 -0.5774
vn 0.9797 0.0495 -0.1941
vn 0.9231 0.0489 -0.3815
vn 0.8306 0.0483 -0.5548
vn 0.7063 0.0482 -0.7063
vn 0.9796 0.1945 -0.0500
vn 0.9586 0.2005 -0.2020
vn 0.8990 0.1991 -0.3900
vn 0.8088 0.1940 -0.5552
vn 0.6945 0.1912 -0.6937
vn 0.9231 0.3814 -0.0497
vn 0.8990 0.3894 -0.2006
vn 0.8415 0.3816 -0.3824
vn 0.7613 0.3659 -0.5352
vn 0.6606 0.3567 -0.6606
vn 0.8307 0.5546 -0.0487
vn 0.8081 0.5558 -0.1950
vn 0.7612 0.5352 -0.3663
vn 0.7017 0.5037 -0.5039
vn 0.6194 0.4824 -0.6193
vn 0.0495 0.1941 -0.9797
vn 0.0489 0.3815 -0.9231
vn 0.0483 0.5548 -0.8306
vn 0.0482 0.7063 -0.7063
vn 0.1945 0.0500 -0.9796
vn 0.2005 0.2020 -0.9586
vn 0.1991 0.3900 -0.8990
vn 0.1940 0.5552 -0.8088
vn 0.1912 0.6937 -0.6945
vn 0.3814 0.0497 -0.9231
vn 0.3894 0.2006 -0.8990
vn 0.3816 0.3824 -0.8415
vn 0.3659 0.5352 -0.7613
vn 0.3567 0.6606 -0.6606
vn 0.5546 0.0487 -0.8307
vn 0.5558 0.1950 -0.8081
vn 0.5352 0.3663 -0.7612
vn 0.5037 0.5039 -0.7017
vn 0.4824 0.6193 -0.6194
vt 0.247500 0.651399
vt 0.223601 0.627500
vt 0.247500 0.627500
vt 0.247500 0.674379
vt 0.222869 0.652438
vt 0.247500 0.695557
vt 0.222832 0.675606
vt 0.247500 0.750000
vt 0.223047 0.695640
vt 0.200621 0.627500
vt 0.199463 0.652445
vt 0.200077 0.675036
vt 0.223169 0.750000
vt 0.201511 0.693402
vt 0.179443 0.627500
vt 0.179242 0.652103
vt 0.184910 0.690090
vt 0.181579 0.673554
vt 0.186687 0.750000
vt 0.125000 0.627500
vt 0.125000 0.651831
vt 0.125000 0.688313
vt 0.125000 0.672666
vt 0.176775 0.750000
vt 0.436250 0.901399
vt 0.424301 0.877500
vt 0.436250 0.877500
vt 0.436250 0.924379
vt 0.423935 0.902438
vt 0.436250 0.945557
vt 0.423916 0.925606
vt 0.436250 1.000000
vt 0.424023 0.945640
vt 0.412811 0.877500
vt 0.412232 0.902445
vt 0.412539 0.925036
vt 0.424084 1.000000
vt 0.413256 0.943402
vt 0.402221 0.877500
vt 0.402121 0.902103
vt 0.404955 0.940090
vt 0.403289 0.923554
vt 0.405844 1.000000
vt 0.375000 0.877500
vt 0.375000 0.901831
vt 0.375000 0.938313
vt 0.375000 0.922666
vt 0.400887 1.000000
vt 0.424301 0.122500
vt 0.436250 0.098601
vt 0.436250 0.122500
vt 0.412811 0.122500
vt 0.423781 0.097869
vt 0.402221 0.122500
vt 0.412197 0.097832
vt 0.375000 0.122500
vt 0.402180 0.098047
vt 0.436250 0.075621
vt 0.423778 0.074463
vt 0.412482 0.075077
vt 0.375000 0.098169
vt 0.403299 0.076511
vt 0.436250 0.054443
vt 0.423948 0.054242
vt 0.404955 0.059910
vt 0.413223 0.056579
vt 0.375000 0.061687
vt 0.436250 0.000000
vt 0.424084 0.000000
vt 0.405844 0.000000
vt 0.413667 0.000000
vt 0.375000 0.051775
vt 0.575699 0.877500
vt 0.563750 0.901399
vt 0.563750 0.877500
vt 0.587189 0.877500
vt 0.576219 0.902131
vt 0.597779 0.877500
vt 0.587803 0.902168
vt 0.625000 0.877500
vt 0.597820 0.901953
vt 0.563750 0.924379
vt 0.576222 0.925537
vt 0.587518 0.924923
vt 0.625000 0.901831
vt 0.596701 0.923489
vt 0.563750 0.945557
vt 0.576052 0.945757
vt 0.595045 0.940090
vt 0.586777 0.943421
vt 0.625000 0.938313
vt 0.563750 1.000000
vt 0.575916 1.000000
vt 0.594156 1.000000
vt 0.586333 1.000000
vt 0.625000 0.948225
vt 0.776399 0.627500
vt 0.752500 0.651399
vt 0.752500 0.627500
vt 0.799379 0.627500
vt 0.777438 0.652131
vt 0.820557 0.627500
vt 0.800606 0.652169
vt 0.875000 0.627500
vt 0.820640 0.651953
vt 0.752500 0.674379
vt 0.777445 0.675537
vt 0.800036 0.674923
vt 0.875000 0.651831
vt 0.818402 0.673489
vt 0.752500 0.695557
vt 0.777103 0.695758
vt 0.815090 0.690090
vt 0.798554 0.693421
vt 0.875000 0.688313
vt 0.752500 0.750000
vt 0.776831 0.750000
vt 0.813313 0.750000
vt 0.797666 0.750000
vt 0.875000 0.698225
vt 0.563750 0.098601
vt 0.575699 0.122500
vt 0.563750 0.122500
vt 0.563750 0.075621
vt 0.576065 0.097562
vt 0.563750 0.054443
vt 0.576084 0.074394
vt 0.563750 0.000000
vt 0.575977 0.054360
vt 0.587189 0.122500
vt 0.587768 0.097555
vt 0.587462 0.074964
vt 0.575916 0.000000
vt 0.586744 0.056598
vt 0.597779 0.122500
vt 0.597879 0.097897
vt 0.595045 0.059910
vt 0.596711 0.076446
vt 0.594156 0.000000
vt 0.625000 0.122500
vt 0.625000 0.098169
vt 0.625000 0.061687
vt 0.625000 0.077334
vt 0.599113 0.000000
vt 0.223601 0.622500
vt 0.247500 0.598601
vt 0.247500 0.622500
vt 0.200621 0.622500
vt 0.222562 0.597869
vt 0.179443 0.622500
vt 0.199394 0.597831
vt 0.125000 0.622500
vt 0.179360 0.598047
vt 0.247500 0.575621
vt 0.222555 0.574463
vt 0.199964 0.575077
vt 0.125000 0.598169
vt 0.181598 0.576511
vt 0.247500 0.554443
vt 0.222897 0.554242
vt 0.184910 0.559910
vt 0.201446 0.556579
vt 0.125000 0.561687
vt 0.247500 0.500000
vt 0.223169 0.500000
vt 0.186687 0.500000
vt 0.202334 0.500000
vt 0.125000 0.551775
vt 0.436250 0.151399
vt 0.424301 0.127500
vt 0.436250 0.127500
vt 0.436250 0.174379
vt 0.423935 0.152438
vt 0.436250 0.195557
vt 0.423916 0.175606
vt 0.436250 0.250000
vt 0.424023 0.195640
vt 0.412811 0.127500
vt 0.412232 0.152445
vt 0.412539 0.175036
vt 0.424084 0.250000
vt 0.413256 0.193402
vt 0.402221 0.127500
vt 0.402121 0.152103
vt 0.404955 0.190090
vt 0.403289 0.173554
vt 0.405844 0.250000
vt 0.375000 0.127500
vt 0.375000 0.151831
vt 0.375000 0.188313
vt 0.375000 0.172666
vt 0.387944 0.275887
vt 0.424301 0.372500
vt 0.436250 0.348601
vt 0.436250 0.372500
vt 0.412811 0.372500
vt 0.423781 0.347869
vt 0.402221 0.372500
vt 0.412197 0.347832
vt 0.375000 0.372500
vt 0.402180 0.348047
vt 0.436250 0.325621
vt 0.423778 0.324463
vt 0.412482 0.325077
vt 0.375000 0.348169
vt 0.403299 0.326511
vt 0.436250 0.304443
vt 0.423948 0.304242
vt 0.404955 0.309910
vt 0.413223 0.306579
vt 0.375000 0.311687
vt 0.413667 0.250000
vt 0.752500 0.598601
vt 0.776399 0.622500
vt 0.752500 0.622500
vt 0.752500 0.575621
vt 0.777131 0.597562
vt 0.752500 0.554443
vt 0.777168 0.574394
vt 0.752500 0.500000
vt 0.776953 0.554360
vt 0.799379 0.622500
vt 0.800537 0.597555
vt 0.799923 0.574964
vt 0.776831 0.500000
vt 0.798489 0.556598
vt 0.820557 0.622500
vt 0.820757 0.597897
vt 0.815090 0.559910
vt 0.818421 0.576446
vt 0.813313 0.500000
vt 0.875000 0.622500
vt 0.875000 0.598169
vt 0.875000 0.561687
vt 0.875000 0.577334
vt 0.823225 0.500000
vt 0.563750 0.348601
vt 0.575699 0.372500
vt 0.563750 0.372500
vt 0.563750 0.325621
vt 0.576065 0.347562
vt 0.563750 0.304443
vt 0.576084 0.324394
vt 0.563750 0.250000
vt 0.575977 0.304360
vt 0.587189 0.372500
vt 0.587768 0.347555
vt 0.587462 0.324964
vt 0.575916 0.250000
vt 0.586744 0.306598
vt 0.597779 0.372500
vt 0.597879 0.347897
vt 0.595045 0.309910
vt 0.596711 0.326446
vt 0.594156 0.250000
vt 0.625000 0.372500
vt 0.625000 0.348169
vt 0.625000 0.311687
vt 0.625000 0.327334
vt 0.612056 0.224113
vt 0.575699 0.127500
vt 0.563750 0.151399
vt 0.563750 0.127500
vt 0.587189 0.127500
vt 0.576219 0.152131
vt 0.597779 0.127500
vt 0.587803 0.152168
vt 0.625000 0.127500
vt 0.597820 0.151953
vt 0.563750 0.174379
vt 0.576222 0.175537
vt 0.587518 0.174923
vt 0.625000 0.151831
vt 0.596701 0.173489
vt 0.563750 0.195557
vt 0.576052 0.195757
vt 0.595045 0.190090
vt 0.586777 0.193421
vt 0.625000 0.188313
vt 0.586333 0.250000
vt 0.276399 0.627500
vt 0.252500 0.651399
vt 0.252500 0.627500
vt 0.299379 0.627500
vt 0.277438 0.652131
vt 0.320557 0.627500
vt 0.300606 0.652169
vt 0.375000 0.627500
vt 0.320640 0.651953
vt 0.252500 0.674379
vt 0.277445 0.675537
vt 0.300036 0.674923
vt 0.375000 0.651831
vt 0.318402 0.673489
vt 0.252500 0.695557
vt 0.277103 0.695758
vt 0.315090 0.690090
vt 0.298554 0.693421
vt 0.375000 0.688313
vt 0.313750 0.811250
vt 0.325916 0.799084
vt 0.344156 0.780844
vt 0.336333 0.788667
vt 0.383629 0.750000
vt 0.436250 0.651399
vt 0.424301 0.627500
vt 0.436250 0.627500
vt 0.436250 0.674379
vt 0.423935 0.652438
vt 0.436250 0.695557
vt 0.423916 0.675606
vt 0.436250 0.750000
vt 0.424023 0.695640
vt 0.412811 0.627500
vt 0.412232 0.652445
vt 0.412539 0.675036
vt 0.424084 0.750000
vt 0.413256 0.693402
vt 0.402221 0.627500
vt 0.402121 0.652103
vt 0.404955 0.690090
vt 0.403289 0.673554
vt 0.405844 0.750000
vt 0.375000 0.672666
vt 0.424301 0.872500
vt 0.436250 0.848601
vt 0.436250 0.872500
vt 0.412811 0.872500
vt 0.423781 0.847869
vt 0.402221 0.872500
vt 0.412197 0.847831
vt 0.402180 0.848047
vt 0.436250 0.825621
vt 0.423778 0.824463
vt 0.412482 0.825077
vt 0.403299 0.826511
vt 0.436250 0.804443
vt 0.423948 0.804242
vt 0.404955 0.809910
vt 0.413223 0.806579
vt 0.413667 0.750000
vt 0.747500 0.651399
vt 0.723601 0.627500
vt 0.747500 0.627500
vt 0.747500 0.674379
vt 0.722869 0.652438
vt 0.747500 0.695557
vt 0.722832 0.675606
vt 0.686250 0.811250
vt 0.723047 0.695640
vt 0.700621 0.627500
vt 0.699463 0.652445
vt 0.700077 0.675036
vt 0.674084 0.799084
vt 0.701511 0.693402
vt 0.679443 0.627500
vt 0.679242 0.652103
vt 0.684910 0.690090
vt 0.681579 0.673554
vt 0.655844 0.780844
vt 0.625000 0.627500
vt 0.625000 0.651831
vt 0.625000 0.688313
vt 0.625000 0.672666
vt 0.633629 0.732742
vt 0.563750 0.848601
vt 0.575699 0.872500
vt 0.563750 0.872500
vt 0.563750 0.825621
vt 0.576065 0.847562
vt 0.563750 0.804443
vt 0.576084 0.824394
vt 0.563750 0.750000
vt 0.575977 0.804360
vt 0.587189 0.872500
vt 0.587768 0.847555
vt 0.587462 0.824965
vt 0.575916 0.750000
vt 0.586744 0.806598
vt 0.597779 0.872500
vt 0.597879 0.847897
vt 0.595045 0.809910
vt 0.596711 0.826446
vt 0.594156 0.750000
vt 0.663667 0.788667
vt 0.575699 0.627500
vt 0.563750 0.651399
vt 0.563750 0.627500
vt 0.587189 0.627500
vt 0.576219 0.652131
vt 0.597779 0.627500
vt 0.587803 0.652168
vt 0.597820 0.651953
vt 0.563750 0.674379
vt 0.576222 0.675537
vt 0.587518 0.674923
vt 0.596701 0.673489
vt 0.563750 0.695557
vt 0.576052 0.695757
vt 0.595045 0.690090
vt 0.586777 0.693421
vt 0.586333 0.750000
vt 0.252500 0.598601
vt 0.276399 0.622500
vt 0.252500 0.622500
vt 0.252500 0.575621
vt 0.277131 0.597562
vt 0.252500 0.554443
vt 0.277168 0.574394
vt 0.313750 0.438750
vt 0.276953 0.554360
vt 0.299379 0.622500
vt 0.300537 0.597555
vt 0.299923 0.574964
vt 0.325916 0.450916
vt 0.298489 0.556598
vt 0.320557 0.622500
vt 0.320758 0.597897
vt 0.315090 0.559910
vt 0.318421 0.576446
vt 0.344156 0.469156
vt 0.375000 0.622500
vt 0.375000 0.598169
vt 0.375000 0.561687
vt 0.375000 0.577334
vt 0.366371 0.517258
vt 0.436250 0.401399
vt 0.424301 0.377500
vt 0.436250 0.377500
vt 0.436250 0.424379
vt 0.423935 0.402438
vt 0.436250 0.445557
vt 0.423916 0.425606
vt 0.436250 0.500000
vt 0.424023 0.445640
vt 0.412811 0.377500
vt 0.412232 0.402445
vt 0.412539 0.425036
vt 0.424084 0.500000
vt 0.413256 0.443402
vt 0.402221 0.377500
vt 0.402121 0.402103
vt 0.404955 0.440090
vt 0.403289 0.423554
vt 0.405844 0.500000
vt 0.336333 0.461333
vt 0.424301 0.622500
vt 0.436250 0.598601
vt 0.436250 0.622500
vt 0.412811 0.622500
vt 0.423781 0.597869
vt 0.402221 0.622500
vt 0.412197 0.597832
vt 0.402180 0.598047
vt 0.436250 0.575621
vt 0.423778 0.574463
vt 0.412482 0.575077
vt 0.403299 0.576511
vt 0.436250 0.554443
vt 0.423948 0.554242
vt 0.404955 0.559910
vt 0.413223 0.556579
vt 0.413667 0.500000
vt 0.723601 0.622500
vt 0.747500 0.598601
vt 0.747500 0.622500
vt 0.700621 0.622500
vt 0.722562 0.597869
vt 0.679443 0.622500
vt 0.699394 0.597831
vt 0.625000 0.622500
vt 0.679360 0.598047
vt 0.747500 0.575621
vt 0.722555 0.574463
vt 0.699964 0.575077
vt 0.625000 0.598169
vt 0.681598 0.576511
vt 0.747500 0.554443
vt 0.722897 0.554242
vt 0.684910 0.559910
vt 0.701446 0.556579
vt 0.625000 0.561687
vt 0.686250 0.438750
vt 0.674084 0.450916
vt 0.655844 0.469156
vt 0.663667 0.461333
vt 0.616371 0.500000
vt 0.563750 0.598601
vt 0.575699 0.622500
vt 0.563750 0.622500
vt 0.563750 0.575621
vt 0.576065 0.597562
vt 0.563750 0.554443
vt 0.576084 0.574394
vt 0.563750 0.500000
vt 0.575977 0.554360
vt 0.587189 0.622500
vt 0.587768 0.597555
vt 0.587462 0.574965
vt 0.575916 0.500000
vt 0.586744 0.556598
vt 0.597779 0.622500
vt 0.597879 0.597897
vt 0.595045 0.559910
vt 0.596711 0.576446
vt 0.594156 0.500000
vt 0.625000 0.577334
vt 0.575699 0.377500
vt 0.563750 0.401399
vt 0.563750 0.377500
vt 0.587189 0.377500
vt 0.576219 0.402131
vt 0.597779 0.377500
vt 0.587803 0.402168
vt 0.597820 0.401953
vt 0.563750 0.424379
vt 0.576222 0.425537
vt 0.587518 0.424923
vt 0.596701 0.423489
vt 0.563750 0.445557
vt 0.576052 0.445757
vt 0.595045 0.440090
vt 0.586777 0.443421
vt 0.586333 0.500000
vt 0.202334 0.750000
vt 0.413667 1.000000
vt 0.375000 0.077334
vt 0.625000 0.922666
vt 0.875000 0.672666
vt 0.586333 0.000000
vt 0.125000 0.577334
vt 0.375000 0.327334
vt 0.797666 0.500000
vt 0.625000 0.172666
s 1
usemtl Wall_Body
f 4/1/4 8/2/8 1/3/1
f 5/4/5 9/5/9 4/1/4
f 6/6/6 10/7/10 5/4/5
f 7/8/7 11/9/11 6/6/6
f 9/5/9 13/10/13 8/2/8
f 10/7/10 14/11/14 9/5/9
f 11/9/11 15/12/15 10/7/10
f 12/13/12 16/14/16 11/9/11
f 14/11/14 18/15/18 13/10/13
f 15/12/15 19/16/19 14/11/14
f 15/12/15 21/17/21 20/18/20
f 16/14/16 22/19/22 21/17/21
f 19/16/19 46/20/46 18/15/18
f 20/18/20 51/21/51 19/16/19
f 20/18/20 61/22/61 56/23/56
f 21/17/21 23/24/23 61/22/61
f 24/25/24 28/26/28 2/27/2
f 25/28/25 29/29/29 24/25/24
f 26/30/26 30/31/30 25/28/25
f 27/32/27 31/33/31 26/30/26
f 29/29/29 33/34/33 28/26/28
f 30/31/30 34/35/34 29/29/29
f 31/33/31 35/36/35 30/31/30
f 32/37/32 36/38/36 31/33/31
f 34/35/34 38/39/38 33/34/33
f 35/36/35 39/40/39 34/35/34
f 35/36/35 41/41/41 40/42/40
f 36/38/36 42/43/42 41/41/41
f 39/40/39 7/44/7 38/39/38
f 40/42/40 12/45/12 39/40/39
f 40/42/40 22/46/22 17/47/17
f 41/41/41 23/48/23 22/46/22
f 43/49/43 47/50/47 3/51/3
f 44/52/44 48/53/48 43/49/43
f 45/54/45 49/55/49 44/52/44
f 46/56/46 50/57/50 45/54/45
f 48/53/48 52/58/52 47/50/47
f 49/55/49 53/59/53 48/53/48
f 50/57/50 54/60/54 49/55/49
f 51/61/51 55/62/55 50/57/50
f 53/59/53 57/63/57 52/58/52
f 54/60/54 58/64/58 53/59/53
f 54/60/54 60/65/60 59/66/59
f 55/62/55 61/67/61 60/65/60
f 58/64/58 27/68/27 57/63/57
f 59/66/59 32/69/32 58/64/58
f 59/66/59 42/70/42 37/71/37
f 60/65/60 23/72/23 42/70/42
f 65/73/65 69/74/69 62/75/62
f 66/76/66 70/77/70 65/73/65
f 67/78/67 71/79/71 66/76/66
f 68/80/68 72/81/72 67/78/67
f 70/77/70 74/82/74 69/74/69
f 71/79/71 75/83/75 70/77/70
f 72/81/72 76/84/76 71/79/71
f 73/85/73 77/86/77 72/81/72
f 75/83/75 79/87/79 74/82/74
f 76/84/76 80/88/80 75/83/75
f 76/84/76 82/89/82 81/90/81
f 77/86/77 83/91/83 82/89/82
f 80/88/80 107/92/107 79/87/79
f 81/90/81 112/93/112 80/88/80
f 81/90/81 122/94/122 117/95/117
f 82/89/82 84/96/84 122/94/122
f 85/97/85 89/98/89 63/99/63
f 86/100/86 90/101/90 85/97/85
f 87/102/87 91/103/91 86/100/86
f 88/104/88 92/105/92 87/102/87
f 90/101/90 94/106/94 89/98/89
f 91/103/91 95/107/95 90/101/90
f 92/105/92 96/108/96 91/103/91
f 93/109/93 97/110/97 92/105/92
f 95/107/95 99/111/99 94/106/94
f 96/108/96 100/112/100 95/107/95
f 96/108/96 102/113/102 101/114/101
f 97/110/97 103/115/103 102/113/102
f 100/112/100 68/116/68 99/111/99
f 101/114/101 73/117/73 100/112/100
f 101/114/101 83/118/83 78/119/78
f 102/113/102 84/120/84 83/118/83
f 104/121/104 108/122/108 64/123/64
f 105/124/105 109/125/109 104/121/104
f 106/126/106 110/127/110 105/124/105
f 107/128/107 111/129/111 106/126/106
f 109/125/109 113/130/113 108/122/108
f 110/127/110 114/131/114 109/125/109
f 111/129/111 115/132/115 110/127/110
f 112/133/112 116/134/116 111/129/111
f 114/131/114 118/135/118 113/130/113
f 115/132/115 119/136/119 114/131/114
f 115/132/115 121/137/121 120/138/120
f 116/134/116 122/139/122 121/137/121
f 119/136/119 88/140/88 118/135/118
f 120/138/120 93/141/93 119/136/119
f 120/138/120 103/142/103 98/143/98
f 121/137/121 84/144/84 103/142/103
f 126/145/126 130/146/130 123/147/123
f 127/148/127 131/149/131 126/145/126
f 128/150/128 132/151/132 127/148/127
f 129/152/129 133/153/133 128/150/128
f 131/149/131 135/154/135 130/146/130
f 132/151/132 136/155/136 131/149/131
f 133/153/133 137/156/137 132/151/132
f 134/157/134 138/158/138 133/153/133
f 136/155/136 140/159/140 135/154/135
f 137/156/137 141/160/141 136/155/136
f 137/156/137 143/161/143 142/162/142
f 138/158/138 144/163/144 143/161/143
f 141/160/141 168/164/168 140/159/140
f 142/162/142 173/165/173 141/160/141
f 142/162/142 183/166/183 178/167/178
f 143/161/143 145/168/145 183/166/183
f 146/169/146 150/170/150 124/171/124
f 147/172/147 151/173/151 146/169/146
f 148/174/148 152/175/152 147/172/147
f 149/176/149 153/177/153 148/174/148
f 151/173/151 155/178/155 150/170/150
f 152/175/152 156/179/156 151/173/151
f 153/177/153 157/180/157 152/175/152
f 154/181/154 158/182/158 153/177/153
f 156/179/156 160/183/160 155/178/155
f 157/180/157 161/184/161 156/179/156
f 157/180/157 163/185/163 162/186/162
f 158/182/158 164/187/164 163/185/163
f 161/184/161 129/188/129 160/183/160
f 162/186/162 134/189/134 161/184/161
f 162/186/162 144/190/144 139/191/139
f 163/185/163 145/192/145 144/190/144
f 165/193/165 169/194/169 125/195/125
f 166/196/166 170/197/170 165/193/165
f 167/198/167 171/199/171 166/196/166
f 168/200/168 172/201/172 167/198/167
f 170/197/170 174/202/174 169/194/169
f 171/199/171 175/203/175 170/197/170
f 172/201/172 176/204/176 171/199/171
f 173/205/173 177/206/177 172/201/172
f 175/203/175 179/207/179 174/202/174
f 176/204/176 180/208/180 175/203/175
f 176/204/176 182/209/182 181/210/181
f 177/206/177 183/211/183 182/209/182
f 180/208/180 149/176/149 179/207/179
f 181/210/181 154/181/154 180/208/180
f 181/210/181 164/187/164 159/212/159
f 182/209/182 145/192/145 164/187/164
f 187/213/187 191/214/191 184/215/184
f 188/216/188 192/217/192 187/213/187
f 189/218/189 193/219/193 188/216/188
f 190/220/190 194/221/194 189/218/189
f 192/217/192 196/222/196 191/214/191
f 193/219/193 197/223/197 192/217/192
f 194/221/194 198/224/198 193/219/193
f 195/225/195 199/226/199 194/221/194
f 197/223/197 201/227/201 196/222/196
f 198/224/198 202/228/202 197/223/197
f 198/224/198 204/229/204 203/230/203
f 199/226/199 205/231/205 204/229/204
f 202/228/202 229/232/229 201/227/201
f 203/230/203 234/233/234 202/228/202
f 203/230/203 244/234/244 239/235/239
f 204/229/204 206/236/206 244/234/244
f 207/237/207 211/238/211 185/239/185
f 208/240/208 212/241/212 207/237/207
f 209/242/209 213/243/213 208/240/208
f 210/244/210 214/245/214 209/242/209
f 212/241/212 216/246/216 211/238/211
f 213/243/213 217/247/217 212/241/212
f 214/245/214 218/248/218 213/243/213
f 215/249/215 219/250/219 214/245/214
f 217/247/217 221/251/221 216/246/216
f 218/248/218 222/252/222 217/247/217
f 218/248/218 224/253/224 223/254/223
f 219/250/219 225/255/225 224/253/224
f 222/252/222 190/256/190 221/251/221
f 223/254/223 195/257/195 222/252/222
f 223/254/223 205/258/205 200/259/200
f 224/253/224 206/260/206 205/258/205
f 226/261/226 230/262/230 186/263/186
f 227/264/227 231/265/231 226/261/226
f 228/266/228 232/267/232 227/264/227
f 229/268/229 233/269/233 228/266/228
f 231/265/231 235/270/235 230/262/230
f 232/267/232 236/271/236 231/265/231
f 233/269/233 237/272/237 232/267/232
f 234/273/234 238/274/238 233/269/233
f 236/271/236 240/275/240 235/270/235
f 237/272/237 241/276/241 236/271/236
f 237/272/237 243/277/243 242/278/242
f 238/274/238 244/279/244 243/277/243
f 241/276/241 210/244/210 240/275/240
f 242/278/242 215/249/215 241/276/241
f 242/278/242 225/255/225 220/280/220
f 243/277/243 206/260/206 225/255/225
f 248/281/248 252/282/252 245/283/245
f 249/284/249 253/285/253 248/281/248
f 250/286/250 254/287/254 249/284/249
f 251/288/251 255/289/255 250/286/250
f 253/285/253 257/290/257 252/282/252
f 254/287/254 258/291/258 253/285/253
f 255/289/255 259/292/259 254/287/254
f 256/293/256 260/294/260 255/289/255
f 258/291/258 262/295/262 257/290/257
f 259/292/259 263/296/263 258/291/258
f 259/292/259 265/297/265 264/298/264
f 260/294/260 266/299/266 265/297/265
f 263/296/263 290/300/290 262/295/262
f 264/298/264 295/301/295 263/296/263
f 264/298/264 305/302/305 300/303/300
f 265/297/265 267/304/267 305/302/305
f 268/305/268 272/306/272 246/307/246
f 269/308/269 273/309/273 268/305/268
f 270/310/270 274/311/274 269/308/269
f 271/312/271 275/313/275 270/310/270
f 273/309/273 277/314/277 272/306/272
f 274/311/274 278/315/278 273/309/273
f 275/313/275 279/316/279 274/311/274
f 276/317/276 280/318/280 275/313/275
f 278/315/278 282/319/282 277/314/277
f 279/316/279 283/320/283 278/315/278
f 279/316/279 285/321/285 284/322/284
f 280/318/280 286/323/286 285/321/285
f 283/320/283 251/288/251 282/319/282
f 284/322/284 256/293/256 283/320/283
f 284/322/284 266/299/266 261/324/261
f 285/321/285 267/304/267 266/299/266
f 287/325/287 291/326/291 247/327/247
f 288/328/288 292/329/292 287/325/287
f 289/330/289 293/331/293 288/328/288
f 290/300/290 294/332/294 289/330/289
f 292/329/292 296/333/296 291/326/291
f 293/331/293 297/334/297 292/329/292
f 294/332/294 298/335/298 293/331/293
f 295/301/295 299/336/299 294/332/294
f 297/334/297 301/337/301 296/333/296
f 298/335/298 302/338/302 297/334/297
f 298/335/298 304/339/304 303/340/303
f 299/336/299 305/302/305 304/339/304
f 302/338/302 271/312/271 301/337/301
f 303/340/303 276/317/276 302/338/302
f 303/340/303 286/323/286 281/341/281
f 304/339/304 267/304/267 286/323/286
f 309/342/309 313/343/313 306/344/306
f 310/345/310 314/346/314 309/342/309
f 311/347/311 315/348/315 310/345/310
f 312/349/312 316/350/316 311/347/311
f 314/346/314 318/351/318 313/343/313
f 315/348/315 319/352/319 314/346/314
f 316/350/316 320/353/320 315/348/315
f 317/354/317 321/355/321 316/350/316
f 319/352/319 323/356/323 318/351/318
f 320/353/320 324/357/324 319/352/319
f 320/353/320 326/358/326 325/359/325
f 321/355/321 327/360/327 326/358/326
f 324/357/324 351/361/351 323/356/323
f 325/359/325 356/362/356 324/357/324
f 325/359/325 366/363/366 361/364/361
f 326/358/326 328/365/328 366/363/366
f 329/366/329 333/367/333 307/368/307
f 330/369/330 334/370/334 329/366/329
f 331/371/331 335/372/335 330/369/330
f 332/373/332 336/374/336 331/371/331
f 334/370/334 338/375/338 333/367/333
f 335/372/335 339/376/339 334/370/334
f 336/374/336 340/377/340 335/372/335
f 337/378/337 341/379/341 336/374/336
f 339/376/339 343/380/343 338/375/338
f 340/377/340 344/381/344 339/376/339
f 340/377/340 346/382/346 345/383/345
f 341/379/341 347/384/347 346/382/346
f 344/381/344 312/349/312 343/380/343
f 345/383/345 317/354/317 344/381/344
f 345/383/345 327/360/327 322/385/322
f 346/382/346 328/365/328 327/360/327
f 348/386/348 352/387/352 308/388/308
f 349/389/349 353/390/353 348/386/348
f 350/391/350 354/392/354 349/389/349
f 351/361/351 355/393/355 350/391/350
f 353/390/353 357/394/357 352/387/352
f 354/392/354 358/395/358 353/390/353
f 355/393/355 359/396/359 354/392/354
f 356/362/356 360/397/360 355/393/355
f 358/395/358 362/398/362 357/394/357
f 359/396/359 363/399/363 358/395/358
f 359/396/359 365/400/365 364/401/364
f 360/397/360 366/363/366 365/400/365
f 363/399/363 332/373/332 362/398/362
f 364/401/364 337/378/337 363/399/363
f 364/401/364 347/384/347 342/402/342
f 365/400/365 328/365/328 347/384/347
f 370/403/370 374/404/374 367/405/367
f 371/406/371 375/407/375 370/403/370
f 372/408/372 376/409/376 371/406/371
f 373/410/373 377/411/377 372/408/372
f 375/407/375 379/412/379 374/404/374
f 376/409/376 380/413/380 375/407/375
f 377/411/377 381/414/381 376/409/376
f 378/415/378 382/416/382 377/411/377
f 380/413/380 384/417/384 379/412/379
f 381/414/381 385/418/385 380/413/380
f 381/414/381 387/419/387 386/420/386
f 382/416/382 388/421/388 387/419/387
f 385/418/385 412/422/412 384/417/384
f 386/420/386 417/423/417 385/418/385
f 386/420/386 427/424/427 422/425/422
f 387/419/387 389/426/389 427/424/427
f 390/427/390 394/428/394 368/429/368
f 391/430/391 395/431/395 390/427/390
f 392/432/392 396/433/396 391/430/391
f 393/434/393 397/435/397 392/432/392
f 395/431/395 399/436/399 394/428/394
f 396/433/396 400/437/400 395/431/395
f 397/435/397 401/438/401 396/433/396
f 398/439/398 402/440/402 397/435/397
f 400/437/400 404/441/404 399/436/399
f 401/438/401 405/442/405 400/437/400
f 401/438/401 407/443/407 406/444/406
f 402/440/402 408/445/408 407/443/407
f 405/442/405 373/410/373 404/441/404
f 406/444/406 378/415/378 405/442/405
f 406/444/406 388/421/388 383/446/383
f 407/443/407 389/426/389 388/421/388
f 409/447/409 413/448/413 369/449/369
f 410/450/410 414/451/414 409/447/409
f 411/452/411 415/453/415 410/450/410
f 412/422/412 416/454/416 411/452/411
f 414/451/414 418/455/418 413/448/413
f 415/453/415 419/456/419 414/451/414
f 416/454/416 420/457/420 415/453/415
f 417/423/417 421/458/421 416/454/416
f 419/456/419 423/459/423 418/455/418
f 420/457/420 424/460/424 419/456/419
f 420/457/420 426/461/426 425/462/425
f 421/458/421 427/424/427 426/461/426
f 424/460/424 393/434/393 423/459/423
f 425/462/425 398/439/398 424/460/424
f 425/462/425 408/445/408 403/463/403
f 426/461/426 389/426/389 408/445/408
f 431/464/431 435/465/435 428/466/428
f 432/467/432 436/468/436 431/464/431
f 433/469/433 437/470/437 432/467/432
f 434/471/434 438/472/438 433/469/433
f 436/468/436 440/473/440 435/465/435
f 437/470/437 441/474/441 436/468/436
f 438/472/438 442/475/442 437/470/437
f 439/476/439 443/477/443 438/472/438
f 441/474/441 445/478/445 440/473/440
f 442/475/442 446/479/446 441/474/441
f 442/475/442 448/480/448 447/481/447
f 443/477/443 449/482/449 448/480/448
f 446/479/446 473/483/473 445/478/445
f 447/481/447 478/484/478 446/479/446
f 447/481/447 488/485/488 483/486/483
f 448/480/448 450/487/450 488/485/488
f 451/488/451 455/489/455 429/490/429
f 452/491/452 456/492/456 451/488/451
f 453/493/453 457/494/457 452/491/452
f 454/495/454 458/496/458 453/493/453
f 456/492/456 460/497/460 455/489/455
f 457/494/457 461/498/461 456/492/456
f 458/496/458 462/499/462 457/494/457
f 459/500/459 463/501/463 458/496/458
f 461/498/461 465/502/465 460/497/460
f 462/499/462 466/503/466 461/498/461
f 462/499/462 468/504/468 467/505/467
f 463/501/463 469/506/469 468/504/468
f 466/503/466 434/471/434 465/502/465
f 467/505/467 439/476/439 466/503/466
f 467/505/467 449/482/449 444/507/444
f 468/504/468 450/487/450 449/482/449
f 470/508/470 474/509/474 430/510/430
f 471/511/471 475/512/475 470/508/470
f 472/513/472 476/514/476 471/511/471
f 473/483/473 477/515/477 472/513/472
f 475/512/475 479/516/479 474/509/474
f 476/514/476 480/517/480 475/512/475
f 477/515/477 481/518/481 476/514/476
f 478/484/478 482/519/482 477/515/477
f 480/517/480 484/520/484 479/516/479
f 481/518/481 485/521/485 480/517/480
f 481/518/481 487/522/487 486/523/486
f 482/519/482 488/485/488 487/522/487
f 485/521/485 454/495/454 484/520/484
f 486/523/486 459/500/459 485/521/485
f 486/523/486 469/506/469 464/524/464
f 487/522/487 450/487/450 469/506/469
f 1/3/1 126/145/126 123/147/123
f 8/2/8 127/148/127 126/145/126
f 13/10/13 128/150/128 127/148/127
f 18/15/18 129/152/129 128/150/128
f 46/56/46 160/183/160 129/188/129
f 45/54/45 155/178/155 160/183/160
f 44/52/44 150/170/150 155/178/155
f 43/49/43 124/171/124 150/170/150
f 62/75/62 24/25/24 2/27/2
f 69/74/69 25/28/25 24/25/24
f 74/82/74 26/30/26 25/28/25
f 79/87/79 27/32/27 26/30/26
f 107/128/107 57/63/57 27/68/27
f 106/126/106 52/58/52 57/63/57
f 105/124/105 47/50/47 52/58/52
f 104/121/104 3/51/3 47/50/47
f 184/215/184 85/97/85 63/99/63
f 191/214/191 86/100/86 85/97/85
f 196/222/196 87/102/87 86/100/86
f 201/227/201 88/104/88 87/102/87
f 229/268/229 118/135/118 88/140/88
f 228/266/228 113/130/113 118/135/118
f 227/264/227 108/122/108 113/130/113
f 226/261/226 64/123/64 108/122/108
f 125/195/125 207/237/207 185/239/185
f 169/194/169 208/240/208 207/237/207
f 174/202/174 209/242/209 208/240/208
f 179/207/179 210/244/210 209/242/209
f 149/176/149 240/275/240 210/244/210
f 148/174/148 235/270/235 240/275/240
f 147/172/147 230/262/230 235/270/235
f 146/169/146 186/263/186 230/262/230
f 123/147/123 370/403/370 367/405/367
f 130/146/130 371/406/371 370/403/370
f 135/154/135 372/408/372 371/406/371
f 140/159/140 373/410/373 372/408/372
f 168/200/168 404/441/404 373/410/373
f 167/198/167 399/436/399 404/441/404
f 166/196/166 394/428/394 399/436/399
f 165/193/165 368/429/368 394/428/394
f 428/466/428 187/213/187 184/215/184
f 435/465/435 188/216/188 187/213/187
f 440/473/440 189/218/189 188/216/188
f 445/478/445 190/220/190 189/218/189
f 473/483/473 221/251/221 190/256/190
f 472/513/472 216/246/216 221/251/221
f 471/511/471 211/238/211 216/246/216
f 470/508/470 185/239/185 211/238/211
f 369/449/369 451/488/451 429/490/429
f 413/448/413 452/491/452 451/488/451
f 418/455/418 453/493/453 452/491/452
f 423/459/423 454/495/454 453/493/453
f 393/434/393 484/520/484 454/495/454
f 392/432/392 479/516/479 484/520/484
f 391/430/391 474/509/474 479/516/479
f 390/427/390 430/510/430 474/509/474
f 367/405/367 248/281/248 245/283/245
f 374/404/374 249/284/249 248/281/248
f 379/412/379 250/286/250 249/284/249
f 384/417/384 251/288/251 250/286/250
f 412/422/412 282/319/282 251/288/251
f 411/452/411 277/314/277 282/319/282
f 410/450/410 272/306/272 277/314/277
f 409/447/409 246/307/246 272/306/272
f 306/344/306 431/464/431 428/466/428
f 313/343/313 432/467/432 431/464/431
f 318/351/318 433/469/433 432/467/432
f 323/356/323 434/471/434 433/469/433
f 351/361/351 465/502/465 434/471/434
f 350/391/350 460/497/460 465/502/465
f 349/389/349 455/489/455 460/497/460
f 348/386/348 429/490/429 455/489/455
f 247/327/247 329/366/329 307/368/307
f 291/326/291 330/369/330 329/366/329
f 296/333/296 331/371/331 330/369/330
f 301/337/301 332/373/332 331/371/331
f 271/312/271 362/398/362 332/373/332
f 270/310/270 357/394/357 362/398/362
f 269/308/269 352/387/352 357/394/357
f 268/305/268 308/388/308 352/387/352
f 245/283/245 4/1/4 1/3/1
f 252/282/252 5/4/5 4/1/4
f 257/290/257 6/6/6 5/4/5
f 262/295/262 7/8/7 6/6/6
f 290/300/290 38/39/38 7/44/7
f 289/330/289 33/34/33 38/39/38
f 288/328/288 28/26/28 33/34/33
f 287/325/287 2/27/2 28/26/28
f 63/99/63 309/342/309 306/344/306
f 89/98/89 310/345/310 309/342/309
f 94/106/94 311/347/311 310/345/310
f 99/111/99 312/349/312 311/347/311
f 68/80/68 343/380/343 312/349/312
f 67/78/67 338/375/338 343/380/343
f 66/76/66 333/367/333 338/375/338
f 65/73/65 307/368/307 333/367/333
f 367/405/367 1/3/1 123/147/123
f 64/123/64 124/171/124 3/51/3
f 307/368/307 2/27/2 247/327/247
f 184/215/184 306/344/306 428/466/428
f 185/239/185 368/429/368 125/195/125
f 429/490/429 246/307/246 369/449/369
f 4/1/4 9/5/9 8/2/8
f 5/4/5 10/7/10 9/5/9
f 6/6/6 11/9/11 10/7/10
f 7/8/7 12/13/12 11/9/11
f 9/5/9 14/11/14 13/10/13
f 10/7/10 15/12/15 14/11/14
f 11/9/11 16/14/16 15/12/15
f 12/13/12 17/525/17 16/14/16
f 14/11/14 19/16/19 18/15/18
f 15/12/15 20/18/20 19/16/19
f 15/12/15 16/14/16 21/17/21
f 16/14/16 17/525/17 22/19/22
f 19/16/19 51/21/51 46/20/46
f 20/18/20 56/23/56 51/21/51
f 20/18/20 21/17/21 61/22/61
f 21/17/21 22/19/22 23/24/23
f 24/25/24 29/29/29 28/26/28
f 25/28/25 30/31/30 29/29/29
f 26/30/26 31/33/31 30/31/30
f 27/32/27 32/37/32 31/33/31
f 29/29/29 34/35/34 33/34/33
f 30/31/30 35/36/35 34/35/34
f 31/33/31 36/38/36 35/36/35
f 32/37/32 37/526/37 36/38/36
f 34/35/34 39/40/39 38/39/38
f 35/36/35 40/42/40 39/40/39
f 35/36/35 36/38/36 41/41/41
f 36/38/36 37/526/37 42/43/42
f 39/40/39 12/45/12 7/44/7
f 40/42/40 17/47/17 12/45/12
f 40/42/40 41/41/41 22/46/22
f 41/41/41 42/43/42 23/48/23
f 43/49/43 48/53/48 47/50/47
f 44/52/44 49/55/49 48/53/48
f 45/54/45 50/57/50 49/55/49
f 46/56/46 51/61/51 50/57/50
f 48/53/48 53/59/53 52/58/52
f 49/55/49 54/60/54 53/59/53
f 50/57/50 55/62/55 54/60/54
f 51/61/51 56/527/56 55/62/55
f 53/59/53 58/64/58 57/63/57
f 54/60/54 59/66/59 58/64/58
f 54/60/54 55/62/55 60/65/60
f 55/62/55 56/527/56 61/67/61
f 58/64/58 32/69/32 27/68/27
f 59/66/59 37/71/37 32/69/32
f 59/66/59 60/65/60 42/70/42
f 60/65/60 61/67/61 23/72/23
f 65/73/65 70/77/70 69/74/69
f 66/76/66 71/79/71 70/77/70
f 67/78/67 72/81/72 71/79/71
f 68/80/68 73/85/73 72/81/72
f 70/77/70 75/83/75 74/82/74
f 71/79/71 76/84/76 75/83/75
f 72/81/72 77/86/77 76/84/76
f 73/85/73 78/528/78 77/86/77
f 75/83/75 80/88/80 79/87/79
f 76/84/76 81/90/81 80/88/80
f 76/84/76 77/86/77 82/89/82
f 77/86/77 78/528/78 83/91/83
f 80/88/80 112/93/112 107/92/107
f 81/90/81 117/95/117 112/93/112
f 81/90/81 82/89/82 122/94/122
f 82/89/82 83/91/83 84/96/84
f 85/97/85 90/101/90 89/98/89
f 86/100/86 91/103/91 90/101/90
f 87/102/87 92/105/92 91/103/91
f 88/104/88 93/109/93 92/105/92
f 90/101/90 95/107/95 94/106/94
f 91/103/91 96/108/96 95/107/95
f 92/105/92 97/110/97 96/108/96
f 93/109/93 98/529/98 97/110/97
f 95/107/95 100/112/100 99/111/99
f 96/108/96 101/114/101 100/112/100
f 96/108/96 97/110/97 102/113/102
f 97/110/97 98/529/98 103/115/103
f 100/112/100 73/117/73 68/116/68
f 101/114/101 78/119/78 73/117/73
f 101/114/101 102/113/102 83/118/83
f 102/113/102 103/115/103 84/120/84
f 104/121/104 109/125/109 108/122/108
f 105/124/105 110/127/110 109/125/109
f 106/126/106 111/129/111 110/127/110
f 107/128/107 112/133/112 111/129/111
f 109/125/109 114/131/114 113/130/113
f 110/127/110 115/132/115 114/131/114
f 111/129/111 116/134/116 115/132/115
f 112/133/112 117/530/117 116/134/116
f 114/131/114 119/136/119 118/135/118
f 115/132/115 120/138/120 119/136/119
f 115/132/115 116/134/116 121/137/121
f 116/134/116 117/530/117 122/139/122
f 119/136/119 93/141/93 88/140/88
f 120/138/120 98/143/98 93/141/93
f 120/138/120 121/137/121 103/142/103
f 121/137/121 122/139/122 84/144/84
f 126/145/126 131/149/131 130/146/130
f 127/148/127 132/151/132 131/149/131
f 128/150/128 133/153/133 132/151/132
f 129/152/129 134/157/134 133/153/133
f 131/149/131 136/155/136 135/154/135
f 132/151/132 137/156/137 136/155/136
f 133/153/133 138/158/138 137/156/137
f 134/157/134 139/531/139 138/158/138
f 136/155/136 141/160/141 140/159/140
f 137/156/137 142/162/142 141/160/141
f 137/156/137 138/158/138 143/161/143
f 138/158/138 139/531/139 144/163/144
f 141/160/141 173/165/173 168/164/168
f 142/162/142 178/167/178 173/165/173
f 142/162/142 143/161/143 183/166/183
f 143/161/143 144/163/144 145/168/145
f 146/169/146 151/173/151 150/170/150
f 147/172/147 152/175/152 151/173/151
f 148/174/148 153/177/153 152/175/152
f 149/176/149 154/181/154 153/177/153
f 151/173/151 156/179/156 155/178/155
f 152/175/152 157/180/157 156/179/156
f 153/177/153 158/182/158 157/180/157
f 154/181/154 159/212/159 158/182/158
f 156/179/156 161/184/161 160/183/160
f 157/180/157 162/186/162 161/184/161
f 157/180/157 158/182/158 163/185/163
f 158/182/158 159/212/159 164/187/164
f 161/184/161 134/189/134 129/188/129
f 162/186/162 139/191/139 134/189/134
f 162/186/162 163/185/163 144/190/144
f 163/185/163 164/187/164 145/192/145
f 165/193/165 170/197/170 169/194/169
f 166/196/166 171/199/171 170/197/170
f 167/198/167 172/201/172 171/199/171
f 168/200/168 173/205/173 172/201/172
f 170/197/170 175/203/175 174/202/174
f 171/199/171 176/204/176 175/203/175
f 172/201/172 177/206/177 176/204/176
f 173/205/173 178/532/178 177/206/177
f 175/203/175 180/208/180 179/207/179
f 176/204/176 181/210/181 180/208/180
f 176/204/176 177/206/177 182/209/182
f 177/206/177 178/532/178 183/211/183
f 180/208/180 154/181/154 149/176/149
f 181/210/181 159/212/159 154/181/154
f 181/210/181 182/209/182 164/187/164
f 182/209/182 183/211/183 145/192/145
f 187/213/187 192/217/192 191/214/191
f 188/216/188 193/219/193 192/217/192
f 189/218/189 194/221/194 193/219/193
f 190/220/190 195/225/195 194/221/194
f 192/217/192 197/223/197 196/222/196
f 193/219/193 198/224/198 197/223/197
f 194/221/194 199/226/199 198/224/198
f 195/225/195 200/533/200 199/226/199
f 197/223/197 202/228/202 201/227/201
f 198/224/198 203/230/203 202/228/202
f 198/224/198 199/226/199 204/229/204
f 199/226/199 200/533/200 205/231/205
f 202/228/202 234/233/234 229/232/229
f 203/230/203 239/235/239 234/233/234
f 203/230/203 204/229/204 244/234/244
f 204/229/204 205/231/205 206/236/206
f 207/237/207 212/241/212 211/238/211
f 208/240/208 213/243/213 212/241/212
f 209/242/209 214/245/214 213/243/213
f 210/244/210 215/249/215 214/245/214
f 212/241/212 217/247/217 216/246/216
f 213/243/213 218/248/218 217/247/217
f 214/245/214 219/250/219 218/248/218
f 215/249/215 220/280/220 219/250/219
f 217/247/217 222/252/222 221/251/221
f 218/248/218 223/254/223 222/252/222
f 218/248/218 219/250/219 224/253/224
f 219/250/219 220/280/220 225/255/225
f 222/252/222 195/257/195 190/256/190
f 223/254/223 200/259/200 195/257/195
f 223/254/223 224/253/224 205/258/205
f 224/253/224 225/255/225 206/260/206
f 226/261/226 231/265/231 230/262/230
f 227/264/227 232/267/232 231/265/231
f 228/266/228 233/269/233 232/267/232
f 229/268/229 234/273/234 233/269/233
f 231/265/231 236/271/236 235/270/235
f 232/267/232 237/272/237 236/271/236
f 233/269/233 238/274/238 237/272/237
f 234/273/234 239/534/239 238/274/238
f 236/271/236 241/276/241 240/275/240
f 237/272/237 242/278/242 241/276/241
f 237/272/237 238/274/238 243/277/243
f 238/274/238 239/534/239 244/279/244
f 241/276/241 215/249/215 210/244/210
f 242/278/242 220/280/220 215/249/215
f 242/278/242 243/277/243 225/255/225
f 243/277/243 244/279/244 206/260/206
f 248/281/248 253/285/253 252/282/252
f 249/284/249 254/287/254 253/285/253
f 250/286/250 255/289/255 254/287/254
f 251/288/251 256/293/256 255/289/255
f 253/285/253 258/291/258 257/290/257
f 254/287/254 259/292/259 258/291/258
f 255/289/255 260/294/260 259/292/259
f 256/293/256 261/324/261 260/294/260
f 258/291/258 263/296/263 262/295/262
f 259/292/259 264/298/264 263/296/263
f 259/292/259 260/294/260 265/297/265
f 260/294/260 261/324/261 266/299/266
f 263/296/263 295/301/295 290/300/290
f 264/298/264 300/303/300 295/301/295
f 264/298/264 265/297/265 305/302/305
f 265/297/265 266/299/266 267/304/267
f 268/305/268 273/309/273 272/306/272
f 269/308/269 274/311/274 273/309/273
f 270/310/270 275/313/275 274/311/274
f 271/312/271 276/317/276 275/313/275
f 273/309/273 278/315/278 277/314/277
f 274/311/274 279/316/279 278/315/278
f 275/313/275 280/318/280 279/316/279
f 276/317/276 281/341/281 280/318/280
f 278/315/278 283/320/283 282/319/282
f 279/316/279 284/322/284 283/320/283
f 279/316/279 280/318/280 285/321/285
f 280/318/280 281/341/281 286/323/286
f 283/320/283 256/293/256 251/288/251
f 284/322/284 261/324/261 256/293/256
f 284/322/284 285/321/285 266/299/266
f 285/321/285 286/323/286 267/304/267
f 287/325/287 292/329/292 291/326/291
f 288/328/288 293/331/293 292/329/292
f 289/330/289 294/332/294 293/331/293
f 290/300/290 295/301/295 294/332/294
f 292/329/292 297/334/297 296/333/296
f 293/331/293 298/335/298 297/334/297
f 294/332/294 299/336/299 298/335/298
f 295/301/295 300/303/300 299/336/299
f 297/334/297 302/338/302 301/337/301
f 298/335/298 303/340/303 302/338/302
f 298/335/298 299/336/299 304/339/304
f 299/336/299 300/303/300 305/302/305
f 302/338/302 276/317/276 271/312/271
f 303/340/303 281/341/281 276/317/276
f 303/340/303 304/339/304 286/323/286
f 304/339/304 305/302/305 267/304/267
f 309/342/309 314/346/314 313/343/313
f 310/345/310 315/348/315 314/346/314
f 311/347/311 316/350/316 315/348/315
f 312/349/312 317/354/317 316/350/316
f 314/346/314 319/352/319 318/351/318
f 315/348/315 320/353/320 319/352/319
f 316/350/316 321/355/321 320/353/320
f 317/354/317 322/385/322 321/355/321
f 319/352/319 324/357/324 323/356/323
f 320/353/320 325/359/325 324/357/324
f 320/353/320 321/355/321 326/358/326
f 321/355/321 322/385/322 327/360/327
f 324/357/324 356/362/356 351/361/351
f 325/359/325 361/364/361 356/362/356
f 325/359/325 326/358/326 366/363/366
f 326/358/326 327/360/327 328/365/328
f 329/366/329 334/370/334 333/367/333
f 330/369/330 335/372/335 334/370/334
f 331/371/331 336/374/336 335/372/335
f 332/373/332 337/378/337 336/374/336
f 334/370/334 339/376/339 338/375/338
f 335/372/335 340/377/340 339/376/339
f 336/374/336 341/379/341 340/377/340
f 337/378/337 342/402/342 341/379/341
f 339/376/339 344/381/344 343/380/343
f 340/377/340 345/383/345 344/381/344
f 340/377/340 341/379/341 346/382/346
f 341/379/341 342/402/342 347/384/347
f 344/381/344 317/354/317 312/349/312
f 345/383/345 322/385/322 317/354/317
f 345/383/345 346/382/346 327/360/327
f 346/382/346 347/384/347 328/365/328
f 348/386/348 353/390/353 352/387/352
f 349/389/349 354/392/354 353/390/353
f 350/391/350 355/393/355 354/392/354
f 351/361/351 356/362/356 355/393/355
f 353/390/353 358/395/358 357/394/357
f 354/392/354 359/396/359 358/395/358
f 355/393/355 360/397/360 359/396/359
f 356/362/356 361/364/361 360/397/360
f 358/395/358 363/399/363 362/398/362
f 359/396/359 364/401/364 363/399/363
f 359/396/359 360/397/360 365/400/365
f 360/397/360 361/364/361 366/363/366
f 363/399/363 337/378/337 332/373/332
f 364/401/364 342/402/342 337/378/337
f 364/401/364 365/400/365 347/384/347
f 365/400/365 366/363/366 328/365/328
f 370/403/370 375/407/375 374/404/374
f 371/406/371 376/409/376 375/407/375
f 372/408/372 377/411/377 376/409/376
f 373/410/373 378/415/378 377/411/377
f 375/407/375 380/413/380 379/412/379
f 376/409/376 381/414/381 380/413/380
f 377/411/377 382/416/382 381/414/381
f 378/415/378 383/446/383 382/416/382
f 380/413/380 385/418/385 384/417/384
f 381/414/381 386/420/386 385/418/385
f 381/414/381 382/416/382 387/419/387
f 382/416/382 383/446/383 388/421/388
f 385/418/385 417/423/417 412/422/412
f 386/420/386 422/425/422 417/423/417
f 386/420/386 387/419/387 427/424/427
f 387/419/387 388/421/388 389/426/389
f 390/427/390 395/431/395 394/428/394
f 391/430/391 396/433/396 395/431/395
f 392/432/392 397/435/397 396/433/396
f 393/434/393 398/439/398 397/435/397
f 395/431/395 400/437/400 399/436/399
f 396/433/396 401/438/401 400/437/400
f 397/435/397 402/440/402 401/438/401
f 398/439/398 403/463/403 402/440/402
f 400/437/400 405/442/405 404/441/404
f 401/438/401 406/444/406 405/442/405
f 401/438/401 402/440/402 407/443/407
f 402/440/402 403/463/403 408/445/408
f 405/442/405 378/415/378 373/410/373
f 406/444/406 383/446/383 378/415/378
f 406/444/406 407/443/407 388/421/388
f 407/443/407 408/445/408 389/426/389
f 409/447/409 414/451/414 413/448/413
f 410/450/410 415/453/415 414/451/414
f 411/452/411 416/454/416 415/453/415
f 412/422/412 417/423/417 416/454/416
f 414/451/414 419/456/419 418/455/418
f 415/453/415 420/457/420 419/456/419
f 416/454/416 421/458/421 420/457/420
f 417/423/417 422/425/422 421/458/421
f 419/456/419 424/460/424 423/459/423
f 420/457/420 425/462/425 424/460/424
f 420/457/420 421/458/421 426/461/426
f 421/458/421 422/425/422 427/424/427
f 424/460/424 398/439/398 393/434/393
f 425/462/425 403/463/403 398/439/398
f 425/462/425 426/461/426 408/445/408
f 426/461/426 427/424/427 389/426/389
f 431/464/431 436/468/436 435/465/435
f 432/467/432 437/470/437 436/468/436
f 433/469/433 438/472/438 437/470/437
f 434/471/434 439/476/439 438/472/438
f 436/468/436 441/474/441 440/473/440
f 437/470/437 442/475/442 441/474/441
f 438/472/438 443/477/443 442/475/442
f 439/476/439 444/507/444 443/477/443
f 441/474/441 446/479/446 445/478/445
f 442/475/442 447/481/447 446/479/446
f 442/475/442 443/477/443 448/480/448
f 443/477/443 444/507/444 449/482/449
f 446/479/446 478/484/478 473/483/473
f 447/481/447 483/486/483 478/484/478
f 447/481/447 448/480/448 488/485/488
f 448/480/448 449/482/449 450/487/450
f 451/488/451 456/492/456 455/489/455
f 452/491/452 457/494/457 456/492/456
f 453/493/453 458/496/458 457/494/457
f 454/495/454 459/500/459 458/496/458
f 456/492/456 461/498/461 460/497/460
f 457/494/457 462/499/462 461/498/461
f 458/496/458 463/501/463 462/499/462
f 459/500/459 464/524/464 463/501/463
f 461/498/461 466/503/466 465/502/465
f 462/499/462 467/505/467 466/503/466
f 462/499/462 463/501/463 468/504/468
f 463/501/463 464/524/464 469/506/469
f 466/503/466 439/476/439 434/471/434
f 467/505/467 444/507/444 439/476/439
f 467/505/467 468/504/468 449/482/449
f 468/504/468 469/506/469 450/487/450
f 470/508/470 475/512/475 474/509/474
f 471/511/471 476/514/476 475/512/475
f 472/513/472 477/515/477 476/514/476
f 473/483/473 478/484/478 477/515/477
f 475/512/475 480/517/480 479/516/479
f 476/514/476 481/518/481 480/517/480
f 477/515/477 482/519/482 481/518/481
f 478/484/478 483/486/483 482/519/482
f 480/517/480 485/521/485 484/520/484
f 481/518/481 486/523/486 485/521/485
f 481/518/481 482/519/482 487/522/487
f 482/519/482 483/486/483 488/485/488
f 485/521/485 459/500/459 454/495/454
f 486/523/486 464/524/464 459/500/459
f 486/523/486 487/522/487 469/506/469
f 487/522/487 488/485/488 450/487/450
f 1/3/1 8/2/8 126/145/126
f 8/2/8 13/10/13 127/148/127
f 13/10/13 18/15/18 128/150/128
f 18/15/18 46/20/46 129/152/129
f 46/56/46 45/54/45 160/183/160
f 45/54/45 44/52/44 155/178/155
f 44/52/44 43/49/43 150/170/150
f 43/49/43 3/51/3 124/171/124
f 62/75/62 69/74/69 24/25/24
f 69/74/69 74/82/74 25/28/25
f 74/82/74 79/87/79 26/30/26
f 79/87/79 107/92/107 27/32/27
f 107/128/107 106/126/106 57/63/57
f 106/126/106 105/124/105 52/58/52
f 105/124/105 104/121/104 47/50/47
f 104/121/104 64/123/64 3/51/3
f 184/215/184 191/214/191 85/97/85
f 191/214/191 196/222/196 86/100/86
f 196/222/196 201/227/201 87/102/87
f 201/227/201 229/232/229 88/104/88
f 229/268/229 228/266/228 118/135/118
f 228/266/228 227/264/227 113/130/113
f 227/264/227 226/261/226 108/122/108
f 226/261/226 186/263/186 64/123/64
f 125/195/125 169/194/169 207/237/207
f 169/194/169 174/202/174 208/240/208
f 174/202/174 179/207/179 209/242/209
f 179/207/179 149/176/149 210/244/210
f 149/176/149 148/174/148 240/275/240
f 148/174/148 147/172/147 235/270/235
f 147/172/147 146/169/146 230/262/230
f 146/169/146 124/171/124 186/263/186
f 123/147/123 130/146/130 370/403/370
f 130/146/130 135/154/135 371/406/371
f 135/154/135 140/159/140 372/408/372
f 140/159/140 168/164/168 373/410/373
f 168/200/168 167/198/167 404/441/404
f 167/198/167 166/196/166 399/436/399
f 166/196/166 165/193/165 394/428/394
f 165/193/165 125/195/125 368/429/368
f 428/466/428 435/465/435 187/213/187
f 435/465/435 440/473/440 188/216/188
f 440/473/440 445/478/445 189/218/189
f 445/478/445 473/483/473 190/220/190
f 473/483/473 472/513/472 221/251/221
f 472/513/472 471/511/471 216/246/216
f 471/511/471 470/508/470 211/238/211
f 470/508/470 430/510/430 185/239/185
f 369/449/369 413/448/413 451/488/451
f 413/448/413 418/455/418 452/491/452
f 418/455/418 423/459/423 453/493/453
f 423/459/423 393/434/393 454/495/454
f 393/434/393 392/432/392 484/520/484
f 392/432/392 391/430/391 479/516/479
f 391/430/391 390/427/390 474/509/474
f 390/427/390 368/429/368 430/510/430
f 367/405/367 374/404/374 248/281/248
f 374/404/374 379/412/379 249/284/249
f 379/412/379 384/417/384 250/286/250
f 384/417/384 412/422/412 251/288/251
f 412/422/412 411/452/411 282/319/282
f 411/452/411 410/450/410 277/314/277
f 410/450/410 409/447/409 272/306/272
f 409/447/409 369/449/369 246/307/246
f 306/344/306 313/343/313 431/464/431
f 313/343/313 318/351/318 432/467/432
f 318/351/318 323/356/323 433/469/433
f 323/356/323 351/361/351 434/471/434
f 351/361/351 350/391/350 465/502/465
f 350/391/350 349/389/349 460/497/460
f 349/389/349 348/386/348 455/489/455
f 348/386/348 308/388/308 429/490/429
f 247/327/247 291/326/291 329/366/329
f 291/326/291 296/333/296 330/369/330
f 296/333/296 301/337/301 331/371/331
f 301/337/301 271/312/271 332/373/332
f 271/312/271 270/310/270 362/398/362
f 270/310/270 269/308/269 357/394/357
f 269/308/269 268/305/268 352/387/352
f 268/305/268 246/307/246 308/388/308
f 245/283/245 252/282/252 4/1/4
f 252/282/252 257/290/257 5/4/5
f 257/290/257 262/295/262 6/6/6
f 262/295/262 290/300/290 7/8/7
f 290/300/290 289/330/289 38/39/38
f 289/330/289 288/328/288 33/34/33
f 288/328/288 287/325/287 28/26/28
f 287/325/287 247/327/247 2/27/2
f 63/99/63 89/98/89 309/342/309
f 89/98/89 94/106/94 310/345/310
f 94/106/94 99/111/99 311/347/311
f 99/111/99 68/116/68 312/349/312
f 68/80/68 67/78/67 343/380/343
f 67/78/67 66/76/66 338/375/338
f 66/76/66 65/73/65 333/367/333
f 65/73/65 62/75/62 307/368/307
f 367/405/367 245/283/245 1/3/1
f 64/123/64 186/263/186 124/171/124
f 307/368/307 62/75/62 2/27/2
f 184/215/184 63/99/63 306/344/306
f 185/239/185 430/510/430 368/429/368
f 429/490/429 308/388/308 246/307/246
